<svg width="200" height="200" viewBox="0 0 200 200" fill="none" xmlns="http://www.w3.org/2000/svg">
<path d="M191.094 138.062C190.136 136.421 188.847 134.997 187.309 133.881C185.771 132.765 184.017 131.982 182.159 131.581C180.062 131.104 177.889 131.062 175.775 131.458C173.661 131.854 171.651 132.681 169.87 133.886L140.115 154.063C139.238 151.873 137.863 149.919 136.099 148.353C134.336 146.788 132.231 145.655 129.954 145.044L83.2665 132.534H83.2642L67.7857 128.386C62.625 127.011 57.1484 127.453 52.2753 129.639C47.4023 131.824 43.4297 135.62 41.0247 140.389C39.7202 139.587 38.2525 139.087 36.7294 138.927C35.2064 138.767 33.6668 138.95 32.2239 139.463L8.54699 147.891C8.18452 148.02 7.851 148.219 7.56549 148.477C7.27998 148.735 7.04806 149.046 6.88298 149.394C6.7179 149.741 6.62289 150.118 6.60338 150.502C6.58387 150.887 6.64023 151.271 6.76926 151.633L23.2228 197.858C23.3518 198.22 23.5509 198.554 23.8088 198.839C24.0667 199.125 24.3783 199.356 24.7259 199.522C25.0734 199.687 25.45 199.782 25.8343 199.801C26.2186 199.821 26.6029 199.764 26.9654 199.635L50.6423 191.208C51.9122 190.758 53.0802 190.061 54.079 189.157C55.0777 188.253 55.8872 187.159 56.4607 185.94C56.5439 185.765 56.6208 185.589 56.695 185.409L69.5212 185.402C74.506 186.668 79.1306 187.863 83.2236 188.921C102.794 193.981 114.345 196.915 123.411 196.915C136.129 196.915 143.954 191.137 162.146 177.344C168.667 172.401 176.782 166.248 187.038 158.957C193.555 154.325 195.297 145.342 191.094 138.062ZM51.1681 183.426C50.923 183.949 50.5766 184.418 50.149 184.806C49.7214 185.194 49.2211 185.494 48.6771 185.687L27.7603 193.133L13.272 152.429L34.1888 144.984C35.2881 144.594 36.4972 144.656 37.5508 145.157C38.6043 145.657 39.4164 146.555 39.8087 147.654L51.3466 180.068C51.5403 180.612 51.6243 181.189 51.5936 181.765C51.563 182.342 51.4184 182.906 51.1681 183.426ZM183.642 154.182C173.312 161.526 165.158 167.708 158.605 172.676C143.863 183.852 136.464 189.462 127.659 190.738C118.689 192.038 107.326 189.1 84.6904 183.248C80.4954 182.164 75.7407 180.935 70.6071 179.632L70.2521 179.542L57.2677 179.549C57.1699 179.058 57.0365 178.574 56.8685 178.102L45.329 145.688C45.3048 145.62 45.2771 145.554 45.2509 145.487C46.6223 141.251 49.5669 137.703 53.4775 135.574C57.3881 133.445 61.9664 132.898 66.2685 134.045L84.6529 138.972L128.438 150.703C130.785 151.383 132.772 152.956 133.973 155.084C135.173 157.213 135.491 159.727 134.859 162.087C134.226 164.448 132.694 166.466 130.59 167.709C128.486 168.952 125.979 169.32 123.606 168.735L76.9181 156.226C76.5465 156.126 76.1589 156.101 75.7774 156.151C75.396 156.201 75.0282 156.326 74.695 156.519C74.3618 156.711 74.0698 156.967 73.8356 157.272C73.6014 157.578 73.4296 157.926 73.33 158.298C73.2304 158.669 73.205 159.057 73.2553 159.438C73.3055 159.82 73.4304 160.188 73.6227 160.521C73.8151 160.854 74.0712 161.146 74.3764 161.38C74.6817 161.614 75.0301 161.786 75.4017 161.886L122.089 174.395C124.284 174.985 126.583 175.074 128.817 174.657C131.051 174.239 133.163 173.325 134.997 171.983C136.831 170.641 138.34 168.904 139.413 166.9C140.486 164.897 141.096 162.678 141.197 160.408L173.159 138.734C174.277 137.987 175.535 137.475 176.856 137.227C178.178 136.979 179.535 137.001 180.848 137.292C181.92 137.516 182.933 137.961 183.823 138.598C184.714 139.235 185.462 140.05 186.02 140.992C188.747 145.716 187.747 151.263 183.642 154.182ZM164.989 64.272C164.989 55.5254 162.396 46.9752 157.536 39.7026C152.677 32.4301 145.77 26.7618 137.69 23.4146C129.609 20.0673 120.717 19.1915 112.138 20.8979C103.56 22.6043 95.6798 26.8161 89.495 33.0009C83.3103 39.1857 79.0984 47.0656 77.392 55.6441C75.6857 64.2227 76.5615 73.1146 79.9087 81.1954C83.2559 89.2762 88.9242 96.1829 96.1968 101.042C103.469 105.902 112.02 108.495 120.766 108.495C132.491 108.482 143.731 103.818 152.022 95.5277C160.312 87.2372 164.976 75.9966 164.989 64.272ZM96.9032 94.2884C99.452 90.2663 102.976 86.9537 107.148 84.6583C111.32 82.363 116.004 81.1594 120.766 81.1594C125.528 81.1594 130.212 82.363 134.384 84.6583C138.556 86.9537 142.08 90.2663 144.629 94.2884C137.849 99.6929 129.436 102.636 120.766 102.636C112.096 102.636 103.683 99.6929 96.9032 94.2884ZM82.4021 64.272C82.3972 58.028 83.9164 51.8772 86.8279 46.3536C89.7393 40.8299 93.955 36.1004 99.1089 32.5755C104.263 29.0507 110.199 26.8371 116.403 26.1269C122.606 25.4167 128.889 26.2314 134.706 28.5003C140.524 30.7691 145.699 34.4236 149.783 39.1463C153.868 43.8691 156.738 49.5174 158.144 55.6009C159.551 61.6845 159.451 68.0193 157.854 74.0556C156.257 80.0918 153.21 85.647 148.979 90.2388C145.851 85.6365 141.646 81.8691 136.728 79.2653C131.81 76.6615 126.33 75.3002 120.766 75.3002C115.202 75.3002 109.722 76.6615 104.804 79.2653C99.8863 81.8691 95.6804 85.6365 92.5528 90.2388C86.0199 83.1704 82.3949 73.8971 82.4021 64.272ZM120.766 70.379C123.749 70.379 126.665 69.4945 129.146 67.8372C131.626 66.1799 133.559 63.8243 134.701 61.0683C135.842 58.3123 136.141 55.2798 135.559 52.354C134.977 49.4283 133.54 46.7409 131.431 44.6316C129.322 42.5223 126.634 41.0859 123.708 40.504C120.783 39.922 117.75 40.2208 114.994 41.3624C112.238 42.504 109.883 44.4372 108.225 46.9176C106.568 49.3979 105.684 52.314 105.684 55.297C105.688 59.2957 107.279 63.1294 110.106 65.9568C112.934 68.7843 116.767 70.3747 120.766 70.379ZM120.766 46.074C122.59 46.074 124.373 46.6149 125.89 47.6283C127.407 48.6418 128.589 50.0822 129.287 51.7675C129.985 53.4528 130.168 55.3072 129.812 57.0963C129.456 58.8854 128.578 60.5288 127.288 61.8187C125.998 63.1085 124.355 63.987 122.565 64.3428C120.776 64.6987 118.922 64.5161 117.237 63.818C115.551 63.1199 114.111 61.9378 113.097 60.4211C112.084 58.9043 111.543 57.1212 111.543 55.297C111.546 52.8518 112.518 50.5075 114.248 48.7784C115.977 47.0494 118.321 46.0768 120.766 46.074ZM176.246 46.6349C176.01 45.8946 176.078 45.0909 176.434 44.4004C176.791 43.71 177.407 43.1894 178.147 42.9533C178.887 42.7171 179.691 42.7847 180.381 43.1412C181.072 43.4976 181.592 44.1138 181.829 44.854C186.107 58.2773 185.842 72.7366 181.073 85.9937C176.305 99.2508 167.299 110.566 155.45 118.189C143.602 125.811 129.571 129.315 115.53 128.158C101.489 127.002 88.2206 121.249 77.779 111.79L76.8653 119.422C76.7804 120.133 76.4378 120.789 75.9025 121.264C75.3671 121.74 74.6761 122.003 73.9599 122.004C73.8424 122.004 73.725 121.997 73.6083 121.983C73.2263 121.937 72.857 121.816 72.5216 121.628C72.1861 121.44 71.8911 121.187 71.6533 120.884C71.4155 120.582 71.2396 120.236 71.1356 119.865C71.0317 119.495 71.0017 119.108 71.0474 118.726L72.6759 105.125C72.7216 104.743 72.8421 104.373 73.0305 104.038C73.219 103.702 73.4717 103.407 73.7742 103.17C74.0766 102.932 74.423 102.756 74.7935 102.652C75.164 102.548 75.5513 102.518 75.9333 102.564L89.5341 104.192C89.9161 104.238 90.2854 104.359 90.6208 104.547C90.9562 104.736 91.2512 104.988 91.489 105.291C91.7268 105.593 91.9026 105.94 92.0066 106.31C92.1105 106.68 92.1404 107.068 92.0946 107.45C92.0489 107.832 91.9283 108.201 91.7399 108.536C91.5514 108.872 91.2987 109.167 90.9962 109.405C90.6938 109.642 90.3474 109.818 89.977 109.922C89.6065 110.026 89.2192 110.056 88.8372 110.01L84.0193 109.433C93.1632 116.893 104.362 121.391 116.126 122.329C127.89 123.267 139.66 120.599 149.87 114.682C173.399 101.098 184.492 72.4802 176.246 46.6349ZM59.7029 83.69C55.4335 70.2552 55.7134 55.7875 60.4992 42.5279C65.285 29.2683 74.3096 17.9569 86.1751 10.3457C98.0406 2.73445 112.085 -0.751711 126.132 0.427171C140.18 1.60605 153.446 7.38418 163.877 16.8665L164.667 10.2783C164.711 9.89549 164.831 9.52535 165.02 9.18904C165.208 8.85272 165.461 8.55685 165.763 8.31836C166.066 8.07987 166.413 7.90345 166.784 7.79921C167.155 7.69497 167.543 7.66496 167.925 7.7109C168.308 7.75684 168.678 7.87783 169.014 8.06692C169.35 8.25602 169.645 8.50952 169.882 8.81289C170.12 9.11626 170.296 9.46354 170.399 9.83485C170.502 10.2062 170.531 10.5942 170.484 10.9767L168.856 24.5779C168.771 25.2895 168.428 25.9451 167.892 26.4208C167.355 26.8965 166.664 27.1591 165.947 27.1591C165.831 27.159 165.714 27.1521 165.599 27.1384L151.998 25.5079C151.226 25.4154 150.523 25.0202 150.043 24.4093C149.563 23.7983 149.345 23.0216 149.438 22.2501C149.53 21.4786 149.925 20.7755 150.536 20.2953C151.147 19.8152 151.924 19.5975 152.695 19.69L159.102 20.4576C149.956 12.4541 138.535 7.51441 126.44 6.33159C114.345 5.14877 102.183 7.78214 91.6603 13.8622C68.1325 27.4458 57.0396 56.0638 65.2837 81.9091C65.4006 82.2757 65.4442 82.6617 65.412 83.045C65.3798 83.4284 65.2723 83.8017 65.0958 84.1436C64.9193 84.4855 64.6772 84.7892 64.3833 85.0375C64.0894 85.2858 63.7495 85.4738 63.3829 85.5908C63.0164 85.7077 62.6304 85.7513 62.247 85.719C61.8636 85.6868 61.4903 85.5794 61.1484 85.4029C60.8066 85.2264 60.5028 84.9842 60.2545 84.6903C60.0062 84.3964 59.8182 84.0565 59.7013 83.69H59.7029Z" fill="white"/>
</svg>
