<svg width="200" height="200" viewBox="0 0 200 200" fill="none" xmlns="http://www.w3.org/2000/svg">
<path d="M105.023 134.002V129.069C97.4951 127.574 91.8024 120.92 91.8024 112.96C91.8024 111.12 93.2945 109.628 95.1349 109.628C96.9753 109.628 98.4674 111.12 98.4674 112.96C98.4674 118.342 102.846 122.721 108.228 122.721C113.61 122.721 117.989 118.342 117.989 112.96C117.989 107.578 113.61 103.2 108.228 103.2C99.171 103.2 91.8024 95.8311 91.8024 86.7742C91.8024 78.8137 97.4956 72.1599 105.023 70.6649V65.6861C105.023 63.8457 106.515 62.3536 108.356 62.3536C110.196 62.3536 111.688 63.8457 111.688 65.6861V70.7186C119.089 72.3124 124.653 78.9041 124.653 86.7742C124.653 88.6145 123.161 90.1067 121.321 90.1067C119.48 90.1067 117.988 88.6145 117.988 86.7742C117.988 81.3922 113.61 77.0137 108.228 77.0137C102.846 77.0137 98.467 81.3922 98.467 86.7742C98.467 92.1562 102.846 96.5346 108.228 96.5346C117.285 96.5346 124.653 103.903 124.653 112.96C124.653 120.83 119.089 127.422 111.688 129.016V134.002C111.688 135.843 110.196 137.335 108.356 137.335C106.515 137.335 105.023 135.843 105.023 134.002ZM172.998 35.0979C137.574 -0.326559 82.1107 -0.546501 46.2913 32.3815C29.3634 47.9426 18.9023 68.9586 16.8353 91.5571C16.6679 93.39 18.0175 95.0117 19.8504 95.1796C21.6849 95.3437 23.305 93.9974 23.4728 92.1645C27.4435 48.7603 64.6725 14.7609 108.229 14.7609C155.157 14.7609 193.335 52.9397 193.335 99.8676C193.335 161.227 130.058 202.244 74.5538 177.945C97.3481 153.148 83.8015 114.141 52.3464 107.081C47.9917 73.3596 74.3993 43.4071 108.371 43.4071C139.518 43.4071 164.859 68.7474 164.859 99.8946C164.859 131.042 139.519 156.382 108.371 156.382C106.531 156.382 105.039 157.874 105.039 159.715C105.039 161.555 106.531 163.047 108.371 163.047C143.065 163.047 171.524 134.581 171.524 99.8946C171.524 65.2004 143.058 36.7421 108.371 36.7421C71.4496 36.7421 41.8228 68.914 45.5315 106.125C33.2308 105.396 21.445 109.909 12.6789 118.675C-14.8097 146.163 5.64437 191.905 42.9796 191.905C44.82 191.905 46.3121 190.413 46.3121 188.572C46.3121 186.732 44.82 185.24 42.9796 185.24C22.9834 185.24 6.71535 168.972 6.71535 148.976C6.71535 126.748 26.6204 109.698 48.624 113.151C48.7632 113.185 48.9056 113.207 49.0498 113.222C66.1663 116.119 79.2439 131.048 79.2439 148.976C79.2435 165.974 67.9584 174.806 66.2805 176.715C64.8554 178.337 65.3228 180.856 67.2306 181.86C126.382 212.768 200 168.276 200 99.8676C200 75.5124 190.41 52.5102 172.998 35.0979ZM46.7291 135.252H39.8762L42.4772 132.514C43.7448 131.179 43.6911 129.07 42.3564 127.803C41.0218 126.535 38.9127 126.589 37.6451 127.923L29.7258 136.26C28.5037 137.546 28.5037 139.564 29.7258 140.85L37.6451 149.186C38.9131 150.522 41.023 150.574 42.3564 149.307C43.6911 148.04 43.7448 145.931 42.4777 144.596L39.9329 141.917H46.7295C52.0124 141.917 56.3104 146.215 56.3104 151.498C56.3104 156.781 52.0124 161.079 46.7295 161.079H30.4586C28.6182 161.079 27.1261 162.571 27.1261 164.411C27.1261 166.252 28.6182 167.744 30.4586 167.744H46.7291C55.6873 167.744 62.975 160.456 62.975 151.498C62.975 142.54 55.6873 135.252 46.7291 135.252Z" fill="white"/>
</svg>
