<svg width="200" height="200" viewBox="0 0 200 200" fill="none" xmlns="http://www.w3.org/2000/svg">
<path d="M170 0H30C24.6973 0.00529477 19.6133 2.11413 15.8637 5.86371C12.1141 9.61329 10.0053 14.6973 10 20V160C10.0053 165.303 12.1141 170.387 15.8637 174.136C19.6133 177.886 24.6973 179.995 30 180H43.3333V190C43.3333 192.652 44.3869 195.196 46.2623 197.071C48.1376 198.946 50.6812 200 53.3333 200H73.3333C75.9855 200 78.529 198.946 80.4044 197.071C82.2798 195.196 83.3333 192.652 83.3333 190V180H114.167L128.937 196.503C129.902 197.6 131.091 198.479 132.422 199.081C133.754 199.682 135.199 199.994 136.66 199.994C138.121 199.994 139.566 199.682 140.898 199.081C142.229 198.479 143.418 197.6 144.383 196.503L159.167 180H170C175.303 179.995 180.387 177.886 184.136 174.136C187.886 170.387 189.995 165.303 190 160V20C189.995 14.6973 187.886 9.61329 184.136 5.86371C180.387 2.11413 175.303 0.00529477 170 0ZM30 6.66667H170C173.536 6.66667 176.928 8.07142 179.428 10.5719C181.929 13.0724 183.333 16.4638 183.333 20V26.6667H16.6667V20C16.6667 16.4638 18.0714 13.0724 20.5719 10.5719C23.0724 8.07142 26.4638 6.66667 30 6.66667ZM76.6667 156.667V190C76.6667 190.884 76.3155 191.732 75.6904 192.357C75.0652 192.982 74.2174 193.333 73.3333 193.333H53.3333C52.4493 193.333 51.6014 192.982 50.9763 192.357C50.3512 191.732 50 190.884 50 190V156.667C50 155.783 49.6488 154.935 49.0237 154.31C48.3986 153.685 47.5507 153.333 46.6667 153.333H40.4333C39.6967 153.304 38.9835 153.067 38.3767 152.648C37.7699 152.23 37.2946 151.647 37.006 150.969C36.7175 150.29 36.6277 149.544 36.747 148.817C36.8663 148.089 37.1899 147.411 37.68 146.86L60.6 121.247C60.944 120.859 61.3664 120.548 61.8393 120.335C62.3122 120.123 62.8248 120.013 63.3433 120.013C63.8618 120.013 64.3745 120.123 64.8473 120.335C65.3202 120.548 65.7426 120.859 66.0867 121.247L89 146.87C89.4875 147.422 89.8085 148.1 89.9258 148.827C90.043 149.554 89.9516 150.299 89.6622 150.976C89.3728 151.652 88.8973 152.233 88.2909 152.651C87.6846 153.068 86.9722 153.305 86.2367 153.333H80C79.1159 153.333 78.2681 153.685 77.643 154.31C77.0179 154.935 76.6667 155.783 76.6667 156.667ZM139.4 192.08C139.054 192.464 138.631 192.771 138.158 192.982C137.685 193.192 137.174 193.301 136.657 193.301C136.139 193.301 135.628 193.192 135.155 192.982C134.683 192.771 134.26 192.464 133.913 192.08L111 166.463C110.518 165.91 110.202 165.232 110.087 164.507C109.973 163.782 110.065 163.04 110.354 162.365C110.642 161.69 111.115 161.11 111.718 160.692C112.321 160.274 113.03 160.034 113.763 160H120C120.884 160 121.732 159.649 122.357 159.024C122.982 158.399 123.333 157.551 123.333 156.667V123.333C123.333 122.449 123.685 121.601 124.31 120.976C124.935 120.351 125.783 120 126.667 120H146.667C147.551 120 148.399 120.351 149.024 120.976C149.649 121.601 150 122.449 150 123.333V156.667C150 157.551 150.351 158.399 150.976 159.024C151.601 159.649 152.449 160 153.333 160H159.567C160.303 160.03 161.015 160.269 161.621 160.687C162.227 161.106 162.702 161.688 162.99 162.366C163.278 163.044 163.368 163.79 163.25 164.517C163.131 165.244 162.809 165.922 162.32 166.473L139.4 192.08ZM170 173.333H165.133L167.29 170.923C168.668 169.406 169.571 167.517 169.887 165.491C170.203 163.466 169.918 161.392 169.067 159.527C168.264 157.678 166.936 156.106 165.248 155.005C163.559 153.904 161.585 153.323 159.57 153.333H156.667V123.333C156.667 120.681 155.613 118.138 153.738 116.262C151.862 114.387 149.319 113.333 146.667 113.333H126.667C124.014 113.333 121.471 114.387 119.596 116.262C117.72 118.138 116.667 120.681 116.667 123.333V153.333H113.767C111.751 153.323 109.777 153.905 108.088 155.007C106.4 156.108 105.073 157.681 104.27 159.53C103.419 161.394 103.134 163.466 103.449 165.491C103.764 167.515 104.666 169.403 106.043 170.92L108.207 173.337H83.3333V160H86.2333C88.2491 160.01 90.2234 159.428 91.9115 158.327C93.5997 157.225 94.9274 155.652 95.73 153.803C96.5814 151.939 96.8668 149.866 96.551 147.842C96.2352 145.817 95.332 143.929 93.9533 142.413L71.06 116.827C70.0943 115.73 68.9061 114.851 67.5744 114.249C66.2427 113.648 64.798 113.336 63.3367 113.336C61.8753 113.336 60.4307 113.648 59.0989 114.249C57.7672 114.851 56.579 115.73 55.6133 116.827L32.71 142.41C31.3316 143.928 30.4285 145.816 30.1127 147.842C29.797 149.868 30.0823 151.941 30.9333 153.807C31.7365 155.655 33.0644 157.227 34.7525 158.328C36.4406 159.429 38.4147 160.01 40.43 160H43.3333V173.333H30C26.4638 173.333 23.0724 171.929 20.5719 169.428C18.0714 166.928 16.6667 163.536 16.6667 160V33.3333H183.333V160C183.333 163.536 181.929 166.928 179.428 169.428C176.928 171.929 173.536 173.333 170 173.333Z" fill="white"/>
<path d="M140 60.0002C140.884 60.0002 141.732 59.649 142.357 59.0239C142.982 58.3987 143.334 57.5509 143.334 56.6668C143.334 55.7828 142.982 54.9349 142.357 54.3098C141.732 53.6847 140.884 53.3335 140 53.3335H120C119.116 53.3335 118.268 53.6847 117.643 54.3098C117.018 54.9349 116.667 55.7828 116.667 56.6668C116.667 57.5509 117.018 58.3987 117.643 59.0239C118.268 59.649 119.116 60.0002 120 60.0002H126.667V86.6668H120C119.116 86.6668 118.268 87.018 117.643 87.6431C117.018 88.2683 116.667 89.1161 116.667 90.0002C116.667 90.8842 117.018 91.7321 117.643 92.3572C118.268 92.9823 119.116 93.3335 120 93.3335H140C140.884 93.3335 141.732 92.9823 142.357 92.3572C142.982 91.7321 143.334 90.8842 143.334 90.0002C143.334 89.1161 142.982 88.2683 142.357 87.6431C141.732 87.018 140.884 86.6668 140 86.6668H133.334V60.0002H140Z" fill="white"/>
<path d="M71.6667 53.3335C68.5725 53.3335 65.605 54.5627 63.4171 56.7506C61.2292 58.9385 60 61.906 60 65.0002V90.0002C60 90.8842 60.3512 91.7321 60.9763 92.3572C61.6014 92.9823 62.4493 93.3335 63.3333 93.3335C64.2174 93.3335 65.0652 92.9823 65.6904 92.3572C66.3155 91.7321 66.6667 90.8842 66.6667 90.0002V76.6668H76.6667V90.0002C76.6667 90.8842 77.0179 91.7321 77.643 92.3572C78.2681 92.9823 79.1159 93.3335 80 93.3335C80.8841 93.3335 81.7319 92.9823 82.357 92.3572C82.9821 91.7321 83.3333 90.8842 83.3333 90.0002V65.0002C83.3333 61.906 82.1042 58.9385 79.9162 56.7506C77.7283 54.5627 74.7609 53.3335 71.6667 53.3335ZM66.6667 70.0002V65.0002C66.6667 63.6741 67.1935 62.4023 68.1311 61.4646C69.0688 60.5269 70.3406 60.0002 71.6667 60.0002C72.9928 60.0002 74.2645 60.5269 75.2022 61.4646C76.1399 62.4023 76.6667 63.6741 76.6667 65.0002V70.0002H66.6667Z" fill="white"/>
<path d="M101.667 53.3335H93.3333C92.4493 53.3335 91.6014 53.6847 90.9763 54.3098C90.3512 54.9349 90 55.7828 90 56.6668V90.0002C90 90.8842 90.3512 91.7321 90.9763 92.3572C91.6014 92.9823 92.4493 93.3335 93.3333 93.3335C94.2174 93.3335 95.0652 92.9823 95.6904 92.3572C96.3155 91.7321 96.6667 90.8842 96.6667 90.0002V76.6668H101.667C104.761 76.6668 107.728 75.4377 109.916 73.2497C112.104 71.0618 113.333 68.0944 113.333 65.0002C113.333 61.906 112.104 58.9385 109.916 56.7506C107.728 54.5627 104.761 53.3335 101.667 53.3335ZM101.667 70.0002H96.6667V60.0002H101.667C102.993 60.0002 104.265 60.5269 105.202 61.4646C106.14 62.4023 106.667 63.6741 106.667 65.0002C106.667 66.3262 106.14 67.598 105.202 68.5357C104.265 69.4734 102.993 70.0002 101.667 70.0002Z" fill="white"/>
<path d="M30.0003 20.0002H33.3337C34.2177 20.0002 35.0656 19.649 35.6907 19.0239C36.3158 18.3987 36.667 17.5509 36.667 16.6668C36.667 15.7828 36.3158 14.9349 35.6907 14.3098C35.0656 13.6847 34.2177 13.3335 33.3337 13.3335H30.0003C29.1163 13.3335 28.2684 13.6847 27.6433 14.3098C27.0182 14.9349 26.667 15.7828 26.667 16.6668C26.667 17.5509 27.0182 18.3987 27.6433 19.0239C28.2684 19.649 29.1163 20.0002 30.0003 20.0002Z" fill="white"/>
<path d="M46.6663 20.0002H49.9997C50.8837 20.0002 51.7316 19.649 52.3567 19.0239C52.9818 18.3987 53.333 17.5509 53.333 16.6668C53.333 15.7828 52.9818 14.9349 52.3567 14.3098C51.7316 13.6847 50.8837 13.3335 49.9997 13.3335H46.6663C45.7823 13.3335 44.9344 13.6847 44.3093 14.3098C43.6842 14.9349 43.333 15.7828 43.333 16.6668C43.333 17.5509 43.6842 18.3987 44.3093 19.0239C44.9344 19.649 45.7823 20.0002 46.6663 20.0002Z" fill="white"/>
<path d="M63.3333 20.0002H66.6667C67.5507 20.0002 68.3986 19.649 69.0237 19.0239C69.6488 18.3987 70 17.5509 70 16.6668C70 15.7828 69.6488 14.9349 69.0237 14.3098C68.3986 13.6847 67.5507 13.3335 66.6667 13.3335H63.3333C62.4493 13.3335 61.6014 13.6847 60.9763 14.3098C60.3512 14.9349 60 15.7828 60 16.6668C60 17.5509 60.3512 18.3987 60.9763 19.0239C61.6014 19.649 62.4493 20.0002 63.3333 20.0002Z" fill="white"/>
<path d="M100 20.0002H153.334C154.218 20.0002 155.066 19.649 155.691 19.0239C156.316 18.3987 156.667 17.5509 156.667 16.6668C156.667 15.7828 156.316 14.9349 155.691 14.3098C155.066 13.6847 154.218 13.3335 153.334 13.3335H100C99.1163 13.3335 98.2684 13.6847 97.6433 14.3098C97.0182 14.9349 96.667 15.7828 96.667 16.6668C96.667 17.5509 97.0182 18.3987 97.6433 19.0239C98.2684 19.649 99.1163 20.0002 100 20.0002Z" fill="white"/>
</svg>
