<svg width="1173" height="582" viewBox="0 0 1173 582" fill="none" xmlns="http://www.w3.org/2000/svg">
<g clip-path="url(#clip0_341_422)">
<path d="M21.0599 207.695L9.16617 217.002C-6.77671 229.474 -1.39378 262.936 21.1882 291.739C43.7703 320.542 74.9996 333.78 90.9395 321.305L102.833 311.998L21.0599 207.695Z" fill="#FFC803"/>
<path d="M102.834 311.999C118.776 299.524 113.394 266.063 90.8124 237.26C68.2312 208.458 37.0019 195.222 21.0599 207.696C5.11788 220.171 10.5001 253.633 33.0813 282.435C55.6626 311.238 86.8918 324.474 102.834 311.999Z" fill="#FFC803"/>
<path d="M88.0211 317.427C82.6054 317.427 76.5779 316.07 70.1685 313.354C56.8843 307.723 43.5135 296.899 32.5179 282.873C21.5223 268.848 14.2058 253.287 11.9172 239.052C9.60469 224.666 12.693 213.329 20.6182 207.129C20.9285 206.884 21.3791 206.941 21.6238 207.251C21.8684 207.561 21.8117 208.011 21.5014 208.255C5.89572 220.466 11.3443 253.543 33.6458 281.991C44.4922 295.829 57.6631 306.498 70.7265 312.037C83.6497 317.516 94.896 317.301 102.391 311.438C102.702 311.193 103.152 311.25 103.397 311.56C103.642 311.87 103.585 312.32 103.275 312.564C99.1331 315.805 93.9471 317.429 88.0211 317.429V317.427Z" fill="#1E211D"/>
<path d="M85.1751 305.201C80.8067 305.201 75.7728 303.875 70.3213 301.231C60.2059 296.327 49.7952 287.449 41.0017 276.235C32.2112 265.02 26.0793 252.795 23.7339 241.81C21.3528 230.646 23.164 222.055 28.8364 217.619C29.1467 217.374 29.5973 217.431 29.842 217.741C30.0866 218.051 30.0299 218.501 29.7196 218.746C18.7926 227.295 24.3606 252.691 42.1296 275.355C50.7888 286.4 61.0235 295.134 70.9449 299.946C80.7052 304.68 88.9526 305.037 94.1685 300.953C94.4818 300.709 94.9294 300.766 95.174 301.076C95.4187 301.386 95.362 301.836 95.0517 302.08C92.3901 304.164 89.0392 305.201 85.1751 305.201Z" fill="#1E211D"/>
<path d="M39.5454 308.007C39.3335 308.007 39.1217 307.911 38.9814 307.732C38.7368 307.422 38.7935 306.972 39.1038 306.728L49.0103 298.977C49.3206 298.733 49.7712 298.789 50.0158 299.099C50.2605 299.409 50.2038 299.859 49.8935 300.104L39.987 307.855C39.8557 307.956 39.7006 308.007 39.5454 308.007Z" fill="#1E211D"/>
<path d="M49.0044 310.993C48.7925 310.993 48.5807 310.898 48.4404 310.719C48.1958 310.409 48.2524 309.959 48.5628 309.715L55.733 304.104C56.0434 303.86 56.4939 303.917 56.7386 304.227C56.9833 304.537 56.9266 304.987 56.6163 305.231L49.446 310.841C49.3147 310.943 49.1595 310.993 49.0044 310.993Z" fill="#1E211D"/>
<path d="M56.9917 315.128C56.7798 315.128 56.568 315.033 56.4277 314.854C56.1831 314.544 56.2398 314.094 56.5501 313.849L63.0907 308.731C63.4011 308.486 63.8516 308.543 64.0963 308.853C64.341 309.163 64.2843 309.613 63.974 309.858L57.4333 314.976C57.302 315.078 57.1469 315.128 56.9917 315.128Z" fill="#1E211D"/>
<path d="M68.0835 316.836C67.8716 316.836 67.6598 316.741 67.5195 316.562C67.2749 316.252 67.3315 315.802 67.6419 315.557L71.327 312.675C71.6373 312.43 72.0879 312.487 72.3325 312.797C72.5772 313.107 72.5205 313.557 72.2102 313.802L68.5251 316.684C68.3938 316.786 68.2386 316.836 68.0835 316.836Z" fill="#1E211D"/>
<path d="M23.6148 230.342C23.2686 230.342 22.9643 230.092 22.9076 229.74C22.8449 229.349 23.1105 228.983 23.5014 228.92L56.1958 223.712C56.5867 223.653 56.9537 223.915 57.0163 224.305C57.079 224.696 56.8134 225.063 56.4226 225.125L23.7282 230.333C23.6894 230.339 23.6536 230.342 23.6148 230.342Z" fill="#1E211D"/>
<path d="M24.5425 242.88C24.1964 242.88 23.892 242.63 23.8353 242.278C23.7727 241.887 24.0382 241.521 24.4291 241.458L54.62 236.647C55.0109 236.587 55.3779 236.849 55.4406 237.24C55.5033 237.63 55.2377 237.997 54.8468 238.06L24.6559 242.871C24.6171 242.877 24.5813 242.88 24.5425 242.88Z" fill="#1E211D"/>
<path d="M31.6499 261.365C31.3038 261.365 30.9994 261.115 30.9428 260.763C30.8801 260.373 31.1457 260.006 31.5365 259.943L68.292 254.089C68.6829 254.029 69.0499 254.291 69.1126 254.682C69.1752 255.072 68.9097 255.439 68.5188 255.502L31.7633 261.356C31.7245 261.362 31.6887 261.365 31.6499 261.365Z" fill="#1E211D"/>
<path d="M37.3257 270.714C36.9796 270.714 36.6752 270.463 36.6185 270.112C36.5559 269.721 36.8214 269.355 37.2123 269.292L51.8363 266.964C52.2272 266.901 52.5942 267.166 52.6569 267.557C52.7196 267.947 52.454 268.314 52.0631 268.377L37.4391 270.705C37.4003 270.711 37.3615 270.714 37.3257 270.714Z" fill="#1E211D"/>
<path d="M58.3413 293.483C57.9952 293.483 57.6909 293.233 57.6342 292.881C57.5715 292.49 57.8371 292.124 58.228 292.061L89.4602 287.086C89.8511 287.026 90.2181 287.288 90.2808 287.679C90.3435 288.069 90.0779 288.436 89.687 288.499L58.4547 293.474C58.4159 293.48 58.3801 293.483 58.3413 293.483Z" fill="#1E211D"/>
<path d="M10.8491 268.246C10.6373 268.246 10.4254 268.15 10.2852 267.971C10.0405 267.661 10.0972 267.211 10.4075 266.967L19.1503 260.128C19.4606 259.884 19.9112 259.94 20.1558 260.25C20.4005 260.561 20.3438 261.011 20.0335 261.255L11.2907 268.094C11.1594 268.195 11.0043 268.246 10.8491 268.246Z" fill="#1E211D"/>
<path d="M9.53368 258.459C9.32183 258.459 9.10997 258.364 8.96973 258.185C8.72505 257.875 8.78174 257.425 9.09207 257.18L15.764 251.96C16.0744 251.716 16.5249 251.772 16.7696 252.083C17.0143 252.393 16.9576 252.843 16.6473 253.087L9.9753 258.307C9.84401 258.408 9.68884 258.459 9.53368 258.459Z" fill="#1E211D"/>
</g>
<g clip-path="url(#clip1_341_422)">
<path d="M1092.89 363.375L1106.41 376.252C1113.88 383.363 1094.34 416.074 1062.78 449.315C1031.22 482.556 999.579 503.737 992.111 496.622L978.591 483.745L1092.89 363.375Z" fill="#FFC803"/>
<path d="M1049.26 436.438C1080.82 403.198 1100.36 370.486 1092.89 363.374C1085.42 356.262 1053.78 377.443 1022.22 410.683C990.654 443.923 971.121 476.635 978.589 483.747C986.057 490.859 1017.7 469.678 1049.26 436.438Z" fill="#FFC803"/>
<path d="M982.718 485.934C980.83 485.934 979.226 485.447 978.045 484.324C977.727 484.023 977.714 483.519 978.015 483.201C978.316 482.883 978.819 482.87 979.136 483.172C982.404 486.285 991.631 483.145 1004.45 474.563C1017.75 465.66 1033.46 451.925 1048.68 435.891C1063.91 419.857 1076.82 403.451 1085.03 389.699C1092.94 376.448 1095.61 367.061 1092.34 363.951C1092.02 363.649 1092.01 363.146 1092.31 362.828C1092.61 362.51 1093.11 362.497 1093.43 362.798C1098.44 367.568 1092.37 380.505 1086.39 390.514C1078.12 404.362 1065.13 420.867 1049.83 436.984C1034.53 453.101 1018.72 466.915 1005.33 475.881C997.928 480.833 988.83 485.931 982.711 485.931L982.718 485.934Z" fill="#1E211D"/>
<path d="M993.063 469.075C991.981 469.075 991.108 468.79 990.477 468.187C990.159 467.886 990.146 467.383 990.447 467.065C990.748 466.747 991.25 466.733 991.568 467.035C995.213 470.506 1016.79 455.923 1041.92 429.452C1067.06 402.981 1080.51 380.667 1076.87 377.199C1076.55 376.898 1076.54 376.395 1076.84 376.077C1077.14 375.759 1077.65 375.745 1077.96 376.047C1083.71 381.522 1064.28 408.214 1043.07 430.548C1024.2 450.424 1001.81 469.075 993.06 469.075H993.063Z" fill="#1E211D"/>
<path d="M1045.01 399.172C1044.69 399.172 1044.38 398.977 1044.27 398.659C1044.11 398.248 1044.32 397.788 1044.73 397.632L1075.5 385.904C1075.91 385.748 1076.37 385.954 1076.52 386.364C1076.68 386.775 1076.48 387.235 1076.06 387.391L1045.29 399.119C1045.2 399.156 1045.1 399.172 1045.01 399.172H1045.01Z" fill="#1E211D"/>
<path d="M1029.58 414.789C1029.26 414.789 1028.96 414.594 1028.84 414.276C1028.69 413.865 1028.89 413.404 1029.3 413.249L1067.76 398.589C1068.17 398.434 1068.63 398.639 1068.79 399.05C1068.94 399.46 1068.74 399.921 1068.33 400.076L1029.87 414.736C1029.78 414.772 1029.68 414.789 1029.59 414.789H1029.58Z" fill="#1E211D"/>
<path d="M1033.26 423.924C1032.94 423.924 1032.64 423.728 1032.52 423.411C1032.37 423 1032.57 422.543 1032.98 422.384L1056.25 413.514C1056.66 413.358 1057.12 413.563 1057.28 413.974C1057.44 414.385 1057.23 414.842 1056.82 415.001L1033.55 423.871C1033.45 423.907 1033.36 423.924 1033.27 423.924H1033.26Z" fill="#1E211D"/>
<path d="M1004.46 448.765C1004.14 448.765 1003.84 448.57 1003.72 448.252C1003.57 447.841 1003.77 447.384 1004.18 447.225L1036.87 434.771C1037.28 434.615 1037.73 434.821 1037.89 435.232C1038.05 435.642 1037.84 436.099 1037.43 436.258L1004.75 448.712C1004.65 448.748 1004.56 448.765 1004.47 448.765H1004.46Z" fill="#1E211D"/>
<path d="M995.957 493.37C995.762 493.37 995.563 493.297 995.411 493.151L986.772 484.924C986.455 484.622 986.442 484.119 986.743 483.801C987.044 483.483 987.546 483.47 987.864 483.771L996.502 491.998C996.82 492.3 996.833 492.803 996.532 493.121C996.377 493.287 996.168 493.37 995.957 493.37Z" fill="#1E211D"/>
<path d="M1005.97 489.892C1005.78 489.892 1005.58 489.819 1005.43 489.673L996.162 480.85C995.845 480.548 995.831 480.045 996.132 479.727C996.433 479.409 996.936 479.396 997.254 479.697L1006.52 488.521C1006.83 488.822 1006.85 489.326 1006.55 489.644C1006.39 489.809 1006.18 489.892 1005.97 489.892Z" fill="#1E211D"/>
<path d="M1077.48 425.368C1077.29 425.368 1077.09 425.295 1076.94 425.149L1067.26 415.935C1066.95 415.634 1066.93 415.13 1067.24 414.812C1067.54 414.494 1068.04 414.481 1068.36 414.782L1078.03 423.997C1078.35 424.298 1078.36 424.802 1078.06 425.12C1077.91 425.285 1077.7 425.368 1077.49 425.368H1077.48Z" fill="#1E211D"/>
<path d="M1081.45 415.087C1081.25 415.087 1081.05 415.014 1080.9 414.868L1073.52 407.843C1073.21 407.542 1073.19 407.039 1073.5 406.721C1073.8 406.403 1074.3 406.389 1074.62 406.691L1081.99 413.716C1082.31 414.017 1082.33 414.521 1082.02 414.839C1081.87 415.004 1081.66 415.087 1081.45 415.087H1081.45Z" fill="#1E211D"/>
<path d="M1101.12 386.967C1100.93 386.967 1100.73 386.894 1100.58 386.748L1091.57 378.17C1091.25 377.869 1091.24 377.365 1091.54 377.047C1091.84 376.729 1092.34 376.716 1092.66 377.017L1101.67 385.596C1101.99 385.897 1102 386.401 1101.7 386.719C1101.54 386.884 1101.34 386.967 1101.12 386.967Z" fill="#1E211D"/>
</g>
<g clip-path="url(#clip2_341_422)">
<path d="M669.632 526.97L667.395 538.718C666.16 545.206 641.786 545.995 612.952 540.479C584.119 534.965 561.747 525.234 562.984 518.744L565.221 506.996L669.632 526.97Z" fill="#FFC803"/>
<path d="M615.189 528.732C644.022 534.247 668.397 533.458 669.632 526.97C670.867 520.481 648.495 510.75 619.662 505.234C590.829 499.719 566.454 500.508 565.218 506.996C563.983 513.485 586.356 523.216 615.189 528.732Z" fill="#FFC803"/>
<path d="M565.474 509.98C564.819 508.962 564.525 507.928 564.719 506.903C564.771 506.627 565.037 506.446 565.313 506.498C565.588 506.55 565.77 506.817 565.718 507.092C565.176 509.932 570.067 513.821 579.13 517.762C588.535 521.853 601.374 525.57 615.283 528.232C629.192 530.893 642.495 532.174 652.742 531.842C662.617 531.523 668.592 529.712 669.131 526.873C669.183 526.598 669.449 526.416 669.725 526.468C670 526.521 670.182 526.787 670.13 527.063C669.302 531.415 660.235 532.617 652.775 532.857C642.457 533.192 629.073 531.902 615.093 529.229C601.113 526.555 588.197 522.812 578.726 518.692C573.495 516.416 567.596 513.275 565.474 509.975L565.474 509.98Z" fill="#1E211D"/>
<path d="M578.134 509.723C577.759 509.14 577.609 508.571 577.714 508.021C577.766 507.746 578.032 507.564 578.308 507.617C578.583 507.669 578.765 507.935 578.713 508.211C578.11 511.378 593.441 517.965 616.401 522.356C639.362 526.748 656.036 526.281 656.638 523.117C656.69 522.842 656.956 522.661 657.232 522.713C657.507 522.765 657.689 523.032 657.637 523.307C656.687 528.303 635.583 527.061 616.211 523.356C598.97 520.057 581.169 514.44 578.133 509.721L578.134 509.723Z" fill="#1E211D"/>
<path d="M633.761 513.539C633.65 513.366 633.651 513.136 633.78 512.962C633.947 512.736 634.266 512.687 634.492 512.855L651.479 525.39C651.705 525.557 651.753 525.875 651.587 526.102C651.42 526.328 651.101 526.377 650.875 526.21L633.888 513.674C633.837 513.637 633.795 513.591 633.762 513.541L633.761 513.539Z" fill="#1E211D"/>
<path d="M620.009 510.628C619.898 510.455 619.899 510.225 620.029 510.051C620.196 509.825 620.514 509.776 620.741 509.944L641.969 525.608C642.194 525.773 642.243 526.092 642.077 526.32C641.91 526.546 641.591 526.595 641.365 526.427L620.137 510.763C620.085 510.726 620.043 510.68 620.011 510.63L620.009 510.628Z" fill="#1E211D"/>
<path d="M616.371 515.773C616.26 515.6 616.261 515.37 616.39 515.196C616.557 514.97 616.874 514.922 617.102 515.089L629.949 524.569C630.173 524.734 630.222 525.053 630.057 525.281C629.89 525.507 629.573 525.554 629.345 525.388L616.498 515.908C616.447 515.871 616.405 515.825 616.372 515.775L616.371 515.773Z" fill="#1E211D"/>
<path d="M593.016 508.841C592.904 508.668 592.905 508.438 593.035 508.264C593.202 508.038 593.519 507.99 593.747 508.156L611.786 521.472C612.012 521.639 612.06 521.956 611.894 522.184C611.727 522.41 611.41 522.458 611.183 522.291L593.143 508.976C593.091 508.939 593.049 508.893 593.017 508.843L593.016 508.841Z" fill="#1E211D"/>
<path d="M566.067 519.693C566 519.588 565.97 519.455 565.996 519.323L567.425 511.817C567.477 511.541 567.743 511.36 568.018 511.412C568.294 511.464 568.475 511.731 568.423 512.006L566.994 519.512C566.942 519.788 566.676 519.969 566.401 519.917C566.258 519.891 566.141 519.807 566.067 519.693Z" fill="#1E211D"/>
<path d="M571.413 523.889C571.345 523.784 571.315 523.652 571.341 523.519L572.874 515.47C572.926 515.194 573.192 515.013 573.468 515.065C573.743 515.117 573.925 515.384 573.873 515.659L572.34 523.709C572.288 523.984 572.021 524.166 571.746 524.114C571.603 524.087 571.486 524.003 571.413 523.889Z" fill="#1E211D"/>
<path d="M630.936 540.12C630.869 540.014 630.839 539.882 630.865 539.75L632.466 531.344C632.518 531.068 632.784 530.887 633.06 530.941C633.336 530.993 633.517 531.26 633.465 531.535L631.865 539.941C631.813 540.217 631.546 540.398 631.271 540.346C631.128 540.319 631.011 540.236 630.937 540.121L630.936 540.12Z" fill="#1E211D"/>
<path d="M637.842 538.698C637.774 538.593 637.745 538.46 637.77 538.328L638.991 531.919C639.043 531.644 639.309 531.462 639.586 531.516C639.861 531.569 640.043 531.835 639.991 532.111L638.77 538.519C638.718 538.795 638.452 538.976 638.177 538.924C638.034 538.897 637.917 538.814 637.843 538.7L637.842 538.698Z" fill="#1E211D"/>
<path d="M659.797 539.576C659.729 539.471 659.7 539.339 659.725 539.206L661.215 531.379C661.267 531.104 661.533 530.922 661.808 530.974C662.084 531.027 662.265 531.293 662.213 531.569L660.724 539.396C660.672 539.672 660.406 539.853 660.13 539.801C659.987 539.774 659.87 539.691 659.797 539.576Z" fill="#1E211D"/>
</g>
<g clip-path="url(#clip3_341_422)">
<path d="M308.846 29.5656L313.652 40.5164C316.307 46.564 296.661 61.0126 269.77 72.7886C242.88 84.5653 218.929 89.2088 216.275 83.1592L211.469 72.2084L308.846 29.5656Z" fill="#FFC803"/>
<path d="M264.964 61.8385C291.854 50.0627 311.501 35.6135 308.846 29.5654C306.191 23.5172 282.24 28.1604 255.349 39.9362C228.459 51.712 208.812 66.1612 211.467 72.2094C214.122 78.2575 238.074 73.6143 264.964 61.8385Z" fill="#FFC803"/>
<path d="M213.368 74.5239C212.251 74.0554 211.423 73.3702 211.003 72.4149C210.89 72.1583 211.007 71.8581 211.264 71.7452C211.52 71.6323 211.821 71.7492 211.934 72.0058C213.095 74.6531 219.328 75.0904 229.03 73.2081C239.099 71.2569 251.787 67.0526 264.759 61.3726C277.731 55.6926 289.422 49.2177 297.682 43.1434C305.642 37.2901 309.541 32.4146 308.379 29.7693C308.266 29.5127 308.383 29.2125 308.64 29.0996C308.896 28.9867 309.197 29.1036 309.31 29.3602C311.092 33.4168 304.297 39.5407 298.284 43.9612C289.967 50.0783 278.205 56.5921 265.167 62.3021C252.13 68.0121 239.363 72.2387 229.224 74.204C223.624 75.2891 216.982 76.0385 213.365 74.5204L213.368 74.5239Z" fill="#1E211D"/>
<path d="M223.658 67.1462C223.019 66.8779 222.573 66.4932 222.348 65.9809C222.235 65.7243 222.352 65.4241 222.609 65.3112C222.865 65.1983 223.166 65.3152 223.279 65.5718C224.575 68.5236 240.942 65.2749 262.354 55.8964C283.768 46.5187 297.249 36.6953 295.954 33.7463C295.841 33.4897 295.958 33.1895 296.215 33.0766C296.471 32.9637 296.772 33.0806 296.885 33.3372C298.93 37.9938 280.83 48.9163 262.763 56.8286C246.684 63.8699 228.83 69.3167 223.656 67.1454L223.658 67.1462Z" fill="#1E211D"/>
<path d="M271.673 38.8009C271.484 38.7213 271.354 38.5314 271.362 38.3143C271.372 38.0334 271.607 37.8127 271.888 37.8227L292.987 38.5402C293.268 38.5501 293.487 38.7845 293.48 39.0661C293.47 39.347 293.235 39.5677 292.954 39.5577L271.855 38.8402C271.791 38.8387 271.73 38.8247 271.675 38.8017L271.673 38.8009Z" fill="#1E211D"/>
<path d="M258.69 44.1863C258.5 44.1067 258.371 43.9168 258.379 43.6997C258.389 43.4189 258.624 43.1982 258.905 43.2081L285.272 44.1028C285.551 44.1119 285.772 44.3471 285.764 44.6288C285.755 44.9096 285.519 45.1303 285.238 45.1204L258.871 44.2257C258.808 44.2242 258.747 44.2101 258.692 44.1872L258.69 44.1863Z" fill="#1E211D"/>
<path d="M258.603 50.4873C258.413 50.4077 258.283 50.2177 258.292 50.0006C258.301 49.7198 258.536 49.501 258.818 49.509L274.774 50.0515C275.053 50.0606 275.274 50.2958 275.266 50.5775C275.256 50.8583 275.022 51.077 274.74 51.069L258.784 50.5266C258.72 50.5251 258.659 50.5111 258.605 50.4881L258.603 50.4873Z" fill="#1E211D"/>
<path d="M235.425 57.9945C235.236 57.9149 235.106 57.725 235.115 57.5079C235.124 57.227 235.359 57.0083 235.641 57.0163L258.049 57.7802C258.33 57.7902 258.549 58.0245 258.541 58.3062C258.532 58.587 258.297 58.8058 258.015 58.7978L235.607 58.0338C235.543 58.0323 235.482 58.0183 235.427 57.9953L235.425 57.9945Z" fill="#1E211D"/>
<path d="M219.355 82.195C219.239 82.1466 219.14 82.0543 219.086 81.9306L216.015 74.9341C215.902 74.6775 216.019 74.3773 216.275 74.2644C216.532 74.1515 216.832 74.2684 216.946 74.525L220.017 81.5215C220.13 81.7781 220.013 82.0783 219.756 82.1912C219.623 82.2503 219.48 82.2475 219.355 82.195Z" fill="#1E211D"/>
<path d="M226.137 82.6284C226.022 82.58 225.922 82.4877 225.869 82.364L222.575 74.8607C222.462 74.6042 222.579 74.3039 222.836 74.191C223.092 74.0782 223.393 74.1951 223.506 74.4516L226.799 81.9549C226.912 82.2115 226.796 82.5117 226.539 82.6246C226.406 82.6837 226.262 82.6809 226.137 82.6284Z" fill="#1E211D"/>
<path d="M284.392 62.3114C284.277 62.263 284.177 62.1707 284.123 62.047L280.685 54.2115C280.571 53.9549 280.688 53.6546 280.947 53.5426C281.204 53.4297 281.504 53.5466 281.617 53.8032L285.056 61.6388C285.169 61.8953 285.052 62.1956 284.796 62.3085C284.663 62.3676 284.519 62.3647 284.394 62.3122L284.392 62.3114Z" fill="#1E211D"/>
<path d="M289.28 57.2301C289.165 57.1817 289.065 57.0895 289.011 56.9657L286.39 50.9919C286.277 50.7353 286.393 50.4351 286.652 50.323C286.909 50.2101 287.209 50.3271 287.322 50.5836L289.944 56.5575C290.057 56.814 289.94 57.1143 289.684 57.2272C289.551 57.2863 289.407 57.2834 289.282 57.2309L289.28 57.2301Z" fill="#1E211D"/>
<path d="M307.875 45.5254C307.76 45.477 307.661 45.3848 307.607 45.2611L304.404 37.9655C304.29 37.709 304.407 37.4087 304.664 37.2958C304.921 37.1829 305.221 37.2999 305.334 37.5564L308.537 44.852C308.651 45.1085 308.534 45.4088 308.277 45.5217C308.144 45.5808 308 45.5779 307.875 45.5254Z" fill="#1E211D"/>
</g>
<g clip-path="url(#clip4_341_422)">
<path d="M1154.3 64.8526L1162.03 78.1352C1172.39 95.9403 1154.75 125.598 1122.62 144.379C1090.5 163.16 1056.06 163.953 1045.69 146.147L1037.96 132.865L1154.3 64.8526Z" fill="#FFC803"/>
<path d="M1114.9 131.091C1147.02 112.307 1164.67 82.6464 1154.3 64.8431C1143.94 47.0398 1109.5 47.8353 1077.37 66.6199C1045.25 85.4045 1027.6 115.065 1037.97 132.868C1048.33 150.671 1082.77 149.876 1114.9 131.091Z" fill="#FFC803"/>
<path d="M1066.79 146.877C1052.58 146.877 1042.02 142.137 1036.97 133.45C1036.65 132.894 1036.84 132.188 1037.39 131.865C1037.94 131.541 1038.64 131.729 1038.97 132.28C1043.75 140.509 1054.12 144.862 1068.24 144.538C1082.58 144.21 1098.94 139.079 1114.31 130.091C1129.68 121.104 1142.19 109.358 1149.54 97.013C1156.76 84.8803 1158.1 73.6658 1153.3 65.4372C1152.98 64.8816 1153.17 64.1761 1153.72 63.8524C1154.27 63.5335 1154.98 63.7171 1155.3 64.2679C1160.53 73.2599 1159.19 85.3104 1151.53 98.2016C1143.99 110.88 1131.18 122.916 1115.48 132.097C1099.77 141.277 1083.02 146.519 1068.3 146.858C1067.79 146.867 1067.29 146.877 1066.79 146.877Z" fill="#1E211D"/>
<path d="M1068.95 135.464C1059.15 135.464 1052.02 132.382 1048.66 126.613C1048.34 126.057 1048.53 125.351 1049.08 125.028C1049.63 124.709 1050.33 124.892 1050.66 125.443C1053.96 131.121 1061.74 133.807 1072.55 133.005C1083.66 132.184 1096.53 127.782 1108.79 120.611C1133.87 105.952 1148.58 84.2667 1141.6 72.2694C1141.28 71.7137 1141.47 71.0083 1142.02 70.6846C1142.57 70.3608 1143.28 70.5493 1143.6 71.1001C1147.37 77.5844 1145.85 86.5618 1139.32 96.38C1132.95 105.952 1122.52 115.272 1109.96 122.617C1097.4 129.961 1084.17 134.474 1072.72 135.319C1071.42 135.416 1070.16 135.464 1068.95 135.464H1068.95Z" fill="#1E211D"/>
<path d="M1099.46 153.361C1099.06 153.361 1098.68 153.154 1098.46 152.786L1092.02 141.722C1091.7 141.166 1091.89 140.46 1092.44 140.137C1092.99 139.818 1093.69 140.001 1094.02 140.552L1100.46 151.617C1100.78 152.173 1100.59 152.878 1100.04 153.202C1099.86 153.308 1099.66 153.361 1099.46 153.361H1099.46Z" fill="#1E211D"/>
<path d="M1089.42 152.632C1089.02 152.632 1088.63 152.424 1088.42 152.057L1083.75 144.05C1083.43 143.495 1083.62 142.789 1084.17 142.466C1084.72 142.142 1085.43 142.33 1085.75 142.881L1090.41 150.892C1090.73 151.448 1090.55 152.153 1090 152.477C1089.81 152.583 1089.61 152.637 1089.41 152.637L1089.42 152.632Z" fill="#1E211D"/>
<path d="M1080.33 153.545C1079.93 153.545 1079.54 153.337 1079.33 152.97L1075.08 145.664C1074.75 145.109 1074.94 144.403 1075.49 144.079C1076.04 143.761 1076.75 143.944 1077.07 144.495L1081.32 151.801C1081.65 152.356 1081.46 153.062 1080.91 153.385C1080.73 153.492 1080.52 153.545 1080.33 153.545Z" fill="#1E211D"/>
<path d="M1069.22 150.989C1068.82 150.989 1068.43 150.781 1068.22 150.414L1065.83 146.302C1065.5 145.751 1065.69 145.041 1066.24 144.717C1066.79 144.394 1067.5 144.582 1067.82 145.133L1070.22 149.245C1070.54 149.795 1070.35 150.506 1069.8 150.829C1069.62 150.936 1069.42 150.989 1069.22 150.989Z" fill="#1E211D"/>
<path d="M1143.66 85.8129C1143.46 85.8129 1143.25 85.7597 1143.06 85.6486L1114.16 68.4281C1113.61 68.0995 1113.44 67.3893 1113.76 66.8384C1114.09 66.2876 1114.79 66.1088 1115.34 66.4326L1144.25 83.6531C1144.8 83.9816 1144.97 84.6919 1144.65 85.2427C1144.43 85.6051 1144.05 85.808 1143.66 85.808V85.8129Z" fill="#1E211D"/>
<path d="M1138.08 97.3367C1137.87 97.3367 1137.67 97.2836 1137.49 97.1724L1110.8 81.2662C1110.25 80.9376 1110.07 80.2273 1110.39 79.6765C1110.72 79.1257 1111.43 78.9469 1111.98 79.2706L1138.67 95.1769C1139.22 95.5055 1139.4 96.2157 1139.07 96.7666C1138.86 97.1289 1138.47 97.3319 1138.08 97.3319L1138.08 97.3367Z" fill="#1E211D"/>
<path d="M1124.42 112.166C1124.22 112.166 1124.02 112.112 1123.83 112.001L1091.34 92.6402C1090.79 92.3117 1090.61 91.6014 1090.94 91.0506C1091.26 90.4998 1091.97 90.321 1092.52 90.6447L1125.01 110.006C1125.56 110.334 1125.74 111.045 1125.42 111.595C1125.2 111.958 1124.81 112.161 1124.42 112.161V112.166Z" fill="#1E211D"/>
<path d="M1115.56 118.887C1115.35 118.887 1115.15 118.833 1114.97 118.722L1102.04 111.02C1101.49 110.692 1101.32 109.982 1101.64 109.431C1101.97 108.88 1102.68 108.701 1103.23 109.025L1116.15 116.727C1116.7 117.055 1116.88 117.766 1116.56 118.316C1116.34 118.679 1115.95 118.882 1115.56 118.882L1115.56 118.887Z" fill="#1E211D"/>
<path d="M1087.18 132.541C1086.97 132.541 1086.77 132.488 1086.58 132.377L1058.97 115.925C1058.42 115.596 1058.25 114.886 1058.57 114.335C1058.9 113.784 1059.61 113.605 1060.15 113.929L1087.76 130.381C1088.31 130.71 1088.49 131.42 1088.17 131.971C1087.95 132.333 1087.57 132.536 1087.18 132.536V132.541Z" fill="#1E211D"/>
<path d="M1141.47 126.501C1141.07 126.501 1140.69 126.294 1140.47 125.926L1134.79 116.166C1134.46 115.611 1134.65 114.905 1135.2 114.581C1135.75 114.258 1136.46 114.446 1136.78 114.997L1142.47 124.757C1142.79 125.313 1142.6 126.018 1142.05 126.342C1141.87 126.448 1141.67 126.501 1141.47 126.501H1141.47Z" fill="#1E211D"/>
<path d="M1146.39 117.732C1145.99 117.732 1145.61 117.524 1145.39 117.157L1141.05 109.706C1140.73 109.15 1140.92 108.445 1141.47 108.121C1142.02 107.798 1142.73 107.986 1143.05 108.537L1147.38 115.987C1147.71 116.543 1147.52 117.249 1146.97 117.572C1146.79 117.679 1146.58 117.732 1146.39 117.732H1146.39Z" fill="#1E211D"/>
</g>
<g clip-path="url(#clip5_341_422)">
<path d="M846.447 17.0269L854.121 20.1971C864.408 24.4464 866.557 42.9663 858.919 61.5653C851.281 80.1644 836.75 91.7972 826.461 87.5494L818.787 84.3792L846.447 17.0269Z" fill="#FFC803"/>
<path d="M851.245 58.392C858.881 39.7919 856.732 21.2703 846.444 17.0229C836.156 12.7754 821.626 24.4105 813.989 43.0106C806.353 61.6107 808.502 80.1323 818.79 84.3797C829.078 88.6272 843.608 76.9921 851.245 58.392Z" fill="#FFC803"/>
<path d="M835.762 80.9441C829.658 85.6039 823.57 87.0301 818.552 84.9559C818.231 84.8232 818.081 84.4586 818.211 84.1394C818.341 83.8202 818.707 83.6687 819.026 83.7994C823.78 85.7634 829.66 84.2329 835.618 79.464C841.667 74.6219 847.011 67.0534 850.665 58.1548C854.318 49.2561 855.839 40.11 854.946 32.3995C854.067 24.823 850.966 19.5676 846.21 17.6052C845.889 17.4724 845.738 17.1078 845.868 16.7886C846 16.4715 846.364 16.318 846.684 16.4486C851.878 18.5951 855.254 24.2094 856.189 32.2587C857.108 40.1756 855.556 49.5426 851.823 58.6334C848.088 67.7257 842.613 75.4699 836.401 80.4426C836.187 80.6127 835.975 80.7812 835.762 80.9441Z" fill="#1E211D"/>
<path d="M832.948 75.3348C828.739 78.5484 824.664 79.564 821.332 78.1866C821.011 78.0539 820.86 77.6893 820.99 77.3701C821.122 77.053 821.486 76.8994 821.806 77.0301C825.085 78.3854 829.307 76.9878 833.686 73.0995C838.187 69.1048 842.271 62.9941 845.187 55.8936C851.148 41.377 850.358 27.2387 843.426 24.3754C843.106 24.2427 842.955 23.8781 843.085 23.5589C843.215 23.2397 843.581 23.0883 843.9 23.2189C847.647 24.7658 849.937 29.1206 850.351 35.4787C850.752 41.6789 849.33 49.1005 846.345 56.3722C843.358 63.6454 839.159 69.9192 834.517 74.0381C833.992 74.5048 833.468 74.9381 832.946 75.3364L832.948 75.3348Z" fill="#1E211D"/>
<path d="M851.918 73.0163C851.747 73.1475 851.513 73.1847 851.299 73.0982L844.905 70.4583C844.585 70.3256 844.434 69.961 844.564 69.6418C844.695 69.3247 845.06 69.1712 845.379 69.3018L851.773 71.9416C852.094 72.0744 852.244 72.4389 852.115 72.7582C852.071 72.8639 852.001 72.9531 851.916 73.0179L851.918 73.0163Z" fill="#1E211D"/>
<path d="M847.364 75.9972C847.192 76.1284 846.959 76.1656 846.745 76.079L842.118 74.1693C841.797 74.0366 841.647 73.672 841.776 73.3528C841.906 73.0336 842.272 72.8822 842.592 73.0128L847.22 74.9245C847.541 75.0573 847.692 75.4218 847.562 75.7411C847.518 75.8468 847.449 75.936 847.364 76.0008L847.364 75.9972Z" fill="#1E211D"/>
<path d="M843.76 79.3705C843.59 79.5001 843.354 79.5389 843.142 79.4508L838.921 77.7076C838.6 77.5749 838.45 77.2103 838.579 76.8911C838.711 76.5739 839.075 76.4204 839.395 76.5511L843.616 78.2942C843.937 78.4269 844.088 78.7915 843.958 79.1107C843.914 79.2165 843.844 79.3057 843.76 79.3705Z" fill="#1E211D"/>
<path d="M838.151 81.9148C837.982 82.0444 837.746 82.0832 837.534 81.995L835.157 81.0149C834.838 80.8842 834.686 80.5176 834.816 80.1983C834.945 79.8791 835.312 79.7277 835.631 79.8583L838.008 80.8385C838.327 80.9691 838.479 81.3358 838.35 81.655C838.306 81.7607 838.236 81.85 838.151 81.9148Z" fill="#1E211D"/>
<path d="M848.749 29.5182C848.662 29.5846 848.557 29.6281 848.44 29.642L830.383 31.7231C830.039 31.7622 829.729 31.5157 829.688 31.1733C829.648 30.8292 829.893 30.5201 830.236 30.4789L848.293 28.3978C848.637 28.3587 848.946 28.6053 848.988 28.9477C849.014 29.1745 848.915 29.3881 848.747 29.5161L848.749 29.5182Z" fill="#1E211D"/>
<path d="M850.13 36.2974C850.043 36.3638 849.939 36.4074 849.824 36.4197L833.147 38.3397C832.804 38.3788 832.494 38.1322 832.452 37.7898C832.412 37.4457 832.658 37.1366 833 37.0954L849.677 35.1755C850.02 35.1364 850.33 35.3829 850.372 35.7254C850.397 35.9521 850.298 36.1657 850.131 36.2938L850.13 36.2974Z" fill="#1E211D"/>
<path d="M849.129 47.142C849.042 47.2083 848.937 47.2519 848.82 47.2658L828.52 49.6038C828.177 49.6429 827.867 49.3963 827.825 49.0539C827.785 48.7098 828.031 48.4007 828.373 48.3595L848.673 46.0216C849.017 45.9825 849.326 46.229 849.368 46.5715C849.394 46.7982 849.295 47.0118 849.127 47.1399L849.129 47.142Z" fill="#1E211D"/>
<path d="M847.526 52.9351C847.439 53.0015 847.334 53.0451 847.219 53.0574L839.143 53.9878C838.8 54.0269 838.49 53.7804 838.448 53.4379C838.408 53.0939 838.654 52.7847 838.996 52.7436L847.072 51.8132C847.416 51.7741 847.725 52.0206 847.767 52.3631C847.793 52.5898 847.694 52.8035 847.526 52.9315L847.526 52.9351Z" fill="#1E211D"/>
<path d="M839.815 68.1045C839.728 68.1709 839.624 68.2144 839.507 68.2284L822.256 70.2158C821.912 70.2549 821.602 70.0083 821.561 69.6659C821.521 69.3218 821.766 69.0127 822.109 68.9715L839.36 66.9841C839.703 66.945 840.013 67.1916 840.055 67.534C840.08 67.7608 839.981 67.9744 839.814 68.1024L839.815 68.1045Z" fill="#1E211D"/>
<path d="M861.152 47.7074C860.98 47.8386 860.746 47.8759 860.533 47.7893L854.892 45.4615C854.571 45.3288 854.42 44.9642 854.55 44.645C854.68 44.3258 855.046 44.1743 855.365 44.305L861.006 46.6327C861.327 46.7655 861.478 47.1301 861.348 47.4493C861.304 47.555 861.235 47.6442 861.15 47.709L861.152 47.7074Z" fill="#1E211D"/>
<path d="M860.388 42.3291C860.216 42.4603 859.982 42.4975 859.769 42.411L855.465 40.6324C855.144 40.4997 854.993 40.1351 855.123 39.8159C855.253 39.4967 855.619 39.3452 855.938 39.4759L860.243 41.2544C860.563 41.3871 860.714 41.7517 860.584 42.0709C860.54 42.1767 860.471 42.2659 860.386 42.3307L860.388 42.3291Z" fill="#1E211D"/>
</g>
<g clip-path="url(#clip6_341_422)">
<path d="M253.706 538.977C276.063 538.321 293.649 519.665 292.986 497.309C292.323 474.952 273.663 457.361 251.306 458.017C228.95 458.674 211.363 477.329 212.026 499.686C212.689 522.042 231.35 539.634 253.706 538.977Z" fill="#FFC803"/>
<path d="M252.497 532.593C234.154 532.593 218.968 517.955 218.419 499.501C218.149 490.399 221.439 481.74 227.683 475.111C233.931 468.482 242.386 464.685 251.489 464.421C270.306 463.875 286.027 478.706 286.585 497.499C287.144 516.292 272.308 532.027 253.515 532.579C253.179 532.588 252.838 532.593 252.497 532.593ZM252.502 466.669C252.185 466.669 251.872 466.669 251.555 466.683C243.058 466.932 235.167 470.475 229.34 476.661C223.508 482.847 220.435 490.936 220.686 499.435C221.197 516.664 235.375 530.331 252.497 530.331C252.81 530.331 253.127 530.331 253.444 530.317C270.983 529.804 284.829 515.105 284.313 497.565C283.802 480.341 269.624 466.669 252.502 466.669Z" fill="#1E211D"/>
<path d="M235.925 492.057C235.57 492.057 235.224 491.892 235.001 491.586C234.637 491.077 234.751 490.371 235.257 490.008L251.267 478.522C251.773 478.155 252.488 478.272 252.853 478.776C253.222 479.285 253.104 479.992 252.597 480.355L236.587 491.841C236.388 491.987 236.152 492.053 235.925 492.053V492.057Z" fill="#1E211D"/>
<path d="M234.836 504.137C234.481 504.137 234.135 503.972 233.913 503.666C233.548 503.157 233.662 502.45 234.168 502.088L263.234 481.231C263.74 480.864 264.45 480.981 264.82 481.485C265.189 481.994 265.07 482.701 264.564 483.064L235.498 503.92C235.3 504.066 235.068 504.132 234.836 504.132V504.137Z" fill="#1E211D"/>
<path d="M246.874 505.47C246.519 505.47 246.173 505.305 245.951 504.999C245.582 504.495 245.7 503.788 246.206 503.421L266.164 489.099C266.671 488.731 267.381 488.849 267.75 489.353C268.114 489.857 268.001 490.564 267.494 490.931L247.537 505.253C247.338 505.4 247.106 505.465 246.874 505.465V505.47Z" fill="#1E211D"/>
<path d="M245.62 520.023C245.265 520.023 244.919 519.858 244.697 519.552C244.332 519.043 244.446 518.337 244.952 517.974L272.669 498.083C273.175 497.72 273.885 497.833 274.255 498.337C274.624 498.846 274.506 499.553 273.999 499.916L246.283 519.806C246.084 519.952 245.852 520.018 245.62 520.018V520.023Z" fill="#1E211D"/>
<path d="M255.461 519.736C255.106 519.736 254.76 519.571 254.538 519.265C254.173 518.756 254.287 518.049 254.793 517.686L266.756 509.103C267.262 508.74 267.972 508.853 268.341 509.357C268.711 509.866 268.592 510.573 268.086 510.935L256.123 519.519C255.925 519.665 255.688 519.731 255.461 519.731V519.736Z" fill="#1E211D"/>
</g>
<g clip-path="url(#clip7_341_422)">
<path d="M555.259 122.986C569.336 122.572 580.408 110.826 579.991 96.7499C579.574 82.6736 567.824 71.5975 553.748 72.0109C539.672 72.4242 528.599 84.1704 529.016 98.2467C529.434 112.323 541.183 123.399 555.259 122.986Z" fill="#FFC803"/>
<path d="M554.499 118.966C542.949 118.966 533.388 109.749 533.042 98.1303C532.872 92.3994 534.943 86.9473 538.875 82.7737C542.809 78.6001 548.132 76.2092 553.864 76.0431C565.712 75.699 575.61 85.037 575.962 96.8696C576.313 108.702 566.972 118.61 555.14 118.957C554.928 118.963 554.713 118.966 554.499 118.966ZM554.502 77.458C554.302 77.458 554.105 77.458 553.906 77.4669C548.556 77.6241 543.587 79.8548 539.918 83.7496C536.246 87.6444 534.312 92.7376 534.47 98.0888C534.791 108.937 543.718 117.542 554.499 117.542C554.696 117.542 554.895 117.542 555.095 117.533C566.138 117.21 574.856 107.955 574.531 96.9112C574.209 86.0663 565.282 77.458 554.502 77.458Z" fill="#1E211D"/>
<path d="M544.063 93.4435C543.84 93.4435 543.622 93.3397 543.482 93.1469C543.253 92.8265 543.324 92.3816 543.643 92.1532L553.723 84.9213C554.042 84.6899 554.492 84.764 554.722 85.0814C554.954 85.4018 554.88 85.8468 554.561 86.0752L544.48 93.3071C544.355 93.399 544.206 93.4405 544.063 93.4405V93.4435Z" fill="#1E211D"/>
<path d="M543.378 101.049C543.154 101.049 542.937 100.945 542.796 100.753C542.567 100.432 542.638 99.9873 542.957 99.7589L561.258 86.6269C561.577 86.3956 562.024 86.4697 562.256 86.7871C562.489 87.1075 562.414 87.5524 562.095 87.7808L543.795 100.913C543.67 101.005 543.524 101.046 543.378 101.046V101.049Z" fill="#1E211D"/>
<path d="M550.957 101.889C550.734 101.889 550.516 101.785 550.376 101.592C550.143 101.275 550.218 100.83 550.537 100.598L563.103 91.5807C563.422 91.3493 563.869 91.4235 564.101 91.7409C564.331 92.0583 564.259 92.5032 563.94 92.7346L551.374 101.752C551.249 101.844 551.103 101.886 550.957 101.886V101.889Z" fill="#1E211D"/>
<path d="M550.168 111.052C549.944 111.052 549.727 110.948 549.587 110.755C549.357 110.435 549.429 109.99 549.747 109.761L567.199 97.2375C567.517 97.0091 567.965 97.0803 568.197 97.3977C568.429 97.718 568.355 98.163 568.036 98.3914L550.585 110.915C550.46 111.007 550.314 111.049 550.168 111.049V111.052Z" fill="#1E211D"/>
<path d="M556.364 110.871C556.14 110.871 555.923 110.767 555.783 110.574C555.553 110.254 555.625 109.809 555.944 109.58L563.476 104.176C563.794 103.947 564.242 104.018 564.474 104.336C564.707 104.656 564.632 105.101 564.313 105.33L556.781 110.734C556.656 110.826 556.507 110.868 556.364 110.868V110.871Z" fill="#1E211D"/>
</g>
<defs>
<clipPath id="clip0_341_422">
<rect width="112" height="123" fill="white" transform="translate(0 203)"/>
</clipPath>
<clipPath id="clip1_341_422">
<rect width="131" height="136" fill="white" transform="translate(977 362)"/>
</clipPath>
<clipPath id="clip2_341_422">
<rect width="84" height="87" fill="white" transform="translate(630.165 464) rotate(57.2439)"/>
</clipPath>
<clipPath id="clip3_341_422">
<rect width="84" height="87" fill="white" transform="translate(240.665) rotate(22.7651)"/>
</clipPath>
<clipPath id="clip4_341_422">
<rect width="130" height="107" fill="white" transform="translate(1035 52)"/>
</clipPath>
<clipPath id="clip5_341_422">
<rect width="70.2392" height="57.8122" fill="white" transform="translate(791 50.6249) rotate(-37.3624)"/>
</clipPath>
<clipPath id="clip6_341_422">
<rect width="81" height="81" fill="white" transform="translate(212 458)"/>
</clipPath>
<clipPath id="clip7_341_422">
<rect width="51" height="51" fill="white" transform="translate(529 72)"/>
</clipPath>
</defs>
</svg>
