<svg width="1173" height="603" viewBox="0 0 1173 603" fill="none" xmlns="http://www.w3.org/2000/svg">
<path d="M145.297 294.254L130.264 292.815C110.114 290.885 90.9799 318.86 87.5277 355.296C84.0755 391.733 97.6102 422.835 117.76 424.761L132.793 426.2L145.297 294.254Z" fill="#FFC803"/>
<path d="M132.793 426.201C152.943 428.129 172.077 400.155 175.53 363.72C178.982 327.284 165.446 296.183 145.295 294.255C125.145 292.327 106.011 320.301 102.558 356.736C99.1055 393.172 112.642 424.273 132.793 426.201Z" fill="#FFC803"/>
<path d="M118.313 419.939C114.386 416.211 110.948 411.077 108.169 404.695C102.412 391.465 100.166 374.409 101.848 356.667C103.53 338.924 108.937 322.601 117.077 310.702C125.305 298.676 135.35 292.58 145.367 293.539C145.76 293.576 146.048 293.927 146.012 294.32C145.976 294.714 145.625 295.001 145.231 294.965C125.507 293.076 106.685 320.817 103.274 356.803C101.613 374.307 103.82 391.112 109.481 404.123C115.081 416.994 123.386 424.582 132.859 425.489C133.252 425.526 133.54 425.877 133.504 426.27C133.468 426.664 133.117 426.951 132.724 426.915C127.489 426.413 122.609 424.021 118.311 419.941L118.313 419.939Z" fill="#1E211D"/>
<path d="M124.666 409.113C121.498 406.105 118.76 401.678 116.627 396.007C112.667 385.486 111.228 371.88 112.572 357.692C113.917 343.507 117.887 330.419 123.749 320.837C129.708 311.101 136.937 306.117 144.105 306.805C144.498 306.842 144.786 307.193 144.75 307.586C144.714 307.979 144.363 308.267 143.969 308.231C130.158 306.908 116.712 329.16 113.995 357.831C112.671 371.803 114.081 385.184 117.964 395.504C121.783 405.657 127.519 411.595 134.113 412.224C134.509 412.262 134.794 412.612 134.758 413.005C134.722 413.398 134.371 413.686 133.978 413.649C130.613 413.328 127.469 411.773 124.666 409.113Z" fill="#1E211D"/>
<path d="M89.6414 379.732C89.4878 379.587 89.3998 379.372 89.4213 379.145C89.4572 378.752 89.8083 378.465 90.2016 378.501L102.723 379.7C103.116 379.736 103.404 380.088 103.368 380.481C103.332 380.874 102.981 381.162 102.587 381.125L90.0664 379.926C89.9014 379.909 89.754 379.839 89.6414 379.732Z" fill="#1E211D"/>
<path d="M94.4451 388.411C94.2915 388.265 94.2035 388.05 94.2249 387.824C94.2609 387.431 94.612 387.143 95.0053 387.18L104.068 388.047C104.462 388.084 104.749 388.435 104.713 388.828C104.677 389.221 104.326 389.509 103.933 389.473L94.8701 388.605C94.7051 388.588 94.5577 388.518 94.4451 388.411Z" fill="#1E211D"/>
<path d="M97.3912 396.909C97.2375 396.763 97.1496 396.548 97.171 396.322C97.207 395.929 97.558 395.641 97.9514 395.678L106.219 396.469C106.612 396.505 106.9 396.856 106.864 397.25C106.828 397.643 106.477 397.93 106.084 397.894L97.8161 397.103C97.6511 397.086 97.5037 397.016 97.3912 396.909Z" fill="#1E211D"/>
<path d="M104.26 405.784C104.106 405.638 104.018 405.423 104.039 405.197C104.075 404.804 104.426 404.516 104.82 404.552L109.477 404.999C109.87 405.035 110.158 405.387 110.122 405.78C110.086 406.173 109.735 406.461 109.342 406.424L104.685 405.978C104.52 405.961 104.372 405.891 104.26 405.784Z" fill="#1E211D"/>
<path d="M131.558 312.437C131.307 312.199 131.258 311.808 131.459 311.514C131.683 311.188 132.128 311.104 132.454 311.328L159.752 330.06C160.076 330.286 160.162 330.729 159.938 331.056C159.715 331.382 159.27 331.465 158.943 331.241L131.646 312.509C131.614 312.487 131.586 312.464 131.558 312.437Z" fill="#1E211D"/>
<path d="M123.598 322.17C123.347 321.932 123.299 321.54 123.5 321.246C123.723 320.92 124.168 320.837 124.495 321.061L149.704 338.357C150.028 338.583 150.114 339.026 149.89 339.352C149.667 339.678 149.222 339.761 148.895 339.538L123.687 322.241C123.654 322.219 123.626 322.197 123.598 322.17Z" fill="#1E211D"/>
<path d="M116.026 340.47C115.775 340.232 115.727 339.84 115.928 339.546C116.151 339.22 116.596 339.137 116.923 339.361L147.611 360.42C147.936 360.646 148.021 361.088 147.798 361.415C147.574 361.741 147.129 361.824 146.803 361.601L116.115 340.541C116.083 340.519 116.054 340.497 116.026 340.47Z" fill="#1E211D"/>
<path d="M113.707 351.157C113.456 350.919 113.407 350.528 113.608 350.234C113.832 349.907 114.277 349.824 114.603 350.048L126.813 358.428C127.139 358.652 127.223 359.097 126.999 359.423C126.776 359.749 126.331 359.832 126.004 359.609L113.795 351.229C113.763 351.207 113.733 351.182 113.707 351.157Z" fill="#1E211D"/>
<path d="M113.272 382.139C113.021 381.901 112.973 381.51 113.174 381.216C113.398 380.889 113.843 380.806 114.169 381.03L140.246 398.924C140.571 399.15 140.656 399.593 140.433 399.92C140.209 400.246 139.764 400.329 139.438 400.105L113.361 382.211C113.329 382.189 113.301 382.166 113.272 382.139Z" fill="#1E211D"/>
<path d="M96.204 331.139C96.0504 330.993 95.9624 330.778 95.9839 330.552C96.0198 330.159 96.3709 329.871 96.7642 329.907L107.813 330.967C108.206 331.003 108.494 331.355 108.458 331.748C108.422 332.141 108.071 332.429 107.678 332.392L96.629 331.333C96.464 331.316 96.3166 331.246 96.204 331.139Z" fill="#1E211D"/>
<path d="M101.987 323.135C101.834 322.989 101.746 322.774 101.767 322.548C101.803 322.155 102.154 321.867 102.548 321.904L110.98 322.711C111.374 322.748 111.661 323.099 111.625 323.492C111.589 323.886 111.238 324.173 110.845 324.137L102.412 323.329C102.247 323.312 102.1 323.242 101.987 323.135Z" fill="#1E211D"/>
<g clip-path="url(#clip0_400_1879)">
<path d="M617.688 521.037L601.642 511.491C592.779 506.22 604.543 469.983 627.92 430.552C651.293 391.122 677.427 363.431 686.29 368.706L702.337 378.252L617.688 521.037Z" fill="#FFC803"/>
<path d="M643.966 440.098C620.59 479.527 608.826 515.766 617.689 521.038C626.552 526.31 652.687 498.619 676.062 459.189C699.437 419.76 711.202 383.521 702.339 378.249C693.475 372.977 667.341 400.668 643.966 440.098Z" fill="#FFC803"/>
<path d="M697.826 377.036C699.667 376.616 701.34 376.734 702.741 377.566C703.117 377.789 703.242 378.277 703.019 378.654C702.797 379.031 702.31 379.155 701.933 378.932C698.055 376.624 689.757 381.738 679.173 392.957C668.185 404.596 655.926 421.483 644.649 440.503C633.372 459.523 624.441 478.389 619.495 493.623C614.728 508.304 614.218 518.048 618.096 520.353C618.472 520.577 618.597 521.064 618.375 521.441C618.152 521.818 617.665 521.943 617.288 521.72C611.342 518.185 614.387 504.22 617.989 493.131C622.968 477.791 631.955 458.811 643.287 439.693C654.62 420.575 666.958 403.589 678.022 391.867C684.133 385.393 691.869 378.399 697.834 377.038L697.826 377.036Z" fill="#1E211D"/>
<path d="M691.492 395.774C692.546 395.533 693.461 395.617 694.211 396.064C694.588 396.287 694.712 396.775 694.49 397.152C694.267 397.529 693.78 397.654 693.403 397.431C689.078 394.857 671.287 413.876 652.676 445.276C634.061 476.676 625.906 501.424 630.228 503.995C630.605 504.218 630.729 504.706 630.507 505.083C630.284 505.46 629.797 505.585 629.42 505.362C622.595 501.304 635.605 470.955 651.31 444.463C665.288 420.885 682.964 397.721 691.495 395.773L691.492 395.774Z" fill="#1E211D"/>
<path d="M656.405 475.483C656.717 475.411 657.054 475.535 657.241 475.818C657.484 476.184 657.387 476.679 657.021 476.922L629.629 495.204C629.264 495.447 628.773 495.348 628.527 494.983C628.284 494.617 628.381 494.123 628.747 493.88L656.139 475.598C656.221 475.541 656.311 475.504 656.401 475.483L656.405 475.483Z" fill="#1E211D"/>
<path d="M667.965 456.826C668.278 456.755 668.615 456.878 668.802 457.162C669.045 457.527 668.947 458.022 668.582 458.265L634.352 481.114C633.99 481.356 633.496 481.258 633.25 480.893C633.007 480.528 633.104 480.033 633.469 479.79L667.7 456.941C667.782 456.885 667.872 456.847 667.962 456.827L667.965 456.826Z" fill="#1E211D"/>
<path d="M662.346 448.738C662.659 448.667 662.996 448.79 663.183 449.074C663.426 449.44 663.328 449.931 662.963 450.177L642.247 464.003C641.885 464.246 641.391 464.148 641.145 463.783C640.902 463.417 641.001 462.926 641.365 462.679L662.081 448.853C662.163 448.797 662.253 448.76 662.343 448.739L662.346 448.738Z" fill="#1E211D"/>
<path d="M684.897 418.112C685.209 418.04 685.546 418.164 685.733 418.447C685.976 418.813 685.878 419.304 685.513 419.551L656.418 438.965C656.053 439.208 655.563 439.11 655.316 438.744C655.074 438.379 655.172 437.887 655.536 437.641L684.631 418.227C684.713 418.171 684.803 418.133 684.893 418.112L684.897 418.112Z" fill="#1E211D"/>
<path d="M683.264 372.733C683.455 372.689 683.664 372.716 683.845 372.824L694.098 378.923C694.474 379.146 694.599 379.634 694.377 380.011C694.154 380.388 693.667 380.513 693.29 380.29L683.038 374.191C682.661 373.968 682.536 373.48 682.759 373.103C682.873 372.907 683.058 372.78 683.264 372.733Z" fill="#1E211D"/>
<path d="M674.275 378.351C674.466 378.308 674.675 378.335 674.856 378.443L685.851 384.984C686.227 385.207 686.352 385.695 686.13 386.072C685.907 386.449 685.42 386.574 685.043 386.351L674.048 379.81C673.672 379.587 673.547 379.099 673.77 378.722C673.884 378.526 674.069 378.399 674.275 378.351Z" fill="#1E211D"/>
<path d="M618.913 457.17C619.103 457.127 619.313 457.154 619.494 457.262L630.975 464.093C631.352 464.316 631.477 464.804 631.251 465.182C631.028 465.559 630.541 465.683 630.164 465.46L618.683 458.629C618.306 458.406 618.181 457.918 618.404 457.541C618.519 457.345 618.703 457.218 618.91 457.171L618.913 457.17Z" fill="#1E211D"/>
<path d="M617.338 468.075C617.529 468.032 617.738 468.059 617.919 468.167L626.672 473.375C627.049 473.598 627.174 474.086 626.948 474.463C626.725 474.84 626.238 474.965 625.862 474.742L617.108 469.534C616.732 469.311 616.607 468.823 616.829 468.446C616.944 468.25 617.129 468.123 617.335 468.076L617.338 468.075Z" fill="#1E211D"/>
<path d="M604.41 499.869C604.6 499.825 604.81 499.852 604.991 499.961L615.683 506.319C616.059 506.543 616.184 507.03 615.962 507.407C615.739 507.784 615.252 507.909 614.875 507.686L604.183 501.327C603.807 501.104 603.682 500.616 603.904 500.239C604.019 500.043 604.204 499.916 604.41 499.869Z" fill="#1E211D"/>
</g>
<path d="M1070.12 476.962L1061.88 485.631C1057.33 490.42 1036.41 477.895 1015.14 457.655C993.878 437.418 980.329 417.129 984.88 412.341L993.118 403.671L1070.12 476.962Z" fill="#FFC803"/>
<path d="M1023.38 448.987C1044.64 469.225 1065.57 481.75 1070.12 476.962C1074.67 472.173 1061.12 451.885 1039.86 431.646C1018.59 411.407 997.666 398.882 993.117 403.67C988.567 408.459 1002.12 428.748 1023.38 448.987Z" fill="#FFC803"/>
<path d="M991.717 406.318C991.717 405.107 992.029 404.079 992.747 403.321C992.94 403.118 993.262 403.109 993.465 403.302C993.669 403.495 993.677 403.818 993.484 404.021C991.493 406.117 993.501 412.033 998.991 420.251C1004.69 428.78 1013.47 438.853 1023.73 448.617C1033.99 458.381 1044.48 466.655 1053.28 471.921C1061.76 476.996 1067.76 478.705 1069.75 476.61C1069.94 476.406 1070.27 476.398 1070.47 476.591C1070.67 476.784 1070.68 477.106 1070.49 477.31C1067.44 480.523 1059.16 476.627 1052.76 472.793C1043.9 467.491 1033.34 459.165 1023.03 449.353C1012.72 439.54 1003.88 429.404 998.148 420.815C994.98 416.071 991.719 410.237 991.719 406.314L991.717 406.318Z" fill="#1E211D"/>
<path d="M1002.5 412.951C1002.5 412.258 1002.68 411.698 1003.07 411.293C1003.26 411.089 1003.58 411.081 1003.79 411.274C1003.99 411.467 1004 411.789 1003.81 411.993C1001.59 414.33 1010.92 428.165 1027.85 444.28C1044.78 460.397 1059.06 469.026 1061.27 466.692C1061.47 466.488 1061.79 466.479 1061.99 466.672C1062.2 466.865 1062.2 467.188 1062.01 467.391C1058.51 471.079 1041.43 458.616 1027.15 445.018C1014.43 432.915 1002.5 418.561 1002.5 412.949L1002.5 412.951Z" fill="#1E211D"/>
<path d="M1047.22 446.259C1047.22 446.053 1047.34 445.86 1047.55 445.784C1047.81 445.684 1048.1 445.816 1048.2 446.079L1055.71 465.811C1055.81 466.074 1055.68 466.367 1055.41 466.469C1055.15 466.569 1054.86 466.437 1054.76 466.174L1047.25 446.441C1047.23 446.382 1047.22 446.32 1047.22 446.261L1047.22 446.259Z" fill="#1E211D"/>
<path d="M1037.23 436.37C1037.23 436.164 1037.35 435.971 1037.56 435.895C1037.82 435.795 1038.11 435.927 1038.21 436.19L1047.59 460.849C1047.69 461.11 1047.56 461.405 1047.3 461.506C1047.03 461.606 1046.74 461.475 1046.64 461.212L1037.26 436.552C1037.24 436.493 1037.23 436.432 1037.23 436.372L1037.23 436.37Z" fill="#1E211D"/>
<path d="M1031.39 438.728C1031.39 438.523 1031.51 438.33 1031.71 438.253C1031.98 438.154 1032.27 438.285 1032.37 438.548L1038.04 453.471C1038.14 453.732 1038.01 454.027 1037.75 454.129C1037.49 454.228 1037.2 454.097 1037.09 453.834L1031.42 438.911C1031.4 438.851 1031.39 438.79 1031.39 438.73L1031.39 438.728Z" fill="#1E211D"/>
<path d="M1015.49 420.261C1015.49 420.056 1015.62 419.863 1015.82 419.786C1016.09 419.687 1016.38 419.818 1016.48 420.081L1024.45 441.04C1024.55 441.303 1024.41 441.595 1024.15 441.697C1023.89 441.797 1023.6 441.665 1023.49 441.402L1015.53 420.444C1015.5 420.384 1015.49 420.323 1015.49 420.264L1015.49 420.261Z" fill="#1E211D"/>
<path d="M986.961 414.807C986.961 414.682 987.007 414.555 987.101 414.457L992.364 408.918C992.556 408.714 992.879 408.706 993.082 408.899C993.285 409.092 993.294 409.414 993.101 409.618L987.838 415.157C987.645 415.361 987.323 415.369 987.12 415.176C987.014 415.076 986.961 414.943 986.961 414.807Z" fill="#1E211D"/>
<path d="M989.185 421.228C989.185 421.103 989.231 420.976 989.325 420.879L994.969 414.939C995.162 414.735 995.484 414.726 995.687 414.919C995.891 415.112 995.899 415.435 995.706 415.638L990.062 421.578C989.869 421.782 989.547 421.79 989.344 421.597C989.238 421.498 989.185 421.364 989.185 421.228Z" fill="#1E211D"/>
<path d="M1030.46 467.084C1030.46 466.959 1030.51 466.831 1030.6 466.734L1036.5 460.531C1036.69 460.327 1037.01 460.319 1037.21 460.514C1037.42 460.707 1037.43 461.029 1037.23 461.233L1031.34 467.436C1031.15 467.639 1030.82 467.648 1030.62 467.455C1030.51 467.355 1030.46 467.222 1030.46 467.086L1030.46 467.084Z" fill="#1E211D"/>
<path d="M1037.04 469.624C1037.04 469.499 1037.09 469.372 1037.18 469.275L1041.67 464.545C1041.87 464.342 1042.19 464.333 1042.39 464.528C1042.59 464.721 1042.6 465.044 1042.41 465.247L1037.92 469.976C1037.72 470.18 1037.4 470.189 1037.2 469.996C1037.09 469.896 1037.04 469.762 1037.04 469.627L1037.04 469.624Z" fill="#1E211D"/>
<path d="M1055.03 482.242C1055.03 482.117 1055.07 481.99 1055.17 481.893L1060.65 476.116C1060.85 475.912 1061.17 475.904 1061.37 476.097C1061.58 476.29 1061.58 476.612 1061.39 476.816L1055.9 482.592C1055.71 482.796 1055.39 482.804 1055.19 482.611C1055.08 482.512 1055.03 482.378 1055.03 482.242Z" fill="#1E211D"/>
<path d="M379.803 442.354L375.816 453.629C373.614 459.856 349.401 456.952 321.732 447.141C294.064 437.333 273.419 424.332 275.623 418.104L279.61 406.829L379.803 442.354Z" fill="#FFC803"/>
<path d="M325.719 435.867C353.387 445.677 377.601 448.582 379.803 442.354C382.005 436.127 361.36 423.126 333.692 413.316C306.024 403.505 281.81 400.601 279.608 406.829C277.406 413.056 298.051 426.057 325.719 435.867Z" fill="#FFC803"/>
<path d="M279.41 409.817C278.916 408.711 278.781 407.645 279.128 406.661C279.221 406.396 279.512 406.257 279.776 406.35C280.041 406.444 280.18 406.734 280.087 406.999C279.122 409.724 283.369 414.308 291.732 419.573C300.41 425.039 312.541 430.654 325.887 435.387C339.234 440.12 352.191 443.397 362.37 444.618C372.18 445.795 378.36 444.908 379.322 442.183C379.415 441.919 379.706 441.78 379.97 441.873C380.235 441.966 380.374 442.257 380.281 442.522C378.805 446.699 369.66 446.517 362.25 445.626C351.999 444.397 338.964 441.1 325.549 436.344C312.134 431.588 299.931 425.936 291.192 420.432C286.366 417.392 281.009 413.394 279.41 409.812L279.41 409.817Z" fill="#1E211D"/>
<path d="M291.962 411.476C291.679 410.843 291.617 410.258 291.804 409.73C291.897 409.466 292.188 409.327 292.452 409.42C292.717 409.513 292.856 409.804 292.763 410.069C291.688 413.108 305.848 421.937 327.88 429.748C349.914 437.56 366.466 439.619 367.54 436.582C367.633 436.318 367.923 436.179 368.188 436.272C368.452 436.365 368.591 436.656 368.498 436.921C366.804 441.716 346.131 437.298 327.541 430.707C310.996 424.841 294.249 416.598 291.961 411.474L291.962 411.476Z" fill="#1E211D"/>
<path d="M346.374 423.656C346.29 423.469 346.325 423.241 346.48 423.089C346.679 422.891 347.002 422.891 347.2 423.09L362.096 438.049C362.295 438.249 362.294 438.569 362.096 438.769C361.896 438.968 361.574 438.968 361.376 438.768L346.479 423.809C346.434 423.764 346.399 423.713 346.375 423.658L346.374 423.656Z" fill="#1E211D"/>
<path d="M333.22 418.7C333.136 418.513 333.172 418.285 333.326 418.133C333.526 417.935 333.848 417.935 334.046 418.134L352.664 436.827C352.861 437.024 352.861 437.347 352.663 437.547C352.464 437.745 352.141 437.745 351.943 437.546L333.326 418.853C333.28 418.808 333.245 418.757 333.221 418.702L333.22 418.7Z" fill="#1E211D"/>
<path d="M328.845 423.236C328.761 423.048 328.797 422.821 328.951 422.669C329.151 422.47 329.471 422.471 329.671 422.67L340.937 433.983C341.134 434.18 341.135 434.503 340.936 434.703C340.737 434.901 340.416 434.9 340.216 434.702L328.951 423.389C328.905 423.344 328.87 423.292 328.846 423.238L328.845 423.236Z" fill="#1E211D"/>
<path d="M306.806 412.853C306.722 412.666 306.757 412.438 306.912 412.286C307.111 412.088 307.432 412.088 307.632 412.287L323.452 428.176C323.65 428.376 323.649 428.696 323.451 428.897C323.252 429.095 322.931 429.094 322.731 428.895L306.911 413.006C306.865 412.961 306.831 412.91 306.806 412.855L306.806 412.853Z" fill="#1E211D"/>
<path d="M278.528 419.507C278.477 419.393 278.468 419.258 278.513 419.131L281.06 411.927C281.153 411.662 281.444 411.523 281.708 411.617C281.973 411.71 282.112 412.001 282.019 412.265L279.472 419.469C279.378 419.734 279.088 419.873 278.823 419.779C278.686 419.732 278.583 419.631 278.528 419.507Z" fill="#1E211D"/>
<path d="M283.177 424.464C283.126 424.349 283.117 424.214 283.162 424.087L285.894 416.362C285.987 416.097 286.278 415.958 286.542 416.052C286.807 416.145 286.946 416.436 286.853 416.7L284.121 424.425C284.028 424.69 283.737 424.829 283.473 424.736C283.335 424.688 283.232 424.588 283.177 424.464Z" fill="#1E211D"/>
<path d="M339.564 449.504C339.513 449.39 339.503 449.255 339.549 449.128L342.402 441.061C342.495 440.796 342.785 440.657 343.051 440.752C343.315 440.845 343.454 441.136 343.361 441.401L340.508 449.468C340.415 449.733 340.124 449.872 339.86 449.778C339.723 449.731 339.62 449.63 339.565 449.506L339.564 449.504Z" fill="#1E211D"/>
<path d="M346.605 449.143C346.554 449.028 346.544 448.893 346.59 448.766L348.765 442.616C348.858 442.351 349.149 442.212 349.414 442.307C349.678 442.401 349.818 442.691 349.725 442.956L347.549 449.106C347.456 449.371 347.166 449.51 346.901 449.417C346.764 449.369 346.661 449.269 346.606 449.145L346.605 449.143Z" fill="#1E211D"/>
<path d="M368.175 453.33C368.124 453.215 368.114 453.08 368.16 452.953L370.815 445.441C370.908 445.176 371.199 445.037 371.463 445.131C371.727 445.224 371.867 445.515 371.774 445.779L369.118 453.291C369.025 453.556 368.734 453.695 368.47 453.602C368.333 453.554 368.23 453.453 368.175 453.33Z" fill="#1E211D"/>
<g clip-path="url(#clip1_400_1879)">
<path d="M1130.98 173.806L1139.93 186.299C1151.93 203.045 1137.17 234.237 1106.97 255.972C1076.76 277.706 1042.55 281.751 1030.55 265.006L1021.6 252.513L1130.98 173.806Z" fill="#FFC803"/>
<path d="M1098.02 243.474C1128.22 221.736 1142.98 190.541 1130.98 173.797C1118.98 157.053 1084.77 161.102 1054.56 182.839C1024.36 204.577 1009.6 235.772 1021.6 252.516C1033.6 269.26 1067.81 265.212 1098.02 243.474Z" fill="#FFC803"/>
<path d="M1051.62 263.737C1037.47 265.081 1026.51 261.36 1020.66 253.189C1020.29 252.666 1020.41 251.946 1020.93 251.572C1021.44 251.198 1022.17 251.318 1022.54 251.836C1028.08 259.575 1038.82 262.929 1052.84 261.272C1067.09 259.589 1082.89 252.934 1097.34 242.534C1111.79 232.134 1123.14 219.258 1129.28 206.273C1135.32 193.512 1135.59 182.221 1130.04 174.483C1129.67 173.96 1129.79 173.24 1130.31 172.866C1130.82 172.496 1131.55 172.612 1131.92 173.13C1137.98 181.587 1137.78 193.71 1131.37 207.269C1125.06 220.603 1113.46 233.796 1098.69 244.42C1083.92 255.044 1067.74 261.847 1053.12 263.575C1052.61 263.633 1052.12 263.69 1051.62 263.737Z" fill="#1E211D"/>
<path d="M1052.69 252.171C1042.94 253.098 1035.54 250.703 1031.66 245.277C1031.28 244.755 1031.4 244.035 1031.92 243.66C1032.44 243.291 1033.16 243.407 1033.53 243.925C1037.36 249.264 1045.36 251.203 1056.04 249.383C1067.02 247.515 1079.42 241.916 1090.95 233.618C1114.52 216.654 1127.13 193.674 1119.04 182.391C1118.67 181.868 1118.79 181.148 1119.31 180.774C1119.82 180.399 1120.55 180.52 1120.92 181.038C1125.29 187.136 1124.62 196.217 1119.05 206.609C1113.61 216.741 1104.11 227.005 1092.3 235.504C1080.49 244.003 1067.75 249.746 1056.43 251.671C1055.15 251.89 1053.9 252.057 1052.69 252.172L1052.69 252.171Z" fill="#1E211D"/>
<path d="M1084.76 267.103C1084.36 267.141 1083.96 266.971 1083.71 266.626L1076.25 256.219C1075.87 255.697 1075.99 254.977 1076.51 254.602C1077.03 254.233 1077.75 254.349 1078.12 254.867L1085.58 265.273C1085.96 265.796 1085.84 266.516 1085.32 266.89C1085.15 267.013 1084.95 267.085 1084.75 267.104L1084.76 267.103Z" fill="#1E211D"/>
<path d="M1074.69 267.327C1074.29 267.365 1073.89 267.194 1073.64 266.849L1068.24 259.319C1067.86 258.797 1067.98 258.077 1068.5 257.703C1069.02 257.328 1069.74 257.449 1070.11 257.967L1075.51 265.501C1075.89 266.024 1075.77 266.744 1075.25 267.118C1075.08 267.241 1074.88 267.313 1074.68 267.332L1074.69 267.327Z" fill="#1E211D"/>
<path d="M1065.72 269.096C1065.33 269.133 1064.92 268.963 1064.68 268.617L1059.75 261.747C1059.38 261.224 1059.5 260.504 1060.01 260.13C1060.53 259.76 1061.25 259.876 1061.63 260.394L1066.55 267.265C1066.93 267.787 1066.81 268.507 1066.29 268.882C1066.12 269.005 1065.92 269.077 1065.72 269.096Z" fill="#1E211D"/>
<path d="M1054.42 267.601C1054.03 267.638 1053.62 267.469 1053.38 267.123L1050.6 263.256C1050.23 262.738 1050.35 262.013 1050.86 261.639C1051.38 261.265 1052.1 261.386 1052.48 261.903L1055.25 265.77C1055.63 266.288 1055.51 267.013 1054.99 267.387C1054.82 267.51 1054.62 267.582 1054.42 267.601Z" fill="#1E211D"/>
<path d="M1122.37 195.679C1122.17 195.698 1121.96 195.665 1121.76 195.572L1091.36 181.161C1090.78 180.886 1090.54 180.195 1090.81 179.617C1091.08 179.037 1091.77 178.792 1092.35 179.063L1122.75 193.474C1123.33 193.749 1123.57 194.439 1123.3 195.018C1123.12 195.399 1122.76 195.638 1122.37 195.674L1122.37 195.679Z" fill="#1E211D"/>
<path d="M1117.9 207.679C1117.7 207.698 1117.49 207.665 1117.3 207.571L1089.23 194.259C1088.65 193.984 1088.4 193.294 1088.67 192.715C1088.95 192.136 1089.64 191.891 1090.21 192.161L1118.29 205.473C1118.86 205.748 1119.11 206.438 1118.84 207.017C1118.66 207.399 1118.29 207.637 1117.9 207.674L1117.9 207.679Z" fill="#1E211D"/>
<path d="M1105.71 223.732C1105.51 223.752 1105.3 223.718 1105.1 223.625L1070.93 207.422C1070.35 207.147 1070.11 206.457 1070.38 205.878C1070.65 205.299 1071.34 205.054 1071.92 205.324L1106.09 221.527C1106.67 221.802 1106.91 222.492 1106.64 223.071C1106.46 223.452 1106.1 223.691 1105.71 223.728L1105.71 223.732Z" fill="#1E211D"/>
<path d="M1097.52 231.261C1097.32 231.281 1097.11 231.247 1096.92 231.154L1083.32 224.708C1082.75 224.433 1082.5 223.743 1082.77 223.164C1083.04 222.584 1083.73 222.34 1084.31 222.61L1097.91 229.055C1098.48 229.33 1098.73 230.021 1098.46 230.6C1098.28 230.981 1097.91 231.219 1097.52 231.256L1097.52 231.261Z" fill="#1E211D"/>
<path d="M1070.56 247.538C1070.36 247.557 1070.15 247.524 1069.95 247.431L1040.91 233.662C1040.33 233.387 1040.09 232.697 1040.36 232.118C1040.63 231.539 1041.32 231.294 1041.9 231.564L1070.94 245.332C1071.52 245.608 1071.76 246.298 1071.49 246.877C1071.31 247.258 1070.95 247.496 1070.56 247.533L1070.56 247.538Z" fill="#1E211D"/>
<path d="M1124.04 236.392C1123.64 236.43 1123.24 236.259 1122.99 235.914L1116.41 226.735C1116.03 226.213 1116.15 225.493 1116.67 225.118C1117.19 224.744 1117.91 224.865 1118.28 225.383L1124.86 234.562C1125.24 235.084 1125.12 235.804 1124.6 236.179C1124.43 236.302 1124.23 236.374 1124.04 236.392L1124.04 236.392Z" fill="#1E211D"/>
<path d="M1128.11 227.197C1127.71 227.235 1127.3 227.064 1127.05 226.719L1122.04 219.712C1121.66 219.189 1121.78 218.469 1122.3 218.095C1122.81 217.72 1123.54 217.841 1123.91 218.359L1128.93 225.366C1129.3 225.889 1129.18 226.609 1128.67 226.983C1128.5 227.106 1128.3 227.178 1128.1 227.197L1128.11 227.197Z" fill="#1E211D"/>
</g>
<path d="M854.589 60.9998L862.263 64.17C872.55 68.4193 874.699 86.9392 867.06 105.538C859.422 124.137 844.892 135.77 834.603 131.522L826.929 128.352L854.589 60.9998Z" fill="#FFC803"/>
<path d="M859.386 102.365C867.023 83.7648 864.873 65.2432 854.586 60.9957C844.298 56.7483 829.767 68.3834 822.131 86.9834C814.494 105.584 816.644 124.105 826.931 128.353C837.219 132.6 851.75 120.965 859.386 102.365Z" fill="#FFC803"/>
<path d="M843.904 124.917C837.801 129.577 831.713 131.003 826.695 128.929C826.374 128.796 826.223 128.431 826.353 128.112C826.483 127.793 826.849 127.642 827.169 127.772C831.922 129.736 837.803 128.206 843.761 123.437C849.81 118.595 855.154 111.026 858.807 102.128C862.461 93.229 863.982 84.0829 863.089 76.3724C862.21 68.7958 859.108 63.5404 854.353 61.578C854.032 61.4453 853.881 61.0807 854.011 60.7615C854.142 60.4443 854.507 60.2908 854.826 60.4214C860.021 62.5679 863.396 68.1823 864.331 76.2316C865.251 84.1484 863.698 93.5155 859.966 102.606C856.231 111.699 850.756 119.443 844.544 124.415C844.33 124.586 844.117 124.754 843.904 124.917Z" fill="#1E211D"/>
<path d="M841.09 119.308C836.881 122.521 832.806 123.537 829.473 122.159C829.153 122.027 829.002 121.662 829.132 121.343C829.263 121.026 829.628 120.872 829.947 121.003C833.227 122.358 837.449 120.961 841.828 117.072C846.328 113.078 850.413 106.967 853.328 99.8664C859.289 85.3498 858.5 71.2116 851.568 68.3483C851.247 68.2156 851.097 67.851 851.226 67.5318C851.356 67.2125 851.722 67.0611 852.042 67.1917C855.789 68.7386 858.078 73.0934 858.492 79.4516C858.894 85.6517 857.472 93.0734 854.487 100.345C851.5 107.618 847.301 113.892 842.659 118.011C842.134 118.478 841.609 118.911 841.088 119.309L841.09 119.308Z" fill="#1E211D"/>
<path d="M860.06 116.989C859.888 117.12 859.654 117.158 859.441 117.071L853.047 114.431C852.726 114.299 852.576 113.934 852.705 113.615C852.837 113.298 853.201 113.144 853.521 113.275L859.915 115.915C860.236 116.047 860.386 116.412 860.256 116.731C860.212 116.837 860.143 116.926 860.058 116.991L860.06 116.989Z" fill="#1E211D"/>
<path d="M855.507 119.97C855.335 120.101 855.101 120.138 854.888 120.052L850.261 118.142C849.94 118.01 849.789 117.645 849.919 117.326C850.049 117.006 850.415 116.855 850.734 116.986L855.363 118.897C855.684 119.03 855.834 119.395 855.705 119.714C855.661 119.82 855.591 119.909 855.506 119.974L855.507 119.97Z" fill="#1E211D"/>
<path d="M851.901 123.343C851.731 123.473 851.496 123.512 851.284 123.424L847.063 121.681C846.742 121.548 846.591 121.183 846.721 120.864C846.853 120.547 847.217 120.393 847.536 120.524L851.758 122.267C852.079 122.4 852.229 122.764 852.099 123.084C852.056 123.189 851.986 123.279 851.901 123.343Z" fill="#1E211D"/>
<path d="M846.294 125.888C846.124 126.017 845.888 126.056 845.677 125.968L843.3 124.988C842.98 124.857 842.828 124.49 842.958 124.171C843.088 123.852 843.454 123.701 843.773 123.831L846.151 124.811C846.47 124.942 846.622 125.309 846.492 125.628C846.448 125.734 846.379 125.823 846.294 125.888Z" fill="#1E211D"/>
<path d="M856.89 73.4911C856.803 73.5575 856.699 73.6011 856.582 73.615L838.524 75.6961C838.181 75.7352 837.871 75.4887 837.829 75.1462C837.789 74.8022 838.035 74.4931 838.377 74.4519L856.435 72.3708C856.779 72.3317 857.088 72.5782 857.13 72.9207C857.156 73.1474 857.056 73.361 856.889 73.4891L856.89 73.4911Z" fill="#1E211D"/>
<path d="M858.272 80.2703C858.185 80.3367 858.08 80.3803 857.965 80.3926L841.289 82.3126C840.945 82.3517 840.636 82.1051 840.594 81.7627C840.554 81.4186 840.8 81.1095 841.142 81.0683L857.818 79.1484C858.162 79.1093 858.471 79.3558 858.513 79.6983C858.539 79.925 858.44 80.1386 858.272 80.2667L858.272 80.2703Z" fill="#1E211D"/>
<path d="M857.271 91.1148C857.184 91.1812 857.08 91.2248 856.963 91.2387L836.663 93.5766C836.319 93.6157 836.01 93.3692 835.968 93.0267C835.928 92.6827 836.174 92.3735 836.516 92.3324L856.816 89.9944C857.159 89.9553 857.469 90.2019 857.511 90.5443C857.536 90.7711 857.437 90.9847 857.27 91.1127L857.271 91.1148Z" fill="#1E211D"/>
<path d="M855.667 96.908C855.58 96.9744 855.476 97.0179 855.361 97.0303L847.285 97.9606C846.941 97.9997 846.632 97.7532 846.59 97.4107C846.55 97.0667 846.796 96.7576 847.138 96.7164L855.214 95.7861C855.557 95.747 855.867 95.9935 855.909 96.3359C855.934 96.5627 855.835 96.7763 855.668 96.9043L855.667 96.908Z" fill="#1E211D"/>
<path d="M847.957 112.077C847.87 112.144 847.765 112.187 847.648 112.201L830.397 114.189C830.054 114.228 829.744 113.981 829.702 113.639C829.662 113.295 829.908 112.986 830.25 112.944L847.501 110.957C847.845 110.918 848.154 111.164 848.196 111.507C848.222 111.734 848.123 111.947 847.955 112.075L847.957 112.077Z" fill="#1E211D"/>
<path d="M869.293 91.6804C869.122 91.8116 868.888 91.8488 868.674 91.7623L863.033 89.4345C862.712 89.3018 862.562 88.9372 862.692 88.618C862.821 88.2987 863.188 88.1473 863.507 88.2779L869.148 90.6057C869.469 90.7384 869.619 91.103 869.489 91.4222C869.446 91.528 869.376 91.6172 869.291 91.682L869.293 91.6804Z" fill="#1E211D"/>
<path d="M868.53 86.3019C868.358 86.4331 868.124 86.4704 867.91 86.3838L863.606 84.6053C863.285 84.4725 863.135 84.1079 863.265 83.7887C863.395 83.4695 863.761 83.3181 864.08 83.4487L868.384 85.2273C868.705 85.36 868.856 85.7246 868.726 86.0438C868.682 86.1495 868.612 86.2387 868.528 86.3035L868.53 86.3019Z" fill="#1E211D"/>
<path d="M67.0909 85.5108L74.9739 82.904C85.5411 79.409 99.2571 92.0373 105.61 111.114C111.963 130.19 108.547 148.487 97.9791 151.985L90.0961 154.592L67.0909 85.5108Z" fill="#FFC803"/>
<path d="M97.7245 113.719C91.3698 94.6425 77.6525 82.0131 67.086 85.5099C56.5194 89.0068 53.105 107.306 59.4597 126.382C65.8143 145.458 79.5317 158.087 90.0982 154.591C100.665 151.094 104.079 132.795 97.7245 113.719Z" fill="#FFC803"/>
<path d="M100.714 140.91C99.1313 148.424 95.4498 153.478 90.2941 155.182C89.9643 155.291 89.6123 155.113 89.5023 154.786C89.3924 154.459 89.5709 154.106 89.8981 153.996C94.7816 152.382 98.2378 147.384 99.6389 139.882C101.061 132.265 100.17 123.043 97.13 113.917C94.0896 104.791 89.2723 96.8687 83.5634 91.6098C77.9523 86.4433 72.1724 84.4861 67.2884 86.1035C66.9586 86.2124 66.6066 86.0344 66.4966 85.7078C66.3892 85.3817 66.5652 85.0275 66.8924 84.9181C72.2288 83.1538 78.4508 85.2041 84.413 90.692C90.2767 96.09 95.2145 104.2 98.32 113.524C101.425 122.85 102.331 132.291 100.871 140.112C100.82 140.381 100.769 140.647 100.714 140.91Z" fill="#1E211D"/>
<path d="M94.9206 138.497C93.8294 143.679 91.4051 147.108 87.9814 148.24C87.6516 148.349 87.2996 148.171 87.1896 147.844C87.0822 147.518 87.2582 147.164 87.5854 147.054C90.9547 145.94 93.2414 142.126 94.0208 136.322C94.8232 130.358 93.9291 123.063 91.5036 115.78C86.5447 100.891 76.7185 90.6953 69.5982 93.0502C69.2685 93.1591 68.9164 92.9811 68.8064 92.6545C68.6965 92.3279 68.875 91.9742 69.2022 91.8648C73.0507 90.591 77.6276 92.396 82.0912 96.9429C86.4422 101.378 90.209 107.929 92.6937 115.386C95.1779 122.846 96.0915 130.34 95.2632 136.49C95.1699 137.187 95.0553 137.857 94.9201 138.5L94.9206 138.497Z" fill="#1E211D"/>
<path d="M107.779 124.358C107.735 124.57 107.582 124.751 107.364 124.825L100.797 126.998C100.467 127.107 100.115 126.929 100.005 126.602C99.8975 126.276 100.073 125.922 100.401 125.812L106.968 123.639C107.297 123.53 107.65 123.708 107.759 124.035C107.795 124.143 107.801 124.256 107.779 124.361L107.779 124.358Z" fill="#1E211D"/>
<path d="M106.276 129.589C106.231 129.8 106.079 129.981 105.86 130.055L101.108 131.628C100.779 131.737 100.427 131.559 100.317 131.233C100.207 130.906 100.385 130.552 100.712 130.443L105.467 128.87C105.797 128.761 106.149 128.939 106.259 129.266C106.294 129.374 106.3 129.487 106.278 129.592L106.276 129.589Z" fill="#1E211D"/>
<path d="M105.746 134.498C105.702 134.707 105.549 134.89 105.331 134.961L100.995 136.396C100.665 136.505 100.313 136.327 100.203 136C100.096 135.674 100.272 135.32 100.599 135.21L104.935 133.776C105.265 133.667 105.617 133.845 105.727 134.171C105.762 134.28 105.768 134.393 105.746 134.498Z" fill="#1E211D"/>
<path d="M103.157 140.086C103.113 140.295 102.96 140.478 102.742 140.549L100.302 141.358C99.9745 141.468 99.6199 141.289 99.5099 140.962C99.3999 140.636 99.5785 140.282 99.9057 140.173L102.346 139.364C102.674 139.254 103.028 139.433 103.138 139.759C103.174 139.868 103.179 139.981 103.157 140.086Z" fill="#1E211D"/>
<path d="M76.9871 93.4723C76.9646 93.5794 76.9139 93.6805 76.8342 93.7675L64.5118 107.13C64.2769 107.384 63.8815 107.4 63.6262 107.167C63.3715 106.933 63.3559 106.538 63.5882 106.284L75.9107 92.9209C76.1456 92.6669 76.541 92.6517 76.7963 92.8838C76.9637 93.0388 77.028 93.2653 76.9846 93.4718L76.9871 93.4723Z" fill="#1E211D"/>
<path d="M82.4585 97.707C82.4359 97.814 82.3853 97.9151 82.3061 97.9996L70.9249 110.339C70.69 110.593 70.2946 110.608 70.0393 110.376C69.7846 110.141 69.769 109.747 70.0013 109.492L81.3826 97.153C81.6175 96.899 82.0129 96.8838 82.2681 97.1159C82.4356 97.2709 82.4999 97.4974 82.4564 97.7039L82.4585 97.707Z" fill="#1E211D"/>
<path d="M88.7779 106.576C88.7554 106.683 88.7047 106.784 88.625 106.872L74.7715 121.892C74.5366 122.146 74.1413 122.162 73.886 121.929C73.6313 121.695 73.6157 121.3 73.848 121.046L87.7015 106.025C87.9364 105.771 88.3318 105.756 88.5871 105.988C88.7545 106.143 88.8189 106.369 88.7754 106.576L88.7779 106.576Z" fill="#1E211D"/>
<path d="M91.3442 112.012C91.3216 112.119 91.271 112.22 91.1918 112.305L85.6807 118.281C85.4458 118.535 85.0504 118.55 84.7952 118.318C84.5405 118.083 84.5248 117.688 84.7572 117.434L90.2683 111.458C90.5032 111.204 90.8986 111.189 91.1538 111.421C91.3213 111.576 91.3856 111.802 91.3421 112.009L91.3442 112.012Z" fill="#1E211D"/>
<path d="M95.4039 128.537C95.3813 128.644 95.3307 128.745 95.251 128.832L83.4786 141.598C83.2437 141.852 82.8483 141.867 82.593 141.635C82.3383 141.4 82.3227 141.006 82.555 140.751L94.3275 127.986C94.5624 127.732 94.9578 127.717 95.213 127.949C95.3805 128.104 95.4448 128.33 95.4013 128.537L95.4039 128.537Z" fill="#1E211D"/>
<path d="M98.2565 99.1573C98.212 99.3688 98.0592 99.5496 97.8409 99.6234L92.0477 101.542C91.718 101.651 91.366 101.473 91.256 101.146C91.146 100.819 91.3246 100.466 91.6518 100.356L97.4449 98.438C97.7746 98.3291 98.1267 98.507 98.2366 98.8337C98.2724 98.9423 98.278 99.0553 98.256 99.1598L98.2565 99.1573Z" fill="#1E211D"/>
<path d="M94.1673 95.5811C94.1228 95.7926 93.97 95.9734 93.7517 96.0472L89.33 97.509C89.0002 97.6179 88.6482 97.44 88.5382 97.1134C88.4283 96.7868 88.6068 96.4331 88.934 96.3236L93.3557 94.8618C93.6855 94.7529 94.0375 94.9308 94.1475 95.2575C94.1833 95.3661 94.1888 95.4791 94.1668 95.5836L94.1673 95.5811Z" fill="#1E211D"/>
<path d="M463.88 222.149C486.237 221.492 503.823 202.837 503.16 180.48C502.497 158.124 483.837 140.532 461.48 141.189C439.124 141.845 421.537 160.501 422.2 182.857C422.863 205.214 441.524 222.805 463.88 222.149Z" fill="#FFC803"/>
<path d="M462.671 215.764C444.328 215.764 429.142 201.126 428.593 182.672C428.323 173.57 431.613 164.911 437.857 158.283C444.105 151.654 452.56 147.857 461.663 147.593C480.48 147.046 496.201 161.877 496.759 180.67C497.318 199.463 482.482 215.199 463.689 215.75C463.353 215.759 463.012 215.764 462.671 215.764ZM462.676 149.84C462.359 149.84 462.046 149.84 461.729 149.854C453.232 150.104 445.341 153.647 439.513 159.833C433.681 166.018 430.609 174.108 430.86 182.607C431.371 199.835 445.549 213.503 462.671 213.503C462.984 213.503 463.301 213.503 463.618 213.489C481.157 212.975 495.003 198.276 494.487 180.736C493.976 163.512 479.798 149.84 462.676 149.84Z" fill="#1E211D"/>
<path d="M446.098 175.229C445.743 175.229 445.398 175.064 445.175 174.758C444.811 174.249 444.924 173.542 445.431 173.179L461.441 161.693C461.947 161.326 462.662 161.444 463.026 161.948C463.396 162.457 463.277 163.163 462.771 163.526L446.761 175.012C446.562 175.158 446.326 175.224 446.098 175.224V175.229Z" fill="#1E211D"/>
<path d="M445.01 187.308C444.654 187.308 444.309 187.143 444.086 186.837C443.722 186.328 443.836 185.622 444.342 185.259L473.408 164.402C473.914 164.035 474.624 164.153 474.993 164.657C475.363 165.166 475.244 165.872 474.738 166.235L445.672 187.092C445.473 187.238 445.241 187.304 445.01 187.304V187.308Z" fill="#1E211D"/>
<path d="M457.048 188.642C456.693 188.642 456.347 188.477 456.125 188.17C455.755 187.666 455.874 186.96 456.38 186.592L476.338 172.27C476.844 171.903 477.555 172.02 477.924 172.524C478.288 173.029 478.175 173.735 477.668 174.103L457.71 188.425C457.512 188.571 457.28 188.637 457.048 188.637V188.642Z" fill="#1E211D"/>
<path d="M455.794 203.195C455.439 203.195 455.093 203.03 454.871 202.723C454.506 202.215 454.62 201.508 455.126 201.145L482.843 181.254C483.349 180.892 484.059 181.005 484.428 181.509C484.798 182.018 484.679 182.724 484.173 183.087L456.456 202.978C456.258 203.124 456.026 203.19 455.794 203.19V203.195Z" fill="#1E211D"/>
<path d="M465.635 202.907C465.279 202.907 464.934 202.742 464.711 202.436C464.347 201.927 464.461 201.221 464.967 200.858L476.929 192.274C477.436 191.911 478.146 192.024 478.515 192.528C478.884 193.037 478.766 193.744 478.26 194.107L466.297 202.691C466.098 202.837 465.862 202.903 465.635 202.903V202.907Z" fill="#1E211D"/>
<path d="M547.999 51.7233C562.075 51.3099 573.148 39.5637 572.73 25.4874C572.313 11.4111 560.564 0.335081 546.487 0.748416C532.411 1.16175 521.338 12.9079 521.756 26.9843C522.173 41.0606 533.922 52.1366 547.999 51.7233Z" fill="#FFC803"/>
<path d="M547.238 47.7033C535.688 47.7033 526.127 38.4869 525.781 26.8678C525.611 21.1369 527.683 15.6848 531.614 11.5112C535.548 7.33755 540.872 4.94669 546.603 4.78057C558.451 4.43648 568.349 13.7745 568.701 25.6071C569.053 37.4398 559.712 47.3473 547.879 47.6944C547.667 47.7003 547.453 47.7033 547.238 47.7033ZM547.241 6.19551C547.041 6.19551 546.845 6.19551 546.645 6.20441C541.295 6.36163 536.326 8.5923 532.657 12.4871C528.985 16.3819 527.051 21.475 527.209 26.8263C527.531 37.6741 536.457 46.2794 547.238 46.2794C547.435 46.2794 547.634 46.2794 547.834 46.2705C558.877 45.9472 567.595 36.6923 567.27 25.6487C566.948 14.8038 558.022 6.19551 547.241 6.19551Z" fill="#1E211D"/>
<path d="M536.802 22.1811C536.579 22.1811 536.361 22.0772 536.221 21.8844C535.992 21.5641 536.063 21.1191 536.382 20.8907L546.462 13.6588C546.781 13.4274 547.231 13.5016 547.461 13.819C547.693 14.1394 547.619 14.5843 547.3 14.8127L537.22 22.0446C537.095 22.1366 536.946 22.1781 536.802 22.1781V22.1811Z" fill="#1E211D"/>
<path d="M536.117 29.7868C535.893 29.7868 535.676 29.6829 535.536 29.4901C535.306 29.1698 535.378 28.7248 535.697 28.4964L553.997 15.3645C554.316 15.1331 554.763 15.2073 554.996 15.5247C555.228 15.845 555.154 16.29 554.835 16.5184L536.534 29.6503C536.409 29.7423 536.263 29.7838 536.117 29.7838V29.7868Z" fill="#1E211D"/>
<path d="M543.696 30.6262C543.473 30.6262 543.255 30.5224 543.115 30.3296C542.883 30.0122 542.957 29.5672 543.276 29.3359L555.842 20.3182C556.161 20.0869 556.608 20.161 556.841 20.4784C557.07 20.7958 556.998 21.2408 556.68 21.4721L544.114 30.4898C543.988 30.5817 543.842 30.6232 543.696 30.6232V30.6262Z" fill="#1E211D"/>
<path d="M542.907 39.7892C542.683 39.7892 542.466 39.6854 542.326 39.4926C542.096 39.1722 542.168 38.7273 542.487 38.4988L559.938 25.975C560.257 25.7466 560.704 25.8178 560.936 26.1352C561.169 26.4556 561.094 26.9005 560.775 27.1289L543.324 39.6527C543.199 39.7447 543.053 39.7862 542.907 39.7862V39.7892Z" fill="#1E211D"/>
<path d="M549.103 39.6082C548.88 39.6082 548.662 39.5044 548.522 39.3116C548.293 38.9913 548.364 38.5463 548.683 38.3179L556.215 32.9133C556.534 32.6849 556.981 32.756 557.213 33.0734C557.446 33.3938 557.371 33.8388 557.052 34.0672L549.521 39.4718C549.395 39.5638 549.246 39.6053 549.103 39.6053V39.6082Z" fill="#1E211D"/>
<defs>
<clipPath id="clip0_400_1879">
<rect width="131" height="136" fill="white" transform="translate(730.978 496.59) rotate(167.143)"/>
</clipPath>
<clipPath id="clip1_400_1879">
<rect width="130" height="107" fill="white" transform="translate(1011 172.291) rotate(-5.42505)"/>
</clipPath>
</defs>
</svg>
