<svg width="1221" height="614" viewBox="0 0 1221 614" fill="none" xmlns="http://www.w3.org/2000/svg">
<g clip-path="url(#clip0_400_1737)">
<path d="M144.724 397.905L129.69 396.466C109.54 394.535 90.4066 422.51 86.9544 458.946C83.5022 495.383 97.037 526.485 117.187 528.411L132.22 529.85L144.724 397.905Z" fill="#FFC803"/>
<path d="M132.22 529.851C152.371 531.78 171.505 503.806 174.958 467.37C178.41 430.934 164.874 399.834 144.723 397.905C124.573 395.977 105.438 423.951 101.986 460.387C98.5333 496.823 112.07 527.923 132.22 529.851Z" fill="#FFC803"/>
<path d="M117.74 523.59C113.812 519.861 110.375 514.727 107.596 508.345C101.838 495.115 99.5933 478.06 101.275 460.317C102.957 442.575 108.364 426.252 116.504 414.352C124.732 402.326 134.777 396.23 144.793 397.19C145.187 397.226 145.474 397.577 145.438 397.971C145.402 398.364 145.051 398.652 144.658 398.615C124.933 396.727 106.112 424.467 102.701 460.454C101.04 477.957 103.247 494.763 108.908 507.774C114.508 520.645 122.812 528.232 132.286 529.14C132.679 529.176 132.967 529.527 132.931 529.921C132.895 530.314 132.544 530.601 132.15 530.565C126.916 530.064 122.036 527.672 117.738 523.592L117.74 523.59Z" fill="#1E211D"/>
<path d="M124.093 512.763C120.925 509.756 118.187 505.328 116.054 499.657C112.094 489.136 110.655 475.53 111.999 461.343C113.344 447.157 117.314 434.069 123.176 424.487C129.135 414.751 136.364 409.767 143.531 410.456C143.925 410.492 144.213 410.843 144.177 411.237C144.141 411.63 143.789 411.917 143.396 411.881C129.585 410.559 116.139 432.81 113.422 461.481C112.098 475.453 113.508 488.834 117.391 499.155C121.21 509.308 126.945 515.245 133.54 515.874C133.936 515.913 134.221 516.262 134.185 516.655C134.149 517.049 133.798 517.336 133.405 517.3C130.04 516.978 126.895 515.424 124.093 512.763Z" fill="#1E211D"/>
<path d="M89.0682 483.383C88.9146 483.237 88.8266 483.022 88.848 482.796C88.884 482.402 89.235 482.115 89.6284 482.151L102.149 483.35C102.543 483.387 102.83 483.738 102.794 484.131C102.758 484.525 102.407 484.812 102.014 484.776L89.4932 483.577C89.3282 483.56 89.1807 483.49 89.0682 483.383Z" fill="#1E211D"/>
<path d="M93.8719 492.061C93.7182 491.916 93.6303 491.701 93.6517 491.474C93.6877 491.081 94.0387 490.794 94.4321 490.83L103.495 491.698C103.888 491.734 104.176 492.085 104.14 492.479C104.104 492.872 103.753 493.159 103.36 493.123L94.2968 492.255C94.1318 492.238 93.9844 492.168 93.8719 492.061Z" fill="#1E211D"/>
<path d="M96.8189 500.56C96.6653 500.414 96.5773 500.199 96.5987 499.972C96.6347 499.579 96.9857 499.292 97.3791 499.328L105.647 500.119C106.04 500.155 106.328 500.507 106.292 500.9C106.256 501.293 105.905 501.581 105.511 501.544L97.2439 500.753C97.0789 500.737 96.9315 500.666 96.8189 500.56Z" fill="#1E211D"/>
<path d="M103.686 509.434C103.533 509.289 103.445 509.074 103.466 508.847C103.502 508.454 103.853 508.167 104.247 508.203L108.904 508.649C109.297 508.686 109.585 509.037 109.549 509.43C109.513 509.824 109.162 510.111 108.769 510.075L104.111 509.628C103.946 509.611 103.799 509.541 103.686 509.434Z" fill="#1E211D"/>
<path d="M130.984 416.088C130.733 415.85 130.685 415.459 130.886 415.164C131.11 414.838 131.555 414.755 131.881 414.979L159.178 433.711C159.503 433.937 159.589 434.38 159.365 434.706C159.142 435.033 158.697 435.116 158.37 434.892L131.073 416.16C131.041 416.137 131.013 416.115 130.984 416.088Z" fill="#1E211D"/>
<path d="M123.026 425.82C122.775 425.582 122.727 425.191 122.928 424.897C123.151 424.57 123.596 424.487 123.923 424.711L149.131 442.007C149.456 442.233 149.541 442.676 149.318 443.002C149.095 443.329 148.65 443.412 148.323 443.188L123.114 425.892C123.082 425.869 123.054 425.847 123.026 425.82Z" fill="#1E211D"/>
<path d="M115.453 444.12C115.202 443.882 115.154 443.491 115.355 443.197C115.578 442.87 116.023 442.787 116.35 443.011L147.038 464.07C147.362 464.296 147.448 464.739 147.225 465.065C147.001 465.392 146.556 465.475 146.23 465.251L115.541 444.192C115.509 444.169 115.481 444.147 115.453 444.12Z" fill="#1E211D"/>
<path d="M113.134 454.808C112.882 454.569 112.834 454.178 113.035 453.884C113.259 453.558 113.704 453.475 114.03 453.698L126.239 462.078C126.566 462.302 126.649 462.747 126.426 463.073C126.203 463.4 125.758 463.483 125.431 463.259L113.222 454.879C113.19 454.857 113.159 454.832 113.134 454.808Z" fill="#1E211D"/>
<path d="M112.699 485.79C112.448 485.552 112.4 485.16 112.601 484.866C112.824 484.54 113.269 484.457 113.596 484.681L139.673 502.575C139.997 502.801 140.083 503.244 139.859 503.57C139.636 503.896 139.191 503.979 138.864 503.756L112.788 485.861C112.755 485.839 112.727 485.817 112.699 485.79Z" fill="#1E211D"/>
<path d="M95.6308 434.789C95.4772 434.644 95.3892 434.428 95.4106 434.202C95.4466 433.809 95.7976 433.521 96.191 433.558L107.24 434.617C107.633 434.654 107.921 435.005 107.885 435.398C107.849 435.792 107.498 436.079 107.105 436.043L96.0558 434.983C95.8908 434.966 95.7433 434.896 95.6308 434.789Z" fill="#1E211D"/>
<path d="M101.414 426.786C101.261 426.64 101.173 426.425 101.194 426.198C101.23 425.805 101.581 425.518 101.974 425.554L110.407 426.362C110.8 426.398 111.088 426.75 111.052 427.143C111.016 427.536 110.665 427.824 110.272 427.787L101.839 426.979C101.674 426.962 101.527 426.892 101.414 426.786Z" fill="#1E211D"/>
</g>
<g clip-path="url(#clip1_400_1737)">
<path d="M670.145 599.676L652.232 604.946C642.34 607.857 623.778 574.586 610.773 530.63C597.766 486.677 595.243 448.685 605.138 445.775L623.05 440.505L670.145 599.676Z" fill="#FFC803"/>
<path d="M628.684 525.361C641.689 569.315 660.251 602.587 670.145 599.676C680.038 596.765 677.515 558.772 664.51 514.818C651.505 470.864 632.942 437.592 623.049 440.503C613.156 443.414 615.678 481.406 628.684 525.361Z" fill="#FFC803"/>
<path d="M619.091 442.985C620.035 441.35 621.259 440.204 622.821 439.743C623.241 439.619 623.684 439.859 623.809 440.279C623.934 440.698 623.694 441.14 623.274 441.264C618.944 442.538 617.049 452.098 618.074 467.488C619.133 483.459 623.174 503.932 629.446 525.135C635.719 546.339 643.474 565.717 651.277 579.705C658.797 593.185 665.593 600.187 669.92 598.912C670.34 598.788 670.783 599.028 670.907 599.448C671.032 599.867 670.792 600.309 670.373 600.434C663.737 602.388 655.571 590.658 649.892 580.475C642.033 566.39 634.232 546.894 627.926 525.583C621.62 504.272 617.56 483.674 616.492 467.591C615.903 458.708 616.038 448.28 619.097 442.981L619.091 442.985Z" fill="#1E211D"/>
<path d="M628.519 460.374C629.059 459.437 629.742 458.823 630.58 458.578C631 458.453 631.443 458.694 631.568 459.113C631.693 459.533 631.453 459.975 631.033 460.099C626.205 461.52 628.046 487.497 638.404 522.497C648.761 557.5 661.357 580.312 666.181 578.892C666.6 578.768 667.043 579.008 667.168 579.428C667.293 579.847 667.053 580.289 666.633 580.414C659.016 582.657 645.618 552.478 636.879 522.946C629.103 496.662 624.145 467.949 628.52 460.371L628.519 460.374Z" fill="#1E211D"/>
<path d="M663.084 540.31C663.245 540.032 663.564 539.869 663.899 539.925C664.333 539.995 664.629 540.403 664.559 540.836L659.329 573.351C659.259 573.784 658.852 574.077 658.417 574.009C657.984 573.938 657.688 573.53 657.758 573.097L662.988 540.582C663.003 540.484 663.036 540.393 663.083 540.312L663.084 540.31Z" fill="#1E211D"/>
<path d="M657.27 519.146C657.431 518.868 657.751 518.705 658.085 518.761C658.519 518.831 658.815 519.239 658.745 519.672L652.212 560.306C652.143 560.736 651.736 561.032 651.301 560.964C650.867 560.893 650.571 560.486 650.641 560.053L657.174 519.418C657.189 519.32 657.222 519.229 657.269 519.148L657.27 519.146Z" fill="#1E211D"/>
<path d="M647.521 517.763C647.681 517.485 648.001 517.322 648.336 517.378C648.769 517.449 649.062 517.855 648.995 518.29L645.04 542.88C644.972 543.31 644.564 543.605 644.129 543.537C643.695 543.467 643.402 543.061 643.469 542.626L647.424 518.036C647.439 517.938 647.473 517.846 647.519 517.766L647.521 517.763Z" fill="#1E211D"/>
<path d="M640.407 480.401C640.568 480.124 640.887 479.961 641.222 480.017C641.656 480.087 641.949 480.493 641.882 480.928L636.324 515.461C636.254 515.894 635.848 516.187 635.413 516.119C634.979 516.048 634.686 515.642 634.753 515.208L640.311 480.674C640.326 480.576 640.359 480.484 640.406 480.404L640.407 480.401Z" fill="#1E211D"/>
<path d="M606.031 450.733C606.129 450.564 606.291 450.428 606.493 450.369L617.938 447.002C618.358 446.877 618.8 447.118 618.925 447.537C619.05 447.957 618.81 448.399 618.39 448.523L606.946 451.891C606.526 452.015 606.084 451.775 605.959 451.355C605.893 451.138 605.925 450.916 606.031 450.733Z" fill="#1E211D"/>
<path d="M604.036 461.144C604.134 460.975 604.296 460.84 604.499 460.781L616.772 457.17C617.192 457.046 617.634 457.286 617.759 457.706C617.884 458.125 617.644 458.567 617.224 458.691L604.951 462.302C604.531 462.426 604.089 462.186 603.964 461.767C603.898 461.549 603.931 461.327 604.036 461.144Z" fill="#1E211D"/>
<path d="M624.159 555.338C624.257 555.169 624.419 555.033 624.621 554.974L637.438 551.204C637.858 551.08 638.3 551.32 638.424 551.742C638.549 552.162 638.309 552.604 637.889 552.728L625.072 556.499C624.652 556.623 624.21 556.383 624.085 555.963C624.019 555.746 624.052 555.524 624.157 555.341L624.159 555.338Z" fill="#1E211D"/>
<path d="M631.081 563.909C631.179 563.74 631.341 563.605 631.544 563.546L641.315 560.672C641.735 560.547 642.177 560.788 642.301 561.21C642.426 561.63 642.186 562.072 641.766 562.196L631.994 565.07C631.575 565.195 631.132 564.954 631.007 564.535C630.941 564.317 630.974 564.096 631.08 563.912L631.081 563.909Z" fill="#1E211D"/>
<path d="M645.596 595.011C645.693 594.842 645.856 594.707 646.058 594.648L657.992 591.135C658.411 591.011 658.854 591.251 658.979 591.671C659.104 592.09 658.864 592.532 658.444 592.657L646.51 596.169C646.091 596.294 645.648 596.053 645.523 595.634C645.457 595.416 645.49 595.195 645.596 595.011Z" fill="#1E211D"/>
</g>
<g clip-path="url(#clip2_400_1737)">
<path d="M1131.12 583.31L1122.88 591.98C1118.33 596.768 1097.41 584.244 1076.14 564.004C1054.88 543.766 1041.33 523.478 1045.88 518.689L1054.12 510.02L1131.12 583.31Z" fill="#FFC803"/>
<path d="M1084.38 555.335C1105.65 575.574 1126.57 588.099 1131.12 583.311C1135.67 578.522 1122.12 558.233 1100.86 537.994C1079.59 517.755 1058.67 505.23 1054.12 510.019C1049.57 514.808 1063.12 535.096 1084.38 555.335Z" fill="#FFC803"/>
<path d="M1052.72 512.667C1052.72 511.456 1053.03 510.427 1053.75 509.67C1053.94 509.466 1054.26 509.458 1054.47 509.651C1054.67 509.844 1054.68 510.166 1054.49 510.37C1052.49 512.465 1054.5 518.382 1059.99 526.599C1065.69 535.129 1074.47 545.202 1084.73 554.966C1094.99 564.729 1105.48 573.004 1114.28 578.27C1122.76 583.344 1128.76 585.054 1130.75 582.958C1130.94 582.755 1131.27 582.746 1131.47 582.939C1131.67 583.132 1131.68 583.455 1131.49 583.658C1128.44 586.871 1120.16 582.975 1113.76 579.141C1104.9 573.84 1094.34 565.514 1084.03 555.701C1073.72 545.889 1064.88 535.752 1059.15 527.163C1055.98 522.42 1052.72 516.586 1052.72 512.662L1052.72 512.667Z" fill="#1E211D"/>
<path d="M1063.5 519.3C1063.5 518.607 1063.68 518.047 1064.07 517.642C1064.26 517.438 1064.59 517.43 1064.79 517.623C1064.99 517.816 1065 518.138 1064.81 518.342C1062.59 520.679 1071.92 534.514 1088.85 550.629C1105.78 566.746 1120.06 575.375 1122.28 573.04C1122.47 572.837 1122.79 572.828 1122.99 573.021C1123.2 573.214 1123.21 573.536 1123.01 573.74C1119.51 577.428 1102.44 564.965 1088.15 551.367C1075.43 539.264 1063.5 524.909 1063.5 519.298L1063.5 519.3Z" fill="#1E211D"/>
<path d="M1108.22 552.607C1108.22 552.402 1108.35 552.209 1108.55 552.132C1108.81 552.033 1109.11 552.164 1109.21 552.427L1116.71 572.16C1116.81 572.423 1116.68 572.716 1116.41 572.817C1116.15 572.917 1115.86 572.786 1115.76 572.523L1108.25 552.79C1108.23 552.73 1108.22 552.669 1108.22 552.609L1108.22 552.607Z" fill="#1E211D"/>
<path d="M1098.23 542.719C1098.23 542.513 1098.35 542.32 1098.56 542.244C1098.82 542.144 1099.12 542.275 1099.21 542.538L1108.59 567.198C1108.69 567.458 1108.56 567.753 1108.3 567.855C1108.04 567.955 1107.74 567.823 1107.64 567.56L1098.26 542.901C1098.24 542.842 1098.23 542.78 1098.23 542.721L1098.23 542.719Z" fill="#1E211D"/>
<path d="M1092.39 545.077C1092.39 544.871 1092.51 544.678 1092.71 544.602C1092.98 544.502 1093.27 544.634 1093.37 544.897L1099.05 559.82C1099.15 560.081 1099.01 560.375 1098.75 560.477C1098.49 560.577 1098.2 560.445 1098.09 560.182L1092.42 545.259C1092.4 545.2 1092.39 545.138 1092.39 545.079L1092.39 545.077Z" fill="#1E211D"/>
<path d="M1076.5 526.61C1076.5 526.404 1076.62 526.211 1076.82 526.135C1077.09 526.035 1077.38 526.167 1077.48 526.43L1085.45 547.388C1085.55 547.651 1085.42 547.944 1085.15 548.046C1084.89 548.145 1084.6 548.014 1084.5 547.751L1076.53 526.792C1076.51 526.733 1076.5 526.672 1076.5 526.612L1076.5 526.61Z" fill="#1E211D"/>
<path d="M1047.96 521.156C1047.96 521.03 1048.01 520.903 1048.1 520.806L1053.36 515.266C1053.56 515.063 1053.88 515.054 1054.08 515.247C1054.29 515.44 1054.29 515.763 1054.1 515.966L1048.84 521.505C1048.65 521.709 1048.32 521.718 1048.12 521.525C1048.01 521.425 1047.96 521.291 1047.96 521.156Z" fill="#1E211D"/>
<path d="M1050.19 527.577C1050.19 527.452 1050.23 527.325 1050.33 527.227L1055.97 521.287C1056.16 521.084 1056.48 521.075 1056.69 521.268C1056.89 521.461 1056.9 521.783 1056.71 521.987L1051.06 527.927C1050.87 528.131 1050.55 528.139 1050.34 527.946C1050.24 527.846 1050.19 527.713 1050.19 527.577Z" fill="#1E211D"/>
<path d="M1091.46 573.432C1091.46 573.307 1091.51 573.18 1091.6 573.083L1097.5 566.88C1097.69 566.676 1098.01 566.668 1098.21 566.863C1098.42 567.056 1098.43 567.378 1098.23 567.582L1092.34 573.784C1092.15 573.988 1091.82 573.997 1091.62 573.804C1091.52 573.704 1091.46 573.57 1091.46 573.435L1091.46 573.432Z" fill="#1E211D"/>
<path d="M1098.04 575.973C1098.04 575.848 1098.09 575.721 1098.18 575.623L1102.67 570.894C1102.87 570.69 1103.19 570.682 1103.39 570.877C1103.59 571.07 1103.6 571.392 1103.41 571.596L1098.92 576.325C1098.72 576.529 1098.4 576.537 1098.2 576.344C1098.09 576.244 1098.04 576.111 1098.04 575.975L1098.04 575.973Z" fill="#1E211D"/>
<path d="M1116.03 588.591C1116.03 588.466 1116.07 588.339 1116.17 588.241L1121.66 582.464C1121.85 582.261 1122.17 582.252 1122.37 582.445C1122.58 582.638 1122.59 582.961 1122.39 583.164L1116.91 588.941C1116.71 589.144 1116.39 589.153 1116.19 588.96C1116.08 588.86 1116.03 588.727 1116.03 588.591Z" fill="#1E211D"/>
</g>
<path d="M489.901 381.312L494.707 392.262C497.362 398.31 477.716 412.759 450.825 424.534C423.935 436.311 399.984 440.955 397.33 434.905L392.523 423.954L489.901 381.312Z" fill="#FFC803"/>
<path d="M446.019 413.584C472.909 401.809 492.556 387.359 489.901 381.311C487.246 375.263 463.295 379.906 436.404 391.682C409.514 403.458 389.867 417.907 392.522 423.955C395.177 430.003 419.128 425.36 446.019 413.584Z" fill="#FFC803"/>
<path d="M394.422 426.27C393.305 425.801 392.477 425.116 392.057 424.161C391.944 423.904 392.061 423.604 392.317 423.491C392.574 423.378 392.874 423.495 392.988 423.752C394.149 426.399 400.382 426.836 410.084 424.954C420.152 423.003 432.841 418.799 445.813 413.119C458.785 407.439 470.476 400.964 478.736 394.889C486.695 389.036 490.595 384.161 489.433 381.515C489.32 381.259 489.437 380.958 489.693 380.846C489.95 380.733 490.25 380.85 490.364 381.106C492.146 385.163 485.351 391.287 479.338 395.707C471.021 401.824 459.258 408.338 446.221 414.048C433.183 419.758 420.417 423.985 410.278 425.95C404.677 427.035 398.036 427.784 394.418 426.266L394.422 426.27Z" fill="#1E211D"/>
<path d="M404.712 418.892C404.072 418.624 403.626 418.239 403.402 417.727C403.289 417.47 403.406 417.17 403.663 417.057C403.919 416.944 404.22 417.061 404.333 417.318C405.629 420.27 421.996 417.021 443.408 407.642C464.822 398.265 478.302 388.441 477.008 385.492C476.895 385.236 477.012 384.935 477.268 384.823C477.525 384.71 477.825 384.827 477.939 385.083C479.984 389.74 461.884 400.662 443.817 408.575C427.737 415.616 409.884 421.063 404.71 418.891L404.712 418.892Z" fill="#1E211D"/>
<path d="M452.728 390.547C452.538 390.467 452.409 390.277 452.417 390.06C452.427 389.779 452.662 389.559 452.943 389.569L474.042 390.286C474.323 390.296 474.542 390.53 474.534 390.812C474.524 391.093 474.289 391.314 474.008 391.304L452.909 390.586C452.846 390.585 452.785 390.571 452.73 390.548L452.728 390.547Z" fill="#1E211D"/>
<path d="M439.744 395.932C439.554 395.853 439.424 395.663 439.433 395.446C439.443 395.165 439.678 394.944 439.959 394.954L466.326 395.849C466.605 395.858 466.826 396.093 466.818 396.375C466.808 396.656 466.573 396.876 466.292 396.866L439.925 395.972C439.861 395.97 439.8 395.956 439.746 395.933L439.744 395.932Z" fill="#1E211D"/>
<path d="M439.657 402.233C439.468 402.154 439.338 401.964 439.346 401.747C439.356 401.466 439.591 401.247 439.872 401.255L455.829 401.797C456.108 401.807 456.329 402.042 456.321 402.323C456.311 402.604 456.077 402.823 455.795 402.815L439.839 402.273C439.775 402.271 439.714 402.257 439.659 402.234L439.657 402.233Z" fill="#1E211D"/>
<path d="M416.48 409.74C416.29 409.661 416.161 409.471 416.169 409.254C416.179 408.973 416.413 408.754 416.695 408.762L439.104 409.526C439.385 409.536 439.604 409.771 439.596 410.052C439.586 410.333 439.352 410.552 439.07 410.544L416.661 409.78C416.598 409.778 416.537 409.764 416.482 409.741L416.48 409.74Z" fill="#1E211D"/>
<path d="M400.409 433.941C400.294 433.892 400.195 433.8 400.141 433.677L397.07 426.68C396.956 426.423 397.073 426.123 397.33 426.01C397.587 425.897 397.887 426.014 398 426.271L401.071 433.267C401.184 433.524 401.068 433.824 400.811 433.937C400.678 433.996 400.534 433.993 400.409 433.941Z" fill="#1E211D"/>
<path d="M407.191 434.374C407.075 434.326 406.976 434.234 406.922 434.11L403.629 426.607C403.516 426.35 403.633 426.05 403.89 425.937C404.146 425.824 404.447 425.941 404.56 426.198L407.853 433.701C407.966 433.957 407.849 434.258 407.593 434.371C407.46 434.43 407.316 434.427 407.191 434.374Z" fill="#1E211D"/>
<path d="M465.447 414.057C465.331 414.009 465.232 413.917 465.178 413.793L461.739 405.957C461.626 405.701 461.743 405.401 462.002 405.289C462.258 405.176 462.559 405.293 462.672 405.549L466.111 413.385C466.224 413.641 466.107 413.942 465.85 414.054C465.717 414.114 465.574 414.111 465.449 414.058L465.447 414.057Z" fill="#1E211D"/>
<path d="M470.334 408.976C470.218 408.928 470.119 408.835 470.065 408.712L467.443 402.738C467.33 402.481 467.447 402.181 467.706 402.069C467.962 401.956 468.263 402.073 468.376 402.33L470.998 408.303C471.111 408.56 470.994 408.86 470.737 408.973C470.604 409.032 470.461 409.029 470.336 408.977L470.334 408.976Z" fill="#1E211D"/>
<path d="M488.93 397.271C488.815 397.223 488.715 397.131 488.661 397.007L485.458 389.712C485.345 389.455 485.462 389.155 485.719 389.042C485.975 388.929 486.276 389.046 486.389 389.302L489.592 396.598C489.705 396.854 489.588 397.155 489.332 397.268C489.199 397.327 489.055 397.324 488.93 397.271Z" fill="#1E211D"/>
<g clip-path="url(#clip3_400_1737)">
<path d="M1200.98 274.806L1209.93 287.299C1221.93 304.045 1207.17 335.237 1176.97 356.972C1146.76 378.706 1112.55 382.751 1100.55 366.006L1091.6 353.513L1200.98 274.806Z" fill="#FFC803"/>
<path d="M1168.02 344.474C1198.22 322.736 1212.98 291.541 1200.98 274.797C1188.98 258.053 1154.77 262.102 1124.56 283.839C1094.36 305.577 1079.6 336.772 1091.6 353.516C1103.6 370.26 1137.81 366.211 1168.02 344.474Z" fill="#FFC803"/>
<path d="M1121.62 364.737C1107.47 366.081 1096.51 362.36 1090.66 354.189C1090.29 353.666 1090.41 352.946 1090.93 352.572C1091.44 352.198 1092.17 352.318 1092.54 352.836C1098.08 360.575 1108.82 363.929 1122.84 362.272C1137.09 360.589 1152.89 353.934 1167.34 343.534C1181.79 333.134 1193.14 320.258 1199.28 307.273C1205.32 294.512 1205.59 283.221 1200.04 275.483C1199.67 274.96 1199.79 274.24 1200.31 273.866C1200.82 273.496 1201.55 273.612 1201.92 274.13C1207.98 282.587 1207.78 294.71 1201.37 308.269C1195.06 321.603 1183.46 334.796 1168.69 345.42C1153.92 356.044 1137.74 362.847 1123.12 364.575C1122.61 364.633 1122.12 364.69 1121.62 364.737Z" fill="#1E211D"/>
<path d="M1122.69 353.171C1112.94 354.098 1105.54 351.703 1101.66 346.277C1101.28 345.755 1101.4 345.035 1101.92 344.66C1102.44 344.291 1103.16 344.407 1103.53 344.925C1107.36 350.264 1115.36 352.203 1126.04 350.383C1137.02 348.515 1149.42 342.916 1160.95 334.618C1184.52 317.654 1197.13 294.674 1189.04 283.39C1188.67 282.868 1188.79 282.148 1189.31 281.774C1189.82 281.399 1190.55 281.52 1190.92 282.038C1195.29 288.136 1194.62 297.217 1189.05 307.609C1183.61 317.741 1174.11 328.005 1162.3 336.504C1150.49 345.003 1137.75 350.746 1126.43 352.671C1125.15 352.89 1123.9 353.057 1122.69 353.172L1122.69 353.171Z" fill="#1E211D"/>
<path d="M1154.76 368.103C1154.36 368.141 1153.96 367.971 1153.71 367.626L1146.25 357.219C1145.87 356.697 1146 355.977 1146.51 355.602C1147.03 355.233 1147.75 355.349 1148.13 355.867L1155.58 366.273C1155.96 366.796 1155.84 367.516 1155.32 367.89C1155.15 368.013 1154.95 368.085 1154.75 368.104L1154.76 368.103Z" fill="#1E211D"/>
<path d="M1144.69 368.327C1144.29 368.365 1143.89 368.194 1143.64 367.849L1138.24 360.319C1137.86 359.797 1137.98 359.077 1138.5 358.703C1139.02 358.328 1139.74 358.449 1140.11 358.967L1145.51 366.501C1145.89 367.024 1145.77 367.744 1145.25 368.118C1145.08 368.241 1144.88 368.313 1144.68 368.332L1144.69 368.327Z" fill="#1E211D"/>
<path d="M1135.72 370.095C1135.33 370.133 1134.92 369.963 1134.68 369.617L1129.75 362.746C1129.38 362.224 1129.5 361.504 1130.01 361.13C1130.53 360.76 1131.25 360.876 1131.63 361.394L1136.55 368.265C1136.93 368.787 1136.81 369.507 1136.29 369.882C1136.12 370.005 1135.92 370.077 1135.72 370.095Z" fill="#1E211D"/>
<path d="M1124.42 368.601C1124.03 368.638 1123.62 368.468 1123.38 368.123L1120.6 364.256C1120.23 363.738 1120.35 363.013 1120.87 362.639C1121.38 362.265 1122.11 362.385 1122.48 362.903L1125.25 366.77C1125.63 367.288 1125.51 368.013 1124.99 368.387C1124.82 368.51 1124.62 368.582 1124.42 368.601Z" fill="#1E211D"/>
<path d="M1192.37 296.679C1192.17 296.698 1191.96 296.665 1191.76 296.572L1161.36 282.161C1160.78 281.886 1160.54 281.195 1160.81 280.616C1161.08 280.037 1161.77 279.792 1162.35 280.062L1192.75 294.473C1193.33 294.749 1193.57 295.439 1193.3 296.018C1193.12 296.399 1192.76 296.637 1192.37 296.674L1192.37 296.679Z" fill="#1E211D"/>
<path d="M1187.9 308.679C1187.7 308.698 1187.49 308.665 1187.3 308.571L1159.23 295.259C1158.65 294.984 1158.4 294.294 1158.67 293.715C1158.95 293.136 1159.64 292.891 1160.21 293.161L1188.29 306.473C1188.86 306.748 1189.11 307.438 1188.84 308.017C1188.66 308.399 1188.29 308.637 1187.9 308.674L1187.9 308.679Z" fill="#1E211D"/>
<path d="M1175.71 324.732C1175.51 324.751 1175.3 324.718 1175.1 324.625L1140.93 308.422C1140.35 308.147 1140.11 307.457 1140.38 306.878C1140.65 306.298 1141.34 306.054 1141.92 306.324L1176.09 322.527C1176.67 322.802 1176.92 323.492 1176.65 324.071C1176.46 324.452 1176.1 324.691 1175.71 324.727L1175.71 324.732Z" fill="#1E211D"/>
<path d="M1167.52 332.261C1167.32 332.281 1167.11 332.247 1166.92 332.154L1153.32 325.708C1152.75 325.433 1152.5 324.743 1152.77 324.164C1153.04 323.584 1153.73 323.34 1154.31 323.61L1167.91 330.055C1168.48 330.33 1168.73 331.021 1168.46 331.6C1168.28 331.981 1167.91 332.219 1167.52 332.256L1167.52 332.261Z" fill="#1E211D"/>
<path d="M1140.56 348.538C1140.36 348.557 1140.15 348.523 1139.95 348.431L1110.91 334.662C1110.33 334.387 1110.09 333.697 1110.36 333.118C1110.63 332.539 1111.32 332.294 1111.9 332.564L1140.94 346.332C1141.52 346.607 1141.76 347.298 1141.49 347.877C1141.31 348.258 1140.95 348.496 1140.56 348.533L1140.56 348.538Z" fill="#1E211D"/>
<path d="M1194.04 337.392C1193.64 337.43 1193.24 337.259 1192.99 336.914L1186.41 327.735C1186.03 327.213 1186.15 326.492 1186.67 326.118C1187.19 325.744 1187.91 325.865 1188.28 326.382L1194.86 335.562C1195.24 336.084 1195.12 336.804 1194.6 337.178C1194.43 337.302 1194.23 337.374 1194.04 337.392L1194.04 337.392Z" fill="#1E211D"/>
<path d="M1198.11 328.197C1197.71 328.234 1197.3 328.064 1197.05 327.719L1192.04 320.711C1191.66 320.189 1191.78 319.469 1192.3 319.095C1192.81 318.72 1193.54 318.841 1193.91 319.359L1198.93 326.366C1199.3 326.889 1199.18 327.609 1198.67 327.983C1198.5 328.106 1198.3 328.178 1198.1 328.197L1198.11 328.197Z" fill="#1E211D"/>
</g>
<path d="M919.59 36.9998L927.264 40.17C937.551 44.4193 939.7 62.9392 932.061 81.5382C924.423 100.137 909.893 111.77 899.604 107.522L891.93 104.352L919.59 36.9998Z" fill="#FFC803"/>
<path d="M924.387 78.3649C932.024 59.7648 929.874 41.2432 919.587 36.9957C909.299 32.7483 894.768 44.3834 887.132 62.9834C879.495 81.5835 881.645 100.105 891.932 104.353C902.22 108.6 916.751 96.9649 924.387 78.3649Z" fill="#FFC803"/>
<path d="M908.904 100.917C902.801 105.577 896.713 107.003 891.695 104.929C891.374 104.796 891.223 104.432 891.353 104.112C891.483 103.793 891.849 103.642 892.169 103.772C896.922 105.736 902.803 104.206 908.761 99.437C914.81 94.5949 920.154 87.0264 923.807 78.1277C927.461 69.2291 928.982 60.083 928.089 52.3725C927.21 44.796 924.108 39.5406 919.353 37.5781C919.032 37.4454 918.881 37.0808 919.011 36.7616C919.142 36.4444 919.507 36.2909 919.826 36.4216C925.021 38.568 928.396 44.1824 929.331 52.2317C930.251 60.1486 928.698 69.5156 924.966 78.6063C921.231 87.6986 915.756 95.4429 909.544 100.416C909.33 100.586 909.117 100.754 908.904 100.917Z" fill="#1E211D"/>
<path d="M906.09 95.3078C901.881 98.5213 897.806 99.5369 894.473 98.1596C894.153 98.0269 894.002 97.6623 894.132 97.3431C894.263 97.0259 894.628 96.8724 894.947 97.003C898.227 98.3583 902.449 96.9608 906.828 93.0724C911.328 89.0778 915.413 82.967 918.328 75.8665C924.289 61.3499 923.5 47.2117 916.568 44.3484C916.247 44.2157 916.097 43.8511 916.226 43.5319C916.356 43.2127 916.722 43.0612 917.042 43.1919C920.789 44.7388 923.078 49.0935 923.492 55.4517C923.894 61.6519 922.472 69.0735 919.487 76.3451C916.5 83.6183 912.301 89.8922 907.659 94.011C907.134 94.4777 906.609 94.911 906.088 95.3094L906.09 95.3078Z" fill="#1E211D"/>
<path d="M925.061 92.9892C924.889 93.1204 924.655 93.1576 924.442 93.0711L918.048 90.4312C917.727 90.2985 917.577 89.9339 917.706 89.6147C917.838 89.2976 918.202 89.1441 918.522 89.2747L924.916 91.9145C925.236 92.0473 925.387 92.4118 925.257 92.7311C925.213 92.8368 925.144 92.926 925.059 92.9908L925.061 92.9892Z" fill="#1E211D"/>
<path d="M920.507 95.9702C920.335 96.1014 920.101 96.1386 919.888 96.052L915.261 94.1424C914.94 94.0096 914.789 93.6451 914.919 93.3258C915.049 93.0066 915.415 92.8552 915.734 92.9858L920.363 94.8976C920.684 95.0303 920.834 95.3949 920.705 95.7141C920.661 95.8198 920.591 95.909 920.506 95.9738L920.507 95.9702Z" fill="#1E211D"/>
<path d="M916.902 99.3434C916.732 99.473 916.497 99.5118 916.285 99.4237L912.064 97.6805C911.743 97.5478 911.592 97.1832 911.722 96.864C911.854 96.5468 912.218 96.3933 912.537 96.524L916.759 98.2671C917.08 98.3998 917.23 98.7644 917.1 99.0836C917.057 99.1894 916.987 99.2786 916.902 99.3434Z" fill="#1E211D"/>
<path d="M911.294 101.888C911.124 102.017 910.888 102.056 910.677 101.968L908.3 100.988C907.98 100.857 907.828 100.491 907.958 100.171C908.088 99.8521 908.454 99.7006 908.773 99.8313L911.151 100.811C911.47 100.942 911.622 101.309 911.492 101.628C911.448 101.734 911.379 101.823 911.294 101.888Z" fill="#1E211D"/>
<path d="M921.89 49.491C921.803 49.5574 921.699 49.601 921.582 49.6149L903.524 51.696C903.181 51.7351 902.871 51.4885 902.829 51.1461C902.789 50.8021 903.035 50.4929 903.377 50.4518L921.435 48.3707C921.779 48.3316 922.088 48.5781 922.13 48.9205C922.156 49.1473 922.056 49.3609 921.889 49.4889L921.89 49.491Z" fill="#1E211D"/>
<path d="M923.272 56.2704C923.185 56.3368 923.08 56.3804 922.965 56.3927L906.289 58.3127C905.945 58.3518 905.636 58.1052 905.594 57.7628C905.554 57.4188 905.8 57.1096 906.142 57.0685L922.818 55.1485C923.162 55.1094 923.471 55.3559 923.513 55.6984C923.539 55.9251 923.44 56.1387 923.272 56.2668L923.272 56.2704Z" fill="#1E211D"/>
<path d="M922.271 67.1148C922.184 67.1812 922.08 67.2248 921.963 67.2387L901.663 69.5766C901.319 69.6157 901.01 69.3692 900.968 69.0267C900.928 68.6827 901.174 68.3735 901.516 68.3324L921.816 65.9944C922.159 65.9553 922.469 66.2019 922.511 66.5443C922.536 66.7711 922.437 66.9847 922.27 67.1127L922.271 67.1148Z" fill="#1E211D"/>
<path d="M920.667 72.908C920.58 72.9744 920.476 73.0179 920.361 73.0303L912.285 73.9606C911.941 73.9997 911.632 73.7532 911.59 73.4107C911.55 73.0667 911.796 72.7576 912.138 72.7164L920.214 71.7861C920.557 71.747 920.867 71.9935 920.909 72.3359C920.934 72.5627 920.835 72.7763 920.668 72.9043L920.667 72.908Z" fill="#1E211D"/>
<path d="M912.957 88.0774C912.87 88.1438 912.765 88.1873 912.648 88.2013L895.397 90.1887C895.054 90.2278 894.744 89.9812 894.702 89.6388C894.662 89.2947 894.908 88.9856 895.25 88.9444L912.501 86.957C912.845 86.9179 913.154 87.1645 913.196 87.5069C913.222 87.7337 913.123 87.9473 912.955 88.0753L912.957 88.0774Z" fill="#1E211D"/>
<path d="M934.294 67.6803C934.122 67.8115 933.889 67.8487 933.675 67.7621L928.034 65.4344C927.713 65.3016 927.563 64.937 927.692 64.6178C927.822 64.2986 928.188 64.1472 928.508 64.2778L934.149 66.6056C934.47 66.7383 934.62 67.1029 934.49 67.4221C934.447 67.5278 934.377 67.617 934.292 67.6819L934.294 67.6803Z" fill="#1E211D"/>
<path d="M933.531 62.3019C933.359 62.4331 933.125 62.4704 932.911 62.3838L928.607 60.6053C928.286 60.4725 928.136 60.1079 928.266 59.7887C928.396 59.4695 928.762 59.3181 929.081 59.4487L933.385 61.2273C933.706 61.36 933.857 61.7246 933.727 62.0438C933.683 62.1495 933.613 62.2387 933.529 62.3035L933.531 62.3019Z" fill="#1E211D"/>
<path d="M57.0899 165.511L64.9729 162.904C75.5401 159.409 89.2562 172.037 95.6088 191.114C101.962 210.19 98.5458 228.487 87.9781 231.985L80.0951 234.592L57.0899 165.511Z" fill="#FFC803"/>
<path d="M87.7235 193.719C81.3689 174.643 67.6515 162.013 57.085 165.51C46.5184 169.007 43.104 187.306 49.4587 206.382C55.8134 225.458 69.5307 238.088 80.0973 234.591C90.6638 231.094 94.0782 212.795 87.7235 193.719Z" fill="#FFC803"/>
<path d="M90.7137 220.91C89.1313 228.424 85.4498 233.478 80.2941 235.182C79.9643 235.291 79.6123 235.113 79.5023 234.786C79.3924 234.46 79.5709 234.106 79.8981 233.996C84.7816 232.382 88.2378 227.384 89.6389 219.882C91.0615 212.266 90.1703 203.043 87.13 193.917C84.0896 184.791 79.2723 176.869 73.5634 171.61C67.9523 166.443 62.1724 164.486 57.2884 166.104C56.9586 166.212 56.6066 166.035 56.4966 165.708C56.3892 165.382 56.5652 165.028 56.8924 164.918C62.2288 163.154 68.4508 165.204 74.413 170.692C80.2767 176.09 85.2145 184.2 88.32 193.524C91.4249 202.85 92.3314 212.291 90.871 220.112C90.8197 220.381 90.769 220.647 90.7137 220.91Z" fill="#1E211D"/>
<path d="M84.9206 218.497C83.8294 223.679 81.4051 227.108 77.9814 228.24C77.6516 228.349 77.2996 228.171 77.1896 227.844C77.0822 227.518 77.2582 227.164 77.5854 227.054C80.9547 225.941 83.2414 222.126 84.0208 216.322C84.8232 210.358 83.9291 203.063 81.5036 195.78C76.5447 180.891 66.7185 170.695 59.5982 173.05C59.2685 173.159 58.9164 172.981 58.8064 172.655C58.6965 172.328 58.875 171.974 59.2022 171.865C63.0507 170.591 67.6276 172.396 72.0912 176.943C76.4422 181.378 80.209 187.929 82.6937 195.387C85.1779 202.846 86.0915 210.34 85.2632 216.491C85.1699 217.187 85.0553 217.858 84.9201 218.5L84.9206 218.497Z" fill="#1E211D"/>
<path d="M97.7794 204.359C97.7348 204.57 97.582 204.751 97.3637 204.825L90.7966 206.998C90.4669 207.107 90.1148 206.929 90.0049 206.602C89.8975 206.276 90.0734 205.922 90.4006 205.813L96.9677 203.639C97.2975 203.53 97.6495 203.708 97.7595 204.035C97.7953 204.144 97.8009 204.257 97.7788 204.361L97.7794 204.359Z" fill="#1E211D"/>
<path d="M96.275 209.589C96.2304 209.801 96.0776 209.981 95.8593 210.055L91.1073 211.628C90.7776 211.737 90.4255 211.559 90.3156 211.233C90.2056 210.906 90.3841 210.552 90.7113 210.443L95.4659 208.87C95.7956 208.761 96.1477 208.939 96.2576 209.266C96.2934 209.375 96.299 209.488 96.277 209.592L96.275 209.589Z" fill="#1E211D"/>
<path d="M95.7459 214.498C95.7019 214.707 95.5486 214.89 95.3308 214.961L90.9949 216.396C90.6651 216.505 90.3131 216.327 90.2031 216C90.0957 215.674 90.2717 215.32 90.5989 215.211L94.9348 213.776C95.2646 213.667 95.6166 213.845 95.7266 214.172C95.7624 214.28 95.7679 214.393 95.7459 214.498Z" fill="#1E211D"/>
<path d="M93.1575 220.086C93.1135 220.295 92.9601 220.478 92.7424 220.549L90.3017 221.358C89.9745 221.468 89.6199 221.289 89.5099 220.962C89.3999 220.636 89.5785 220.282 89.9057 220.173L92.3464 219.364C92.6736 219.254 93.0282 219.433 93.1381 219.759C93.1739 219.868 93.1795 219.981 93.1575 220.086Z" fill="#1E211D"/>
<path d="M66.9871 173.472C66.9646 173.579 66.9139 173.681 66.8342 173.768L54.5118 187.13C54.2769 187.384 53.8815 187.4 53.6262 187.168C53.3715 186.933 53.3559 186.538 53.5882 186.284L65.9107 172.921C66.1456 172.667 66.541 172.652 66.7963 172.884C66.9637 173.039 67.028 173.265 66.9846 173.472L66.9871 173.472Z" fill="#1E211D"/>
<path d="M72.4585 177.707C72.4359 177.814 72.3853 177.915 72.3061 178L60.9249 190.339C60.69 190.593 60.2946 190.608 60.0393 190.376C59.7846 190.141 59.769 189.747 60.0013 189.492L71.3826 177.153C71.6175 176.899 72.0129 176.884 72.2681 177.116C72.4356 177.271 72.4999 177.498 72.4564 177.704L72.4585 177.707Z" fill="#1E211D"/>
<path d="M78.7779 186.576C78.7554 186.683 78.7047 186.785 78.625 186.872L64.7715 201.892C64.5366 202.146 64.1413 202.162 63.886 201.93C63.6313 201.695 63.6157 201.3 63.848 201.046L77.7015 186.025C77.9364 185.771 78.3318 185.756 78.5871 185.988C78.7545 186.143 78.8189 186.369 78.7754 186.576L78.7779 186.576Z" fill="#1E211D"/>
<path d="M81.3442 192.012C81.3216 192.119 81.271 192.22 81.1918 192.305L75.6807 198.281C75.4458 198.535 75.0504 198.55 74.7952 198.318C74.5405 198.083 74.5248 197.688 74.7572 197.434L80.2683 191.458C80.5032 191.204 80.8986 191.189 81.1538 191.421C81.3213 191.576 81.3856 191.802 81.3421 192.009L81.3442 192.012Z" fill="#1E211D"/>
<path d="M85.4039 208.537C85.3813 208.644 85.3307 208.745 85.251 208.832L73.4786 221.598C73.2437 221.852 72.8483 221.867 72.593 221.635C72.3383 221.4 72.3227 221.006 72.555 220.751L84.3275 207.986C84.5624 207.732 84.9578 207.717 85.213 207.949C85.3805 208.104 85.4448 208.33 85.4013 208.537L85.4039 208.537Z" fill="#1E211D"/>
<path d="M88.2555 179.157C88.211 179.369 88.0582 179.55 87.8399 179.624L82.0468 181.542C81.717 181.651 81.365 181.473 81.255 181.146C81.1451 180.82 81.3236 180.466 81.6508 180.356L87.4439 178.438C87.7736 178.329 88.1257 178.507 88.2356 178.834C88.2714 178.942 88.277 179.055 88.255 179.16L88.2555 179.157Z" fill="#1E211D"/>
<path d="M84.1664 175.581C84.1218 175.793 83.969 175.974 83.7507 176.047L79.329 177.509C78.9993 177.618 78.6472 177.44 78.5373 177.113C78.4273 176.787 78.6058 176.433 78.933 176.324L83.3547 174.862C83.6845 174.753 84.0365 174.931 84.1465 175.258C84.1823 175.366 84.1878 175.479 84.1658 175.584L84.1664 175.581Z" fill="#1E211D"/>
<path d="M347.88 167.149C370.237 166.492 387.823 147.836 387.16 125.48C386.497 103.123 367.837 85.5321 345.48 86.1885C323.124 86.845 305.537 105.501 306.2 127.857C306.863 150.214 325.524 167.805 347.88 167.149Z" fill="#FFC803"/>
<path d="M346.671 160.764C328.328 160.764 313.142 146.126 312.593 127.672C312.323 118.57 315.613 109.911 321.857 103.283C328.105 96.6538 336.56 92.8566 345.663 92.5928C364.48 92.0463 380.201 106.877 380.759 125.67C381.318 144.463 366.482 160.199 347.689 160.75C347.353 160.759 347.012 160.764 346.671 160.764ZM346.676 94.84C346.359 94.84 346.046 94.84 345.729 94.8541C337.232 95.1038 329.341 98.6467 323.513 104.833C317.681 111.018 314.609 119.108 314.86 127.607C315.371 144.835 329.549 158.503 346.671 158.503C346.984 158.503 347.301 158.503 347.618 158.489C365.157 157.975 379.003 143.276 378.487 125.736C377.976 108.512 363.798 94.84 346.676 94.84Z" fill="#1E211D"/>
<path d="M330.098 120.229C329.743 120.229 329.398 120.064 329.175 119.758C328.811 119.249 328.924 118.542 329.431 118.179L345.441 106.693C345.947 106.326 346.662 106.444 347.026 106.948C347.396 107.457 347.277 108.163 346.771 108.526L330.761 120.012C330.562 120.158 330.326 120.224 330.098 120.224V120.229Z" fill="#1E211D"/>
<path d="M329.01 132.308C328.654 132.308 328.309 132.143 328.086 131.837C327.722 131.328 327.836 130.622 328.342 130.259L357.408 109.402C357.914 109.035 358.624 109.153 358.993 109.657C359.363 110.166 359.244 110.872 358.738 111.235L329.672 132.092C329.473 132.238 329.241 132.304 329.01 132.304V132.308Z" fill="#1E211D"/>
<path d="M341.048 133.642C340.693 133.642 340.347 133.477 340.125 133.17C339.755 132.666 339.874 131.96 340.38 131.592L360.338 117.27C360.844 116.903 361.555 117.02 361.924 117.524C362.288 118.029 362.175 118.735 361.668 119.103L341.71 133.425C341.512 133.571 341.28 133.637 341.048 133.637V133.642Z" fill="#1E211D"/>
<path d="M339.794 148.195C339.439 148.195 339.093 148.03 338.871 147.723C338.506 147.215 338.62 146.508 339.126 146.145L366.843 126.254C367.349 125.892 368.059 126.005 368.428 126.509C368.798 127.018 368.679 127.724 368.173 128.087L340.456 147.978C340.258 148.124 340.026 148.19 339.794 148.19V148.195Z" fill="#1E211D"/>
<path d="M349.635 147.907C349.279 147.907 348.934 147.742 348.711 147.436C348.347 146.927 348.461 146.221 348.967 145.858L360.929 137.274C361.436 136.911 362.146 137.024 362.515 137.528C362.884 138.037 362.766 138.744 362.26 139.107L350.297 147.69C350.098 147.836 349.862 147.902 349.635 147.902V147.907Z" fill="#1E211D"/>
<path d="M626.999 120.723C641.075 120.31 652.148 108.564 651.73 94.4874C651.313 80.4111 639.564 69.3351 625.487 69.7484C611.411 70.1618 600.338 81.9079 600.756 95.9843C601.173 110.061 612.922 121.137 626.999 120.723Z" fill="#FFC803"/>
<path d="M626.238 116.703C614.688 116.703 605.127 107.487 604.781 95.8679C604.611 90.137 606.683 84.6849 610.614 80.5113C614.548 76.3377 619.872 73.9468 625.603 73.7807C637.451 73.4366 647.349 82.7746 647.701 94.6073C648.053 106.44 638.712 116.347 626.879 116.695C626.667 116.7 626.453 116.703 626.238 116.703ZM626.241 75.1956C626.041 75.1956 625.845 75.1956 625.645 75.2045C620.295 75.3617 615.326 77.5924 611.657 81.4872C607.985 85.382 606.051 90.4752 606.209 95.8264C606.531 106.674 615.457 115.28 626.238 115.28C626.435 115.28 626.634 115.28 626.834 115.271C637.877 114.947 646.595 105.692 646.27 94.6488C645.948 83.8039 637.022 75.1956 626.241 75.1956Z" fill="#1E211D"/>
<path d="M615.802 91.1812C615.579 91.1812 615.361 91.0774 615.221 90.8845C614.992 90.5642 615.063 90.1192 615.382 89.8908L625.462 82.6589C625.781 82.4276 626.231 82.5017 626.461 82.8191C626.693 83.1395 626.619 83.5844 626.3 83.8128L616.22 91.0447C616.095 91.1367 615.946 91.1782 615.802 91.1782V91.1812Z" fill="#1E211D"/>
<path d="M615.117 98.7868C614.893 98.7868 614.676 98.6829 614.536 98.4901C614.306 98.1698 614.378 97.7248 614.697 97.4964L632.997 84.3645C633.316 84.1331 633.763 84.2073 633.996 84.5247C634.228 84.845 634.154 85.29 633.835 85.5184L615.534 98.6503C615.409 98.7423 615.263 98.7838 615.117 98.7838V98.7868Z" fill="#1E211D"/>
<path d="M622.696 99.6263C622.473 99.6263 622.255 99.5225 622.115 99.3297C621.883 99.0123 621.957 98.5674 622.276 98.336L634.842 89.3184C635.161 89.087 635.608 89.1611 635.841 89.4785C636.07 89.7959 635.998 90.2409 635.68 90.4723L623.114 99.4899C622.988 99.5818 622.842 99.6234 622.696 99.6234V99.6263Z" fill="#1E211D"/>
<path d="M621.907 108.789C621.683 108.789 621.466 108.685 621.326 108.493C621.096 108.172 621.168 107.727 621.487 107.499L638.938 94.975C639.257 94.7466 639.704 94.8178 639.936 95.1352C640.169 95.4556 640.094 95.9005 639.775 96.1289L622.324 108.653C622.199 108.745 622.053 108.786 621.907 108.786V108.789Z" fill="#1E211D"/>
<path d="M628.103 108.608C627.88 108.608 627.662 108.504 627.522 108.312C627.293 107.991 627.364 107.546 627.683 107.318L635.215 101.913C635.534 101.685 635.981 101.756 636.213 102.073C636.446 102.394 636.371 102.839 636.052 103.067L628.521 108.472C628.395 108.564 628.246 108.605 628.103 108.605V108.608Z" fill="#1E211D"/>
<defs>
<clipPath id="clip0_400_1737">
<rect width="112" height="123" fill="white" transform="translate(132.683 380) rotate(43.5097)"/>
</clipPath>
<clipPath id="clip1_400_1737">
<rect width="131" height="136" fill="white" transform="translate(729.279 500) rotate(120)"/>
</clipPath>
<clipPath id="clip2_400_1737">
<rect width="84" height="87" fill="white" transform="translate(1132 509) rotate(90)"/>
</clipPath>
<clipPath id="clip3_400_1737">
<rect width="130" height="107" fill="white" transform="translate(1081 273.291) rotate(-5.42505)"/>
</clipPath>
</defs>
</svg>
