<svg width="1173" height="617" viewBox="0 0 1173 617" fill="none" xmlns="http://www.w3.org/2000/svg">
<g clip-path="url(#clip0_400_881)">
<path d="M21.0599 207.695L9.16617 217.002C-6.77671 229.475 -1.39378 262.937 21.1882 291.739C43.7703 320.542 74.9996 333.781 90.9395 321.305L102.833 311.998L21.0599 207.695Z" fill="#FFC803"/>
<path d="M102.834 311.999C118.776 299.525 113.394 266.063 90.8124 237.26C68.2312 208.458 37.0019 195.222 21.0599 207.697C5.11788 220.171 10.5001 253.633 33.0813 282.435C55.6626 311.238 86.8918 324.474 102.834 311.999Z" fill="#FFC803"/>
<path d="M88.0211 317.427C82.6054 317.427 76.5779 316.07 70.1685 313.355C56.8843 307.723 43.5135 296.899 32.5179 282.874C21.5223 268.848 14.2058 253.287 11.9172 239.053C9.60469 224.666 12.693 213.329 20.6182 207.129C20.9285 206.884 21.3791 206.941 21.6238 207.251C21.8684 207.561 21.8117 208.011 21.5014 208.256C5.89572 220.466 11.3443 253.543 33.6458 281.991C44.4922 295.829 57.6631 306.498 70.7265 312.037C83.6497 317.516 94.896 317.301 102.391 311.438C102.702 311.193 103.152 311.25 103.397 311.56C103.642 311.87 103.585 312.32 103.275 312.565C99.1331 315.805 93.9471 317.43 88.0211 317.43V317.427Z" fill="#1E211D"/>
<path d="M85.1751 305.201C80.8067 305.201 75.7728 303.875 70.3213 301.231C60.2059 296.327 49.7952 287.449 41.0017 276.235C32.2112 265.02 26.0793 252.795 23.7339 241.81C21.3528 230.646 23.164 222.055 28.8364 217.619C29.1467 217.375 29.5973 217.431 29.842 217.741C30.0866 218.051 30.0299 218.501 29.7196 218.746C18.7926 227.295 24.3606 252.691 42.1296 275.355C50.7888 286.4 61.0235 295.135 70.9449 299.946C80.7052 304.68 88.9526 305.038 94.1685 300.954C94.4818 300.709 94.9294 300.766 95.174 301.076C95.4187 301.386 95.362 301.836 95.0517 302.08C92.3901 304.164 89.0392 305.201 85.1751 305.201Z" fill="#1E211D"/>
<path d="M39.5454 308.007C39.3335 308.007 39.1217 307.911 38.9814 307.732C38.7368 307.422 38.7935 306.972 39.1038 306.728L49.0103 298.977C49.3206 298.733 49.7712 298.789 50.0158 299.099C50.2605 299.409 50.2038 299.86 49.8935 300.104L39.987 307.855C39.8557 307.956 39.7006 308.007 39.5454 308.007Z" fill="#1E211D"/>
<path d="M49.0044 310.994C48.7925 310.994 48.5807 310.898 48.4404 310.719C48.1958 310.409 48.2524 309.959 48.5628 309.715L55.733 304.105C56.0434 303.86 56.4939 303.917 56.7386 304.227C56.9833 304.537 56.9266 304.987 56.6163 305.231L49.446 310.842C49.3147 310.943 49.1595 310.994 49.0044 310.994Z" fill="#1E211D"/>
<path d="M56.9917 315.128C56.7798 315.128 56.568 315.033 56.4277 314.854C56.1831 314.544 56.2398 314.094 56.5501 313.849L63.0907 308.731C63.4011 308.487 63.8516 308.543 64.0963 308.853C64.341 309.163 64.2843 309.613 63.974 309.858L57.4333 314.976C57.302 315.078 57.1469 315.128 56.9917 315.128Z" fill="#1E211D"/>
<path d="M68.0835 316.836C67.8716 316.836 67.6598 316.741 67.5195 316.562C67.2749 316.252 67.3315 315.802 67.6419 315.558L71.327 312.675C71.6373 312.43 72.0879 312.487 72.3325 312.797C72.5772 313.107 72.5205 313.557 72.2102 313.802L68.5251 316.684C68.3938 316.786 68.2386 316.836 68.0835 316.836Z" fill="#1E211D"/>
<path d="M23.6148 230.342C23.2686 230.342 22.9643 230.092 22.9076 229.74C22.8449 229.349 23.1105 228.983 23.5014 228.92L56.1958 223.712C56.5867 223.653 56.9537 223.915 57.0163 224.306C57.079 224.696 56.8134 225.063 56.4226 225.125L23.7282 230.333C23.6894 230.339 23.6536 230.342 23.6148 230.342Z" fill="#1E211D"/>
<path d="M24.5425 242.88C24.1964 242.88 23.892 242.63 23.8353 242.278C23.7727 241.888 24.0382 241.521 24.4291 241.458L54.62 236.647C55.0109 236.587 55.3779 236.85 55.4406 237.24C55.5033 237.631 55.2377 237.997 54.8468 238.06L24.6559 242.871C24.6171 242.877 24.5813 242.88 24.5425 242.88Z" fill="#1E211D"/>
<path d="M31.6499 261.365C31.3038 261.365 30.9994 261.115 30.9428 260.763C30.8801 260.373 31.1457 260.006 31.5365 259.943L68.292 254.089C68.6829 254.029 69.0499 254.291 69.1126 254.682C69.1752 255.072 68.9097 255.439 68.5188 255.502L31.7633 261.356C31.7245 261.362 31.6887 261.365 31.6499 261.365Z" fill="#1E211D"/>
<path d="M37.3257 270.714C36.9796 270.714 36.6752 270.464 36.6185 270.112C36.5559 269.721 36.8214 269.355 37.2123 269.292L51.8363 266.964C52.2272 266.901 52.5942 267.167 52.6569 267.557C52.7196 267.948 52.454 268.314 52.0631 268.377L37.4391 270.705C37.4003 270.711 37.3615 270.714 37.3257 270.714Z" fill="#1E211D"/>
<path d="M58.3413 293.483C57.9952 293.483 57.6909 293.233 57.6342 292.881C57.5715 292.49 57.8371 292.124 58.228 292.061L89.4602 287.086C89.8511 287.026 90.2181 287.289 90.2808 287.679C90.3435 288.07 90.0779 288.436 89.687 288.499L58.4547 293.474C58.4159 293.48 58.3801 293.483 58.3413 293.483Z" fill="#1E211D"/>
<path d="M10.8491 268.246C10.6373 268.246 10.4254 268.15 10.2852 267.972C10.0405 267.662 10.0972 267.211 10.4075 266.967L19.1503 260.129C19.4606 259.884 19.9112 259.941 20.1558 260.251C20.4005 260.561 20.3438 261.011 20.0335 261.255L11.2907 268.094C11.1594 268.195 11.0043 268.246 10.8491 268.246Z" fill="#1E211D"/>
<path d="M9.53368 258.459C9.32183 258.459 9.10997 258.364 8.96973 258.185C8.72505 257.875 8.78174 257.425 9.09207 257.18L15.764 251.961C16.0744 251.716 16.5249 251.773 16.7696 252.083C17.0143 252.393 16.9576 252.843 16.6473 253.087L9.9753 258.307C9.84401 258.409 9.68884 258.459 9.53368 258.459Z" fill="#1E211D"/>
</g>
<g clip-path="url(#clip1_400_881)">
<path d="M846.889 344.375L860.409 357.252C867.877 364.363 848.344 397.074 816.78 430.315C785.219 463.555 753.579 484.737 746.111 477.622L732.591 464.745L846.889 344.375Z" fill="#FFC803"/>
<path d="M803.261 417.438C834.824 384.198 854.357 351.486 846.889 344.374C839.421 337.262 807.78 358.443 776.217 391.683C744.654 424.923 725.121 457.635 732.589 464.747C740.057 471.859 771.698 450.678 803.261 417.438Z" fill="#FFC803"/>
<path d="M736.718 466.934C734.83 466.934 733.226 466.447 732.045 465.324C731.727 465.023 731.714 464.519 732.015 464.201C732.316 463.883 732.819 463.87 733.136 464.172C736.404 467.285 745.631 464.145 758.447 455.563C771.748 446.66 787.458 432.925 802.684 416.891C817.911 400.857 830.816 384.451 839.028 370.699C846.942 357.448 849.608 348.061 846.34 344.951C846.023 344.649 846.009 344.146 846.31 343.828C846.611 343.51 847.114 343.497 847.431 343.798C852.442 348.568 846.366 361.505 840.387 371.514C832.119 385.362 819.135 401.867 803.832 417.984C788.529 434.101 772.721 447.915 759.326 456.881C751.928 461.833 742.83 466.931 736.711 466.931L736.718 466.934Z" fill="#1E211D"/>
<path d="M747.063 450.075C745.981 450.075 745.108 449.79 744.477 449.187C744.159 448.886 744.146 448.382 744.447 448.064C744.748 447.747 745.25 447.733 745.568 448.035C749.213 451.506 770.789 436.922 795.921 410.452C821.056 383.981 834.513 361.667 830.872 358.199C830.554 357.898 830.541 357.395 830.842 357.077C831.143 356.759 831.646 356.745 831.963 357.047C837.714 362.522 818.278 389.214 797.072 411.548C778.197 431.424 755.811 450.075 747.06 450.075H747.063Z" fill="#1E211D"/>
<path d="M799.007 380.172C798.686 380.172 798.385 379.977 798.266 379.659C798.11 379.248 798.315 378.788 798.726 378.632L829.499 366.904C829.91 366.748 830.366 366.953 830.525 367.364C830.68 367.775 830.475 368.235 830.065 368.391L799.291 380.119C799.198 380.155 799.103 380.172 799.01 380.172H799.007Z" fill="#1E211D"/>
<path d="M783.585 395.789C783.264 395.789 782.963 395.593 782.844 395.275C782.688 394.865 782.894 394.404 783.304 394.249L821.76 379.589C822.167 379.433 822.627 379.639 822.786 380.05C822.941 380.46 822.736 380.921 822.326 381.076L783.869 395.736C783.777 395.772 783.681 395.789 783.588 395.789H783.585Z" fill="#1E211D"/>
<path d="M787.262 404.924C786.942 404.924 786.641 404.728 786.522 404.41C786.366 404 786.571 403.543 786.981 403.384L810.254 394.514C810.661 394.358 811.121 394.563 811.28 394.974C811.435 395.385 811.23 395.842 810.82 396.001L787.547 404.871C787.454 404.907 787.358 404.924 787.266 404.924H787.262Z" fill="#1E211D"/>
<path d="M758.463 429.765C758.142 429.765 757.841 429.569 757.722 429.251C757.566 428.841 757.771 428.384 758.182 428.225L790.867 415.771C791.277 415.615 791.734 415.821 791.892 416.231C792.048 416.642 791.843 417.099 791.433 417.258L758.747 429.712C758.655 429.748 758.559 429.765 758.466 429.765H758.463Z" fill="#1E211D"/>
<path d="M749.957 474.369C749.762 474.369 749.563 474.297 749.411 474.151L740.772 465.923C740.455 465.622 740.442 465.119 740.743 464.801C741.044 464.483 741.546 464.469 741.864 464.771L750.502 472.998C750.82 473.3 750.833 473.803 750.532 474.121C750.377 474.287 750.168 474.369 749.957 474.369Z" fill="#1E211D"/>
<path d="M759.971 470.892C759.776 470.892 759.578 470.819 759.426 470.673L750.162 461.85C749.845 461.548 749.831 461.045 750.132 460.727C750.433 460.409 750.936 460.396 751.254 460.697L760.517 469.521C760.835 469.822 760.848 470.326 760.547 470.644C760.391 470.809 760.183 470.892 759.971 470.892Z" fill="#1E211D"/>
<path d="M831.484 406.368C831.288 406.368 831.09 406.295 830.938 406.149L821.264 396.935C820.947 396.634 820.933 396.13 821.238 395.812C821.539 395.494 822.041 395.481 822.359 395.782L832.033 404.997C832.35 405.298 832.363 405.802 832.062 406.12C831.907 406.285 831.699 406.368 831.487 406.368H831.484Z" fill="#1E211D"/>
<path d="M835.446 396.087C835.251 396.087 835.052 396.014 834.9 395.868L827.525 388.843C827.207 388.542 827.194 388.039 827.498 387.721C827.799 387.403 828.302 387.389 828.62 387.691L835.995 394.716C836.312 395.017 836.326 395.521 836.025 395.839C835.869 396.004 835.661 396.087 835.449 396.087H835.446Z" fill="#1E211D"/>
<path d="M855.124 367.967C854.929 367.967 854.73 367.894 854.578 367.748L845.569 359.17C845.252 358.868 845.239 358.365 845.54 358.047C845.841 357.729 846.343 357.716 846.661 358.017L855.67 366.596C855.987 366.897 856 367.401 855.699 367.718C855.544 367.884 855.336 367.967 855.124 367.967Z" fill="#1E211D"/>
</g>
<g clip-path="url(#clip2_400_881)">
<path d="M1071.63 561.97L1069.4 573.717C1068.16 580.206 1043.79 580.995 1014.95 575.479C986.119 569.965 963.747 560.234 964.984 553.744L967.221 541.996L1071.63 561.97Z" fill="#FFC803"/>
<path d="M1017.19 563.732C1046.02 569.247 1070.4 568.458 1071.63 561.969C1072.87 555.481 1050.49 545.749 1021.66 540.234C992.829 534.718 968.454 535.507 967.218 541.996C965.983 548.485 988.356 558.216 1017.19 563.732Z" fill="#FFC803"/>
<path d="M967.474 544.98C966.819 543.962 966.525 542.928 966.719 541.903C966.771 541.627 967.037 541.446 967.313 541.498C967.588 541.55 967.77 541.817 967.718 542.092C967.176 544.932 972.067 548.821 981.13 552.762C990.535 556.853 1003.37 560.57 1017.28 563.232C1031.19 565.893 1044.49 567.174 1054.74 566.842C1064.62 566.523 1070.59 564.712 1071.13 561.873C1071.18 561.598 1071.45 561.416 1071.72 561.468C1072 561.521 1072.18 561.787 1072.13 562.063C1071.3 566.415 1062.23 567.617 1054.78 567.857C1044.46 568.192 1031.07 566.902 1017.09 564.229C1003.11 561.555 990.197 557.812 980.726 553.692C975.495 551.416 969.596 548.275 967.474 544.975L967.474 544.98Z" fill="#1E211D"/>
<path d="M980.134 544.723C979.759 544.14 979.609 543.571 979.714 543.021C979.766 542.746 980.032 542.564 980.308 542.617C980.583 542.669 980.765 542.935 980.713 543.211C980.11 546.378 995.441 552.965 1018.4 557.356C1041.36 561.748 1058.04 561.281 1058.64 558.117C1058.69 557.842 1058.96 557.661 1059.23 557.713C1059.51 557.765 1059.69 558.032 1059.64 558.307C1058.69 563.303 1037.58 562.061 1018.21 558.356C1000.97 555.057 983.169 549.44 980.133 544.721L980.134 544.723Z" fill="#1E211D"/>
<path d="M1035.76 548.539C1035.65 548.366 1035.65 548.136 1035.78 547.962C1035.95 547.736 1036.27 547.687 1036.49 547.855L1053.48 560.39C1053.7 560.557 1053.75 560.875 1053.59 561.102C1053.42 561.328 1053.1 561.377 1052.87 561.21L1035.89 548.674C1035.84 548.637 1035.79 548.591 1035.76 548.541L1035.76 548.539Z" fill="#1E211D"/>
<path d="M1022.01 545.628C1021.9 545.455 1021.9 545.225 1022.03 545.051C1022.2 544.825 1022.51 544.776 1022.74 544.944L1043.97 560.608C1044.19 560.773 1044.24 561.092 1044.08 561.32C1043.91 561.546 1043.59 561.595 1043.37 561.427L1022.14 545.763C1022.08 545.726 1022.04 545.68 1022.01 545.63L1022.01 545.628Z" fill="#1E211D"/>
<path d="M1018.37 550.773C1018.26 550.6 1018.26 550.37 1018.39 550.196C1018.56 549.97 1018.87 549.922 1019.1 550.089L1031.95 559.569C1032.17 559.734 1032.22 560.053 1032.06 560.281C1031.89 560.507 1031.57 560.554 1031.34 560.388L1018.5 550.908C1018.45 550.871 1018.4 550.825 1018.37 550.775L1018.37 550.773Z" fill="#1E211D"/>
<path d="M995.016 543.841C994.904 543.668 994.905 543.438 995.035 543.264C995.202 543.038 995.519 542.99 995.747 543.156L1013.79 556.472C1014.01 556.639 1014.06 556.956 1013.89 557.184C1013.73 557.41 1013.41 557.458 1013.18 557.291L995.143 543.976C995.091 543.939 995.049 543.893 995.017 543.843L995.016 543.841Z" fill="#1E211D"/>
<path d="M968.067 554.692C968 554.587 967.97 554.455 967.996 554.323L969.425 546.817C969.477 546.541 969.743 546.36 970.018 546.412C970.294 546.464 970.475 546.731 970.423 547.006L968.994 554.512C968.942 554.788 968.676 554.969 968.401 554.917C968.258 554.89 968.141 554.807 968.067 554.692Z" fill="#1E211D"/>
<path d="M973.413 558.889C973.345 558.784 973.315 558.652 973.341 558.519L974.874 550.47C974.926 550.194 975.192 550.013 975.468 550.065C975.743 550.117 975.925 550.384 975.873 550.659L974.34 558.709C974.288 558.984 974.021 559.166 973.746 559.114C973.603 559.087 973.486 559.003 973.413 558.889Z" fill="#1E211D"/>
<path d="M1032.94 575.119C1032.87 575.014 1032.84 574.882 1032.86 574.749L1034.47 566.344C1034.52 566.068 1034.78 565.887 1035.06 565.941C1035.34 565.993 1035.52 566.259 1035.47 566.535L1033.86 574.941C1033.81 575.216 1033.55 575.398 1033.27 575.346C1033.13 575.319 1033.01 575.235 1032.94 575.121L1032.94 575.119Z" fill="#1E211D"/>
<path d="M1039.84 573.698C1039.77 573.592 1039.74 573.46 1039.77 573.328L1040.99 566.919C1041.04 566.644 1041.31 566.462 1041.59 566.516C1041.86 566.568 1042.04 566.835 1041.99 567.11L1040.77 573.519C1040.72 573.795 1040.45 573.976 1040.18 573.924C1040.03 573.897 1039.92 573.814 1039.84 573.699L1039.84 573.698Z" fill="#1E211D"/>
<path d="M1061.8 574.576C1061.73 574.471 1061.7 574.339 1061.73 574.206L1063.21 566.379C1063.27 566.103 1063.53 565.922 1063.81 565.974C1064.08 566.027 1064.27 566.293 1064.21 566.569L1062.72 574.396C1062.67 574.671 1062.41 574.853 1062.13 574.801C1061.99 574.774 1061.87 574.69 1061.8 574.576Z" fill="#1E211D"/>
</g>
<g clip-path="url(#clip3_400_881)">
<path d="M308.846 29.5657L313.652 40.5164C316.307 46.564 296.661 61.0127 269.77 72.7886C242.88 84.5654 218.929 89.2088 216.275 83.1593L211.469 72.2085L308.846 29.5657Z" fill="#FFC803"/>
<path d="M264.964 61.8386C291.854 50.0628 311.501 35.6136 308.846 29.5654C306.191 23.5173 282.24 28.1605 255.349 39.9363C228.459 51.7121 208.812 66.1613 211.467 72.2094C214.122 78.2576 238.074 73.6144 264.964 61.8386Z" fill="#FFC803"/>
<path d="M213.367 74.524C212.25 74.0554 211.422 73.3703 211.002 72.415C210.889 72.1584 211.006 71.8582 211.263 71.7453C211.519 71.6324 211.82 71.7493 211.933 72.0059C213.094 74.6531 219.327 75.0905 229.029 73.2082C239.098 71.257 251.786 67.0527 264.758 61.3727C277.73 55.6927 289.421 49.2178 297.681 43.1434C305.641 37.2902 309.54 32.4147 308.378 29.7694C308.265 29.5128 308.382 29.2126 308.639 29.0997C308.895 28.9868 309.196 29.1037 309.309 29.3603C311.091 33.4169 304.296 39.5407 298.283 43.9613C289.966 50.0784 278.204 56.5922 265.166 62.3022C252.129 68.0121 239.362 72.2387 229.223 74.204C223.623 75.2892 216.981 76.0385 213.364 74.5204L213.367 74.524Z" fill="#1E211D"/>
<path d="M223.657 67.1463C223.018 66.878 222.572 66.4933 222.348 65.981C222.234 65.7245 222.351 65.4242 222.608 65.3113C222.865 65.1984 223.165 65.3154 223.278 65.5719C224.574 68.5238 240.941 65.275 262.353 55.8965C283.767 46.5188 297.248 36.6955 295.953 33.7464C295.84 33.4899 295.957 33.1896 296.214 33.0767C296.47 32.9638 296.771 33.0807 296.884 33.3373C298.929 37.9939 280.829 48.9164 262.763 56.8288C246.683 63.87 228.829 69.3168 223.655 67.1455L223.657 67.1463Z" fill="#1E211D"/>
<path d="M271.673 38.8009C271.484 38.7213 271.354 38.5314 271.362 38.3143C271.372 38.0334 271.607 37.8127 271.888 37.8227L292.987 38.5402C293.268 38.5501 293.487 38.7845 293.48 39.0661C293.47 39.347 293.235 39.5677 292.954 39.5577L271.855 38.8402C271.791 38.8387 271.73 38.8247 271.675 38.8017L271.673 38.8009Z" fill="#1E211D"/>
<path d="M258.689 44.1865C258.499 44.1069 258.37 43.9169 258.378 43.6998C258.388 43.419 258.623 43.1983 258.904 43.2082L285.271 44.1029C285.55 44.1121 285.771 44.3473 285.763 44.6289C285.754 44.9097 285.518 45.1304 285.237 45.1205L258.87 44.2258C258.807 44.2243 258.746 44.2103 258.691 44.1873L258.689 44.1865Z" fill="#1E211D"/>
<path d="M258.603 50.4874C258.413 50.4078 258.283 50.2178 258.292 50.0007C258.301 49.7199 258.536 49.5012 258.818 49.5091L274.774 50.0516C275.053 50.0607 275.274 50.2959 275.266 50.5776C275.256 50.8584 275.022 51.0771 274.74 51.0692L258.784 50.5267C258.72 50.5252 258.659 50.5112 258.605 50.4882L258.603 50.4874Z" fill="#1E211D"/>
<path d="M235.425 57.9946C235.236 57.915 235.106 57.7251 235.115 57.508C235.124 57.2272 235.359 57.0084 235.641 57.0164L258.049 57.7804C258.33 57.7903 258.549 58.0247 258.541 58.3063C258.532 58.5872 258.297 58.8059 258.015 58.7979L235.607 58.034C235.543 58.0325 235.482 58.0184 235.427 57.9955L235.425 57.9946Z" fill="#1E211D"/>
<path d="M219.355 82.1951C219.239 82.1467 219.14 82.0545 219.086 81.9308L216.015 74.9343C215.902 74.6777 216.019 74.3775 216.275 74.2646C216.532 74.1517 216.832 74.2686 216.946 74.5252L220.017 81.5217C220.13 81.7783 220.013 82.0785 219.756 82.1914C219.623 82.2505 219.48 82.2477 219.355 82.1951Z" fill="#1E211D"/>
<path d="M226.136 82.6284C226.021 82.58 225.921 82.4878 225.868 82.3641L222.574 74.8608C222.461 74.6042 222.578 74.304 222.835 74.1911C223.091 74.0782 223.392 74.1951 223.505 74.4517L226.798 81.955C226.911 82.2115 226.795 82.5118 226.538 82.6247C226.405 82.6838 226.261 82.6809 226.136 82.6284Z" fill="#1E211D"/>
<path d="M284.392 62.3114C284.277 62.263 284.177 62.1708 284.123 62.0471L280.685 54.2115C280.571 53.9549 280.688 53.6547 280.947 53.5426C281.204 53.4297 281.504 53.5467 281.617 53.8032L285.056 61.6388C285.169 61.8954 285.052 62.1956 284.796 62.3085C284.663 62.3676 284.519 62.3648 284.394 62.3123L284.392 62.3114Z" fill="#1E211D"/>
<path d="M289.279 57.2302C289.164 57.1818 289.064 57.0896 289.01 56.9659L286.389 50.992C286.276 50.7355 286.392 50.4352 286.651 50.3232C286.908 50.2103 287.208 50.3272 287.321 50.5838L289.943 56.5576C290.056 56.8142 289.939 57.1144 289.683 57.2273C289.55 57.2864 289.406 57.2836 289.281 57.231L289.279 57.2302Z" fill="#1E211D"/>
<path d="M307.875 45.5254C307.76 45.477 307.661 45.3848 307.607 45.2611L304.404 37.9655C304.29 37.709 304.407 37.4087 304.664 37.2958C304.921 37.1829 305.221 37.2999 305.334 37.5564L308.537 44.852C308.651 45.1085 308.534 45.4088 308.277 45.5217C308.144 45.5808 308 45.5779 307.875 45.5254Z" fill="#1E211D"/>
</g>
<g clip-path="url(#clip4_400_881)">
<path d="M1162.3 99.8525L1170.03 113.135C1180.39 130.94 1162.75 160.598 1130.62 179.379C1098.5 198.16 1064.06 198.953 1053.69 181.147L1045.96 167.865L1162.3 99.8525Z" fill="#FFC803"/>
<path d="M1122.9 166.091C1155.02 147.307 1172.67 117.646 1162.3 99.8432C1151.94 82.0399 1117.5 82.8354 1085.37 101.62C1053.25 120.405 1035.6 150.065 1045.97 167.868C1056.33 185.672 1090.77 184.876 1122.9 166.091Z" fill="#FFC803"/>
<path d="M1074.79 181.877C1060.58 181.877 1050.02 177.137 1044.97 168.45C1044.65 167.894 1044.84 167.188 1045.39 166.865C1045.94 166.541 1046.64 166.729 1046.97 167.28C1051.75 175.509 1062.12 179.862 1076.24 179.539C1090.58 179.21 1106.94 174.079 1122.31 165.091C1137.68 156.104 1150.19 144.358 1157.54 132.013C1164.76 119.88 1166.1 108.666 1161.3 100.437C1160.98 99.8816 1161.17 99.1762 1161.72 98.8525C1162.27 98.5336 1162.98 98.7172 1163.3 99.268C1168.53 108.26 1167.19 120.31 1159.53 133.202C1151.99 145.88 1139.18 157.916 1123.48 167.097C1107.77 176.277 1091.02 181.52 1076.3 181.858C1075.79 181.867 1075.29 181.877 1074.79 181.877Z" fill="#1E211D"/>
<path d="M1076.95 170.465C1067.15 170.465 1060.02 167.382 1056.66 161.613C1056.34 161.057 1056.53 160.352 1057.08 160.028C1057.63 159.709 1058.33 159.893 1058.66 160.443C1061.96 166.121 1069.74 168.807 1080.55 168.005C1091.66 167.184 1104.53 162.782 1116.79 155.612C1141.87 140.952 1156.58 119.267 1149.6 107.27C1149.28 106.714 1149.47 106.008 1150.02 105.685C1150.57 105.361 1151.28 105.549 1151.6 106.1C1155.37 112.584 1153.85 121.562 1147.32 131.38C1140.95 140.952 1130.52 150.272 1117.96 157.617C1105.4 164.961 1092.17 169.474 1080.72 170.32C1079.42 170.416 1078.16 170.465 1076.95 170.465H1076.95Z" fill="#1E211D"/>
<path d="M1107.46 188.361C1107.06 188.361 1106.68 188.154 1106.46 187.787L1100.02 176.722C1099.7 176.166 1099.89 175.461 1100.44 175.137C1100.99 174.818 1101.69 175.002 1102.02 175.552L1108.46 186.617C1108.78 187.173 1108.59 187.878 1108.04 188.202C1107.86 188.308 1107.66 188.361 1107.46 188.361H1107.46Z" fill="#1E211D"/>
<path d="M1097.42 187.632C1097.02 187.632 1096.63 187.424 1096.42 187.057L1091.75 179.051C1091.43 178.495 1091.62 177.789 1092.17 177.466C1092.72 177.142 1093.43 177.33 1093.75 177.881L1098.41 185.892C1098.73 186.448 1098.55 187.153 1098 187.477C1097.81 187.583 1097.61 187.637 1097.41 187.637L1097.42 187.632Z" fill="#1E211D"/>
<path d="M1088.33 188.545C1087.93 188.545 1087.54 188.337 1087.33 187.97L1083.08 180.664C1082.75 180.109 1082.94 179.403 1083.49 179.08C1084.04 178.761 1084.75 178.944 1085.07 179.495L1089.32 186.801C1089.65 187.356 1089.46 188.062 1088.91 188.386C1088.73 188.492 1088.52 188.545 1088.33 188.545Z" fill="#1E211D"/>
<path d="M1077.22 185.989C1076.82 185.989 1076.43 185.781 1076.22 185.414L1073.83 181.302C1073.5 180.751 1073.69 180.041 1074.24 179.717C1074.79 179.394 1075.5 179.582 1075.82 180.133L1078.22 184.245C1078.54 184.796 1078.35 185.506 1077.8 185.83C1077.62 185.936 1077.42 185.989 1077.22 185.989Z" fill="#1E211D"/>
<path d="M1151.66 120.813C1151.46 120.813 1151.25 120.76 1151.06 120.649L1122.16 103.428C1121.61 103.1 1121.44 102.389 1121.76 101.838C1122.09 101.288 1122.79 101.109 1123.34 101.433L1152.25 118.653C1152.8 118.982 1152.97 119.692 1152.65 120.243C1152.43 120.605 1152.05 120.808 1151.66 120.808V120.813Z" fill="#1E211D"/>
<path d="M1146.08 132.337C1145.87 132.337 1145.67 132.284 1145.49 132.172L1118.8 116.266C1118.25 115.938 1118.07 115.227 1118.39 114.677C1118.72 114.126 1119.43 113.947 1119.98 114.271L1146.67 130.177C1147.22 130.506 1147.4 131.216 1147.07 131.767C1146.86 132.129 1146.47 132.332 1146.08 132.332L1146.08 132.337Z" fill="#1E211D"/>
<path d="M1132.42 147.166C1132.22 147.166 1132.02 147.112 1131.83 147.001L1099.34 127.64C1098.79 127.312 1098.61 126.601 1098.94 126.051C1099.26 125.5 1099.97 125.321 1100.52 125.645L1133.01 145.006C1133.56 145.334 1133.74 146.045 1133.42 146.595C1133.2 146.958 1132.81 147.161 1132.42 147.161V147.166Z" fill="#1E211D"/>
<path d="M1123.56 153.887C1123.35 153.887 1123.15 153.833 1122.97 153.722L1110.04 146.02C1109.49 145.692 1109.32 144.982 1109.64 144.431C1109.97 143.88 1110.68 143.701 1111.23 144.025L1124.15 151.727C1124.7 152.055 1124.88 152.766 1124.56 153.316C1124.34 153.679 1123.95 153.882 1123.56 153.882L1123.56 153.887Z" fill="#1E211D"/>
<path d="M1095.18 167.541C1094.97 167.541 1094.77 167.488 1094.58 167.377L1066.97 150.925C1066.42 150.596 1066.25 149.886 1066.57 149.335C1066.9 148.784 1067.61 148.605 1068.15 148.929L1095.76 165.381C1096.31 165.71 1096.49 166.42 1096.17 166.971C1095.95 167.333 1095.57 167.536 1095.18 167.536V167.541Z" fill="#1E211D"/>
<path d="M1149.47 161.501C1149.07 161.501 1148.69 161.294 1148.47 160.926L1142.79 151.166C1142.46 150.611 1142.65 149.905 1143.2 149.581C1143.75 149.258 1144.46 149.446 1144.78 149.997L1150.47 159.757C1150.79 160.313 1150.6 161.018 1150.05 161.342C1149.87 161.448 1149.67 161.501 1149.47 161.501H1149.47Z" fill="#1E211D"/>
<path d="M1154.39 152.732C1153.99 152.732 1153.61 152.524 1153.39 152.157L1149.05 144.706C1148.73 144.151 1148.92 143.445 1149.47 143.121C1150.02 142.798 1150.73 142.986 1151.05 143.537L1155.38 150.988C1155.71 151.543 1155.52 152.249 1154.97 152.572C1154.79 152.679 1154.58 152.732 1154.39 152.732H1154.39Z" fill="#1E211D"/>
</g>
<g clip-path="url(#clip5_400_881)">
<path d="M846.447 17.0269L854.121 20.1971C864.408 24.4464 866.557 42.9663 858.919 61.5653C851.281 80.1644 836.75 91.7972 826.461 87.5494L818.787 84.3792L846.447 17.0269Z" fill="#FFC803"/>
<path d="M851.245 58.392C858.881 39.7919 856.732 21.2703 846.444 17.0228C836.156 12.7754 821.626 24.4105 813.989 43.0105C806.353 61.6106 808.502 80.1322 818.79 84.3797C829.078 88.6271 843.608 76.992 851.245 58.392Z" fill="#FFC803"/>
<path d="M835.762 80.9441C829.658 85.604 823.57 87.0302 818.552 84.956C818.231 84.8233 818.081 84.4587 818.211 84.1394C818.341 83.8202 818.707 83.6688 819.026 83.7994C823.78 85.7634 829.66 84.2329 835.618 79.4641C841.667 74.622 847.011 67.0535 850.665 58.1548C854.318 49.2562 855.839 40.1101 854.946 32.3996C854.067 24.8231 850.966 19.5677 846.21 17.6052C845.889 17.4725 845.738 17.1079 845.868 16.7887C846 16.4715 846.364 16.318 846.684 16.4487C851.878 18.5951 855.254 24.2095 856.189 32.2588C857.108 40.1757 855.556 49.5427 851.823 58.6334C848.088 67.7257 842.613 75.47 836.401 80.4426C836.187 80.6128 835.975 80.7813 835.762 80.9441Z" fill="#1E211D"/>
<path d="M832.948 75.3349C828.739 78.5484 824.664 79.564 821.332 78.1867C821.011 78.054 820.86 77.6894 820.99 77.3702C821.122 77.053 821.486 76.8995 821.806 77.0301C825.085 78.3854 829.307 76.9879 833.686 73.0995C838.187 69.1049 842.271 62.9941 845.187 55.8936C851.148 41.377 850.358 27.2388 843.426 24.3755C843.106 24.2428 842.955 23.8782 843.085 23.559C843.215 23.2398 843.581 23.0883 843.9 23.219C847.647 24.7659 849.937 29.1206 850.351 35.4788C850.752 41.679 849.33 49.1006 846.345 56.3722C843.358 63.6454 839.159 69.9193 834.517 74.0381C833.992 74.5048 833.468 74.9381 832.946 75.3365L832.948 75.3349Z" fill="#1E211D"/>
<path d="M851.918 73.0163C851.747 73.1475 851.513 73.1847 851.299 73.0982L844.905 70.4583C844.585 70.3256 844.434 69.961 844.564 69.6418C844.695 69.3247 845.06 69.1712 845.379 69.3018L851.773 71.9416C852.094 72.0744 852.244 72.4389 852.115 72.7582C852.071 72.8639 852.001 72.9531 851.916 73.0179L851.918 73.0163Z" fill="#1E211D"/>
<path d="M847.364 75.9973C847.192 76.1285 846.959 76.1657 846.745 76.0791L842.118 74.1695C841.797 74.0367 841.647 73.6722 841.776 73.3529C841.906 73.0337 842.272 72.8823 842.592 73.0129L847.22 74.9247C847.541 75.0574 847.692 75.422 847.562 75.7412C847.518 75.8469 847.449 75.9361 847.364 76.0009L847.364 75.9973Z" fill="#1E211D"/>
<path d="M843.76 79.3705C843.59 79.5001 843.354 79.5389 843.142 79.4508L838.921 77.7076C838.6 77.5749 838.45 77.2103 838.579 76.8911C838.711 76.5739 839.075 76.4204 839.395 76.5511L843.616 78.2942C843.937 78.4269 844.088 78.7915 843.958 79.1107C843.914 79.2165 843.844 79.3057 843.76 79.3705Z" fill="#1E211D"/>
<path d="M838.151 81.9148C837.982 82.0444 837.746 82.0833 837.534 81.9951L835.157 81.0149C834.838 80.8843 834.686 80.5176 834.816 80.1984C834.945 79.8792 835.312 79.7277 835.631 79.8584L838.008 80.8386C838.327 80.9692 838.479 81.3359 838.35 81.6551C838.306 81.7608 838.236 81.85 838.151 81.9148Z" fill="#1E211D"/>
<path d="M848.749 29.5184C848.662 29.5847 848.557 29.6283 848.44 29.6422L830.383 31.7233C830.039 31.7624 829.729 31.5159 829.688 31.1734C829.648 30.8294 829.893 30.5203 830.236 30.4791L848.293 28.398C848.637 28.3589 848.946 28.6054 848.988 28.9479C849.014 29.1746 848.915 29.3882 848.747 29.5163L848.749 29.5184Z" fill="#1E211D"/>
<path d="M850.13 36.2975C850.043 36.3639 849.939 36.4075 849.824 36.4198L833.147 38.3398C832.804 38.3789 832.494 38.1323 832.452 37.7899C832.412 37.4459 832.658 37.1367 833 37.0956L849.677 35.1756C850.02 35.1365 850.33 35.383 850.372 35.7255C850.397 35.9522 850.298 36.1658 850.131 36.2939L850.13 36.2975Z" fill="#1E211D"/>
<path d="M849.129 47.1421C849.042 47.2085 848.937 47.2521 848.82 47.266L828.52 49.6039C828.177 49.643 827.867 49.3965 827.825 49.0541C827.785 48.71 828.031 48.4009 828.373 48.3597L848.673 46.0218C849.017 45.9827 849.326 46.2292 849.368 46.5717C849.394 46.7984 849.295 47.012 849.127 47.1401L849.129 47.1421Z" fill="#1E211D"/>
<path d="M847.526 52.9351C847.439 53.0015 847.334 53.045 847.219 53.0574L839.143 53.9877C838.8 54.0268 838.49 53.7803 838.448 53.4378C838.408 53.0938 838.654 52.7847 838.996 52.7435L847.072 51.8132C847.416 51.7741 847.725 52.0206 847.767 52.363C847.793 52.5898 847.694 52.8034 847.526 52.9314L847.526 52.9351Z" fill="#1E211D"/>
<path d="M839.815 68.1045C839.728 68.1709 839.624 68.2144 839.507 68.2284L822.256 70.2158C821.912 70.2549 821.602 70.0083 821.561 69.6659C821.521 69.3218 821.766 69.0127 822.109 68.9715L839.36 66.9841C839.703 66.945 840.013 67.1916 840.055 67.534C840.08 67.7608 839.981 67.9744 839.814 68.1024L839.815 68.1045Z" fill="#1E211D"/>
<path d="M861.152 47.7076C860.98 47.8388 860.746 47.876 860.533 47.7895L854.892 45.4617C854.571 45.329 854.42 44.9644 854.55 44.6452C854.68 44.326 855.046 44.1745 855.365 44.3052L861.006 46.6329C861.327 46.7656 861.478 47.1302 861.348 47.4495C861.304 47.5552 861.235 47.6444 861.15 47.7092L861.152 47.7076Z" fill="#1E211D"/>
<path d="M860.388 42.3293C860.216 42.4605 859.982 42.4977 859.769 42.4111L855.465 40.6326C855.144 40.4999 854.993 40.1353 855.123 39.8161C855.253 39.4969 855.619 39.3454 855.938 39.4761L860.243 41.2546C860.563 41.3873 860.714 41.7519 860.584 42.0711C860.54 42.1768 860.471 42.266 860.386 42.3309L860.388 42.3293Z" fill="#1E211D"/>
</g>
<g clip-path="url(#clip6_400_881)">
<path d="M125.011 511.052L132.894 508.445C143.461 504.95 157.177 517.578 163.53 536.655C169.882 555.731 166.467 574.028 155.899 577.526L148.016 580.132L125.011 511.052Z" fill="#FFC803"/>
<path d="M155.644 539.26C149.29 520.183 135.572 507.554 125.006 511.051C114.439 514.548 111.025 532.847 117.38 551.923C123.734 570.999 137.452 583.628 148.018 580.131C158.585 576.635 161.999 558.336 155.644 539.26Z" fill="#FFC803"/>
<path d="M158.635 566.451C157.052 573.965 153.371 579.019 148.215 580.723C147.885 580.832 147.533 580.654 147.423 580.327C147.313 580 147.492 579.647 147.819 579.537C152.702 577.922 156.159 572.925 157.56 565.423C158.982 557.806 158.091 548.584 155.051 539.458C152.011 530.332 147.193 522.41 141.484 517.151C135.873 511.984 130.093 510.027 125.209 511.644C124.88 511.753 124.527 511.575 124.418 511.249C124.31 510.923 124.486 510.568 124.813 510.459C130.15 508.695 136.372 510.745 142.334 516.233C148.198 521.631 153.135 529.741 156.241 539.064C159.346 548.391 160.252 557.831 158.792 565.653C158.741 565.922 158.69 566.188 158.635 566.451Z" fill="#1E211D"/>
<path d="M152.841 564.038C151.749 569.22 149.325 572.649 145.901 573.781C145.572 573.889 145.22 573.711 145.11 573.385C145.002 573.059 145.178 572.705 145.505 572.595C148.875 571.481 151.161 567.667 151.941 561.863C152.743 555.899 151.849 548.603 149.424 541.321C144.465 526.432 134.638 516.236 127.518 518.591C127.188 518.7 126.836 518.522 126.726 518.195C126.616 517.869 126.795 517.515 127.122 517.406C130.971 516.132 135.547 517.937 140.011 522.484C144.362 526.919 148.129 533.47 150.614 540.927C153.098 548.387 154.011 555.881 153.183 562.031C153.09 562.728 152.975 563.398 152.84 564.041L152.841 564.038Z" fill="#1E211D"/>
<path d="M165.7 549.899C165.656 550.111 165.503 550.292 165.285 550.365L158.718 552.539C158.388 552.648 158.036 552.47 157.926 552.143C157.818 551.817 157.994 551.463 158.322 551.353L164.889 549.18C165.218 549.071 165.57 549.249 165.68 549.576C165.716 549.684 165.722 549.797 165.7 549.902L165.7 549.899Z" fill="#1E211D"/>
<path d="M164.196 555.13C164.151 555.341 163.999 555.522 163.78 555.596L159.028 557.169C158.698 557.278 158.346 557.1 158.236 556.773C158.127 556.447 158.305 556.093 158.632 555.984L163.387 554.411C163.717 554.302 164.069 554.48 164.179 554.807C164.214 554.915 164.22 555.028 164.198 555.133L164.196 555.13Z" fill="#1E211D"/>
<path d="M163.666 560.038C163.622 560.247 163.469 560.431 163.251 560.502L158.915 561.937C158.585 562.046 158.233 561.868 158.123 561.541C158.016 561.215 158.192 560.861 158.519 560.751L162.855 559.317C163.184 559.208 163.537 559.386 163.646 559.712C163.682 559.821 163.688 559.934 163.666 560.038Z" fill="#1E211D"/>
<path d="M161.078 565.626C161.034 565.835 160.881 566.019 160.663 566.09L158.223 566.899C157.895 567.008 157.541 566.83 157.431 566.503C157.321 566.177 157.499 565.823 157.827 565.713L160.267 564.904C160.594 564.795 160.949 564.973 161.059 565.3C161.095 565.409 161.1 565.522 161.078 565.626Z" fill="#1E211D"/>
<path d="M134.907 519.013C134.885 519.12 134.834 519.221 134.754 519.308L122.432 532.671C122.197 532.925 121.801 532.94 121.546 532.708C121.291 532.474 121.276 532.079 121.508 531.825L133.831 518.462C134.066 518.208 134.461 518.193 134.716 518.425C134.884 518.58 134.948 518.806 134.904 519.013L134.907 519.013Z" fill="#1E211D"/>
<path d="M140.378 523.248C140.356 523.355 140.305 523.456 140.226 523.541L128.845 535.88C128.61 536.134 128.215 536.149 127.959 535.917C127.705 535.682 127.689 535.288 127.921 535.033L139.302 522.694C139.537 522.44 139.933 522.425 140.188 522.657C140.355 522.812 140.42 523.038 140.376 523.245L140.378 523.248Z" fill="#1E211D"/>
<path d="M146.699 532.117C146.676 532.224 146.626 532.325 146.546 532.412L132.692 547.433C132.458 547.687 132.062 547.702 131.807 547.47C131.552 547.236 131.537 546.841 131.769 546.587L145.622 531.566C145.857 531.312 146.253 531.297 146.508 531.529C146.675 531.684 146.74 531.91 146.696 532.117L146.699 532.117Z" fill="#1E211D"/>
<path d="M149.265 537.553C149.243 537.66 149.192 537.761 149.113 537.845L143.602 543.821C143.367 544.075 142.971 544.09 142.716 543.858C142.461 543.624 142.446 543.229 142.678 542.975L148.189 536.999C148.424 536.745 148.819 536.729 149.075 536.962C149.242 537.117 149.307 537.343 149.263 537.55L149.265 537.553Z" fill="#1E211D"/>
<path d="M153.324 554.078C153.301 554.185 153.251 554.286 153.171 554.373L141.399 567.139C141.164 567.393 140.768 567.408 140.513 567.176C140.258 566.941 140.243 566.546 140.475 566.292L152.247 553.527C152.482 553.273 152.878 553.257 153.133 553.49C153.3 553.645 153.365 553.871 153.321 554.078L153.324 554.078Z" fill="#1E211D"/>
<path d="M156.176 524.698C156.132 524.91 155.979 525.09 155.761 525.164L149.968 527.083C149.638 527.192 149.286 527.014 149.176 526.687C149.066 526.36 149.244 526.007 149.572 525.897L155.365 523.979C155.695 523.87 156.047 524.048 156.157 524.375C156.192 524.483 156.198 524.596 156.176 524.701L156.176 524.698Z" fill="#1E211D"/>
<path d="M152.087 521.122C152.043 521.334 151.89 521.514 151.672 521.588L147.25 523.05C146.92 523.159 146.568 522.981 146.458 522.654C146.348 522.328 146.527 521.974 146.854 521.865L151.276 520.403C151.605 520.294 151.957 520.472 152.067 520.798C152.103 520.907 152.109 521.02 152.087 521.125L152.087 521.122Z" fill="#1E211D"/>
</g>
<g clip-path="url(#clip7_400_881)">
<path d="M364.706 539.977C387.063 539.321 404.649 520.665 403.986 498.309C403.323 475.952 384.663 458.361 362.306 459.017C339.95 459.674 322.363 478.329 323.026 500.686C323.689 523.042 342.35 540.634 364.706 539.977Z" fill="#FFC803"/>
<path d="M363.497 533.593C345.154 533.593 329.968 518.955 329.419 500.501C329.149 491.399 332.439 482.74 338.683 476.111C344.931 469.482 353.386 465.685 362.489 465.421C381.306 464.875 397.027 479.706 397.585 498.499C398.144 517.292 383.308 533.027 364.515 533.579C364.179 533.588 363.838 533.593 363.497 533.593ZM363.502 467.669C363.185 467.669 362.872 467.669 362.555 467.683C354.058 467.932 346.167 471.475 340.34 477.661C334.508 483.847 331.435 491.936 331.686 500.435C332.197 517.664 346.375 531.331 363.497 531.331C363.81 531.331 364.127 531.331 364.444 531.317C381.983 530.804 395.829 516.105 395.313 498.565C394.802 481.341 380.624 467.669 363.502 467.669Z" fill="#1E211D"/>
<path d="M346.925 493.057C346.57 493.057 346.224 492.892 346.001 492.586C345.637 492.077 345.751 491.371 346.257 491.008L362.267 479.522C362.773 479.155 363.488 479.272 363.853 479.776C364.222 480.285 364.104 480.992 363.597 481.355L347.587 492.841C347.388 492.987 347.152 493.053 346.925 493.053V493.057Z" fill="#1E211D"/>
<path d="M345.836 505.137C345.481 505.137 345.135 504.972 344.913 504.666C344.548 504.157 344.662 503.45 345.168 503.088L374.234 482.231C374.74 481.864 375.45 481.981 375.82 482.485C376.189 482.994 376.07 483.701 375.564 484.064L346.498 504.92C346.3 505.066 346.068 505.132 345.836 505.132V505.137Z" fill="#1E211D"/>
<path d="M357.874 506.47C357.519 506.47 357.173 506.305 356.951 505.999C356.582 505.495 356.7 504.788 357.206 504.421L377.164 490.099C377.671 489.731 378.381 489.849 378.75 490.353C379.114 490.857 379.001 491.564 378.494 491.931L358.537 506.253C358.338 506.4 358.106 506.465 357.874 506.465V506.47Z" fill="#1E211D"/>
<path d="M356.62 521.023C356.265 521.023 355.919 520.858 355.697 520.552C355.332 520.043 355.446 519.337 355.952 518.974L383.669 499.083C384.175 498.72 384.885 498.833 385.255 499.337C385.624 499.846 385.506 500.553 384.999 500.916L357.283 520.806C357.084 520.952 356.852 521.018 356.62 521.018V521.023Z" fill="#1E211D"/>
<path d="M366.461 520.736C366.106 520.736 365.76 520.571 365.538 520.265C365.173 519.756 365.287 519.049 365.793 518.686L377.756 510.103C378.262 509.74 378.972 509.853 379.341 510.357C379.711 510.866 379.592 511.572 379.086 511.935L367.123 520.519C366.925 520.665 366.688 520.731 366.461 520.731V520.736Z" fill="#1E211D"/>
</g>
<g clip-path="url(#clip8_400_881)">
<path d="M555.259 122.986C569.336 122.572 580.408 110.826 579.991 96.7499C579.574 82.6736 567.824 71.5975 553.748 72.0109C539.672 72.4242 528.599 84.1704 529.016 98.2467C529.434 112.323 541.183 123.399 555.259 122.986Z" fill="#FFC803"/>
<path d="M554.499 118.966C542.949 118.966 533.388 109.749 533.042 98.1304C532.872 92.3995 534.943 86.9474 538.875 82.7737C542.809 78.6001 548.132 76.2093 553.864 76.0431C565.712 75.6991 575.61 85.037 575.962 96.8697C576.313 108.702 566.972 118.61 555.14 118.957C554.928 118.963 554.713 118.966 554.499 118.966ZM554.502 77.4581C554.302 77.4581 554.105 77.4581 553.906 77.467C548.556 77.6242 543.587 79.8549 539.918 83.7497C536.246 87.6444 534.312 92.7376 534.47 98.0889C534.791 108.937 543.718 117.542 554.499 117.542C554.696 117.542 554.895 117.542 555.095 117.533C566.138 117.21 574.856 107.955 574.531 96.9112C574.209 86.0664 565.282 77.4581 554.502 77.4581Z" fill="#1E211D"/>
<path d="M544.063 93.4436C543.84 93.4436 543.622 93.3398 543.482 93.147C543.253 92.8266 543.324 92.3817 543.643 92.1533L553.723 84.9214C554.042 84.69 554.492 84.7642 554.722 85.0816C554.954 85.4019 554.88 85.8469 554.561 86.0753L544.48 93.3072C544.355 93.3991 544.206 93.4407 544.063 93.4407V93.4436Z" fill="#1E211D"/>
<path d="M543.378 101.049C543.154 101.049 542.937 100.945 542.796 100.753C542.567 100.432 542.638 99.9873 542.957 99.7589L561.258 86.6269C561.577 86.3956 562.024 86.4697 562.256 86.7871C562.489 87.1075 562.414 87.5524 562.095 87.7808L543.795 100.913C543.67 101.005 543.524 101.046 543.378 101.046V101.049Z" fill="#1E211D"/>
<path d="M550.957 101.889C550.734 101.889 550.516 101.785 550.376 101.592C550.143 101.275 550.218 100.83 550.537 100.598L563.103 91.5808C563.422 91.3494 563.869 91.4236 564.101 91.741C564.331 92.0584 564.259 92.5033 563.94 92.7347L551.374 101.752C551.249 101.844 551.103 101.886 550.957 101.886V101.889Z" fill="#1E211D"/>
<path d="M550.168 111.052C549.944 111.052 549.727 110.948 549.587 110.755C549.357 110.435 549.429 109.99 549.747 109.761L567.199 97.2375C567.517 97.0091 567.965 97.0803 568.197 97.3977C568.429 97.718 568.355 98.163 568.036 98.3914L550.585 110.915C550.46 111.007 550.314 111.049 550.168 111.049V111.052Z" fill="#1E211D"/>
<path d="M556.364 110.871C556.14 110.871 555.923 110.767 555.783 110.574C555.553 110.254 555.625 109.809 555.944 109.58L563.476 104.176C563.794 103.947 564.242 104.018 564.474 104.336C564.707 104.656 564.632 105.101 564.313 105.33L556.781 110.734C556.656 110.826 556.507 110.868 556.364 110.868V110.871Z" fill="#1E211D"/>
</g>
<defs>
<clipPath id="clip0_400_881">
<rect width="112" height="123" fill="white" transform="translate(0 203)"/>
</clipPath>
<clipPath id="clip1_400_881">
<rect width="131" height="136" fill="white" transform="translate(731 343)"/>
</clipPath>
<clipPath id="clip2_400_881">
<rect width="84" height="87" fill="white" transform="translate(1032.17 499) rotate(57.2439)"/>
</clipPath>
<clipPath id="clip3_400_881">
<rect width="84" height="87" fill="white" transform="translate(240.665) rotate(22.7651)"/>
</clipPath>
<clipPath id="clip4_400_881">
<rect width="130" height="107" fill="white" transform="translate(1043 87)"/>
</clipPath>
<clipPath id="clip5_400_881">
<rect width="70.2392" height="57.8122" fill="white" transform="translate(791 50.625) rotate(-37.3624)"/>
</clipPath>
<clipPath id="clip6_400_881">
<rect width="70.2392" height="57.8122" fill="white" transform="translate(104.933 572.696) rotate(-78.1077)"/>
</clipPath>
<clipPath id="clip7_400_881">
<rect width="81" height="81" fill="white" transform="translate(323 459)"/>
</clipPath>
<clipPath id="clip8_400_881">
<rect width="51" height="51" fill="white" transform="translate(529 72)"/>
</clipPath>
</defs>
</svg>
