<svg width="1203" height="587" viewBox="0 0 1203 587" fill="none" xmlns="http://www.w3.org/2000/svg">
<g clip-path="url(#clip0_400_1169)">
<path d="M21.0599 94.6953L9.16617 104.002C-6.77671 116.475 -1.39378 149.937 21.1882 178.739C43.7703 207.542 74.9996 220.781 90.9395 208.305L102.833 198.998L21.0599 94.6953Z" fill="#FFC803"/>
<path d="M102.834 198.999C118.776 186.525 113.394 153.063 90.8124 124.26C68.2312 95.458 37.0019 82.2218 21.0599 94.6965C5.11788 107.171 10.5001 140.633 33.0813 169.435C55.6626 198.238 86.8918 211.474 102.834 198.999Z" fill="#FFC803"/>
<path d="M88.0211 204.427C82.6054 204.427 76.5779 203.07 70.1685 200.355C56.8843 194.723 43.5135 183.899 32.5179 169.874C21.5223 155.848 14.2058 140.287 11.9172 126.053C9.60469 111.666 12.693 100.329 20.6182 94.1288C20.9285 93.8843 21.3791 93.941 21.6238 94.251C21.8684 94.561 21.8117 95.0111 21.5014 95.2556C5.89572 107.466 11.3443 140.543 33.6458 168.991C44.4922 182.829 57.6631 193.498 70.7265 199.037C83.6497 204.516 94.896 204.301 102.391 198.438C102.702 198.193 103.152 198.25 103.397 198.56C103.642 198.87 103.585 199.32 103.275 199.565C99.1331 202.805 93.9471 204.43 88.0211 204.43V204.427Z" fill="#1E211D"/>
<path d="M85.1751 192.201C80.8067 192.201 75.7728 190.875 70.3213 188.231C60.2059 183.327 49.7952 174.449 41.0017 163.235C32.2112 152.02 26.0793 139.795 23.7339 128.81C21.3528 117.646 23.164 109.055 28.8364 104.619C29.1467 104.375 29.5973 104.431 29.842 104.741C30.0866 105.051 30.0299 105.501 29.7196 105.746C18.7926 114.295 24.3606 139.691 42.1296 162.355C50.7888 173.4 61.0235 182.135 70.9449 186.946C80.7052 191.68 88.9526 192.038 94.1685 187.954C94.4818 187.709 94.9294 187.766 95.174 188.076C95.4187 188.386 95.362 188.836 95.0517 189.08C92.3901 191.164 89.0392 192.201 85.1751 192.201Z" fill="#1E211D"/>
<path d="M39.5454 195.007C39.3335 195.007 39.1217 194.911 38.9814 194.732C38.7368 194.422 38.7935 193.972 39.1038 193.728L49.0103 185.977C49.3206 185.733 49.7712 185.789 50.0158 186.099C50.2605 186.409 50.2038 186.86 49.8935 187.104L39.987 194.855C39.8557 194.956 39.7006 195.007 39.5454 195.007Z" fill="#1E211D"/>
<path d="M49.0044 197.994C48.7925 197.994 48.5807 197.898 48.4404 197.719C48.1958 197.409 48.2524 196.959 48.5628 196.715L55.733 191.105C56.0434 190.86 56.4939 190.917 56.7386 191.227C56.9833 191.537 56.9266 191.987 56.6163 192.231L49.446 197.842C49.3147 197.943 49.1595 197.994 49.0044 197.994Z" fill="#1E211D"/>
<path d="M56.9917 202.128C56.7798 202.128 56.568 202.033 56.4277 201.854C56.1831 201.544 56.2398 201.094 56.5501 200.849L63.0907 195.731C63.4011 195.487 63.8516 195.543 64.0963 195.853C64.341 196.163 64.2843 196.613 63.974 196.858L57.4333 201.976C57.302 202.078 57.1469 202.128 56.9917 202.128Z" fill="#1E211D"/>
<path d="M68.0835 203.836C67.8716 203.836 67.6598 203.741 67.5195 203.562C67.2749 203.252 67.3315 202.802 67.6419 202.558L71.327 199.675C71.6373 199.43 72.0879 199.487 72.3325 199.797C72.5772 200.107 72.5205 200.557 72.2102 200.802L68.5251 203.684C68.3938 203.786 68.2386 203.836 68.0835 203.836Z" fill="#1E211D"/>
<path d="M23.6148 117.342C23.2686 117.342 22.9643 117.092 22.9076 116.74C22.8449 116.349 23.1105 115.983 23.5014 115.92L56.1958 110.712C56.5867 110.653 56.9537 110.915 57.0163 111.306C57.079 111.696 56.8134 112.063 56.4226 112.125L23.7282 117.333C23.6894 117.339 23.6536 117.342 23.6148 117.342Z" fill="#1E211D"/>
<path d="M24.5425 129.88C24.1964 129.88 23.892 129.63 23.8353 129.278C23.7727 128.888 24.0382 128.521 24.4291 128.458L54.62 123.647C55.0109 123.587 55.3779 123.85 55.4406 124.24C55.5033 124.631 55.2377 124.997 54.8468 125.06L24.6559 129.871C24.6171 129.877 24.5813 129.88 24.5425 129.88Z" fill="#1E211D"/>
<path d="M31.6499 148.365C31.3038 148.365 30.9994 148.115 30.9428 147.763C30.8801 147.373 31.1457 147.006 31.5365 146.943L68.292 141.089C68.6829 141.029 69.0499 141.291 69.1126 141.682C69.1752 142.072 68.9097 142.439 68.5188 142.502L31.7633 148.356C31.7245 148.362 31.6887 148.365 31.6499 148.365Z" fill="#1E211D"/>
<path d="M37.3257 157.714C36.9796 157.714 36.6752 157.464 36.6185 157.112C36.5559 156.721 36.8214 156.355 37.2123 156.292L51.8363 153.964C52.2272 153.901 52.5942 154.167 52.6569 154.557C52.7196 154.948 52.454 155.314 52.0631 155.377L37.4391 157.705C37.4003 157.711 37.3615 157.714 37.3257 157.714Z" fill="#1E211D"/>
<path d="M58.3413 180.483C57.9952 180.483 57.6909 180.233 57.6342 179.881C57.5715 179.49 57.8371 179.124 58.228 179.061L89.4602 174.086C89.8511 174.026 90.2181 174.289 90.2808 174.679C90.3435 175.07 90.0779 175.436 89.687 175.499L58.4547 180.474C58.4159 180.48 58.3801 180.483 58.3413 180.483Z" fill="#1E211D"/>
<path d="M10.8491 155.246C10.6373 155.246 10.4254 155.15 10.2852 154.972C10.0405 154.662 10.0972 154.211 10.4075 153.967L19.1503 147.129C19.4606 146.884 19.9112 146.941 20.1558 147.251C20.4005 147.561 20.3438 148.011 20.0335 148.255L11.2907 155.094C11.1594 155.195 11.0043 155.246 10.8491 155.246Z" fill="#1E211D"/>
<path d="M9.53368 145.459C9.32183 145.459 9.10997 145.364 8.96973 145.185C8.72505 144.875 8.78174 144.425 9.09207 144.18L15.764 138.961C16.0744 138.716 16.5249 138.773 16.7696 139.083C17.0143 139.393 16.9576 139.843 16.6473 140.087L9.9753 145.307C9.84401 145.409 9.68884 145.459 9.53368 145.459Z" fill="#1E211D"/>
</g>
<g clip-path="url(#clip1_400_1169)">
<path d="M741.907 500.867L731.962 516.669C726.47 525.397 690.539 512.728 651.707 488.371C612.875 464.017 585.848 437.198 591.342 428.469L601.288 412.667L741.907 500.867Z" fill="#FFC803"/>
<path d="M661.651 472.57C700.483 496.926 736.415 509.595 741.908 500.867C747.4 492.138 720.373 465.318 681.542 440.962C642.71 416.606 606.778 403.937 601.285 412.666C595.793 421.394 622.82 448.214 661.651 472.57Z" fill="#FFC803"/>
<path d="M599.959 417.146C599.585 415.295 599.745 413.626 600.612 412.247C600.844 411.876 601.335 411.763 601.706 411.995C602.077 412.227 602.19 412.717 601.957 413.088C599.553 416.907 604.458 425.33 615.407 436.193C626.768 447.468 643.342 460.147 662.074 471.897C680.805 483.647 699.441 493.048 714.547 498.374C729.103 503.507 738.832 504.261 741.234 500.443C741.466 500.072 741.957 499.959 742.328 500.191C742.699 500.423 742.812 500.913 742.579 501.284C738.897 507.14 725.012 503.747 714.017 499.867C698.806 494.505 680.058 485.046 661.23 473.238C642.402 461.43 625.73 448.67 614.289 437.316C607.971 431.045 601.173 423.136 599.961 417.139L599.959 417.146Z" fill="#1E211D"/>
<path d="M618.533 423.948C618.318 422.888 618.425 421.976 618.891 421.237C619.123 420.866 619.614 420.754 619.985 420.986C620.357 421.218 620.469 421.708 620.237 422.079C617.556 426.338 636.123 444.6 667.046 463.992C697.97 483.388 722.506 492.16 725.184 487.905C725.417 487.534 725.908 487.421 726.279 487.653C726.65 487.885 726.763 488.375 726.53 488.746C722.303 495.468 692.29 481.701 666.199 465.338C642.979 450.773 620.265 432.522 618.532 423.945L618.533 423.948Z" fill="#1E211D"/>
<path d="M697.338 461.021C697.274 460.706 697.406 460.373 697.694 460.193C698.066 459.959 698.558 460.069 698.792 460.44L716.381 488.283C716.615 488.654 716.504 489.142 716.133 489.379C715.761 489.612 715.269 489.503 715.036 489.131L697.446 461.289C697.392 461.206 697.357 461.115 697.338 461.024L697.338 461.021Z" fill="#1E211D"/>
<path d="M678.976 448.997C678.913 448.683 679.045 448.349 679.333 448.169C679.704 447.936 680.196 448.045 680.43 448.417L702.414 483.209C702.648 483.577 702.537 484.068 702.166 484.305C701.794 484.539 701.302 484.429 701.069 484.058L679.084 449.265C679.03 449.182 678.995 449.091 678.977 449L678.976 448.997Z" fill="#1E211D"/>
<path d="M670.751 454.411C670.687 454.096 670.819 453.763 671.107 453.583C671.479 453.349 671.968 453.46 672.205 453.83L685.507 474.886C685.741 475.254 685.63 475.745 685.259 475.982C684.887 476.216 684.399 476.105 684.162 475.735L670.859 454.679C670.805 454.595 670.77 454.505 670.751 454.414L670.751 454.411Z" fill="#1E211D"/>
<path d="M640.698 431.1C640.634 430.786 640.766 430.452 641.054 430.273C641.426 430.039 641.915 430.149 642.152 430.52L660.831 460.092C661.065 460.463 660.954 460.951 660.583 461.188C660.211 461.422 659.722 461.311 659.485 460.941L640.806 431.369C640.752 431.285 640.717 431.194 640.699 431.104L640.698 431.1Z" fill="#1E211D"/>
<path d="M595.293 431.595C595.254 431.404 595.286 431.195 595.399 431.017L601.753 420.92C601.985 420.549 602.476 420.437 602.847 420.669C603.219 420.901 603.331 421.391 603.099 421.762L596.745 431.858C596.512 432.229 596.021 432.342 595.65 432.11C595.457 431.99 595.334 431.803 595.293 431.595Z" fill="#1E211D"/>
<path d="M600.684 440.723C600.646 440.531 600.678 440.322 600.791 440.144L607.605 429.317C607.838 428.946 608.329 428.833 608.7 429.065C609.071 429.298 609.184 429.788 608.951 430.159L602.137 440.986C601.904 441.357 601.413 441.469 601.042 441.237C600.849 441.118 600.726 440.93 600.684 440.723Z" fill="#1E211D"/>
<path d="M678.091 498.042C678.053 497.851 678.085 497.642 678.198 497.464L685.314 486.157C685.547 485.786 686.038 485.674 686.409 485.909C686.781 486.141 686.893 486.631 686.661 487.002L679.544 498.309C679.312 498.68 678.821 498.792 678.45 498.56C678.256 498.441 678.134 498.253 678.092 498.046L678.091 498.042Z" fill="#1E211D"/>
<path d="M688.953 499.89C688.915 499.699 688.947 499.49 689.059 499.312L694.485 490.692C694.718 490.321 695.208 490.208 695.58 490.444C695.952 490.676 696.064 491.166 695.832 491.537L690.406 500.157C690.173 500.528 689.683 500.64 689.311 500.408C689.118 500.289 688.996 500.101 688.954 499.893L688.953 499.89Z" fill="#1E211D"/>
<path d="M720.413 513.61C720.375 513.419 720.407 513.21 720.52 513.032L727.144 502.503C727.377 502.132 727.868 502.019 728.239 502.252C728.61 502.484 728.723 502.974 728.49 503.345L721.866 513.874C721.633 514.245 721.142 514.357 720.771 514.125C720.578 514.006 720.455 513.818 720.413 513.61Z" fill="#1E211D"/>
</g>
<g clip-path="url(#clip2_400_1169)">
<path d="M1058.12 500.311L1049.88 508.98C1045.33 513.768 1024.41 501.244 1003.14 481.004C981.879 460.766 968.33 440.478 972.881 435.689L981.119 427.02L1058.12 500.311Z" fill="#FFC803"/>
<path d="M1011.38 472.335C1032.65 492.574 1053.57 505.099 1058.12 500.311C1062.67 495.522 1049.12 475.233 1027.86 454.994C1006.59 434.755 985.667 422.23 981.118 427.019C976.568 431.808 990.118 452.096 1011.38 472.335Z" fill="#FFC803"/>
<path d="M979.718 429.667C979.718 428.456 980.03 427.427 980.748 426.67C980.941 426.467 981.263 426.458 981.466 426.651C981.67 426.844 981.678 427.166 981.485 427.37C979.494 429.465 981.502 435.382 986.992 443.6C992.687 452.129 1001.47 462.202 1011.73 471.966C1021.99 481.729 1032.48 490.004 1041.28 495.27C1049.76 500.345 1055.76 502.054 1057.75 499.959C1057.94 499.755 1058.27 499.747 1058.47 499.94C1058.67 500.133 1058.68 500.455 1058.49 500.658C1055.44 503.871 1047.16 499.976 1040.76 496.141C1031.9 490.84 1021.34 482.514 1011.03 472.702C1000.72 462.889 991.884 452.752 986.149 444.164C982.981 439.42 979.72 433.586 979.72 429.662L979.718 429.667Z" fill="#1E211D"/>
<path d="M990.502 436.3C990.502 435.607 990.685 435.047 991.07 434.642C991.263 434.438 991.585 434.43 991.789 434.623C991.992 434.816 992 435.138 991.808 435.342C989.587 437.679 998.916 451.514 1015.85 467.629C1032.78 483.746 1047.06 492.375 1049.28 490.04C1049.47 489.837 1049.79 489.828 1049.99 490.021C1050.2 490.214 1050.21 490.536 1050.01 490.74C1046.51 494.428 1029.44 481.965 1015.15 468.367C1002.43 456.264 990.502 441.909 990.502 436.298L990.502 436.3Z" fill="#1E211D"/>
<path d="M1035.22 469.607C1035.22 469.402 1035.35 469.209 1035.55 469.132C1035.81 469.033 1036.11 469.164 1036.21 469.427L1043.71 489.16C1043.81 489.423 1043.68 489.716 1043.41 489.818C1043.15 489.917 1042.86 489.786 1042.76 489.523L1035.25 469.79C1035.23 469.73 1035.22 469.669 1035.22 469.61L1035.22 469.607Z" fill="#1E211D"/>
<path d="M1025.23 459.719C1025.23 459.513 1025.35 459.32 1025.56 459.244C1025.82 459.144 1026.12 459.276 1026.21 459.539L1035.59 484.198C1035.69 484.459 1035.56 484.753 1035.3 484.855C1035.04 484.955 1034.74 484.823 1034.64 484.56L1025.26 459.901C1025.24 459.842 1025.23 459.78 1025.23 459.721L1025.23 459.719Z" fill="#1E211D"/>
<path d="M1019.39 462.077C1019.39 461.871 1019.51 461.678 1019.71 461.602C1019.98 461.502 1020.27 461.634 1020.37 461.897L1026.05 476.82C1026.15 477.081 1026.01 477.376 1025.75 477.477C1025.49 477.577 1025.2 477.445 1025.09 477.183L1019.42 462.259C1019.4 462.2 1019.39 462.138 1019.39 462.079L1019.39 462.077Z" fill="#1E211D"/>
<path d="M1003.5 443.61C1003.5 443.404 1003.62 443.211 1003.82 443.135C1004.09 443.035 1004.38 443.167 1004.48 443.43L1012.45 464.389C1012.55 464.651 1012.42 464.944 1012.15 465.046C1011.89 465.146 1011.6 465.014 1011.5 464.751L1003.53 443.793C1003.51 443.733 1003.5 443.672 1003.5 443.612L1003.5 443.61Z" fill="#1E211D"/>
<path d="M974.962 438.156C974.962 438.031 975.008 437.903 975.102 437.806L980.365 432.267C980.557 432.063 980.88 432.055 981.083 432.248C981.286 432.44 981.295 432.763 981.102 432.966L975.839 438.506C975.646 438.709 975.324 438.718 975.121 438.525C975.015 438.425 974.962 438.291 974.962 438.156Z" fill="#1E211D"/>
<path d="M977.186 444.577C977.186 444.452 977.232 444.325 977.326 444.227L982.97 438.287C983.163 438.084 983.485 438.075 983.688 438.268C983.892 438.461 983.9 438.784 983.707 438.987L978.063 444.927C977.87 445.131 977.548 445.139 977.345 444.946C977.239 444.847 977.186 444.713 977.186 444.577Z" fill="#1E211D"/>
<path d="M1018.46 490.432C1018.46 490.307 1018.51 490.18 1018.6 490.083L1024.5 483.88C1024.69 483.676 1025.01 483.668 1025.21 483.863C1025.42 484.056 1025.43 484.378 1025.23 484.582L1019.34 490.784C1019.15 490.988 1018.82 490.997 1018.62 490.804C1018.52 490.704 1018.46 490.57 1018.46 490.435L1018.46 490.432Z" fill="#1E211D"/>
<path d="M1025.04 492.973C1025.04 492.848 1025.09 492.721 1025.18 492.623L1029.67 487.894C1029.87 487.69 1030.19 487.682 1030.39 487.877C1030.59 488.07 1030.6 488.392 1030.41 488.596L1025.92 493.325C1025.72 493.529 1025.4 493.537 1025.2 493.344C1025.09 493.244 1025.04 493.111 1025.04 492.975L1025.04 492.973Z" fill="#1E211D"/>
<path d="M1043.03 505.591C1043.03 505.466 1043.07 505.339 1043.17 505.241L1048.66 499.465C1048.85 499.261 1049.17 499.253 1049.37 499.445C1049.58 499.638 1049.59 499.961 1049.39 500.164L1043.91 505.941C1043.71 506.145 1043.39 506.153 1043.19 505.96C1043.08 505.861 1043.03 505.727 1043.03 505.591Z" fill="#1E211D"/>
</g>
<g clip-path="url(#clip3_400_1169)">
<path d="M308.846 119.566L313.652 130.516C316.307 136.564 296.661 151.013 269.77 162.789C242.88 174.565 218.929 179.209 216.275 173.159L211.469 162.208L308.846 119.566Z" fill="#FFC803"/>
<path d="M264.964 151.839C291.854 140.063 311.501 125.614 308.846 119.565C306.191 113.517 282.24 118.16 255.349 129.936C228.459 141.712 208.812 156.161 211.467 162.209C214.122 168.258 238.074 163.614 264.964 151.839Z" fill="#FFC803"/>
<path d="M213.367 164.524C212.25 164.055 211.422 163.37 211.002 162.415C210.889 162.158 211.006 161.858 211.263 161.745C211.519 161.632 211.82 161.749 211.933 162.006C213.094 164.653 219.327 165.09 229.029 163.208C239.098 161.257 251.786 157.053 264.758 151.373C277.73 145.693 289.421 139.218 297.681 133.143C305.641 127.29 309.54 122.415 308.378 119.769C308.265 119.513 308.382 119.213 308.639 119.1C308.895 118.987 309.196 119.104 309.309 119.36C311.091 123.417 304.296 129.541 298.283 133.961C289.966 140.078 278.204 146.592 265.166 152.302C252.129 158.012 239.362 162.239 229.223 164.204C223.623 165.289 216.981 166.039 213.364 164.52L213.367 164.524Z" fill="#1E211D"/>
<path d="M223.657 157.146C223.018 156.878 222.572 156.493 222.348 155.981C222.234 155.724 222.351 155.424 222.608 155.311C222.865 155.198 223.165 155.315 223.278 155.572C224.574 158.524 240.941 155.275 262.353 145.897C283.767 136.519 297.248 126.695 295.953 123.746C295.84 123.49 295.957 123.19 296.214 123.077C296.47 122.964 296.771 123.081 296.884 123.337C298.929 127.994 280.829 138.916 262.763 146.829C246.683 153.87 228.829 159.317 223.655 157.146L223.657 157.146Z" fill="#1E211D"/>
<path d="M271.673 128.801C271.484 128.721 271.354 128.531 271.362 128.314C271.372 128.033 271.607 127.813 271.888 127.823L292.987 128.54C293.268 128.55 293.487 128.784 293.48 129.066C293.47 129.347 293.235 129.568 292.954 129.558L271.855 128.84C271.791 128.839 271.73 128.825 271.675 128.802L271.673 128.801Z" fill="#1E211D"/>
<path d="M258.689 134.186C258.499 134.107 258.37 133.917 258.378 133.7C258.388 133.419 258.623 133.198 258.904 133.208L285.271 134.103C285.55 134.112 285.771 134.347 285.763 134.629C285.754 134.91 285.518 135.13 285.237 135.121L258.87 134.226C258.807 134.224 258.746 134.21 258.691 134.187L258.689 134.186Z" fill="#1E211D"/>
<path d="M258.603 140.487C258.413 140.408 258.283 140.218 258.292 140.001C258.301 139.72 258.536 139.501 258.818 139.509L274.774 140.052C275.053 140.061 275.274 140.296 275.266 140.578C275.256 140.858 275.022 141.077 274.74 141.069L258.784 140.527C258.72 140.525 258.659 140.511 258.605 140.488L258.603 140.487Z" fill="#1E211D"/>
<path d="M235.425 147.995C235.236 147.915 235.106 147.725 235.115 147.508C235.124 147.227 235.359 147.008 235.641 147.016L258.049 147.78C258.33 147.79 258.549 148.025 258.541 148.306C258.532 148.587 258.297 148.806 258.015 148.798L235.607 148.034C235.543 148.032 235.482 148.018 235.427 147.995L235.425 147.995Z" fill="#1E211D"/>
<path d="M219.355 172.195C219.239 172.147 219.14 172.055 219.086 171.931L216.015 164.934C215.902 164.678 216.019 164.377 216.275 164.265C216.532 164.152 216.832 164.269 216.946 164.525L220.017 171.522C220.13 171.778 220.013 172.079 219.756 172.191C219.623 172.251 219.48 172.248 219.355 172.195Z" fill="#1E211D"/>
<path d="M226.136 172.628C226.021 172.58 225.921 172.488 225.868 172.364L222.574 164.861C222.461 164.604 222.578 164.304 222.835 164.191C223.091 164.078 223.392 164.195 223.505 164.452L226.798 171.955C226.911 172.212 226.795 172.512 226.538 172.625C226.405 172.684 226.261 172.681 226.136 172.628Z" fill="#1E211D"/>
<path d="M284.392 152.311C284.277 152.263 284.177 152.171 284.123 152.047L280.685 144.212C280.571 143.955 280.688 143.655 280.947 143.543C281.204 143.43 281.504 143.547 281.617 143.803L285.056 151.639C285.169 151.895 285.052 152.196 284.796 152.309C284.663 152.368 284.519 152.365 284.394 152.312L284.392 152.311Z" fill="#1E211D"/>
<path d="M289.279 147.23C289.164 147.182 289.064 147.09 289.01 146.966L286.389 140.992C286.276 140.735 286.392 140.435 286.651 140.323C286.908 140.21 287.208 140.327 287.321 140.584L289.943 146.558C290.056 146.814 289.939 147.114 289.683 147.227C289.55 147.286 289.406 147.284 289.281 147.231L289.279 147.23Z" fill="#1E211D"/>
<path d="M307.875 135.525C307.76 135.477 307.661 135.385 307.607 135.261L304.404 127.966C304.29 127.709 304.407 127.409 304.664 127.296C304.921 127.183 305.221 127.3 305.334 127.556L308.537 134.852C308.651 135.109 308.534 135.409 308.277 135.522C308.144 135.581 308 135.578 307.875 135.525Z" fill="#1E211D"/>
</g>
<g clip-path="url(#clip4_400_1169)">
<path d="M1186.35 232.45L1186.4 247.817C1186.47 268.417 1156.37 285.281 1119.15 285.483C1081.94 285.684 1051.72 269.151 1051.64 248.548L1051.59 233.181L1186.35 232.45Z" fill="#FFC803"/>
<path d="M1119.11 270.112C1156.32 269.907 1186.43 253.041 1186.35 232.441C1186.28 211.841 1156.05 195.309 1118.84 195.514C1081.63 195.72 1051.52 212.586 1051.59 233.185C1051.67 253.785 1081.89 270.318 1119.11 270.112Z" fill="#FFC803"/>
<path d="M1069.55 259.731C1057.25 252.625 1050.47 243.241 1050.44 233.191C1050.44 232.548 1050.95 232.031 1051.59 232.026C1052.23 232.02 1052.75 232.538 1052.75 233.176C1052.79 242.696 1059.59 251.651 1071.98 258.431C1084.56 265.315 1101.3 269.052 1119.1 268.954C1136.9 268.855 1153.61 264.938 1166.15 257.92C1178.46 251.021 1185.23 241.979 1185.19 232.457C1185.19 231.814 1185.71 231.297 1186.35 231.292C1186.98 231.29 1187.5 231.804 1187.51 232.442C1187.54 242.845 1180.36 252.611 1167.27 259.942C1154.4 267.152 1137.3 271.174 1119.11 271.273C1100.92 271.371 1083.79 267.535 1070.87 260.466C1070.42 260.221 1069.98 259.979 1069.55 259.731Z" fill="#1E211D"/>
<path d="M1077.13 250.927C1068.64 246.026 1064 239.789 1063.98 233.115C1063.98 232.473 1064.5 231.956 1065.13 231.95C1065.77 231.949 1066.29 232.462 1066.3 233.101C1066.32 239.669 1071.71 245.886 1081.47 250.595C1091.5 255.437 1104.85 258.061 1119.06 257.984C1148.1 257.825 1171.69 246.404 1171.64 232.524C1171.64 231.881 1172.16 231.364 1172.8 231.359C1173.43 231.353 1173.95 231.87 1173.96 232.509C1173.98 240.012 1168.18 247.025 1157.61 252.262C1147.31 257.364 1133.61 260.222 1119.07 260.304C1104.51 260.382 1090.81 257.679 1080.46 252.684C1079.29 252.119 1078.18 251.532 1077.13 250.924L1077.13 250.927Z" fill="#1E211D"/>
<path d="M1094.61 281.682C1094.26 281.482 1094.03 281.109 1094.02 280.683L1093.98 267.88C1093.98 267.237 1094.49 266.72 1095.13 266.715C1095.77 266.713 1096.29 267.227 1096.29 267.865L1096.34 280.668C1096.34 281.311 1095.82 281.827 1095.19 281.833C1094.97 281.833 1094.77 281.778 1094.6 281.679L1094.61 281.682Z" fill="#1E211D"/>
<path d="M1086.27 276.027C1085.92 275.827 1085.69 275.454 1085.69 275.027L1085.65 265.763C1085.65 265.12 1086.17 264.603 1086.81 264.598C1087.44 264.592 1087.96 265.109 1087.97 265.748L1088 275.017C1088 275.659 1087.49 276.176 1086.85 276.182C1086.64 276.182 1086.43 276.127 1086.26 276.028L1086.27 276.027Z" fill="#1E211D"/>
<path d="M1077.94 272.271C1077.6 272.074 1077.36 271.698 1077.36 271.274L1077.33 262.821C1077.33 262.179 1077.85 261.662 1078.48 261.656C1079.12 261.655 1079.64 262.168 1079.65 262.807L1079.68 271.26C1079.68 271.902 1079.16 272.419 1078.52 272.425C1078.31 272.425 1078.11 272.37 1077.94 272.271Z" fill="#1E211D"/>
<path d="M1069.6 264.504C1069.26 264.306 1069.02 263.931 1069.02 263.507L1069 258.748C1069 258.11 1069.52 257.588 1070.15 257.583C1070.79 257.577 1071.31 258.095 1071.31 258.733L1071.33 263.492C1071.34 264.131 1070.82 264.652 1070.18 264.658C1069.97 264.658 1069.77 264.603 1069.6 264.504Z" fill="#1E211D"/>
<path d="M1166.65 245.28C1166.48 245.178 1166.33 245.031 1166.22 244.841L1149.8 215.477C1149.49 214.918 1149.69 214.213 1150.25 213.898C1150.8 213.585 1151.51 213.784 1151.82 214.339L1168.24 243.703C1168.55 244.263 1168.35 244.967 1167.8 245.282C1167.43 245.488 1166.99 245.471 1166.65 245.275L1166.65 245.28Z" fill="#1E211D"/>
<path d="M1156.06 252.468C1155.88 252.367 1155.73 252.22 1155.63 252.032L1140.47 224.912C1140.16 224.353 1140.36 223.649 1140.91 223.333C1141.47 223.02 1142.17 223.22 1142.49 223.775L1157.65 250.894C1157.96 251.454 1157.76 252.158 1157.2 252.473C1156.84 252.679 1156.4 252.662 1156.06 252.466L1156.06 252.468Z" fill="#1E211D"/>
<path d="M1136.82 258.484C1136.64 258.383 1136.49 258.235 1136.39 258.045L1117.93 225.034C1117.62 224.475 1117.82 223.77 1118.38 223.455C1118.93 223.142 1119.64 223.341 1119.95 223.896L1138.41 256.908C1138.72 257.467 1138.52 258.171 1137.96 258.487C1137.59 258.692 1137.16 258.675 1136.82 258.48L1136.82 258.484Z" fill="#1E211D"/>
<path d="M1125.78 259.872C1125.6 259.77 1125.45 259.623 1125.35 259.435L1118.01 246.303C1117.7 245.744 1117.9 245.039 1118.45 244.724C1119.01 244.411 1119.72 244.61 1120.03 245.165L1127.37 258.298C1127.68 258.857 1127.48 259.561 1126.93 259.877C1126.56 260.082 1126.12 260.065 1125.79 259.87L1125.78 259.872Z" fill="#1E211D"/>
<path d="M1094.37 257.507C1094.2 257.405 1094.05 257.258 1093.94 257.068L1078.26 229.015C1077.95 228.456 1078.15 227.752 1078.7 227.436C1079.26 227.123 1079.96 227.322 1080.28 227.878L1095.96 255.93C1096.27 256.49 1096.07 257.194 1095.52 257.509C1095.15 257.715 1094.71 257.698 1094.38 257.502L1094.37 257.507Z" fill="#1E211D"/>
<path d="M1144.42 279.425C1144.07 279.225 1143.84 278.852 1143.84 278.426L1143.79 267.131C1143.79 266.488 1144.31 265.972 1144.95 265.966C1145.58 265.96 1146.1 266.478 1146.11 267.116L1146.15 278.411C1146.15 279.054 1145.64 279.571 1145 279.576C1144.79 279.577 1144.58 279.521 1144.41 279.423L1144.42 279.425Z" fill="#1E211D"/>
<path d="M1153.06 274.289C1152.71 274.089 1152.48 273.716 1152.48 273.289L1152.45 264.67C1152.45 264.027 1152.96 263.51 1153.6 263.505C1154.24 263.499 1154.76 264.017 1154.76 264.655L1154.79 273.275C1154.79 273.917 1154.28 274.434 1153.64 274.44C1153.43 274.44 1153.23 274.385 1153.06 274.286L1153.06 274.289Z" fill="#1E211D"/>
</g>
<g clip-path="url(#clip5_400_1169)">
<path d="M906.447 79.0269L914.121 82.1971C924.408 86.4464 926.557 104.966 918.919 123.565C911.281 142.164 896.75 153.797 886.461 149.549L878.787 146.379L906.447 79.0269Z" fill="#FFC803"/>
<path d="M911.245 120.392C918.881 101.792 916.732 83.2703 906.444 79.0228C896.156 74.7754 881.626 86.4105 873.989 105.011C866.353 123.611 868.502 142.132 878.79 146.38C889.078 150.627 903.608 138.992 911.245 120.392Z" fill="#FFC803"/>
<path d="M895.762 142.944C889.658 147.604 883.57 149.03 878.552 146.956C878.231 146.823 878.081 146.459 878.211 146.139C878.341 145.82 878.707 145.669 879.026 145.799C883.78 147.763 889.66 146.233 895.618 141.464C901.667 136.622 907.011 129.054 910.665 120.155C914.318 111.256 915.839 102.11 914.946 94.3996C914.067 86.8231 910.966 81.5677 906.21 79.6052C905.889 79.4725 905.738 79.1079 905.868 78.7887C906 78.4715 906.364 78.318 906.684 78.4487C911.878 80.5951 915.254 86.2095 916.189 94.2588C917.108 102.176 915.556 111.543 911.823 120.633C908.088 129.726 902.613 137.47 896.401 142.443C896.187 142.613 895.975 142.781 895.762 142.944Z" fill="#1E211D"/>
<path d="M892.948 137.335C888.739 140.548 884.664 141.564 881.332 140.187C881.011 140.054 880.86 139.689 880.99 139.37C881.122 139.053 881.486 138.9 881.806 139.03C885.085 140.385 889.307 138.988 893.686 135.1C898.187 131.105 902.271 124.994 905.187 117.894C911.148 103.377 910.358 89.2388 903.426 86.3755C903.106 86.2428 902.955 85.8782 903.085 85.559C903.215 85.2398 903.581 85.0883 903.9 85.219C907.647 86.7659 909.937 91.1206 910.351 97.4788C910.752 103.679 909.33 111.101 906.345 118.372C903.358 125.645 899.159 131.919 894.517 136.038C893.992 136.505 893.468 136.938 892.946 137.336L892.948 137.335Z" fill="#1E211D"/>
<path d="M911.918 135.016C911.747 135.148 911.513 135.185 911.299 135.098L904.905 132.458C904.585 132.326 904.434 131.961 904.564 131.642C904.695 131.325 905.06 131.171 905.379 131.302L911.773 133.942C912.094 134.074 912.244 134.439 912.115 134.758C912.071 134.864 912.001 134.953 911.916 135.018L911.918 135.016Z" fill="#1E211D"/>
<path d="M907.364 137.997C907.192 138.128 906.959 138.166 906.745 138.079L902.118 136.169C901.797 136.037 901.647 135.672 901.776 135.353C901.906 135.034 902.272 134.882 902.592 135.013L907.22 136.925C907.541 137.057 907.692 137.422 907.562 137.741C907.518 137.847 907.449 137.936 907.364 138.001L907.364 137.997Z" fill="#1E211D"/>
<path d="M903.76 141.37C903.59 141.5 903.354 141.539 903.142 141.451L898.921 139.708C898.6 139.575 898.45 139.21 898.579 138.891C898.711 138.574 899.075 138.42 899.395 138.551L903.616 140.294C903.937 140.427 904.088 140.792 903.958 141.111C903.914 141.216 903.844 141.306 903.76 141.37Z" fill="#1E211D"/>
<path d="M898.151 143.915C897.982 144.044 897.746 144.083 897.534 143.995L895.157 143.015C894.838 142.884 894.686 142.518 894.816 142.198C894.945 141.879 895.312 141.728 895.631 141.858L898.008 142.839C898.327 142.969 898.479 143.336 898.35 143.655C898.306 143.761 898.236 143.85 898.151 143.915Z" fill="#1E211D"/>
<path d="M908.749 91.5184C908.662 91.5847 908.557 91.6283 908.44 91.6422L890.383 93.7233C890.039 93.7624 889.729 93.5159 889.688 93.1734C889.648 92.8294 889.893 92.5203 890.236 92.4791L908.293 90.398C908.637 90.3589 908.946 90.6054 908.988 90.9479C909.014 91.1746 908.915 91.3882 908.747 91.5163L908.749 91.5184Z" fill="#1E211D"/>
<path d="M910.13 98.2975C910.043 98.3639 909.939 98.4075 909.824 98.4198L893.147 100.34C892.804 100.379 892.494 100.132 892.452 99.7899C892.412 99.4459 892.658 99.1367 893 99.0956L909.677 97.1756C910.02 97.1365 910.33 97.383 910.372 97.7255C910.397 97.9522 910.298 98.1658 910.131 98.2939L910.13 98.2975Z" fill="#1E211D"/>
<path d="M909.129 109.142C909.042 109.209 908.937 109.252 908.82 109.266L888.52 111.604C888.177 111.643 887.867 111.397 887.825 111.054C887.785 110.71 888.031 110.401 888.373 110.36L908.673 108.022C909.017 107.983 909.326 108.229 909.368 108.572C909.394 108.798 909.295 109.012 909.127 109.14L909.129 109.142Z" fill="#1E211D"/>
<path d="M907.526 114.935C907.439 115.001 907.334 115.045 907.219 115.057L899.143 115.988C898.8 116.027 898.49 115.78 898.448 115.438C898.408 115.094 898.654 114.785 898.996 114.743L907.072 113.813C907.416 113.774 907.725 114.021 907.767 114.363C907.793 114.59 907.694 114.803 907.526 114.931L907.526 114.935Z" fill="#1E211D"/>
<path d="M899.815 130.104C899.728 130.171 899.624 130.214 899.507 130.228L882.256 132.216C881.912 132.255 881.602 132.008 881.561 131.666C881.521 131.322 881.766 131.013 882.109 130.972L899.36 128.984C899.703 128.945 900.013 129.192 900.055 129.534C900.08 129.761 899.981 129.974 899.814 130.102L899.815 130.104Z" fill="#1E211D"/>
<path d="M921.152 109.708C920.98 109.839 920.746 109.876 920.533 109.789L914.892 107.462C914.571 107.329 914.42 106.964 914.55 106.645C914.68 106.326 915.046 106.175 915.365 106.305L921.006 108.633C921.327 108.766 921.478 109.13 921.348 109.449C921.304 109.555 921.235 109.644 921.15 109.709L921.152 109.708Z" fill="#1E211D"/>
<path d="M920.388 104.329C920.216 104.46 919.982 104.498 919.769 104.411L915.465 102.633C915.144 102.5 914.993 102.135 915.123 101.816C915.253 101.497 915.619 101.345 915.938 101.476L920.243 103.255C920.563 103.387 920.714 103.752 920.584 104.071C920.54 104.177 920.471 104.266 920.386 104.331L920.388 104.329Z" fill="#1E211D"/>
</g>
<path d="M125.011 373.511L132.894 370.904C143.461 367.409 157.177 380.037 163.53 399.114C169.882 418.19 166.467 436.487 155.899 439.985L148.016 442.592L125.011 373.511Z" fill="#FFC803"/>
<path d="M155.644 401.719C149.29 382.643 135.572 370.013 125.006 373.51C114.439 377.007 111.025 395.306 117.38 414.382C123.734 433.458 137.452 446.088 148.018 442.591C158.585 439.094 161.999 420.795 155.644 401.719Z" fill="#FFC803"/>
<path d="M158.635 428.91C157.052 436.424 153.371 441.478 148.215 443.182C147.885 443.291 147.533 443.113 147.423 442.786C147.313 442.46 147.492 442.106 147.819 441.996C152.702 440.382 156.159 435.384 157.56 427.882C158.982 420.266 158.091 411.043 155.051 401.917C152.011 392.791 147.193 384.869 141.484 379.61C135.873 374.443 130.093 372.486 125.209 374.104C124.88 374.212 124.527 374.035 124.418 373.708C124.31 373.382 124.486 373.028 124.813 372.918C130.15 371.154 136.372 373.204 142.334 378.692C148.198 384.09 153.135 392.2 156.241 401.524C159.346 410.85 160.252 420.291 158.792 428.112C158.741 428.381 158.69 428.647 158.635 428.91Z" fill="#1E211D"/>
<path d="M152.841 426.497C151.749 431.679 149.325 435.108 145.901 436.24C145.572 436.349 145.22 436.171 145.11 435.844C145.002 435.518 145.178 435.164 145.505 435.054C148.875 433.941 151.161 430.126 151.941 424.322C152.743 418.358 151.849 411.063 149.424 403.78C144.465 388.891 134.638 378.695 127.518 381.05C127.188 381.159 126.836 380.981 126.726 380.655C126.616 380.328 126.795 379.974 127.122 379.865C130.971 378.591 135.547 380.396 140.011 384.943C144.362 389.378 148.129 395.929 150.614 403.387C153.098 410.846 154.011 418.34 153.183 424.491C153.09 425.187 152.975 425.858 152.84 426.5L152.841 426.497Z" fill="#1E211D"/>
<path d="M165.7 412.359C165.656 412.57 165.503 412.751 165.285 412.825L158.718 414.998C158.388 415.107 158.036 414.929 157.926 414.602C157.818 414.276 157.994 413.922 158.322 413.813L164.889 411.639C165.218 411.53 165.57 411.708 165.68 412.035C165.716 412.144 165.722 412.257 165.7 412.361L165.7 412.359Z" fill="#1E211D"/>
<path d="M164.196 417.589C164.151 417.8 163.999 417.981 163.78 418.055L159.028 419.628C158.698 419.737 158.346 419.559 158.236 419.233C158.127 418.906 158.305 418.552 158.632 418.443L163.387 416.87C163.717 416.761 164.069 416.939 164.179 417.266C164.214 417.374 164.22 417.487 164.198 417.592L164.196 417.589Z" fill="#1E211D"/>
<path d="M163.666 422.498C163.622 422.707 163.469 422.89 163.251 422.961L158.915 424.396C158.585 424.505 158.233 424.327 158.123 424C158.016 423.674 158.192 423.32 158.519 423.21L162.855 421.776C163.184 421.667 163.537 421.845 163.646 422.171C163.682 422.28 163.688 422.393 163.666 422.498Z" fill="#1E211D"/>
<path d="M161.078 428.085C161.034 428.295 160.881 428.478 160.663 428.549L158.223 429.358C157.895 429.467 157.541 429.289 157.431 428.962C157.321 428.636 157.499 428.282 157.827 428.173L160.267 427.364C160.594 427.254 160.949 427.433 161.059 427.759C161.095 427.868 161.1 427.981 161.078 428.085Z" fill="#1E211D"/>
<path d="M134.907 381.472C134.885 381.579 134.834 381.681 134.754 381.768L122.432 395.13C122.197 395.384 121.801 395.4 121.546 395.168C121.291 394.933 121.276 394.538 121.508 394.284L133.831 380.921C134.066 380.667 134.461 380.652 134.716 380.884C134.884 381.039 134.948 381.265 134.904 381.472L134.907 381.472Z" fill="#1E211D"/>
<path d="M140.378 385.707C140.356 385.814 140.305 385.915 140.226 386L128.845 398.339C128.61 398.593 128.215 398.608 127.959 398.376C127.705 398.141 127.689 397.747 127.921 397.492L139.302 385.153C139.537 384.899 139.933 384.884 140.188 385.116C140.355 385.271 140.42 385.498 140.376 385.704L140.378 385.707Z" fill="#1E211D"/>
<path d="M146.699 394.576C146.676 394.683 146.626 394.785 146.546 394.872L132.692 409.892C132.458 410.146 132.062 410.162 131.807 409.93C131.552 409.695 131.537 409.3 131.769 409.046L145.622 394.025C145.857 393.771 146.253 393.756 146.508 393.988C146.675 394.143 146.74 394.369 146.696 394.576L146.699 394.576Z" fill="#1E211D"/>
<path d="M149.265 400.012C149.243 400.119 149.192 400.22 149.113 400.305L143.602 406.28C143.367 406.534 142.971 406.55 142.716 406.318C142.461 406.083 142.446 405.688 142.678 405.434L148.189 399.458C148.424 399.204 148.819 399.189 149.075 399.421C149.242 399.576 149.307 399.802 149.263 400.009L149.265 400.012Z" fill="#1E211D"/>
<path d="M153.324 416.537C153.301 416.644 153.251 416.745 153.171 416.832L141.399 429.598C141.164 429.852 140.768 429.867 140.513 429.635C140.258 429.4 140.243 429.006 140.475 428.751L152.247 415.986C152.482 415.732 152.878 415.717 153.133 415.949C153.3 416.104 153.365 416.33 153.321 416.537L153.324 416.537Z" fill="#1E211D"/>
<path d="M156.176 387.157C156.132 387.369 155.979 387.55 155.761 387.624L149.968 389.542C149.638 389.651 149.286 389.473 149.176 389.146C149.066 388.82 149.244 388.466 149.572 388.356L155.365 386.438C155.695 386.329 156.047 386.507 156.157 386.834C156.192 386.942 156.198 387.055 156.176 387.16L156.176 387.157Z" fill="#1E211D"/>
<path d="M152.087 383.581C152.043 383.793 151.89 383.974 151.672 384.047L147.25 385.509C146.92 385.618 146.568 385.44 146.458 385.113C146.348 384.787 146.527 384.433 146.854 384.324L151.276 382.862C151.605 382.753 151.957 382.931 152.067 383.258C152.103 383.366 152.109 383.479 152.087 383.584L152.087 383.581Z" fill="#1E211D"/>
<g clip-path="url(#clip6_400_1169)">
<path d="M364.706 577.977C387.063 577.321 404.649 558.665 403.986 536.309C403.323 513.952 384.663 496.361 362.306 497.017C339.95 497.674 322.363 516.329 323.026 538.686C323.689 561.042 342.35 578.634 364.706 577.977Z" fill="#FFC803"/>
<path d="M363.497 571.593C345.154 571.593 329.968 556.955 329.419 538.501C329.149 529.399 332.439 520.74 338.683 514.111C344.931 507.482 353.386 503.685 362.489 503.421C381.306 502.875 397.027 517.706 397.585 536.499C398.144 555.292 383.308 571.027 364.515 571.579C364.179 571.588 363.838 571.593 363.497 571.593ZM363.502 505.669C363.185 505.669 362.872 505.669 362.555 505.683C354.058 505.932 346.167 509.475 340.34 515.661C334.508 521.847 331.435 529.936 331.686 538.435C332.197 555.664 346.375 569.331 363.497 569.331C363.81 569.331 364.127 569.331 364.444 569.317C381.983 568.804 395.829 554.105 395.313 536.565C394.802 519.341 380.624 505.669 363.502 505.669Z" fill="#1E211D"/>
<path d="M346.925 531.057C346.57 531.057 346.224 530.892 346.001 530.586C345.637 530.077 345.751 529.371 346.257 529.008L362.267 517.522C362.773 517.155 363.488 517.272 363.853 517.776C364.222 518.285 364.104 518.992 363.597 519.355L347.587 530.841C347.388 530.987 347.152 531.053 346.925 531.053V531.057Z" fill="#1E211D"/>
<path d="M345.836 543.137C345.481 543.137 345.135 542.972 344.913 542.666C344.548 542.157 344.662 541.45 345.168 541.088L374.234 520.231C374.74 519.864 375.45 519.981 375.82 520.485C376.189 520.994 376.07 521.701 375.564 522.064L346.498 542.92C346.3 543.066 346.068 543.132 345.836 543.132V543.137Z" fill="#1E211D"/>
<path d="M357.874 544.47C357.519 544.47 357.173 544.305 356.951 543.999C356.582 543.495 356.7 542.788 357.206 542.421L377.164 528.099C377.671 527.731 378.381 527.849 378.75 528.353C379.114 528.857 379.001 529.564 378.494 529.931L358.537 544.253C358.338 544.4 358.106 544.465 357.874 544.465V544.47Z" fill="#1E211D"/>
<path d="M356.62 559.023C356.265 559.023 355.919 558.858 355.697 558.552C355.332 558.043 355.446 557.337 355.952 556.974L383.669 537.083C384.175 536.72 384.885 536.833 385.255 537.337C385.624 537.846 385.506 538.553 384.999 538.916L357.283 558.806C357.084 558.952 356.852 559.018 356.62 559.018V559.023Z" fill="#1E211D"/>
<path d="M366.461 558.736C366.106 558.736 365.76 558.571 365.538 558.265C365.173 557.756 365.287 557.049 365.793 556.686L377.756 548.103C378.262 547.74 378.972 547.853 379.341 548.357C379.711 548.866 379.592 549.572 379.086 549.935L367.123 558.519C366.925 558.665 366.688 558.731 366.461 558.731V558.736Z" fill="#1E211D"/>
</g>
<path d="M617.999 51.7233C632.075 51.3099 643.148 39.5637 642.73 25.4874C642.313 11.4111 630.564 0.335081 616.487 0.748416C602.411 1.16175 591.338 12.9079 591.756 26.9843C592.173 41.0606 603.922 52.1366 617.999 51.7233Z" fill="#FFC803"/>
<path d="M617.238 47.7034C605.688 47.7034 596.127 38.487 595.781 26.8679C595.611 21.137 597.683 15.6849 601.614 11.5113C605.548 7.33767 610.872 4.94681 616.603 4.7807C628.451 4.4366 638.349 13.7746 638.701 25.6073C639.053 37.4399 629.712 47.3474 617.879 47.6945C617.667 47.7004 617.453 47.7034 617.238 47.7034ZM617.241 6.19563C617.041 6.19563 616.845 6.19563 616.645 6.20453C611.295 6.36175 606.326 8.59242 602.657 12.4872C598.985 16.382 597.051 21.4752 597.209 26.8264C597.531 37.6743 606.457 46.2796 617.238 46.2796C617.435 46.2796 617.634 46.2796 617.834 46.2707C628.877 45.9473 637.595 36.6924 637.27 25.6488C636.948 14.8039 628.022 6.19563 617.241 6.19563Z" fill="#1E211D"/>
<path d="M606.802 22.1812C606.579 22.1812 606.361 22.0774 606.221 21.8845C605.992 21.5642 606.063 21.1192 606.382 20.8908L616.462 13.6589C616.781 13.4276 617.231 13.5017 617.461 13.8191C617.693 14.1395 617.619 14.5844 617.3 14.8128L607.22 22.0447C607.095 22.1367 606.946 22.1782 606.802 22.1782V22.1812Z" fill="#1E211D"/>
<path d="M606.117 29.7868C605.893 29.7868 605.676 29.6829 605.536 29.4901C605.306 29.1698 605.378 28.7248 605.697 28.4964L623.997 15.3645C624.316 15.1331 624.763 15.2073 624.996 15.5247C625.228 15.845 625.154 16.29 624.835 16.5184L606.534 29.6503C606.409 29.7423 606.263 29.7838 606.117 29.7838V29.7868Z" fill="#1E211D"/>
<path d="M613.696 30.6263C613.473 30.6263 613.255 30.5225 613.115 30.3297C612.883 30.0123 612.957 29.5674 613.276 29.336L625.842 20.3184C626.161 20.087 626.608 20.1611 626.841 20.4785C627.07 20.7959 626.998 21.2409 626.68 21.4723L614.114 30.4899C613.988 30.5818 613.842 30.6234 613.696 30.6234V30.6263Z" fill="#1E211D"/>
<path d="M612.907 39.7892C612.683 39.7892 612.466 39.6854 612.326 39.4926C612.096 39.1722 612.168 38.7273 612.487 38.4988L629.938 25.975C630.257 25.7466 630.704 25.8178 630.936 26.1352C631.169 26.4556 631.094 26.9005 630.775 27.1289L613.324 39.6527C613.199 39.7447 613.053 39.7862 612.907 39.7862V39.7892Z" fill="#1E211D"/>
<path d="M619.103 39.6082C618.88 39.6082 618.662 39.5044 618.522 39.3116C618.293 38.9913 618.364 38.5463 618.683 38.3179L626.215 32.9133C626.534 32.6849 626.981 32.756 627.213 33.0734C627.446 33.3938 627.371 33.8388 627.052 34.0672L619.521 39.4718C619.395 39.5638 619.246 39.6053 619.103 39.6053V39.6082Z" fill="#1E211D"/>
<defs>
<clipPath id="clip0_400_1169">
<rect width="112" height="123" fill="white" transform="translate(0 90)"/>
</clipPath>
<clipPath id="clip1_400_1169">
<rect width="131" height="136" fill="white" transform="translate(720.307 387) rotate(78.5791)"/>
</clipPath>
<clipPath id="clip2_400_1169">
<rect width="84" height="87" fill="white" transform="translate(1059 426) rotate(90)"/>
</clipPath>
<clipPath id="clip3_400_1169">
<rect width="84" height="87" fill="white" transform="translate(240.665 90) rotate(22.7651)"/>
</clipPath>
<clipPath id="clip4_400_1169">
<rect width="130" height="107" fill="white" transform="translate(1089.46 161.668) rotate(30)"/>
</clipPath>
<clipPath id="clip5_400_1169">
<rect width="70.2392" height="57.8122" fill="white" transform="translate(851 112.625) rotate(-37.3624)"/>
</clipPath>
<clipPath id="clip6_400_1169">
<rect width="81" height="81" fill="white" transform="translate(323 497)"/>
</clipPath>
</defs>
</svg>
