<svg xmlns="http://www.w3.org/2000/svg" fill="none" viewBox="0 0.5 49.19 40">
  <g>
    <path d="M32.0725 22.2556C34.3953 22.026 36.7315 20.2029 37.7039 18.1232C39.9321 13.3427 36.583 8.06246 31.4108 7.75185C26.2386 7.44125 20.2562 7.99493 14.8004 7.75185C13.8956 7.63032 12.9909 7.45476 12.1401 7.11715C8.93954 5.90175 7.23799 2.93079 5.00977 0.540513L31.816 0.5C40.8234 0.986158 47.238 9.29136 45.3338 18.1772C44.4696 22.2286 41.8767 25.5912 38.3251 27.6573C38.271 27.6843 38.217 27.6438 38.244 27.7654L49.1826 40.4595C47.0624 40.3379 44.7261 40.662 42.633 40.3785C40.5398 40.0949 38.4871 39.0145 37.0151 37.4885L23.8619 22.2556H32.0725Z" fill="white"/>
    <path d="M30.3307 18.7039H15.962L34.7466 40.4325C32.856 40.419 30.8573 40.5675 28.9802 40.473C26.833 40.3514 24.7534 39.4871 23.1463 38.0692C15.6109 29.3454 7.85938 20.7836 0.431967 11.9787C0.377949 11.9112 -0.0406865 11.425 -0.000173369 11.3845H20.0808C22.6332 11.5196 24.9154 12.5864 26.671 14.4095C27.7648 15.5574 29.2773 17.2454 30.2361 18.5013C30.2902 18.5689 30.3577 18.5824 30.3307 18.7039Z" fill="white"/>
  </g>
</svg>