<?xml version="1.0" encoding="UTF-8"?> <svg xmlns="http://www.w3.org/2000/svg" width="134" height="159" viewBox="0 0 134 159" fill="none"><path fill-rule="evenodd" clip-rule="evenodd" d="M39.3497 88.9005C39.1869 89.3046 39.4114 89.6368 39.8548 89.6368H94.4033C94.8467 89.6368 95.0712 89.3046 94.9029 88.9005L87.4774 70.5424C87.3147 70.1383 86.8208 69.8061 86.3774 69.8061H47.8752C47.4318 69.8061 46.9435 70.1383 46.7751 70.5424L39.3497 88.9005ZM0.376042 110.387C0.0280628 111.195 0.465843 111.848 1.35263 111.848H22.2089C22.6523 111.848 23.1462 111.521 23.309 111.112L59.1059 23.8002C61.1096 20.9213 63.9215 18.9394 67.1263 19.039C70.2356 18.9394 73.0924 20.9712 75.1522 23.8002L110.944 111.112C111.112 111.521 111.606 111.848 112.049 111.848H132.906C133.792 111.848 134.23 111.195 133.882 110.387L93.6007 16.6585C88.0499 4.27949 77.7621 0 67.1263 0C56.4905 0 46.444 4.42897 40.6574 16.6585L0.376042 110.387ZM12.168 126.264L17.3428 133.899H7.01571L12.168 126.264ZM20.9573 139.158H24.4034L13.5263 123.38H10.8042L0 139.158H3.42366L5.46103 135.87H18.9031L20.9573 139.158ZM41.1233 137.187H38.5583C37.8118 137.187 37.1496 137.132 36.5771 137.021C36.0046 136.916 35.5107 136.761 35.0841 136.556C34.6576 136.351 34.304 136.086 34.0121 135.759C33.5351 135.211 33.2039 134.547 33.0299 133.766C32.8503 132.985 32.7662 132.149 32.7662 131.269C32.7662 130.389 32.8503 129.564 33.0299 128.783C33.2039 128.003 33.5351 127.333 34.0121 126.779C34.304 126.453 34.6576 126.192 35.0841 125.988C35.5107 125.783 36.0046 125.628 36.5771 125.517C37.1496 125.412 37.8118 125.351 38.5583 125.351H50.4121V123.38H37.6547C36.723 123.38 35.8811 123.463 35.1571 123.624C34.4162 123.79 33.7764 124.017 33.2264 124.282C32.6651 124.559 32.1656 124.897 31.711 125.312C30.9926 125.988 30.4538 126.807 30.089 127.787C29.7185 128.761 29.5389 129.924 29.5389 131.269C29.5389 132.614 29.7185 133.783 30.089 134.762C30.4538 135.737 30.9926 136.556 31.711 137.226C32.1656 137.658 32.6651 138.007 33.2264 138.272C33.7764 138.538 34.4162 138.749 35.1571 138.909C35.8811 139.075 36.723 139.158 37.6547 139.158H50.7264V131.64H47.7573V137.187H41.1233ZM69.0626 137.187H66.4977C65.7512 137.187 65.0889 137.132 64.5164 137.021C63.9439 136.916 63.45 136.761 63.0235 136.556C62.5969 136.351 62.2433 136.086 61.9515 135.759C61.4744 135.211 61.1433 134.547 60.9693 133.766C60.7897 132.985 60.7055 132.149 60.7055 131.269C60.7055 130.389 60.7897 129.564 60.9693 128.783C61.1433 128.003 61.4744 127.333 61.9515 126.779C62.2433 126.453 62.5969 126.192 63.0235 125.988C63.45 125.783 63.9439 125.628 64.5164 125.517C65.0889 125.412 65.7512 125.351 66.4977 125.351H78.3514V123.38H65.594C64.6624 123.38 63.8205 123.463 63.0965 123.624C62.3612 123.79 61.7158 124.017 61.1657 124.282C60.6045 124.559 60.105 124.897 59.6503 125.312C58.9319 125.988 58.3931 126.807 58.0283 127.787C57.6579 128.761 57.4783 129.924 57.4783 131.269C57.4783 132.614 57.6579 133.783 58.0283 134.762C58.3931 135.737 58.9319 136.556 59.6503 137.226C60.105 137.658 60.6045 138.007 61.1657 138.272C61.7158 138.538 62.3612 138.749 63.0965 138.909C63.8205 139.075 64.6624 139.158 65.594 139.158H78.6657V131.64H75.6967V137.187H69.0626ZM104.759 137.187H89.4362V132.72H99.8082V130.749H89.4362V125.351H104.674V123.38H86.383V139.158H104.759V137.187ZM114.788 131.928V125.351H124.902C125.733 125.351 126.406 125.423 126.934 125.545C127.456 125.666 127.871 125.882 128.18 126.17C128.679 126.685 128.926 127.51 128.926 128.639C128.926 129.769 128.679 130.599 128.18 131.103C127.871 131.402 127.456 131.618 126.934 131.74C126.406 131.861 125.733 131.928 124.902 131.928H114.788ZM122.657 133.899C122.91 133.899 123.117 133.921 123.302 133.938C123.488 133.96 123.656 134.01 123.819 134.07C123.976 134.131 124.133 134.225 124.296 134.347C124.464 134.475 124.638 134.619 124.846 134.801L129.257 139.158H133.248L129.734 135.748C129.207 135.244 128.763 134.846 128.399 134.535C128.034 134.237 127.68 133.982 127.349 133.777C128.792 133.567 129.903 133.096 130.683 132.354C131.115 131.945 131.452 131.43 131.699 130.815C131.935 130.212 132.064 129.492 132.064 128.65C132.064 127.809 131.935 127.095 131.699 126.48C131.452 125.877 131.115 125.362 130.683 124.941C130.099 124.388 129.353 123.995 128.438 123.751C127.529 123.502 126.434 123.38 125.183 123.38H111.741V139.158H114.788V133.899H122.657ZM16.9275 147.103H13.7788V158.983H26.525V156.658H16.9275V147.103ZM50.5355 149.705L53.8918 155.058H47.37L50.5355 149.705ZM56.4063 159H59.061L51.5121 147.18H49.6151L42.1055 159H44.8781L46.4496 156.514H54.8348L56.4063 159ZM77.9641 152.307L77.9754 148.808H85.2156C85.6758 148.808 86.0462 148.847 86.3381 148.907C86.6243 148.968 86.8544 149.112 87.0284 149.317C87.1744 149.483 87.2978 149.583 87.382 149.821C87.4606 150.065 87.4943 150.137 87.4943 150.474C87.4943 150.812 87.455 151.111 87.3708 151.349C87.2866 151.593 87.1631 151.659 87.0172 151.814C86.8432 152.03 86.6131 152.163 86.3269 152.224C86.035 152.285 85.6646 152.307 85.21 152.307H77.9641ZM77.9641 157.278V153.785H85.6309C86.1697 153.785 86.5963 153.79 86.8825 153.868C87.1744 153.951 87.3989 154.084 87.5785 154.272C87.7412 154.433 87.8591 154.637 87.9321 154.887C87.9994 155.13 88.0443 155.401 88.0443 155.695C88.0443 156.005 87.9938 156.082 87.9208 156.326C87.8479 156.586 87.629 156.769 87.4662 156.929C87.2305 157.096 87.1631 157.123 86.832 157.184C86.5345 157.239 86.1697 157.278 85.6309 157.278H77.9641ZM75.2196 159H85.7039C86.5345 159 87.2249 158.928 87.7861 158.773C88.3418 158.629 88.8188 158.397 89.2117 158.075C89.5316 157.81 89.7842 157.472 89.9582 157.079C90.1209 156.691 90.2164 156.26 90.2164 155.778C90.2164 155.407 90.1041 155.025 90.0424 154.754C89.9133 154.327 89.8403 154.062 89.6327 153.818C89.425 153.58 88.6617 153.015 88.3418 152.932C88.8581 152.727 89.6832 151.864 89.627 150.341C89.5934 149.439 89.3689 148.73 88.8525 148.215C88.4877 147.861 88.0219 147.512 87.455 147.346C86.8825 147.186 86.2034 147.103 85.4064 147.103H75.2196V159ZM116.102 159C117.881 159 119.222 158.956 120.092 158.441C120.951 157.937 121.36 156.857 121.36 155.606C121.36 155.053 121.265 154.565 121.102 154.178C120.923 153.79 120.665 153.453 120.322 153.181C119.974 152.916 119.536 152.711 119.02 152.556C118.504 152.412 117.903 152.29 117.23 152.207L112.083 151.797C111.701 151.753 111.196 151.692 110.887 151.631C110.579 151.581 110.231 151.565 109.995 151.471C109.456 151.26 109.293 150.801 109.293 150.496C109.293 150.208 109.282 149.854 109.383 149.655C109.49 149.461 109.641 149.361 109.877 149.24C110.107 149.118 110.472 149.074 110.865 149.029C111.247 148.991 111.701 149.007 112.285 149.007H120.653L120.676 147.18H112.139C111.393 147.18 110.719 147.241 110.113 147.357C109.501 147.468 108.985 147.656 108.547 147.922C108.115 148.188 107.772 148.525 107.537 148.957C107.284 149.389 107.172 149.921 107.172 150.535C107.172 151.111 107.267 151.593 107.464 151.986C107.649 152.384 107.93 152.711 108.3 152.977C108.659 153.242 109.097 153.458 109.613 153.613C110.13 153.768 110.713 153.879 111.353 153.94L116.831 154.372C117.235 154.416 117.594 154.477 117.909 154.538C118.217 154.599 118.56 154.682 118.779 154.792C118.981 154.909 119.127 155.44 119.127 155.745C119.127 156.398 118.65 156.758 118.369 156.863C118.083 156.974 117.729 157.024 117.314 157.024H106.975V159H116.102Z" fill="white"></path></svg> 