<svg xmlns="http://www.w3.org/2000/svg" version="1.1" xmlns:xlink="http://www.w3.org/1999/xlink" width="512" height="512"><svg width="512" height="512" viewBox="0 0 512 512" fill="none" xmlns="http://www.w3.org/2000/svg">
<rect width="512" height="512" rx="100" fill="#6C44FC"></rect>
<path d="M312.853 269.892C330.521 268.142 348.291 254.24 355.687 238.382C372.636 201.929 347.161 161.666 307.819 159.297C268.477 156.929 222.972 161.151 181.473 159.297C174.59 158.371 167.708 157.032 161.237 154.458C136.892 145.19 123.949 122.535 107 104.309L310.901 104C379.416 107.707 428.208 171.037 413.725 238.794C407.15 269.686 387.428 295.327 360.412 311.082C360.002 311.288 359.591 310.979 359.796 311.906L443 408.702C426.873 407.775 409.102 410.247 393.18 408.084C377.259 405.922 361.645 397.684 350.448 386.048L250.398 269.892H312.853Z" fill="white"></path>
<path d="M299.451 242.8H190.289L333 408.45C318.637 408.347 303.452 409.479 289.192 408.759C272.879 407.832 257.079 401.243 244.87 390.433C187.622 323.926 128.732 258.655 72.304 191.53C71.8936 191.015 68.7132 187.309 69.0209 187H221.581C240.972 188.03 258.31 196.163 271.648 210.061C279.958 218.812 291.449 231.681 298.733 241.256C299.143 241.77 299.656 241.873 299.451 242.8Z" fill="white"></path>
</svg><style>@media (prefers-color-scheme: light) { :root { filter: none; } }
@media (prefers-color-scheme: dark) { :root { filter: none; } }
</style></svg>