<svg width="200" height="200" viewBox="0 0 200 200" fill="none" xmlns="http://www.w3.org/2000/svg">
<g clip-path="url(#clip0_320_414)">
<path d="M65.6152 111.887L91.6152 69.4054L65.6152 26.8867L39.6152 69.4054L65.6152 111.887ZM49.1981 74.5897L65.6152 80.3707L82.0695 74.5897L65.6152 101.444L49.1981 74.5897ZM84.2609 68.0254L65.6895 74.5897L47.1181 68.0254L65.6895 37.4045L84.2609 68.0254Z" fill="white"/>
<path d="M70.671 120.507C72.6974 113.503 72.6237 115.105 66.1024 115.254C60.1779 115.278 54.3081 114.108 48.8361 111.811C43.3641 109.515 38.3996 106.139 34.2329 101.88C29.8815 97.684 26.404 92.6503 24.005 87.0751C21.6059 81.5 20.3338 75.496 20.2635 69.4164C20.1932 63.3369 21.326 57.3044 23.5954 51.6741C25.8648 46.0437 29.2249 40.9291 33.478 36.6311C37.7312 32.3332 42.7915 28.9387 48.3612 26.6473C53.9309 24.3559 59.8976 23.2139 65.9103 23.2885C71.9229 23.3632 77.8601 24.6529 83.3725 27.0818C88.885 29.5108 93.8613 33.0299 98.0088 37.4321C102.217 41.6477 105.554 46.6678 107.825 52.2002C110.096 57.7325 111.255 63.6663 111.236 69.6562C111.236 73.0089 110.609 73.3815 113.925 71.9659C117.608 70.6776 121.41 69.7665 125.273 69.2464C127.041 68.9483 128.957 68.7248 130.615 68.5758C130.328 51.751 123.545 35.7069 111.715 23.8719C87.8032 -1.42305 44.4385 -1.4603 20.564 23.8719C-20.0375 64.2172 8.99515 134.998 66.1024 134.887H68.9025C68.5709 133.396 69.7868 129.895 68.9025 129.448V120.619L70.671 120.507ZM15.7007 66.9367H7.0793C7.64249 52.9682 13.1014 39.6577 22.4798 29.3854L28.5958 35.7184C20.8687 44.3116 16.3136 55.3392 15.7007 66.9367ZM125.199 66.9367H116.541C115.958 55.3322 111.399 44.2947 103.646 35.7184C103.646 35.7184 109.799 29.4971 109.762 29.4599C119.108 39.7269 124.574 52.9971 125.199 66.9367ZM105.967 25.5111L99.851 31.7323C91.2992 23.8876 80.3241 19.2802 68.792 18.6937V9.97645C82.617 10.5172 95.7981 16.0253 105.967 25.5111ZM63.4129 9.97645V18.6937C51.8955 19.2662 40.9314 23.8613 32.3907 31.6951L26.2747 25.5111C36.4376 16.0391 49.6021 10.5325 63.4129 9.97645ZM7.0793 72.3756H15.7007C16.274 84.0265 20.8322 95.1141 28.5958 103.743L22.4798 109.927C13.0931 99.66 7.6329 86.3463 7.0793 72.3756ZM26.2747 113.95L32.4276 107.729C40.9417 115.587 51.8989 120.198 63.4129 120.768V129.522C49.6029 128.93 36.4463 123.414 26.2747 113.95Z" fill="white"/>
<path d="M136.078 69.8867C118.715 69.9261 102.076 76.8072 89.8061 89.0225C77.5359 101.238 70.635 117.791 70.6152 135.057C74.3581 221.515 198.097 221.478 201.615 135.057C201.605 117.775 194.697 101.205 182.409 88.9854C170.12 76.7658 153.456 69.8966 136.078 69.8867ZM195.964 132.34H187.205C186.594 120.724 181.982 109.672 174.143 101.039L180.393 94.8604C189.866 105.14 195.392 118.41 196.001 132.34H195.964ZM101.868 172.908C110.555 180.695 121.667 185.281 133.346 185.897V194.83C119.33 194.226 105.98 188.716 95.655 179.272L101.868 172.908ZM138.81 185.897C150.491 185.289 161.606 180.703 170.288 172.908L176.501 179.086C166.203 188.598 152.85 194.175 138.81 194.83V185.897ZM136.078 180.575C123.941 180.565 112.303 175.766 103.721 167.232C95.1385 158.698 90.3126 147.126 90.3027 135.057C92.8104 74.6507 179.383 74.6507 181.89 135.057C181.88 147.132 177.049 158.71 168.459 167.245C159.869 175.78 148.222 180.575 136.078 180.575ZM170.288 97.2052C161.606 89.4102 150.491 84.8236 138.81 84.2159V75.4695C152.818 76.0752 166.163 81.5704 176.501 90.9897L170.288 97.2052ZM133.346 84.2159C121.667 84.8326 110.555 89.4179 101.868 97.2052L95.655 90.9897C105.993 81.5704 119.338 76.0752 133.346 75.4695V84.2159ZM91.7998 94.8604L98.0129 101.039C90.1739 109.672 85.5615 120.724 84.9504 132.34H76.1547C76.7772 118.406 82.3165 105.136 91.7998 94.8604ZM76.1547 137.773H84.9504C85.5705 149.387 90.1818 160.437 98.0129 169.074L91.7998 175.253C82.3165 164.977 76.7772 151.707 76.1547 137.773ZM180.393 175.253L174.143 169.074C181.974 160.437 186.585 149.387 187.205 137.773H196.001C195.392 151.703 189.866 164.973 180.393 175.253Z" fill="white"/>
<path d="M150.635 134.039C152.412 132.268 153.696 130.046 154.355 127.6C155.014 125.154 155.024 122.573 154.384 120.122C153.744 117.67 152.478 115.438 150.714 113.652C148.951 111.867 146.754 110.594 144.35 109.964V98.8867H139.076V109.669H132.971V98.9975H127.697V109.669H123.615V161.363H127.589V171.887H132.863V161.068H138.967V171.591H144.241V160.994C160.569 160.588 165.735 140.464 150.635 134.039ZM128.961 114.912H141.027C143.224 115.057 145.286 116.052 146.792 117.695C148.298 119.337 149.137 121.504 149.137 123.755C149.137 126.007 148.298 128.174 146.792 129.816C145.286 131.459 143.224 132.454 141.027 132.599H128.998L128.961 114.912ZM143.7 155.529H128.998V137.99H141.063C147.529 137.325 154.392 140.575 154.428 146.815C154.128 149.425 152.842 151.813 150.845 153.468C148.847 155.124 146.296 155.916 143.736 155.677L143.7 155.529Z" fill="white"/>
</g>
<defs>
<clipPath id="clip0_320_414">
<rect width="200" height="200" fill="white"/>
</clipPath>
</defs>
</svg>
