<svg width="200" height="200" viewBox="0 0 200 200" fill="none" xmlns="http://www.w3.org/2000/svg">
<path d="M47.3749 64.2188C47.5694 64.5378 47.8372 64.8056 48.1562 65.0001L48.7187 65.2501H48.9687C49.2876 65.4349 49.6367 65.5619 49.9999 65.6251C50.2593 65.6577 50.5218 65.6577 50.7812 65.6251H51.0312L51.5937 65.3751C51.9126 65.1806 52.1805 64.9128 52.3749 64.5938L58.6249 55.2188C59.0772 54.5299 59.239 53.6901 59.0751 52.8824C58.9113 52.0748 58.435 51.3645 57.7499 50.9063C57.1117 50.5017 56.3484 50.342 55.6015 50.4569C54.8545 50.5718 54.1745 50.9535 53.6874 51.5313C55.5793 41.0152 61.007 31.4611 69.0715 24.4517C77.1359 17.4424 87.353 13.3985 98.0301 12.9901C108.707 12.5817 119.203 15.8332 127.78 22.2061C136.356 28.5789 142.498 37.6905 145.187 48.0313C145.262 48.456 145.424 48.8607 145.663 49.2198C145.902 49.5789 146.212 49.8847 146.575 50.118C146.937 50.3513 147.344 50.507 147.77 50.5753C148.196 50.6436 148.631 50.623 149.049 50.5148C149.466 50.4067 149.857 50.2133 150.196 49.9468C150.535 49.6804 150.815 49.3467 151.019 48.9666C151.223 48.5866 151.346 48.1685 151.38 47.7386C151.415 47.3087 151.36 46.8764 151.219 46.4688C148.11 34.5153 140.933 24.0186 130.922 16.7839C120.912 9.5492 108.693 6.02864 96.3676 6.82764C84.0423 7.62664 72.3805 12.6953 63.3877 21.1619C54.395 29.6285 48.6334 40.9639 47.0937 53.2188L46.1249 51.7813C45.9194 51.3981 45.6362 51.0621 45.2933 50.7946C44.9505 50.5272 44.5556 50.3342 44.134 50.228C43.7123 50.1219 43.2732 50.1049 42.8446 50.1782C42.416 50.2514 42.0074 50.4133 41.6449 50.6535C41.2824 50.8937 40.9741 51.2069 40.7396 51.573C40.5051 51.9392 40.3495 52.3502 40.283 52.7799C40.2164 53.2096 40.2402 53.6485 40.3529 54.0684C40.4656 54.4884 40.6647 54.8802 40.9374 55.2188L47.3749 64.2188Z" fill="white"/>
<path d="M151.718 53.6562C151.387 53.4118 151.001 53.251 150.593 53.1875H149.406C149 53.268 148.615 53.4282 148.271 53.6589C147.928 53.8895 147.634 54.1861 147.406 54.5313L141.156 63.9063C140.704 64.5952 140.542 65.4349 140.706 66.2426C140.87 67.0503 141.346 67.7606 142.031 68.2187C142.534 68.5712 143.135 68.757 143.75 68.75C144.196 68.7455 144.636 68.6456 145.04 68.457C145.444 68.2683 145.803 67.9953 146.093 67.6562C144.193 78.1699 138.759 87.7189 130.69 94.7217C122.621 101.724 112.402 105.761 101.725 106.162C91.0491 106.563 80.556 103.305 71.9844 96.9272C63.4128 90.5496 57.277 81.4352 54.5934 71.0937C54.5018 70.6869 54.3297 70.3024 54.0872 69.9631C53.8446 69.6238 53.5367 69.3365 53.1813 69.118C52.826 68.8996 52.4306 68.7545 52.0184 68.6913C51.6061 68.6281 51.1854 68.6481 50.7809 68.75C49.982 68.9627 49.2999 69.4834 48.8841 70.198C48.4682 70.9125 48.3525 71.7628 48.5622 72.5625C51.6712 84.516 58.8481 95.0127 68.8587 102.247C78.8693 109.482 91.0879 113.003 103.413 112.204C115.739 111.405 127.4 106.336 136.393 97.8694C145.386 89.4028 151.147 78.0674 152.687 65.8125L153.656 67.25C153.928 67.6973 154.308 68.069 154.761 68.3311C155.215 68.5932 155.726 68.7373 156.25 68.75C156.864 68.757 157.465 68.5712 157.968 68.2187C158.653 67.7606 159.13 67.0503 159.294 66.2426C159.458 65.4349 159.296 64.5952 158.843 63.9063L152.593 54.5313C152.462 54.3431 152.304 54.1747 152.125 54.0313C152.013 53.8831 151.875 53.7561 151.718 53.6562Z" fill="white"/>
<path d="M40.625 193.75C47.4237 193.75 54.0698 191.734 59.7227 187.957C65.3757 184.18 69.7816 178.811 72.3834 172.53C74.9851 166.249 75.6659 159.337 74.3395 152.669C73.0131 146.001 69.7392 139.876 64.9318 135.068C60.1244 130.261 53.9993 126.987 47.3312 125.661C40.6631 124.334 33.7515 125.015 27.4703 127.617C21.189 130.218 15.8204 134.624 12.0432 140.277C8.26606 145.93 6.25 152.576 6.25 159.375C6.25 168.492 9.87164 177.235 16.3182 183.682C22.7648 190.128 31.5082 193.75 40.625 193.75ZM68.75 159.375C68.7467 166.291 66.1954 172.963 61.5837 178.117C56.9719 183.27 50.623 186.544 43.75 187.313V180.813C46.6608 180.022 49.1878 178.206 50.8648 175.699C52.5419 173.192 53.2559 170.164 52.8752 167.172C52.4946 164.179 51.0449 161.426 48.7935 159.419C46.5421 157.412 43.641 156.286 40.625 156.25C39.3889 156.25 38.1805 155.883 37.1527 155.197C36.1249 154.51 35.3238 153.534 34.8507 152.392C34.3777 151.25 34.2539 149.993 34.4951 148.781C34.7362 147.568 35.3315 146.455 36.2056 145.581C37.0797 144.707 38.1933 144.111 39.4057 143.87C40.6181 143.629 41.8747 143.753 43.0168 144.226C44.1588 144.699 45.1349 145.5 45.8217 146.528C46.5084 147.556 46.875 148.764 46.875 150C46.875 150.829 47.2042 151.624 47.7903 152.21C48.3763 152.796 49.1712 153.125 50 153.125C50.8288 153.125 51.6237 152.796 52.2097 152.21C52.7958 151.624 53.125 150.829 53.125 150C53.116 147.236 52.191 144.552 50.4947 142.37C48.7984 140.187 46.4265 138.629 43.75 137.938V131.438C50.623 132.206 56.9719 135.48 61.5837 140.633C66.1954 145.787 68.7467 152.459 68.75 159.375ZM37.5 131.438V137.938C34.5892 138.728 32.0622 140.544 30.3852 143.051C28.7081 145.558 27.9941 148.586 28.3748 151.579C28.7554 154.571 30.2051 157.324 32.4565 159.331C34.7079 161.338 37.609 162.464 40.625 162.5C41.8611 162.5 43.0695 162.867 44.0973 163.553C45.1251 164.24 45.9262 165.216 46.3992 166.358C46.8723 167.5 46.9961 168.757 46.7549 169.969C46.5137 171.182 45.9185 172.295 45.0444 173.169C44.1703 174.044 43.0567 174.639 41.8443 174.88C40.6319 175.121 39.3753 174.997 38.2332 174.524C37.0912 174.051 36.1151 173.25 35.4283 172.222C34.7416 171.195 34.375 169.986 34.375 168.75C34.375 167.921 34.0458 167.126 33.4597 166.54C32.8737 165.954 32.0788 165.625 31.25 165.625C30.4212 165.625 29.6263 165.954 29.0403 166.54C28.4542 167.126 28.125 167.921 28.125 168.75C28.134 171.514 29.059 174.198 30.7553 176.38C32.4516 178.563 34.8235 180.121 37.5 180.813V187.313C30.6482 186.517 24.3275 183.232 19.7398 178.081C15.152 172.93 12.6172 166.273 12.6172 159.375C12.6172 152.477 15.152 145.82 19.7398 140.669C24.3275 135.518 30.6482 132.233 37.5 131.438Z" fill="white"/>
<path d="M84.375 134.375C84.375 135.204 84.7042 135.999 85.2903 136.585C85.8763 137.171 86.6712 137.5 87.5 137.5H102.188L101.406 138.031C100.852 138.404 100.432 138.944 100.207 139.572C99.9819 140.201 99.9642 140.885 100.156 141.524C100.349 142.164 100.74 142.725 101.275 143.125C101.809 143.526 102.457 143.745 103.125 143.75C103.739 143.757 104.34 143.571 104.844 143.219L114.219 136.969C114.357 136.882 114.483 136.777 114.594 136.656C114.837 136.416 115.028 136.129 115.156 135.812V135.594C115.301 135.247 115.375 134.875 115.375 134.5C115.375 134.124 115.301 133.753 115.156 133.406V133.187C115.028 132.871 114.837 132.584 114.594 132.344C114.483 132.223 114.357 132.118 114.219 132.031L104.844 125.781C104.505 125.508 104.113 125.309 103.693 125.197C103.273 125.084 102.835 125.06 102.405 125.127C101.975 125.193 101.564 125.349 101.198 125.583C100.832 125.818 100.519 126.126 100.278 126.489C100.038 126.851 99.8764 127.26 99.8031 127.688C99.7298 128.117 99.7468 128.556 99.853 128.978C99.9591 129.399 100.152 129.794 100.42 130.137C100.687 130.48 101.023 130.763 101.406 130.969L102.188 131.5H87.5C86.7127 131.497 85.9535 131.792 85.3742 132.325C84.7948 132.858 84.438 133.59 84.375 134.375Z" fill="white"/>
<path d="M84.375 184.375C84.3817 184.75 84.4558 185.12 84.5937 185.469V185.687C84.7216 186.004 84.9131 186.291 85.1562 186.531C85.2666 186.652 85.3927 186.757 85.5313 186.844L94.9063 193.094C95.4608 193.545 96.1608 193.778 96.875 193.75C97.5426 193.745 98.1911 193.526 98.7253 193.125C99.2595 192.725 99.6515 192.164 99.8436 191.524C100.036 190.885 100.018 190.201 99.7932 189.572C99.5683 188.944 99.1479 188.404 98.5937 188.031L97.8125 187.5H112.5C113.329 187.5 114.124 187.171 114.71 186.585C115.296 185.999 115.625 185.204 115.625 184.375C115.625 183.546 115.296 182.751 114.71 182.165C114.124 181.579 113.329 181.25 112.5 181.25H97.8125L98.5937 180.719C98.9769 180.513 99.313 180.23 99.5804 179.887C99.8479 179.544 100.041 179.149 100.147 178.728C100.253 178.306 100.27 177.867 100.197 177.438C100.124 177.01 99.9617 176.601 99.7216 176.239C99.4814 175.876 99.1682 175.568 98.802 175.333C98.4359 175.099 98.0248 174.943 97.5951 174.877C97.1655 174.81 96.7266 174.834 96.3066 174.947C95.8867 175.059 95.4949 175.258 95.1563 175.531L85.7813 181.781C85.6427 181.868 85.5166 181.973 85.4062 182.094C85.1631 182.334 84.9716 182.621 84.8437 182.937V183.156C84.6034 183.525 84.4437 183.94 84.375 184.375Z" fill="white"/>
<path d="M115.625 96.875C118.111 96.875 120.496 95.8873 122.254 94.1291C124.012 92.371 125 89.9864 125 87.5V31.25C125 28.7636 124.012 26.379 122.254 24.6209C120.496 22.8627 118.111 21.875 115.625 21.875H84.375C81.8886 21.875 79.504 22.8627 77.7459 24.6209C75.9877 26.379 75 28.7636 75 31.25V87.5C75 89.9864 75.9877 92.371 77.7459 94.1291C79.504 95.8873 81.8886 96.875 84.375 96.875H115.625ZM81.25 40.625H118.75V78.125H81.25V40.625ZM84.375 28.125H115.625C116.454 28.125 117.249 28.4542 117.835 29.0403C118.421 29.6263 118.75 30.4212 118.75 31.25V34.375H81.25V31.25C81.25 30.4212 81.5792 29.6263 82.1653 29.0403C82.7513 28.4542 83.5462 28.125 84.375 28.125ZM81.25 87.5V84.375H118.75V87.5C118.75 88.3288 118.421 89.1237 117.835 89.7097C117.249 90.2958 116.454 90.625 115.625 90.625H84.375C83.5462 90.625 82.7513 90.2958 82.1653 89.7097C81.5792 89.1237 81.25 88.3288 81.25 87.5Z" fill="white"/>
<path d="M185 125H134.375C131.889 125 129.504 125.988 127.746 127.746C125.988 129.504 125 131.889 125 134.375V146.875C125 147.704 125.329 148.499 125.915 149.085C126.501 149.671 127.296 150 128.125 150H137.5V190.625C137.502 191.19 137.656 191.745 137.948 192.229C138.24 192.713 138.657 193.109 139.156 193.375C139.645 193.626 140.191 193.744 140.74 193.716C141.288 193.689 141.82 193.517 142.281 193.219L149.531 188.406L153.969 192.844C154.481 193.351 155.153 193.665 155.871 193.733C156.588 193.802 157.307 193.62 157.906 193.219L165.625 188.125L173.281 193.219C173.79 193.56 174.387 193.745 175 193.75C175.411 193.752 175.819 193.674 176.2 193.518C176.58 193.363 176.927 193.133 177.219 192.844L181.656 188.406L188.906 193.219C189.367 193.517 189.899 193.689 190.448 193.716C190.996 193.744 191.543 193.626 192.031 193.375C192.542 193.118 192.972 192.725 193.275 192.24C193.578 191.756 193.743 191.197 193.75 190.625V133.75C193.742 131.432 192.817 129.211 191.178 127.572C189.539 125.933 187.318 125.008 185 125ZM131.25 143.75V134.375C131.25 133.546 131.579 132.751 132.165 132.165C132.751 131.579 133.546 131.25 134.375 131.25C135.204 131.25 135.999 131.579 136.585 132.165C137.171 132.751 137.5 133.546 137.5 134.375V143.75H131.25ZM187.5 184.781L182.969 181.656C182.37 181.255 181.651 181.073 180.933 181.142C180.216 181.21 179.544 181.524 179.031 182.031L174.594 186.469L167.344 181.656C166.834 181.32 166.236 181.141 165.625 181.141C165.014 181.141 164.416 181.32 163.906 181.656L156.656 186.469L152.219 182.031C151.706 181.524 151.034 181.21 150.317 181.142C149.599 181.073 148.88 181.255 148.281 181.656L143.75 184.781V134.375C143.742 133.309 143.551 132.252 143.188 131.25H185C185.663 131.25 186.299 131.513 186.768 131.982C187.237 132.451 187.5 133.087 187.5 133.75V184.781Z" fill="white"/>
<path d="M178.125 137.5H153.125C152.296 137.5 151.501 137.829 150.915 138.415C150.329 139.001 150 139.796 150 140.625C150 141.454 150.329 142.249 150.915 142.835C151.501 143.421 152.296 143.75 153.125 143.75H178.125C178.954 143.75 179.749 143.421 180.335 142.835C180.921 142.249 181.25 141.454 181.25 140.625C181.25 139.796 180.921 139.001 180.335 138.415C179.749 137.829 178.954 137.5 178.125 137.5Z" fill="white"/>
<path d="M178.125 150H153.125C152.296 150 151.501 150.329 150.915 150.915C150.329 151.501 150 152.296 150 153.125C150 153.954 150.329 154.749 150.915 155.335C151.501 155.921 152.296 156.25 153.125 156.25H178.125C178.954 156.25 179.749 155.921 180.335 155.335C180.921 154.749 181.25 153.954 181.25 153.125C181.25 152.296 180.921 151.501 180.335 150.915C179.749 150.329 178.954 150 178.125 150Z" fill="white"/>
<path d="M178.125 162.5H153.125C152.296 162.5 151.501 162.829 150.915 163.415C150.329 164.001 150 164.796 150 165.625C150 166.454 150.329 167.249 150.915 167.835C151.501 168.421 152.296 168.75 153.125 168.75H178.125C178.954 168.75 179.749 168.421 180.335 167.835C180.921 167.249 181.25 166.454 181.25 165.625C181.25 164.796 180.921 164.001 180.335 163.415C179.749 162.829 178.954 162.5 178.125 162.5Z" fill="white"/>
</svg>
