<svg width="200" height="200" viewBox="0 0 200 200" fill="none" xmlns="http://www.w3.org/2000/svg">
<g clip-path="url(#clip0_287_1797)">
<path d="M162.5 88.2812C160.8 88.2812 159.139 88.7853 157.726 89.7296C156.312 90.6739 155.211 92.016 154.56 93.5863C153.91 95.1566 153.74 96.8845 154.071 98.5516C154.403 100.219 155.221 101.75 156.423 102.952C157.625 104.154 159.156 104.972 160.823 105.304C162.49 105.635 164.218 105.465 165.789 104.815C167.359 104.164 168.701 103.063 169.645 101.649C170.59 100.236 171.094 98.5747 171.094 96.875C171.092 94.5963 170.186 92.4114 168.575 90.8001C166.964 89.1888 164.779 88.2829 162.5 88.2812ZM162.5 100.781C161.727 100.781 160.972 100.552 160.33 100.123C159.687 99.6937 159.187 99.0836 158.891 98.3699C158.595 97.6561 158.518 96.8707 158.669 96.1129C158.82 95.3552 159.192 94.6592 159.738 94.1129C160.284 93.5666 160.98 93.1945 161.738 93.0438C162.496 92.8931 163.281 92.9704 163.995 93.2661C164.709 93.5617 165.319 94.0624 165.748 94.7048C166.177 95.3472 166.406 96.1024 166.406 96.875C166.405 97.9105 165.993 98.9031 165.26 99.6353C164.528 100.368 163.535 100.78 162.5 100.781Z" fill="white"/>
<path d="M96.875 83.5938C104.137 83.5938 111.236 81.4402 117.275 77.4055C123.313 73.3708 128.02 67.6361 130.799 60.9267C133.578 54.2172 134.305 46.8343 132.888 39.7115C131.471 32.5888 127.974 26.0461 122.839 20.9109C117.704 15.7757 111.161 12.2786 104.038 10.8618C96.9157 9.44501 89.5328 10.1722 82.8233 12.9513C76.1139 15.7305 70.3792 20.4368 66.3445 26.4752C62.3098 32.5135 60.1562 39.6127 60.1562 46.875C60.167 56.6101 64.039 65.9434 70.9228 72.8272C77.8066 79.711 87.1399 83.583 96.875 83.5938ZM96.875 14.8438C103.21 14.8438 109.403 16.7224 114.671 20.242C119.938 23.7616 124.044 28.7642 126.468 34.6172C128.892 40.4701 129.527 46.9105 128.291 53.124C127.055 59.3375 124.004 65.0449 119.525 69.5245C115.045 74.0042 109.337 77.0549 103.124 78.2908C96.9105 79.5267 90.4701 78.8924 84.6172 76.468C78.7642 74.0437 73.7616 69.9381 70.242 64.6706C66.7223 59.4031 64.8437 53.2102 64.8437 46.875C64.8528 38.3826 68.2305 30.2406 74.2355 24.2355C80.2406 18.2305 88.3826 14.8529 96.875 14.8438Z" fill="white"/>
<path d="M89.8438 56.25C89.8438 55.6284 89.5968 55.0323 89.1573 54.5927C88.7177 54.1532 88.1216 53.9062 87.5 53.9062C86.8784 53.9062 86.2823 54.1532 85.8427 54.5927C85.4032 55.0323 85.1562 55.6284 85.1562 56.25C85.1598 58.9504 86.0942 61.5671 87.8019 63.659C89.5096 65.751 91.8862 67.1903 94.5312 67.7344V70.3125C94.5312 70.9341 94.7782 71.5302 95.2177 71.9698C95.6573 72.4093 96.2534 72.6562 96.875 72.6562C97.4966 72.6562 98.0927 72.4093 98.5323 71.9698C98.9718 71.5302 99.2188 70.9341 99.2188 70.3125V67.7344C101.865 67.1934 104.244 65.7549 105.952 63.6623C107.66 61.5696 108.593 58.9513 108.593 56.25C108.593 53.5487 107.66 50.9304 105.952 48.8377C104.244 46.7451 101.865 45.3066 99.2188 44.7656V30.8719C100.588 31.3585 101.774 32.2566 102.613 33.4431C103.452 34.6297 103.904 36.0467 103.906 37.5C103.906 38.1216 104.153 38.7177 104.593 39.1573C105.032 39.5968 105.628 39.8438 106.25 39.8438C106.872 39.8438 107.468 39.5968 107.907 39.1573C108.347 38.7177 108.594 38.1216 108.594 37.5C108.59 34.7996 107.656 32.1829 105.948 30.091C104.24 27.999 101.864 26.5597 99.2188 26.0156V23.4375C99.2188 22.8159 98.9718 22.2198 98.5323 21.7802C98.0927 21.3407 97.4966 21.0938 96.875 21.0938C96.2534 21.0938 95.6573 21.3407 95.2177 21.7802C94.7782 22.2198 94.5312 22.8159 94.5312 23.4375V26.0156C91.8847 26.5566 89.5062 27.9951 87.7981 30.0877C86.09 32.1804 85.157 34.7987 85.157 37.5C85.157 40.2013 86.09 42.8196 87.7981 44.9123C89.5062 47.0049 91.8847 48.4434 94.5312 48.9844V62.8781C93.1618 62.3915 91.9763 61.4935 91.1372 60.3069C90.298 59.1203 89.8462 57.7033 89.8438 56.25ZM99.2188 49.6219C100.589 50.107 101.775 51.0048 102.614 52.1917C103.453 53.3787 103.903 54.7965 103.903 56.25C103.903 57.7035 103.453 59.1213 102.614 60.3083C101.775 61.4952 100.589 62.393 99.2188 62.8781V49.6219ZM89.8438 37.5C89.8462 36.0467 90.298 34.6297 91.1372 33.4431C91.9763 32.2566 93.1618 31.3585 94.5312 30.8719V44.1281C93.1618 43.6415 91.9763 42.7434 91.1372 41.5569C90.298 40.3703 89.8462 38.9533 89.8438 37.5Z" fill="white"/>
<path d="M196.875 97.6563H185.938L181.622 87.5845C179.627 82.9523 177.01 78.6135 173.844 74.6876C178.468 67.2667 180.767 58.6318 180.444 49.8938C180.412 49.3173 180.169 48.7726 179.761 48.3643C179.353 47.956 178.808 47.7128 178.231 47.6813C177.503 47.6438 160.309 46.8188 149.928 57.2032L149.769 57.3657C147.307 56.4549 144.784 55.7177 142.219 55.1595C143.461 48.3819 143.167 41.412 141.36 34.7627C139.553 28.1134 136.279 21.9539 131.777 16.7372C127.275 11.5205 121.661 7.37951 115.348 4.61877C109.035 1.85802 102.183 0.547816 95.2965 0.784536C88.4101 1.02126 81.6644 2.79888 75.5556 5.98663C69.4469 9.17438 64.1305 13.6911 59.9977 19.2046C55.8649 24.7181 53.0208 31.088 51.6746 37.8457C50.3284 44.6034 50.5143 51.5769 52.2188 58.2532C41.1527 62.6696 31.5971 70.1871 24.6999 79.9027C17.8027 89.6182 13.8572 101.118 13.3376 113.022C11.1019 112.502 9.10788 111.241 7.67937 109.444C6.25086 107.647 5.47182 105.42 5.46882 103.125C5.46597 101.347 5.93516 99.6002 6.82844 98.0629C7.72172 96.5256 9.00707 95.253 10.5532 94.3751C10.8199 94.2204 11.0536 94.0146 11.2408 93.7696C11.4281 93.5246 11.5652 93.2451 11.6444 92.9471C11.7237 92.6491 11.7434 92.3384 11.7025 92.0327C11.6617 91.7271 11.561 91.4325 11.4063 91.1657C11.2516 90.899 11.0459 90.6653 10.8008 90.4781C10.5558 90.2908 10.2763 90.1537 9.97832 90.0745C9.37644 89.9145 8.73566 90.0001 8.19694 90.3126C5.53927 91.8423 3.42223 94.1596 2.13832 96.9443C0.854416 99.7291 0.467004 102.844 1.02961 105.858C1.59222 108.873 3.07708 111.638 5.27905 113.772C7.48102 115.906 10.2914 117.304 13.3219 117.772C13.6648 127.038 16.0858 136.109 20.406 144.313C24.7263 152.518 30.8352 159.646 38.2813 165.172V196.875C38.2813 197.497 38.5282 198.093 38.9678 198.532C39.4073 198.972 40.0035 199.219 40.6251 199.219H59.3751C59.8843 199.219 60.3797 199.053 60.7862 198.746C61.1928 198.439 61.4883 198.009 61.6282 197.519L67.3938 177.344H132.606L138.372 197.519C138.512 198.009 138.807 198.439 139.214 198.746C139.62 199.053 140.116 199.219 140.625 199.219H159.375C159.997 199.219 160.593 198.972 161.032 198.532C161.472 198.093 161.719 197.497 161.719 196.875V166.744C170.037 159.943 177.282 151.928 183.213 142.969H196.875C197.497 142.969 198.093 142.722 198.532 142.282C198.972 141.843 199.219 141.247 199.219 140.625V100C199.219 99.3785 198.972 98.7823 198.532 98.3428C198.093 97.9033 197.497 97.6563 196.875 97.6563ZM96.8751 5.46884C105.064 5.46884 113.07 7.89727 119.879 12.4471C126.688 16.9968 131.996 23.4636 135.129 31.0296C138.263 38.5956 139.083 46.921 137.486 54.9531C135.888 62.9851 131.944 70.363 126.154 76.1537C120.363 81.9445 112.985 85.8881 104.953 87.4857C96.921 89.0834 88.5956 88.2634 81.0296 85.1295C73.4636 81.9955 66.9968 76.6884 62.447 69.8792C57.8973 63.07 55.4688 55.0645 55.4688 46.8751C55.4812 35.8973 59.8476 25.3726 67.6101 17.6102C75.3726 9.84766 85.8973 5.48125 96.8751 5.46884ZM128.403 80.4688H137.5C138.536 80.4688 139.53 80.8804 140.262 81.613C140.995 82.3455 141.406 83.3391 141.406 84.3751C141.406 85.4111 140.995 86.4047 140.262 87.1372C139.53 87.8698 138.536 88.2813 137.5 88.2813H117.116C121.246 86.2532 125.05 83.62 128.403 80.4688ZM76.6344 88.2813H56.2501C55.2141 88.2813 54.2205 87.8698 53.4879 87.1372C52.7554 86.4047 52.3438 85.4111 52.3438 84.3751C52.3438 83.3391 52.7554 82.3455 53.4879 81.613C54.2205 80.8804 55.2141 80.4688 56.2501 80.4688H65.3469C68.6999 83.62 72.5043 86.2532 76.6344 88.2813ZM194.531 138.281H181.947C181.555 138.281 181.17 138.379 180.826 138.566C180.482 138.754 180.19 139.024 179.978 139.353C173.989 148.638 166.537 156.892 157.909 163.794C157.636 164.014 157.415 164.293 157.263 164.61C157.111 164.927 157.032 165.274 157.031 165.625V194.531H142.394L133.956 164.981C133.877 164.68 133.738 164.398 133.548 164.151C133.357 163.904 133.12 163.697 132.849 163.543C132.578 163.389 132.279 163.29 131.969 163.253C131.66 163.216 131.346 163.241 131.046 163.327C130.747 163.412 130.467 163.557 130.224 163.752C129.981 163.947 129.779 164.188 129.63 164.462C129.482 164.736 129.389 165.037 129.358 165.348C129.327 165.658 129.358 165.971 129.45 166.269L131.275 172.656H68.7313L70.5563 166.269C70.7131 165.676 70.631 165.045 70.3277 164.511C70.0245 163.978 69.5242 163.585 68.9342 163.416C68.3443 163.248 67.7119 163.317 67.1726 163.61C66.6333 163.903 66.2303 164.395 66.0501 164.981L57.6126 194.531H42.9688V163.981C42.9688 163.607 42.8795 163.239 42.7083 162.906C42.5371 162.573 42.2889 162.286 41.9844 162.069C33.644 156.151 27.0493 148.098 22.892 138.755C18.7346 129.411 17.1677 119.121 18.3556 108.964C19.5435 98.8064 23.4423 89.1557 29.6434 81.0236C35.8444 72.8915 44.1192 66.5775 53.6001 62.7438C55.3369 67.4646 57.8356 71.8688 60.9969 75.7813H56.2501C53.9709 75.7813 51.785 76.6868 50.1734 78.2984C48.5617 79.91 47.6563 82.0959 47.6563 84.3751C47.6563 86.6543 48.5617 88.8402 50.1734 90.4518C51.785 92.0634 53.9709 92.9688 56.2501 92.9688H137.5C139.779 92.9688 141.965 92.0634 143.577 90.4518C145.188 88.8402 146.094 86.6543 146.094 84.3751C146.094 82.0959 145.188 79.91 143.577 78.2984C141.965 76.6868 139.779 75.7813 137.5 75.7813H132.753C136.587 71.0397 139.439 65.5828 141.144 59.7282C143.003 60.1291 144.838 60.633 146.641 61.2376C145.26 63.3305 144.122 65.5742 143.25 67.9251C143.081 68.4933 143.133 69.1046 143.396 69.6359C143.659 70.1672 144.114 70.579 144.669 70.7882C145.224 70.9975 145.837 70.9886 146.386 70.7635C146.934 70.5384 147.377 70.1137 147.625 69.5751C148.825 66.1892 150.736 63.0993 153.228 60.5126C160.103 53.6376 171.075 52.5126 175.728 52.3626C175.688 59.8577 173.342 67.1589 169.009 73.2751C168.662 73.7017 168.475 74.237 168.483 74.7872C168.49 75.3374 168.691 75.8674 169.05 76.2845C172.445 80.2202 175.217 84.6529 177.269 89.4282L182.222 100.938C182.405 101.356 182.706 101.713 183.088 101.962C183.471 102.212 183.918 102.345 184.375 102.344H194.531V138.281Z" fill="white"/>
<path d="M154.594 29.7812C154.811 29.9989 155.069 30.1717 155.354 30.2895C155.638 30.4073 155.942 30.468 156.25 30.468C156.558 30.468 156.862 30.4073 157.147 30.2895C157.431 30.1717 157.689 29.9989 157.906 29.7812L164.156 23.5312C164.57 23.087 164.796 22.4993 164.785 21.8921C164.774 21.2849 164.528 20.7056 164.099 20.2762C163.67 19.8468 163.09 19.6008 162.483 19.5901C161.876 19.5794 161.288 19.8047 160.844 20.2188L158.594 22.4656V3.125C158.594 2.5034 158.347 1.90726 157.907 1.46772C157.468 1.02818 156.872 0.78125 156.25 0.78125C155.629 0.78125 155.032 1.02818 154.593 1.46772C154.153 1.90726 153.906 2.5034 153.906 3.125V22.4656L151.656 20.2188C151.212 19.8047 150.624 19.5794 150.017 19.5901C149.41 19.6008 148.831 19.8468 148.401 20.2762C147.972 20.7056 147.726 21.2849 147.715 21.8921C147.704 22.4993 147.93 23.087 148.344 23.5312L154.594 29.7812Z" fill="white"/>
<path d="M35.8439 29.7812C36.0613 29.9989 36.3194 30.1717 36.6036 30.2895C36.8878 30.4073 37.1925 30.468 37.5001 30.468C37.8078 30.468 38.1124 30.4073 38.3966 30.2895C38.6808 30.1717 38.939 29.9989 39.1564 29.7812L45.4064 23.5312C45.8204 23.087 46.0458 22.4993 46.0351 21.8921C46.0243 21.2849 45.7784 20.7056 45.3489 20.2762C44.9195 19.8468 44.3402 19.6008 43.733 19.5901C43.1258 19.5794 42.5382 19.8047 42.0939 20.2188L39.8439 22.4656V3.125C39.8439 2.5034 39.597 1.90726 39.1574 1.46772C38.7179 1.02818 38.1217 0.78125 37.5001 0.78125C36.8785 0.78125 36.2824 1.02818 35.8429 1.46772C35.4033 1.90726 35.1564 2.5034 35.1564 3.125V22.4656L32.9064 20.2188C32.4621 19.8047 31.8744 19.5794 31.2673 19.5901C30.6601 19.6008 30.0807 19.8468 29.6513 20.2762C29.2219 20.7056 28.9759 21.2849 28.9652 21.8921C28.9545 22.4993 29.1799 23.087 29.5939 23.5312L35.8439 29.7812Z" fill="white"/>
</g>
<defs>
<clipPath id="clip0_287_1797">
<rect width="200" height="200" fill="white"/>
</clipPath>
</defs>
</svg>
