<svg width="200" height="200" viewBox="0 0 200 200" fill="none" xmlns="http://www.w3.org/2000/svg">
<path d="M100.001 35.9089C74.3339 35.9089 53.4248 56.7877 53.4248 82.4847C53.4248 108.151 74.3036 129.06 100.001 129.06C125.698 129.06 146.576 108.182 146.576 82.4847C146.576 56.7877 125.667 35.9089 100.001 35.9089ZM100.001 123.333C77.4551 123.333 59.1218 105 59.1218 82.4544C59.1218 59.9089 77.4551 41.5756 100.001 41.5756C122.546 41.5756 140.879 59.9089 140.879 82.4544C140.879 105 122.546 123.333 100.001 123.333Z" fill="white"/>
<path d="M80.9397 65.8486C73.6064 65.8486 67.6367 71.8183 67.6367 79.1517V96.2426C67.6367 97.8183 68.9094 99.0911 70.4852 99.0911C72.061 99.0911 73.3337 97.8183 73.3337 96.2426V88.182H88.5458V96.2426C88.5458 97.8183 89.8185 99.0911 91.3943 99.0911C92.9701 99.0911 94.2428 97.8183 94.2428 96.2426V79.1517C94.2428 71.8183 88.2731 65.8486 80.9397 65.8486ZM73.3337 82.485V79.1517C73.3337 74.9395 76.7579 71.5456 80.9397 71.5456C85.1216 71.5456 88.5458 74.9698 88.5458 79.1517V82.485H73.3337Z" fill="white"/>
<path d="M110.06 65.8486H103.06C101.485 65.8486 100.212 67.1214 100.212 68.6971V96.2426C100.212 97.8183 101.485 99.0911 103.06 99.0911C104.636 99.0911 105.909 97.8183 105.909 96.2426V85.3032H110.06C115.424 85.3032 119.788 80.9395 119.788 75.5759C119.788 70.2123 115.424 65.8486 110.06 65.8486ZM110.06 79.6062H105.909V71.5153H110.06C112.273 71.5153 114.091 73.3335 114.091 75.5456C114.091 77.7577 112.303 79.6062 110.06 79.6062Z" fill="white"/>
<path d="M126.667 69.9393V94.9999C126.667 96.5757 127.94 97.8484 129.515 97.8484C131.091 97.8484 132.364 96.5757 132.364 94.9999V69.9393C132.364 68.3635 131.091 67.0908 129.515 67.0908C127.94 67.0908 126.667 68.3635 126.667 69.9393Z" fill="white"/>
<path d="M173.273 172.97V152.151C173.273 151.394 172.97 150.667 172.424 150.151L156.394 134.121L161.94 128.576C164.424 126.061 164.788 122.091 162.818 119.182L161.303 116.939C160.94 116.394 160.94 115.697 161.273 115.061C163.333 111.212 165.03 107.091 166.364 102.818C166.576 102.151 167.091 101.636 167.697 101.515L170.333 101C173.818 100.333 176.364 97.2727 176.364 93.6969V71.2727C176.364 67.6969 173.818 64.6363 170.333 63.9696L167.727 63.4848C167.091 63.3636 166.576 62.8484 166.364 62.1818C165.061 57.909 163.333 53.8181 161.273 49.9393C160.94 49.303 160.94 48.606 161.303 48.0605L162.818 45.8181C164.788 42.8787 164.424 38.9393 161.909 36.3939L146.03 20.5151C143.515 18.0302 139.546 17.6666 136.636 19.6363L134.364 21.1515C133.849 21.5151 133.121 21.5151 132.485 21.1818C128.636 19.1212 124.515 17.4242 120.243 16.0908C119.576 15.8787 119.061 15.3636 118.94 14.7575L118.424 12.1212C117.849 8.606 114.788 6.06055 111.212 6.06055H88.788C85.2122 6.06055 82.1516 8.606 81.485 12.0908L81.0001 14.6969C80.8789 15.3333 80.3638 15.8484 79.6971 16.0605C75.4244 17.3636 71.3335 19.0908 67.4547 21.1515C66.8183 21.4848 66.1213 21.4848 65.5759 21.1212L63.3335 19.606C60.3941 17.6363 56.4547 17.9999 53.9092 20.5151L38.0304 36.3636C35.5456 38.8787 35.1819 42.8484 37.1516 45.7575L38.6668 47.9999C39.0304 48.5151 39.0304 49.2424 38.6971 49.8787C36.6365 53.7272 34.9395 57.8484 33.6062 62.1212C33.3941 62.7878 32.8789 63.303 32.2728 63.4242L29.6365 63.9393C26.1516 64.606 23.6062 67.6666 23.6062 71.2424V93.6666C23.6062 97.2424 26.1516 100.303 29.6365 100.97L32.2425 101.454C32.8789 101.576 33.3941 102.091 33.6062 102.758C34.9092 107.03 36.6365 111.121 38.6971 115C39.0304 115.636 39.0304 116.333 38.6668 116.879L37.1516 119.121C35.1819 122.061 35.5456 126 38.0607 128.545L43.5759 134.061L27.5759 150.091C27.0304 150.636 26.7274 151.333 26.7274 152.091V172.97C22.2122 174.212 18.8789 178.333 18.8789 183.242C18.8789 189.151 23.6668 193.939 29.5759 193.939C35.485 193.939 40.2728 189.151 40.2728 183.242C40.2728 178.333 36.9395 174.242 32.4244 172.97V153.273L47.6062 138.091L53.9395 144.424C56.4547 146.909 60.4244 147.273 63.3335 145.303L65.5759 143.788C66.1213 143.424 66.8183 143.424 67.4547 143.758C71.3032 145.818 75.4244 147.515 79.6971 148.848C80.3638 149.061 80.8789 149.576 81.0001 150.182L81.5153 152.818C82.1819 156.303 85.2425 158.848 88.8183 158.848H97.1819V172.97C92.6668 174.212 89.3335 178.333 89.3335 183.242C89.3335 189.151 94.1213 193.939 100.03 193.939C105.94 193.939 110.727 189.151 110.727 183.242C110.727 178.333 107.394 174.242 102.879 172.97V158.848H111.243C114.788 158.848 117.879 156.303 118.546 152.818L119.03 150.212C119.152 149.576 119.667 149.061 120.333 148.848C124.606 147.545 128.697 145.818 132.576 143.758C133.212 143.424 133.909 143.424 134.455 143.788L136.697 145.303C139.636 147.273 143.576 146.909 146.121 144.394L152.424 138.091L167.606 153.273V172.909C163.091 174.151 159.758 178.273 159.758 183.182C159.758 189.091 164.546 193.879 170.455 193.879C176.364 193.879 181.152 189.091 181.152 183.182C181.121 178.333 177.788 174.212 173.273 172.97ZM34.5759 183.242C34.5759 186 32.3335 188.242 29.5759 188.242C26.8183 188.242 24.5759 186 24.5759 183.242C24.5759 180.485 26.8183 178.242 29.5759 178.242C32.3335 178.212 34.5759 180.485 34.5759 183.242ZM105 183.242C105 186 102.758 188.242 100 188.242C97.2425 188.242 95.0001 186 95.0001 183.242C95.0001 180.485 97.2425 178.242 100 178.242C102.758 178.212 105 180.485 105 183.242ZM142.091 140.364C141.485 140.939 140.546 141.03 139.879 140.576L137.636 139.061C135.364 137.515 132.394 137.394 129.909 138.727C126.394 140.606 122.606 142.182 118.697 143.394C116.03 144.212 114.03 146.394 113.485 149.091L112.97 151.727C112.818 152.545 112.091 153.151 111.273 153.151H88.8486C88.0304 153.151 87.3031 152.545 87.1516 151.727L86.6365 149.03C86.091 146.364 84.091 144.182 81.4244 143.364C77.5153 142.151 73.7274 140.576 70.2122 138.697C69.0607 138.091 67.8183 137.788 66.5759 137.788C65.1213 137.788 63.6971 138.212 62.4547 139.03L60.2122 140.545C59.5153 141 58.5759 140.909 58.0001 140.333L42.1516 124.485C41.5759 123.879 41.485 122.939 41.9395 122.273L43.4547 120.03C45.0001 117.758 45.1213 114.788 43.788 112.303C41.9092 108.788 40.3335 105 39.1213 101.091C38.3031 98.4242 36.1213 96.4242 33.4244 95.8787L30.788 95.3636C29.9698 95.2121 29.3638 94.4848 29.3638 93.6666V71.2424C29.3638 70.4242 29.9698 69.6969 30.788 69.5454L33.4547 69.0302C36.1213 68.4848 38.3031 66.4848 39.1213 63.8181C40.3335 59.909 41.9092 56.1212 43.788 52.606C45.1213 50.1212 45.0001 47.1515 43.4547 44.8787L41.9395 42.6363C41.485 41.9393 41.5759 40.9999 42.1516 40.4242L58.0001 24.5757C58.6062 23.9999 59.5456 23.909 60.2425 24.3636L62.485 25.8787C64.7577 27.4242 67.7274 27.5454 70.2122 26.2121C73.7577 24.3333 77.5153 22.7575 81.4244 21.5454C84.091 20.7272 86.091 18.5454 86.6365 15.8484L87.1516 13.2121C87.3031 12.3939 88.0304 11.7878 88.8486 11.7878H111.273C112.091 11.7878 112.818 12.3939 112.97 13.2121L113.485 15.909C114.03 18.5757 116.03 20.7575 118.697 21.5757C122.606 22.7878 126.394 24.3636 129.909 26.2424C132.394 27.5757 135.394 27.4545 137.636 25.909L139.879 24.3939C140.576 23.9393 141.515 24.0302 142.091 24.606L157.94 40.4545C158.515 41.0605 158.606 41.9999 158.152 42.6666L156.636 44.909C155.091 47.1818 154.97 50.1515 156.303 52.6363C158.182 56.1515 159.758 59.9393 160.97 63.8484C161.788 66.5151 163.97 68.5151 166.667 69.0606L169.303 69.5757C170.121 69.7272 170.727 70.4545 170.727 71.2727V93.6969C170.727 94.5151 170.121 95.2424 169.303 95.3939L166.636 95.909C163.97 96.4545 161.788 98.4545 160.97 101.121C159.758 105.03 158.182 108.818 156.303 112.333C154.97 114.818 155.091 117.788 156.636 120.061L158.152 122.303C158.606 123 158.515 123.939 157.94 124.515L142.091 140.364ZM170.424 188.242C167.667 188.242 165.424 186 165.424 183.242C165.424 180.485 167.667 178.242 170.424 178.242C173.182 178.242 175.424 180.485 175.424 183.242C175.424 186 173.182 188.242 170.424 188.242Z" fill="white"/>
</svg>
