<svg width="200" height="200" viewBox="0 0 200 200" fill="none" xmlns="http://www.w3.org/2000/svg">
<path fill-rule="evenodd" clip-rule="evenodd" d="M62.5 36.4579V59.2569C62.5 60.9811 61.1 62.3812 59.375 62.3812H34.375C32.65 62.3812 31.25 60.9811 31.25 59.2569V34.2621C31.25 33.3115 31.6813 32.4125 32.425 31.823C32.9813 31.3735 33.6625 31.1377 34.375 31.1377H58.8312L63.25 25.9796C64.375 24.668 66.35 24.5206 67.6562 25.6406C68.9687 26.7607 69.1188 28.7355 68 30.0472L62.5 36.4579ZM37.5 43.1709V56.1325H56.25V43.7457L49.25 51.9176C48.6438 52.625 47.75 53.0229 46.825 53.0082C45.8938 52.9934 45.0188 52.5661 44.4375 51.8366L37.5 43.1709ZM53.475 37.3864C50.1187 37.3864 44.4812 37.3864 40.875 37.3864L46.9562 44.9836L53.475 37.3864ZM78.125 49.8838C76.4 49.8838 75 48.4837 75 46.7595C75 45.0352 76.4 43.6351 78.125 43.6351H128.125C129.85 43.6351 131.25 45.0352 131.25 46.7595C131.25 48.4837 129.85 49.8838 128.125 49.8838H78.125ZM78.125 37.3864C76.4 37.3864 75 35.9864 75 34.2621C75 32.5378 76.4 31.1377 78.125 31.1377H128.125C129.85 31.1377 131.25 32.5378 131.25 34.2621C131.25 35.9864 129.85 37.3864 128.125 37.3864H78.125ZM78.125 62.3812C76.4 62.3812 75 60.9811 75 59.2569C75 57.5326 76.4 56.1325 78.125 56.1325H128.125C129.85 56.1325 131.25 57.5326 131.25 59.2569C131.25 60.9811 129.85 62.3812 128.125 62.3812H78.125ZM125.775 187.363H21.875C16.7 187.363 12.5 183.17 12.5 177.99V21.7647C12.5 16.5844 16.7 12.3916 21.875 12.3916H140.625C145.8 12.3916 150 16.5844 150 21.7647V86.8676C149.25 86.3223 148.375 85.9317 147.412 85.7623C146.194 85.5486 144.975 85.3717 143.75 85.2391V21.7647C143.75 20.0404 142.35 18.6403 140.625 18.6403H21.875C20.15 18.6403 18.75 20.0404 18.75 21.7647V177.99C18.75 179.714 20.15 181.114 21.875 181.114H109.612C111.025 181.637 112.569 181.63 113.956 181.114H123.856L123.825 182.691C123.787 184.511 124.531 186.184 125.775 187.363ZM109.612 93.6247H78.125C76.4 93.6247 75 92.2246 75 90.5003C75 88.7761 76.4 87.376 78.125 87.376H125.775C124.531 88.555 123.787 90.2277 123.825 92.0478L123.856 93.6247H113.956C112.569 93.1163 111.025 93.1015 109.612 93.6247ZM78.125 81.1273C76.4 81.1273 75 79.7272 75 78.0029C75 76.2787 76.4 74.8786 78.125 74.8786H128.125C129.85 74.8786 131.25 76.2787 131.25 78.0029C131.25 79.7272 129.85 81.1273 128.125 81.1273H78.125ZM96.0874 106.129H78.125C76.4 106.129 75 104.729 75 102.998C75 101.274 76.4 99.8734 78.125 99.8734H101.544C99.5687 101.811 97.7437 103.897 96.0874 106.129ZM62.5 78.0029V102.998C62.5 104.729 61.1 106.129 59.375 106.129H34.375C32.65 106.129 31.25 104.729 31.25 102.998V78.0029C31.25 76.2787 32.65 74.8786 34.375 74.8786H59.375C61.1 74.8786 62.5 76.2787 62.5 78.0029ZM56.25 81.1273H37.5V99.8734H56.25V81.1273ZM85.7625 137.373H78.125C76.4 137.373 75 135.973 75 134.249C75 132.524 76.4 131.124 78.125 131.124H86.1313C85.8813 133.195 85.7625 135.288 85.7625 137.373ZM88.2688 124.876H78.125C76.4 124.876 75 123.476 75 121.751C75 120.027 76.4 118.627 78.125 118.627H99.2625L99.275 118.634C98.575 120.086 97.9563 121.582 97.4188 123.107L92.8625 123.004C91.0875 122.967 89.4437 123.682 88.2688 124.876ZM88.2688 149.87H78.125C76.4 149.87 75 148.47 75 146.746C75 145.022 76.4 143.622 78.125 143.622H86.1313C86.25 144.609 86.4 145.604 86.575 146.584C86.8063 147.866 87.4125 148.993 88.2688 149.87ZM62.5 121.751V146.746C62.5 148.47 61.1 149.87 59.375 149.87H34.375C32.65 149.87 31.25 148.47 31.25 146.746V121.751C31.25 120.02 32.65 118.627 34.375 118.627H59.375C61.1 118.627 62.5 120.02 62.5 121.751ZM56.25 124.876H37.5V143.622H56.25V124.876ZM149.438 91.9815L149.287 98.8713C152.169 99.7039 154.95 100.853 157.575 102.305L162.344 97.3238C163.406 96.2185 165.125 96.0417 166.388 96.9259C171.163 100.257 175.313 104.405 178.644 109.18C179.525 110.448 179.356 112.157 178.244 113.226L173.262 117.993C174.712 120.616 175.869 123.394 176.694 126.276L183.587 126.128C185.125 126.099 186.463 127.189 186.731 128.707C187.756 134.44 187.756 140.306 186.731 146.039C186.463 147.557 185.125 148.647 183.587 148.61C183.587 148.61 176.694 148.463 176.7 148.463C175.869 151.344 174.712 154.13 173.262 156.753L178.244 161.52C179.356 162.581 179.525 164.298 178.644 165.558C175.313 170.341 171.163 174.489 166.388 177.82C165.125 178.697 163.406 178.527 162.344 177.415L157.575 172.441C154.95 173.893 152.169 175.042 149.287 175.867L149.438 182.764C149.469 184.297 148.375 185.631 146.862 185.904C141.125 186.928 135.256 186.928 129.525 185.904C128.006 185.631 126.919 184.297 126.95 182.764L127.1 175.867C124.212 175.042 121.437 173.885 118.812 172.441L114.044 177.415C112.975 178.527 111.263 178.697 110 177.82C105.219 174.489 101.069 170.341 97.7375 165.558C96.8625 164.298 97.0313 162.581 98.1438 161.52L103.119 156.753C101.669 154.122 100.519 151.344 99.6875 148.463L92.7937 148.61C91.2562 148.647 89.925 147.557 89.65 146.039C88.6312 140.306 88.6312 134.44 89.65 128.707C89.925 127.189 91.2562 126.099 92.7937 126.128L99.6875 126.276C100.519 123.394 101.669 120.616 103.119 117.993L98.1438 113.226C97.0313 112.157 96.8625 110.448 97.7375 109.18C101.069 104.405 105.219 100.257 110 96.9259C111.263 96.0417 112.975 96.2185 114.044 97.3238L118.812 102.305C121.437 100.853 124.219 99.7039 127.1 98.8713L126.95 91.9815C126.919 90.4414 128.006 89.1077 129.525 88.835C135.256 87.8181 141.125 87.8181 146.862 88.835C148.375 89.1077 149.469 90.4414 149.438 91.9815ZM143.125 94.6047C139.85 94.2289 136.538 94.2289 133.256 94.6047L133.4 101.222C133.431 102.718 132.4 104.022 130.944 104.339C127.044 105.194 123.325 106.734 119.956 108.893C118.7 109.696 117.05 109.497 116.019 108.421L111.438 103.639C108.85 105.695 106.506 108.031 104.456 110.617L109.237 115.2C110.312 116.232 110.512 117.883 109.706 119.143C107.556 122.503 106.012 126.224 105.156 130.122C104.837 131.581 103.531 132.613 102.038 132.576L95.4187 132.436C95.0375 135.715 95.0375 139.024 95.4187 142.303L102.038 142.163C103.531 142.133 104.837 143.157 105.156 144.616C106.012 148.522 107.556 152.236 109.706 155.603C110.512 156.863 110.312 158.514 109.237 159.546L104.456 164.122C106.506 166.708 108.85 169.051 111.438 171.1L116.019 166.325C117.05 165.242 118.7 165.05 119.956 165.853C123.325 168.005 127.044 169.545 130.944 170.4C132.4 170.724 133.431 172.028 133.4 173.524L133.256 180.141C136.538 180.517 139.85 180.517 143.125 180.141L142.987 173.524C142.956 172.028 143.981 170.724 145.437 170.4C149.344 169.545 153.063 168.005 156.425 165.853C157.681 165.05 159.337 165.242 160.369 166.325L164.95 171.1C167.537 169.051 169.875 166.708 171.925 164.122L167.15 159.546C166.069 158.514 165.875 156.863 166.675 155.603C168.831 152.236 170.369 148.522 171.225 144.616C171.55 143.157 172.856 142.133 174.35 142.163L180.969 142.303C181.344 139.024 181.344 135.715 180.969 132.436L174.35 132.576C172.856 132.613 171.55 131.581 171.225 130.122C170.369 126.224 168.831 122.503 166.675 119.143C165.875 117.883 166.069 116.232 167.15 115.2L171.925 110.617C169.875 108.031 167.537 105.695 164.95 103.639L160.369 108.421C159.337 109.497 157.681 109.696 156.425 108.893C153.063 106.734 149.344 105.194 145.437 104.339C143.981 104.022 142.956 102.718 142.987 101.222L143.125 94.6047ZM109.412 137.373C109.412 135.229 109.644 133.136 110.094 131.124C110.575 128.936 111.313 126.843 112.263 124.876C113.356 122.606 114.737 120.513 116.362 118.627C121.644 112.481 129.469 108.591 138.194 108.591C140.094 108.591 141.95 108.775 143.75 109.129C145.931 109.556 148.025 110.234 150 111.125C160.006 115.635 166.975 125.693 166.975 137.373C166.975 149.045 160.006 159.111 150 163.62C148.025 164.512 145.931 165.183 143.75 165.61C141.95 165.964 140.094 166.148 138.194 166.148C126.787 166.148 116.919 159.501 112.263 149.87C111.313 147.903 110.575 145.81 110.094 143.622C109.644 141.61 109.412 139.517 109.412 137.373ZM116.537 131.124C115.969 133.106 115.662 135.207 115.662 137.373C115.662 139.539 115.969 141.639 116.537 143.622C117.187 145.869 118.175 147.969 119.45 149.87C123.487 155.913 130.381 159.899 138.194 159.899C140.112 159.899 141.975 159.663 143.75 159.207C145.987 158.639 148.087 157.74 150 156.561C156.431 152.589 160.725 145.479 160.725 137.373C160.725 129.267 156.431 122.157 150 118.185C148.087 117.006 145.987 116.099 143.75 115.532C141.975 115.083 140.112 114.839 138.194 114.839C133.575 114.839 129.275 116.232 125.7 118.627C123.225 120.277 121.1 122.4 119.45 124.876C118.175 126.769 117.187 128.877 116.537 131.124Z" fill="white"/>
</svg>
