<svg width="200" height="200" viewBox="0 0 200 200" fill="none" xmlns="http://www.w3.org/2000/svg">
<path d="M165.625 75.1626C153.562 75.1626 143.75 65.3501 143.75 53.2876C143.75 41.2251 153.562 31.4126 165.625 31.4126C177.688 31.4126 187.5 41.2251 187.5 53.2876C187.5 65.3501 177.688 75.1626 165.625 75.1626ZM165.625 37.6626C157.006 37.6626 150 44.6751 150 53.2876C150 61.9001 157.006 68.9126 165.625 68.9126C174.244 68.9126 181.25 61.9001 181.25 53.2876C181.25 44.6751 174.244 37.6626 165.625 37.6626Z" fill="white"/>
<path d="M146.875 94.4002C145.943 94.4002 145.006 93.9814 144.4 93.1752C143.35 91.8064 143.606 89.8439 144.981 88.7939L174.981 65.8127C176.343 64.7689 178.306 65.0127 179.356 66.3939C180.406 67.7627 180.15 69.7252 178.775 70.7752L148.775 93.7564C148.206 94.1877 147.537 94.4002 146.875 94.4002Z" fill="white"/>
<path d="M68.8564 46.875C61.9627 46.875 56.3564 41.2688 56.3564 34.375C56.3564 27.4812 61.9627 21.875 68.8564 21.875C75.7502 21.875 81.3564 27.4812 81.3564 34.375C81.3564 41.2688 75.7439 46.875 68.8564 46.875ZM68.8564 28.125C65.4064 28.125 62.6064 30.9312 62.6064 34.375C62.6064 37.8188 65.4064 40.625 68.8564 40.625C72.3064 40.625 75.1064 37.8188 75.1064 34.375C75.1064 30.9312 72.3002 28.125 68.8564 28.125Z" fill="white"/>
<path d="M109.481 193.75H28.2313C19.5563 193.75 12.5 186.738 12.5 178.125V115.625C12.5 113.894 13.9 112.5 15.625 112.5C17.35 112.5 18.75 113.894 18.75 115.625V178.125C18.75 183.294 23.0063 187.5 28.2313 187.5H109.481C114.681 187.5 118.75 183.394 118.75 178.144V134.375C118.75 132.65 120.15 131.25 121.875 131.25C123.6 131.25 125 132.65 125 134.375V178.144C125 186.75 118.037 193.75 109.481 193.75Z" fill="white"/>
<path d="M15.625 106.25C13.9 106.25 12.5 104.85 12.5 103.125V69.3438C12.5 66.3501 13.3938 63.3938 15.0813 60.8064L40.5063 21.9126C46.7562 12.3313 57.3125 6.6126 68.75 6.6001H68.7812C80.2063 6.6001 90.7562 12.3063 97.0187 21.8626L122.5 60.7938C124.138 63.2938 125 66.2439 125 69.3314V71.8751C125 73.6001 123.6 75.0001 121.875 75.0001C120.15 75.0001 118.75 73.6001 118.75 71.8751V69.3689C118.75 67.4688 118.238 65.7001 117.269 64.2126L91.7938 25.2813C86.6937 17.4938 78.0938 12.8438 68.7812 12.8438C68.775 12.8438 68.7688 12.8438 68.7563 12.8438C59.4438 12.8501 50.8375 17.5188 45.7437 25.3251L20.3187 64.2126C19.2937 65.7876 18.75 67.5626 18.75 69.3438V103.125C18.75 104.85 17.35 106.25 15.625 106.25Z" fill="white"/>
<path d="M165.625 193.75C153.562 193.75 143.75 183.938 143.75 171.875C143.75 159.812 153.562 150 165.625 150C177.688 150 187.5 159.812 187.5 171.875C187.5 183.938 177.688 193.75 165.625 193.75ZM165.625 156.25C157.006 156.25 150 163.262 150 171.875C150 180.487 157.006 187.5 165.625 187.5C174.244 187.5 181.25 180.487 181.25 171.875C181.25 163.262 174.244 156.25 165.625 156.25Z" fill="white"/>
<path d="M176.875 160C176.213 160 175.544 159.787 174.975 159.356L174.95 159.337L134.975 128.731L134.982 128.719L49.3504 63.1062C48.3754 62.3562 47.9254 61.1062 48.2067 59.9125C48.4879 58.7187 49.4379 57.7937 50.6504 57.5625C67.6004 54.25 85.8067 58.4562 99.5942 68.8562L133.813 94.6687C143.413 101.906 146.269 114.937 140.969 125.425L178.775 154.394C180.15 155.444 180.407 157.406 179.357 158.775C178.744 159.581 177.813 160 176.875 160ZM59.1817 62.7625L135.888 121.531C139.144 113.906 136.888 104.806 130.05 99.6562L95.8317 73.8375C85.4129 65.975 72.2192 61.95 59.1817 62.7625Z" fill="white"/>
<path d="M109.375 118.75C108.562 118.75 107.75 118.438 107.181 117.813C106.563 117.188 106.25 116.438 106.25 115.625C106.25 114.813 106.562 114 107.125 113.438C108.375 112.25 110.438 112.25 111.563 113.438C112.188 114 112.5 114.813 112.5 115.625C112.5 116.438 112.187 117.188 111.619 117.813C111 118.438 110.188 118.75 109.375 118.75Z" fill="white"/>
<path d="M96.875 118.75H90.625C88.9 118.75 87.5 117.35 87.5 115.625C87.5 113.9 88.9 112.5 90.625 112.5H96.875C98.6 112.5 100 113.9 100 115.625C100 117.35 98.6 118.75 96.875 118.75Z" fill="white"/>
<path d="M78.125 118.75H71.875C70.15 118.75 68.75 117.35 68.75 115.625C68.75 113.9 70.15 112.5 71.875 112.5H78.125C79.85 112.5 81.25 113.9 81.25 115.625C81.25 117.35 79.85 118.75 78.125 118.75Z" fill="white"/>
<path d="M59.375 118.75H53.125C51.4 118.75 50 117.35 50 115.625C50 113.9 51.4 112.5 53.125 112.5H59.375C61.1 112.5 62.5 113.9 62.5 115.625C62.5 117.35 61.1 118.75 59.375 118.75Z" fill="white"/>
<path d="M40.625 118.75H34.375C32.65 118.75 31.25 117.35 31.25 115.625C31.25 113.9 32.65 112.5 34.375 112.5H40.625C42.35 112.5 43.75 113.9 43.75 115.625C43.75 117.35 42.35 118.75 40.625 118.75Z" fill="white"/>
<path d="M21.875 118.75H15.625C13.9 118.75 12.5 117.35 12.5 115.625C12.5 113.9 13.9 112.5 15.625 112.5H21.875C23.6 112.5 25 113.9 25 115.625C25 117.35 23.6 118.75 21.875 118.75Z" fill="white"/>
<path d="M50.0001 181.25C49.2814 181.25 48.5626 181.006 47.9689 180.5C46.6564 179.375 46.5064 177.4 47.6314 176.094L85.1314 132.344C86.2564 131.031 88.2251 130.888 89.5314 132C90.8439 133.125 90.9939 135.1 89.8689 136.406L52.3689 180.156C51.7564 180.875 50.8814 181.25 50.0001 181.25Z" fill="white"/>
<path d="M84.375 181.25C81.5563 181.25 75 180.031 75 168.75C75 157.875 80.8688 156.25 84.375 156.25C87.8813 156.25 93.75 157.875 93.75 168.75C93.75 180.031 87.1938 181.25 84.375 181.25ZM84.375 162.5C83.2 162.5 81.25 162.5 81.25 168.75C81.25 175 83.5188 175 84.375 175C85.2312 175 87.5 175 87.5 168.75C87.5 162.5 85.55 162.5 84.375 162.5Z" fill="white"/>
<path d="M53.125 156.25C50.3063 156.25 43.75 155.031 43.75 143.75C43.75 132.875 49.6188 131.25 53.125 131.25C56.6313 131.25 62.5 132.875 62.5 143.75C62.5 155.031 55.9438 156.25 53.125 156.25ZM53.125 137.5C51.9563 137.5 50 137.5 50 143.75C50 150 52.2688 150 53.125 150C53.9812 150 56.25 150 56.25 143.75C56.25 137.5 54.3 137.5 53.125 137.5Z" fill="white"/>
</svg>
