<svg width="200" height="200" viewBox="0 0 200 200" fill="none" xmlns="http://www.w3.org/2000/svg">
<g clip-path="url(#clip0_320_431)">
<path d="M95.4681 33.4039L42.5241 63.8696C42.0594 64.1364 41.6735 64.5207 41.4053 64.9836C41.137 65.4464 40.9959 65.9716 40.9961 66.5062V127.474C40.9936 128.012 41.1336 128.54 41.4019 129.007C41.6702 129.473 42.0574 129.86 42.5241 130.129L95.4681 160.59C95.9324 160.859 96.4595 161 96.9961 161C97.5327 161 98.0598 160.859 98.5241 160.59L151.468 130.129C151.933 129.861 152.319 129.476 152.587 129.013C152.855 128.549 152.996 128.023 152.996 127.488V66.52C152.999 65.9831 152.859 65.455 152.59 64.9895C152.322 64.524 151.935 64.1376 151.468 63.8696L98.5241 33.4039C98.0586 33.1392 97.532 33 96.9961 33C96.4602 33 95.9336 33.1392 95.4681 33.4039ZM146.893 125.717L96.9961 154.434L47.0988 125.717V68.2823L96.9961 39.5651L146.893 68.2823V125.717Z" fill="white"/>
<path d="M121.215 30.8643C121.362 31.2251 121.557 31.5641 121.796 31.872C122.049 32.0956 122.301 32.3195 122.554 32.5439L165.553 57.454V69.9113C165.553 70.3173 165.633 70.7193 165.788 71.0944C165.943 71.4694 166.17 71.8101 166.456 72.097C166.743 72.3839 167.083 72.6113 167.457 72.7662C167.831 72.9212 168.231 73.0006 168.636 73H191.033C191.829 72.9689 192.583 72.6297 193.135 72.0534C193.688 71.4771 193.996 70.7086 193.996 69.909C193.996 69.1094 193.688 68.3408 193.135 67.7645C192.583 67.1883 191.829 66.849 191.033 66.818H171.714V55.6717C171.715 55.1289 171.573 54.5957 171.302 54.1255C171.032 53.6553 170.643 53.2649 170.175 52.9936L127.175 28.0835V2.10034C127.175 1.27808 126.85 0.489498 126.27 -0.0919294C125.691 -0.673357 124.905 -1 124.086 -1C123.266 -1 122.48 -0.673357 121.901 -0.0919294C121.322 0.489498 120.996 1.27808 120.996 2.10034V29.8705C121.014 29.9947 121.039 30.1177 121.07 30.239C121.097 30.4518 121.145 30.6613 121.215 30.8643Z" fill="white"/>
<path d="M72.7733 163.131C72.7111 162.953 72.6285 162.782 72.5272 162.623C72.4343 162.444 72.3222 162.277 72.193 162.123C72.053 161.972 71.8974 161.836 71.7288 161.717C71.6364 161.621 71.5371 161.533 71.4316 161.451L28.4998 136.546V124.089C28.4998 123.683 28.4201 123.281 28.2654 122.906C28.1106 122.531 27.8839 122.19 27.598 121.903C27.3121 121.616 26.9728 121.389 26.5994 121.234C26.226 121.079 25.8259 120.999 25.4219 121H3.06929C2.25423 121 1.47255 121.325 0.896212 121.905C0.319876 122.484 -0.00390625 123.27 -0.00390625 124.089C-0.00390625 124.908 0.319876 125.693 0.896212 126.273C1.47255 126.852 2.25423 127.177 3.06929 127.177H22.358V138.324C22.3579 138.866 22.4998 139.399 22.7696 139.869C23.0393 140.34 23.4273 140.73 23.8946 141.002L66.8265 165.912V191.9C66.8265 192.722 67.1515 193.511 67.73 194.092C68.3085 194.673 69.0931 195 69.9113 195C70.7294 195 71.5141 194.673 72.0926 194.092C72.6711 193.511 72.9961 192.722 72.9961 191.9V164.134C72.9785 164.01 72.9537 163.887 72.9218 163.766C72.8962 163.549 72.8464 163.336 72.7733 163.131Z" fill="white"/>
<path d="M96.9961 21C97.7917 21 98.5548 20.6808 99.1174 20.1126C99.68 19.5444 99.9961 18.7738 99.9961 17.9703V2.02975C99.9961 1.22621 99.68 0.455581 99.1174 -0.112607C98.5548 -0.680795 97.7917 -1 96.9961 -1C96.2004 -1 95.4374 -0.680795 94.8748 -0.112607C94.3122 0.455581 93.9961 1.22621 93.9961 2.02975V17.9703C93.9961 18.7738 94.3122 19.5444 94.8748 20.1126C95.4374 20.6808 96.2004 21 96.9961 21Z" fill="white"/>
<path d="M190.931 121H168.564C168.16 120.999 167.759 121.079 167.386 121.234C167.013 121.389 166.673 121.617 166.387 121.905C166.101 122.192 165.874 122.533 165.72 122.909C165.565 123.285 165.485 123.687 165.485 124.094V136.574L122.542 161.524C122.437 161.605 122.338 161.694 122.245 161.79C122.076 161.909 121.921 162.045 121.781 162.197C121.652 162.351 121.539 162.518 121.447 162.697C121.345 162.856 121.263 163.027 121.2 163.206C121.134 163.413 121.09 163.626 121.07 163.842C121.039 163.963 121.014 164.087 120.996 164.211V192.021C121.027 192.822 121.365 193.579 121.938 194.135C122.512 194.69 123.277 195 124.072 195C124.868 195 125.633 194.69 126.207 194.135C126.78 193.579 127.118 192.822 127.149 192.021V165.987L170.092 141.033C170.559 140.761 170.947 140.369 171.217 139.898C171.487 139.428 171.629 138.894 171.628 138.35V127.188H190.922C191.737 127.188 192.519 126.862 193.096 126.282C193.672 125.702 193.996 124.915 193.996 124.094C193.996 123.274 193.672 122.487 193.096 121.906C192.519 121.326 191.737 121 190.922 121H190.931Z" fill="white"/>
<path d="M191.067 94H168.925C168.138 94.0301 167.393 94.3594 166.847 94.9187C166.301 95.478 165.996 96.2239 165.996 97C165.996 97.7761 166.301 98.522 166.847 99.0813C167.393 99.6406 168.138 99.9699 168.925 100H191.067C191.854 99.9699 192.599 99.6406 193.145 99.0813C193.691 98.522 193.996 97.7761 193.996 97C193.996 96.2239 193.691 95.478 193.145 94.9187C192.599 94.3594 191.854 94.0301 191.067 94Z" fill="white"/>
<path d="M2.95984 73H25.3627C25.7674 73.0006 26.1683 72.9211 26.5423 72.7659C26.9164 72.6107 27.2564 72.383 27.5428 72.0957C27.8291 71.8084 28.0563 71.4672 28.2114 71.0916C28.3664 70.716 28.4462 70.3134 28.4462 69.9068V57.4311L71.4567 32.4845C71.709 32.2598 71.9617 32.0355 72.2148 31.8117C72.4532 31.5033 72.6488 31.1638 72.7961 30.8024C72.8593 30.597 72.9014 30.3856 72.9217 30.1716C72.9536 30.0501 72.9785 29.9269 72.9961 29.8025V1.9776C72.9651 1.17742 72.627 0.420363 72.0525 -0.134774C71.4781 -0.689911 70.712 -1 69.9149 -1C69.1179 -1 68.3518 -0.689911 67.7773 -0.134774C67.2029 0.420363 66.8647 1.17742 66.8338 1.9776V28.0036L23.8233 52.9455C23.3548 53.2173 22.9658 53.6083 22.6956 54.0791C22.4253 54.5499 22.2833 55.084 22.2839 55.6275V66.7902H2.95984C2.16338 66.8213 1.40985 67.161 0.857295 67.7382C0.30474 68.3153 -0.00390625 69.085 -0.00390625 69.8858C-0.00390625 70.6865 0.30474 71.4562 0.857295 72.0333C1.40985 72.6105 2.16338 72.9502 2.95984 72.9813V73Z" fill="white"/>
<path d="M2.90073 99.9977H24.8568C25.2632 100.013 25.6686 99.9475 26.0488 99.8039C26.4289 99.6603 26.776 99.442 27.0691 99.1621C27.3622 98.8822 27.5954 98.5464 27.7547 98.1749C27.914 97.8034 27.9961 97.4038 27.9961 97C27.9961 96.5962 27.914 96.1966 27.7547 95.8251C27.5954 95.4536 27.3622 95.1178 27.0691 94.8379C26.776 94.558 26.4289 94.3397 26.0488 94.1961C25.6686 94.0525 25.2632 93.9866 24.8568 94.0023H2.90073C2.12016 94.0324 1.38165 94.3614 0.840119 94.9203C0.298584 95.4792 -0.00390625 96.2245 -0.00390625 97C-0.00390625 97.7755 0.298584 98.5208 0.840119 99.0797C1.38165 99.6386 2.12016 99.9676 2.90073 99.9977Z" fill="white"/>
<path d="M96.9961 173C96.6017 173 96.2113 173.079 95.847 173.231C95.4827 173.384 95.1518 173.607 94.8732 173.889C94.5945 174.171 94.3737 174.505 94.2232 174.873C94.0727 175.242 93.9955 175.636 93.9961 176.034V191.97C93.9961 192.774 94.3122 193.544 94.8748 194.113C95.4374 194.681 96.2004 195 96.9961 195C97.7917 195 98.5548 194.681 99.1174 194.113C99.68 193.544 99.9961 192.774 99.9961 191.97V176.034C99.9967 175.636 99.9195 175.242 99.769 174.873C99.6185 174.505 99.3977 174.171 99.119 173.889C98.8404 173.607 98.5095 173.384 98.1452 173.231C97.7809 173.079 97.3904 173 96.9961 173Z" fill="white"/>
<path d="M75.9961 86.8744C75.9983 90.3701 76.906 93.8032 78.6275 96.8271C80.349 99.8511 82.8233 102.359 85.8005 104.097V123.329C85.8041 125.629 86.7033 127.834 88.3008 129.459C89.8983 131.085 92.0636 131.999 94.3216 132H96.7205C98.9777 131.998 101.142 131.083 102.738 129.458C104.335 127.832 105.233 125.628 105.237 123.329V104.074C108.203 102.331 110.666 99.8242 112.38 96.8044C114.093 93.7845 114.995 90.3584 114.996 86.8705C114.997 83.3826 114.097 79.956 112.385 76.9351C110.674 73.9143 108.212 71.4057 105.247 69.6617C102.282 67.9177 98.918 66.9997 95.4942 67C92.0704 67.0003 88.707 67.919 85.7423 69.6636C82.7776 71.4082 80.316 73.9173 78.6052 76.9385C76.8943 79.9597 75.9945 83.3865 75.9961 86.8744ZM109.037 86.8744C109.031 89.5331 108.27 92.1332 106.846 94.3611C105.421 96.5891 103.395 98.3497 101.011 99.4308C100.483 99.6691 100.034 100.057 99.7183 100.549C99.4021 101.041 99.232 101.615 99.2283 102.203V123.31C99.2271 123.987 98.9625 124.637 98.4925 125.115C98.0224 125.594 97.3853 125.864 96.7205 125.865H94.3216C93.656 125.865 93.0177 125.596 92.5467 125.117C92.0757 124.638 91.8104 123.988 91.8092 123.31V102.198C91.8082 101.607 91.6394 101.028 91.3232 100.533C91.0071 100.037 90.5569 99.6445 90.027 99.4031C87.8068 98.3934 85.8954 96.7918 84.4945 94.7674C83.0936 92.7429 82.2552 90.3707 82.0677 87.9012C81.8803 85.4317 82.3508 82.9564 83.4295 80.7366C84.5083 78.5169 86.1553 76.635 88.1968 75.2896C90.2382 73.9442 92.5983 73.1851 95.028 73.0926C97.4578 73.0001 99.8669 73.5776 102.001 74.764C104.136 75.9504 105.916 77.7018 107.154 79.8334C108.393 81.9649 109.043 84.3975 109.037 86.8744Z" fill="white"/>
</g>
<defs>
<clipPath id="clip0_320_431">
<rect width="200" height="200" fill="white"/>
</clipPath>
</defs>
</svg>
