<svg width="200" height="200" viewBox="0 0 200 200" fill="none" xmlns="http://www.w3.org/2000/svg">
<g clip-path="url(#clip0_287_1883)">
<path fill-rule="evenodd" clip-rule="evenodd" d="M53.0756 82.601C51.5524 82.601 50.1464 81.3122 50.1464 79.6719V76.3913C44.2882 74.9853 39.8359 69.7129 39.8359 63.386C39.8359 61.7457 41.1248 60.4569 42.7651 60.4569C44.2882 60.4569 45.6942 61.8629 45.6942 63.386C45.6942 67.604 49.092 71.0017 53.3099 71.0017C57.4106 71.0017 60.8084 67.604 60.8084 63.386C60.8084 59.2853 57.4106 55.8875 53.3099 55.8875C45.9285 55.8875 39.9531 49.9121 39.9531 42.5307C39.9531 35.2665 44.7569 31.0486 50.1464 29.877V26.4792C50.1464 24.8389 51.5524 23.6672 53.0756 23.6672C54.7159 23.6672 56.0047 24.956 56.0047 26.4792V29.7598C61.5114 30.9314 66.4323 35.2665 66.4323 42.5307C66.4323 44.171 65.1435 45.4599 63.5032 45.4599C61.8629 45.4599 60.5741 44.171 60.5741 42.5307C60.5741 37.4927 56.8248 35.2665 53.0756 35.2665C49.3263 35.2665 45.4599 37.4927 45.4599 42.5307C45.4599 46.7487 48.8576 50.1464 53.0756 50.1464C60.4569 50.1464 66.3152 56.0047 66.3152 63.386C66.3152 69.7129 61.9801 74.9853 56.0047 76.3913V79.7891C56.0047 81.3122 54.7159 82.601 53.0756 82.601ZM146.456 84.71C146.221 84.5928 145.87 84.5928 145.636 84.4757V84.3585C145.05 84.1242 144.698 83.7727 144.347 83.304L138.02 76.5085C136.965 75.454 137.083 73.5794 138.254 72.5249C139.309 71.3532 141.183 71.4704 142.238 72.642L143.878 74.3995V67.1353C143.878 60.9256 138.84 55.8875 132.865 55.8875H106.034C104.628 83.8898 81.4294 106.268 53.0756 106.268C23.7844 106.268 -0.117188 82.3667 -0.117188 53.0756C-0.117188 23.7844 23.7844 -0.117188 53.0756 -0.117188C81.3122 -0.117188 104.511 22.1441 106.034 50.0293H132.865C142.121 50.0293 149.619 57.645 149.619 66.901V74.6338L151.377 72.642C152.548 71.4704 154.306 71.3532 155.477 72.5249C156.649 73.5794 156.766 75.454 155.595 76.5085L148.916 83.8898C148.565 84.3585 147.745 84.5928 147.042 84.71H146.924H146.807H146.69H146.573H146.456ZM143.878 182.542V176.801C143.878 175.161 145.167 173.872 146.807 173.872C148.448 173.872 149.736 175.161 149.736 176.801V182.542C167.194 181.136 181.019 167.194 182.308 149.736H176.801C175.161 149.736 173.872 148.448 173.872 146.807C173.872 145.167 175.161 143.878 176.801 143.878H182.308C180.902 126.538 167.077 112.712 149.736 111.306V116.93C149.619 118.571 148.448 119.859 146.807 119.859C145.167 119.859 143.878 118.571 143.878 116.93V111.306C126.655 112.712 112.83 126.655 111.306 143.878H116.93C118.571 143.878 119.859 145.167 119.859 146.807C119.859 148.448 118.571 149.736 116.93 149.736H111.306C112.595 167.194 126.538 181.136 143.878 182.542ZM146.807 149.736C145.87 149.736 145.05 149.268 144.581 148.682L133.45 132.982C132.513 131.693 132.865 129.936 134.153 129.115C135.442 128.178 137.2 128.412 138.02 129.701L147.979 143.878L161.453 141.418C163.093 141.183 164.616 142.238 164.733 143.761C165.085 145.401 163.913 146.807 162.507 147.042L147.276 149.736C147.159 149.736 147.042 149.736 146.807 149.736ZM146.807 188.284C123.96 188.049 105.565 170.006 105.565 147.042C105.565 124.077 124.077 105.565 146.807 105.565C169.654 105.565 188.166 124.077 188.166 147.042C188.166 170.006 169.654 188.049 146.807 188.284ZM146.807 200C118.453 200 95.2548 177.739 93.8488 149.736H67.1353C57.8793 149.736 50.3808 142.121 50.3808 132.865V125.249L48.389 127.358C47.2173 128.412 45.4599 128.412 44.2882 127.475C43.2337 126.538 43.2337 124.546 44.171 123.374L50.9666 116.11C52.0211 114.821 54.2472 114.821 55.1845 116.11L61.8629 123.374C63.0345 124.546 62.9174 126.303 61.7457 127.475C60.5741 128.647 58.8166 128.412 57.645 127.358L56.239 125.718V132.865C56.239 139.074 61.2771 144.112 67.2525 144.112H93.8488C95.372 116.11 118.571 93.8488 146.807 93.8488C176.098 93.8488 200 117.75 200 147.042C200 176.333 176.098 200 146.807 200ZM146.807 99.4727C120.68 99.4727 99.4727 120.797 99.4727 147.042C99.4727 173.169 120.797 194.376 146.807 194.376C173.052 194.376 194.376 173.052 194.376 147.042C194.376 120.797 173.052 99.4727 146.807 99.4727ZM53.0756 5.62388C26.9478 5.62388 5.62388 26.9478 5.62388 53.0756C5.62388 79.3204 26.9478 100.644 53.0756 100.644C79.3204 100.644 100.41 79.3204 100.41 53.0756C100.41 26.9478 79.3204 5.62388 53.0756 5.62388ZM53.0756 94.4347C30.3456 94.4347 11.8336 75.9227 11.8336 53.0756C11.8336 30.3456 30.3456 11.8336 53.0756 11.8336C75.9227 11.8336 94.4347 30.3456 94.4347 53.0756C94.4347 75.9227 75.9227 94.4347 53.0756 94.4347ZM53.0756 17.4575C33.3919 17.4575 17.4575 33.3919 17.4575 53.0756C17.4575 72.7592 33.3919 88.8108 53.0756 88.8108C72.7592 88.8108 88.8108 72.7592 88.8108 53.0756C88.8108 33.3919 72.7592 17.4575 53.0756 17.4575Z" fill="white"/>
</g>
<defs>
<clipPath id="clip0_287_1883">
<rect width="200" height="200" fill="white"/>
</clipPath>
</defs>
</svg>
