<svg width="200" height="200" viewBox="0 0 200 200" fill="none" xmlns="http://www.w3.org/2000/svg">
<path d="M175.691 68.75L196.313 39.2906C197.066 38.2156 197.066 36.7844 196.313 35.7094L174.438 4.45938C173.85 3.62188 172.894 3.125 171.875 3.125H140.625C139.607 3.125 138.65 3.62188 138.066 4.45938L117.122 34.375H82.8785L61.9379 4.45938C61.3504 3.62188 60.3941 3.125 59.3754 3.125H28.1254C27.1066 3.125 26.1504 3.62188 25.566 4.45938L3.69102 35.7094C2.93789 36.7844 2.93789 38.2156 3.69102 39.2906L24.3098 68.75L3.68789 98.2094C2.93477 99.2844 2.93477 100.716 3.68789 101.791L25.5629 133.041C26.1504 133.878 27.1066 134.375 28.1254 134.375H59.3754C60.3941 134.375 61.3504 133.878 61.9348 133.041L82.8785 103.125H90.6254V140.625H81.2504C79.5223 140.625 78.1254 142.022 78.1254 143.75V165.625C78.1254 166.456 78.4535 167.25 79.041 167.834L90.6254 179.419V190.625H84.3754V196.875H146.875V190.625H140.625V178.863L146.547 167.022C146.763 166.591 146.875 166.109 146.875 165.625V134.375H171.875C172.894 134.375 173.85 133.878 174.435 133.041L196.31 101.791C197.063 100.716 197.063 99.2844 196.31 98.2094L175.691 68.75ZM142.254 9.375H170.25L189.938 37.5L170.25 65.625H142.254L132.41 51.5625L122.566 37.5L142.254 9.375ZM29.7535 9.375H57.7504L77.4379 37.5L67.5941 51.5625L57.7504 65.625H29.7535L10.066 37.5L29.7535 9.375ZM57.7473 128.125H29.7535L10.066 100L29.7535 71.875H57.7504L67.5941 85.9375L77.4379 100L57.7473 128.125ZM82.8785 96.875L73.0348 82.8125L63.191 68.75L73.0348 54.6875L82.8785 40.625H96.8754V47.3188C91.4973 48.7156 87.5004 53.5687 87.5004 59.375C87.5004 66.2687 93.1066 71.875 100 71.875C103.447 71.875 106.25 74.6781 106.25 78.125C106.25 81.5719 103.447 84.375 100 84.375C96.5535 84.375 93.7504 81.5719 93.7504 78.125H87.5004C87.5004 85.0188 93.1066 90.625 100 90.625C106.894 90.625 112.5 85.0188 112.5 78.125C112.5 71.2312 106.894 65.625 100 65.625C96.5535 65.625 93.7504 62.8219 93.7504 59.375C93.7504 55.9281 96.5535 53.125 100 53.125C103.447 53.125 106.25 55.9281 106.25 59.375H112.5C112.5 53.5687 108.504 48.7156 103.125 47.3188V40.625H117.122L126.966 54.6875L136.81 68.75L126.966 82.8125L117.122 96.875H109.375V93.75C109.375 92.025 107.979 90.625 106.25 90.625H100H93.7504C92.0223 90.625 90.6254 92.025 90.6254 93.75V96.875H82.8785ZM131.25 128.125H118.75H109.375V103.125H117.122L134.622 128.125H131.25ZM140.625 164.887L134.704 176.728C134.488 177.159 134.375 177.641 134.375 178.125V190.625H96.8754V178.125C96.8754 177.294 96.5473 176.5 95.9598 175.916L84.3754 164.331V146.875H90.6254V156.25H96.8754V143.75V96.875H103.125V131.25V150H109.375V134.375H115.625V150H121.875V134.375H128.125V150H134.375V134.375H140.625V164.887ZM170.247 128.125H143.75H142.254L122.566 100L132.41 85.9375L142.254 71.875H170.25L189.938 100L170.247 128.125Z" fill="white"/>
<path d="M25 37.5H31.25V50H25V37.5Z" fill="white"/>
<path d="M34.375 31.25H40.625V50H34.375V31.25Z" fill="white"/>
<path d="M43.75 25H50V50H43.75V25Z" fill="white"/>
<path d="M53.125 18.75H59.375V50H53.125V18.75Z" fill="white"/>
<path d="M59.1469 94.2062C57.8781 86.8594 51.4563 81.25 43.75 81.25C36.0437 81.25 29.6219 86.8594 28.3531 94.2062C24.5969 95.4312 21.875 98.9656 21.875 103.125C21.875 108.294 26.0812 112.5 31.25 112.5H56.25C61.4188 112.5 65.625 108.294 65.625 103.125C65.625 98.9656 62.9031 95.4312 59.1469 94.2062ZM56.25 106.25H31.25C29.525 106.25 28.125 104.85 28.125 103.125C28.125 101.403 29.525 100 31.25 100C32.9781 100 34.375 98.6 34.375 96.875C34.375 91.7063 38.5812 87.5 43.75 87.5C48.9188 87.5 53.125 91.7063 53.125 96.875C53.125 98.6 54.5219 100 56.25 100C57.975 100 59.375 101.403 59.375 103.125C59.375 104.85 57.975 106.25 56.25 106.25Z" fill="white"/>
<path d="M146.875 59.375H165.625C169.072 59.375 171.875 56.5719 171.875 53.125V21.875C171.875 18.4281 169.072 15.625 165.625 15.625H146.875C143.428 15.625 140.625 18.4281 140.625 21.875V53.125C140.625 56.5719 143.428 59.375 146.875 59.375ZM146.875 21.875H165.625V53.125H146.875V21.875Z" fill="white"/>
<path d="M153.125 43.75H159.375V50H153.125V43.75Z" fill="white"/>
<path d="M131.25 100C131.25 112.059 142.466 121.875 156.25 121.875C170.034 121.875 181.25 112.059 181.25 100C181.25 87.9375 170.034 78.125 156.25 78.125C142.466 78.125 131.25 87.9375 131.25 100ZM162.35 96.875H150.15C150.844 89.1594 153.994 84.375 156.25 84.375C158.506 84.375 161.656 89.1594 162.35 96.875ZM156.25 115.625C153.994 115.625 150.844 110.838 150.15 103.125H162.35C161.656 110.838 158.506 115.625 156.25 115.625ZM146.137 86.8625C144.953 89.7062 144.166 93.1062 143.881 96.875H137.878C138.903 92.6844 141.956 89.1062 146.137 86.8625ZM137.878 103.125H143.881C144.166 106.894 144.953 110.294 146.137 113.137C141.956 110.894 138.903 107.319 137.878 103.125ZM166.362 113.137C167.547 110.294 168.334 106.894 168.619 103.125H174.622C173.597 107.319 170.544 110.894 166.362 113.137ZM174.622 96.875H168.619C168.334 93.1062 167.547 89.7062 166.362 86.8625C170.544 89.1062 173.597 92.6844 174.622 96.875Z" fill="white"/>
</svg>
