<svg width="557" height="290" viewBox="0 0 557 290" fill="none" xmlns="http://www.w3.org/2000/svg">
<path d="M0 1H87" stroke="#51E898"/>
<path d="M10 7H97" stroke="#51E898"/>
<path d="M10 13H97" stroke="#51E898"/>
<path d="M20 19H107" stroke="#51E898"/>
<path d="M30 25H117" stroke="#51E898"/>
<path d="M40 31H127" stroke="#51E898"/>
<path d="M50 37H137" stroke="#51E898"/>
<path d="M60 43H147" stroke="#51E898"/>
<path d="M70 49H157" stroke="#51E898"/>
<path d="M80 55H167" stroke="#51E898"/>
<path d="M90 61H177" stroke="#51E898"/>
<path d="M100 67H187" stroke="#51E898"/>
<path d="M110 73H197" stroke="#51E898"/>
<path d="M120 79H207" stroke="#51E898"/>
<path d="M130 85H217" stroke="#51E898"/>
<path d="M140 91H227" stroke="#51E898"/>
<path d="M150 97H237" stroke="#51E898"/>
<path d="M160 103H247" stroke="#51E898"/>
<path d="M170 109H257" stroke="#51E898"/>
<path d="M180 115H267" stroke="#51E898"/>
<path d="M190 121H277" stroke="#51E898"/>
<path d="M200 127H287" stroke="#51E898"/>
<path d="M210 133H297" stroke="#51E898"/>
<path d="M220 139H307" stroke="#51E898"/>
<path d="M230 145H317" stroke="#51E898"/>
<path d="M240 151H327" stroke="#51E898"/>
<path d="M250 157H337" stroke="#51E898"/>
<path d="M260 163H347" stroke="#51E898"/>
<path d="M270 169H357" stroke="#51E898"/>
<path d="M280 175H367" stroke="#51E898"/>
<path d="M290 181H377" stroke="#51E898"/>
<path d="M300 187H387" stroke="#51E898"/>
<path d="M310 193H397" stroke="#51E898"/>
<path d="M320 199H407" stroke="#51E898"/>
<path d="M330 205H417" stroke="#51E898"/>
<path d="M340 211H427" stroke="#51E898"/>
<path d="M350 217H437" stroke="#51E898"/>
<path d="M360 223H447" stroke="#51E898"/>
<path d="M370 229H457" stroke="#51E898"/>
<path d="M380 235H467" stroke="#51E898"/>
<path d="M390 241H477" stroke="#51E898"/>
<path d="M400 247H487" stroke="#51E898"/>
<path d="M410 253H497" stroke="#51E898"/>
<path d="M420 259H507" stroke="#51E898"/>
<path d="M430 265H517" stroke="#51E898"/>
<path d="M440 271H527" stroke="#51E898"/>
<path d="M450 277H537" stroke="#51E898"/>
<path d="M460 283H547" stroke="#51E898"/>
<path d="M470 289H557" stroke="#51E898"/>
</svg>
