<svg width="206" height="41" viewBox="0 0 206 41" fill="none" xmlns="http://www.w3.org/2000/svg">
<path d="M32.0725 22.2556C34.3953 22.026 36.7315 20.2029 37.7039 18.1232C39.9321 13.3427 36.583 8.06246 31.4108 7.75185C26.2386 7.44125 20.2562 7.99493 14.8004 7.75185C13.8956 7.63032 12.9909 7.45476 12.1401 7.11715C8.93954 5.90175 7.23799 2.93079 5.00977 0.540513L31.816 0.5C40.8234 0.986158 47.238 9.29136 45.3338 18.1772C44.4696 22.2286 41.8767 25.5912 38.3251 27.6573C38.271 27.6843 38.217 27.6438 38.244 27.7654L49.1826 40.4595C47.0624 40.3379 44.7261 40.662 42.633 40.3785C40.5398 40.0949 38.4871 39.0145 37.0151 37.4885L23.8619 22.2556H32.0725Z" fill="white"/>
<path d="M30.3307 18.7039H15.962L34.7466 40.4325C32.856 40.419 30.8573 40.5675 28.9802 40.473C26.833 40.3514 24.7534 39.4871 23.1463 38.0692C15.6109 29.3454 7.85938 20.7836 0.431967 11.9787C0.377949 11.9112 -0.0406865 11.425 -0.000173369 11.3845H20.0808C22.6332 11.5196 24.9154 12.5864 26.671 14.4095C27.7648 15.5574 29.2773 17.2454 30.2361 18.5013C30.2902 18.5689 30.3577 18.5824 30.3307 18.7039Z" fill="white"/>
<path d="M60.6748 20.4595V17.448H63.3082V13.0861H67.0084V17.448H70.7761V20.4595H67.0084V27.4548C67.0084 28.13 67.1299 28.6837 67.373 29.1158C67.616 29.5614 68.1562 29.7775 68.9935 29.7775C69.2501 29.7775 69.5202 29.7505 69.8038 29.6965C70.1009 29.6425 70.3574 29.5614 70.587 29.4669L70.7086 32.4109C70.3709 32.5324 69.9793 32.6404 69.5202 32.708C69.061 32.7755 68.6154 32.816 68.1967 32.816C67.1974 32.816 66.3736 32.681 65.7524 32.3974C65.1312 32.1138 64.6316 31.7221 64.267 31.236C63.9023 30.7498 63.6458 30.1826 63.5107 29.5479C63.3757 28.9132 63.3082 28.2245 63.3082 27.4953V20.473H60.6748V20.4595Z" fill="white"/>
<path d="M73.5039 17.4615H77.1096V19.9733H77.1771C77.5957 19.0955 78.1764 18.3798 78.9327 17.8396C79.6889 17.2995 80.5667 17.0294 81.566 17.0294C81.7146 17.0294 81.8631 17.0294 82.0387 17.0429C82.2142 17.0564 82.3493 17.0834 82.4843 17.1239V20.581C82.2277 20.5135 82.0252 20.473 81.8361 20.4595C81.6606 20.4325 81.485 20.4325 81.3229 20.4325C80.4722 20.4325 79.7699 20.5945 79.2568 20.9051C78.7301 21.2157 78.325 21.5939 78.0279 22.0395C77.7308 22.4851 77.5417 22.9308 77.4337 23.3899C77.3256 23.8491 77.2716 24.2137 77.2716 24.4838V32.5459H73.5039V17.4885V17.4615Z" fill="white"/>
<path d="M93.8687 30.6013H93.7742C93.3961 31.2765 92.7884 31.8167 91.9511 32.2488C91.1138 32.681 90.1685 32.897 89.1017 32.897C88.494 32.897 87.8593 32.816 87.1976 32.6675C86.5359 32.5189 85.9282 32.2488 85.3745 31.8842C84.8208 31.5196 84.3617 31.0334 83.997 30.4392C83.6324 29.845 83.4434 29.1023 83.4434 28.2245C83.4434 27.0901 83.7675 26.1989 84.4022 25.5236C85.0369 24.8484 85.8606 24.3352 86.86 23.9841C87.8593 23.633 88.9802 23.3899 90.1956 23.2819C91.4245 23.1739 92.6128 23.1063 93.7877 23.1063V22.7282C93.7877 21.7829 93.4501 21.0942 92.7749 20.6485C92.0997 20.2029 91.2894 19.9733 90.3441 19.9733C89.5473 19.9733 88.7911 20.1354 88.0483 20.473C87.3191 20.8106 86.7114 21.2157 86.2253 21.7019L84.2806 19.4061C85.1314 18.6094 86.1307 18.0152 87.2516 17.6236C88.3725 17.2319 89.5068 17.0294 90.6547 17.0294C91.9916 17.0294 93.099 17.2184 93.9633 17.5966C94.8276 17.9747 95.5163 18.4608 96.0159 19.0685C96.5156 19.6762 96.8667 20.3515 97.0693 21.1077C97.2718 21.8639 97.3664 22.6202 97.3664 23.3629V32.5189H93.8552V30.6013H93.8687ZM93.8012 25.6452H92.9504C92.3428 25.6452 91.708 25.6722 91.0328 25.7262C90.3576 25.7802 89.7499 25.8883 89.1827 26.0773C88.6155 26.2529 88.1429 26.5095 87.7648 26.8336C87.3866 27.1577 87.1976 27.6033 87.1976 28.1705C87.1976 28.5216 87.2786 28.8187 87.4271 29.0618C87.5757 29.3049 87.7918 29.4939 88.0349 29.6425C88.2914 29.791 88.5615 29.8991 88.8856 29.9531C89.1962 30.0206 89.5068 30.0476 89.8309 30.0476C91.1273 30.0476 92.1132 29.6965 92.7749 29.0078C93.4501 28.319 93.7742 27.3737 93.7742 26.1853V25.6587L93.8012 25.6452Z" fill="white"/>
<path d="M101.769 17.4615H105.347V19.8788H105.415C105.752 19.1226 106.333 18.4608 107.157 17.8937C107.981 17.313 108.966 17.0294 110.087 17.0294C111.073 17.0294 111.91 17.2049 112.613 17.5425C113.315 17.8937 113.882 18.3393 114.341 18.9065C114.8 19.4737 115.124 20.1219 115.327 20.8511C115.53 21.5804 115.638 22.3366 115.638 23.1064V32.5189H111.87V24.1732C111.87 23.7276 111.843 23.2684 111.775 22.7958C111.708 22.3096 111.573 21.8775 111.37 21.4993C111.154 21.1077 110.871 20.7971 110.506 20.5405C110.141 20.2839 109.655 20.1624 109.047 20.1624C108.44 20.1624 107.913 20.2839 107.481 20.527C107.035 20.7701 106.684 21.0807 106.401 21.4588C106.117 21.8369 105.901 22.2691 105.752 22.7552C105.604 23.2414 105.536 23.7411 105.536 24.2407V32.5189H101.769V17.4615Z" fill="white"/>
<path d="M128.277 21.4723C127.94 21.0267 127.48 20.6485 126.9 20.3244C126.306 20.0003 125.671 19.8383 124.982 19.8383C124.374 19.8383 123.821 19.9598 123.321 20.2164C122.821 20.473 122.565 20.8916 122.565 21.4723C122.565 22.053 122.848 22.4716 123.402 22.7147C123.956 22.9578 124.766 23.2009 125.833 23.4575C126.4 23.579 126.967 23.7546 127.548 23.9571C128.129 24.1597 128.642 24.4433 129.115 24.7944C129.587 25.1455 129.965 25.5641 130.262 26.0773C130.559 26.5905 130.708 27.2117 130.708 27.9409C130.708 28.8592 130.532 29.6425 130.195 30.2772C129.857 30.9119 129.385 31.4386 128.817 31.8302C128.25 32.2218 127.575 32.5189 126.805 32.6945C126.036 32.87 125.252 32.9645 124.442 32.9645C123.267 32.9645 122.133 32.7485 121.025 32.3163C119.918 31.8842 119 31.2765 118.271 30.4797L120.742 28.157C121.16 28.6972 121.701 29.1563 122.376 29.5074C123.051 29.8585 123.78 30.0341 124.604 30.0341C124.874 30.0341 125.158 30.0071 125.441 29.9396C125.725 29.872 125.982 29.7775 126.225 29.6425C126.468 29.5074 126.657 29.3184 126.805 29.0888C126.954 28.8592 127.021 28.5756 127.021 28.238C127.021 27.6168 126.738 27.1577 126.157 26.8876C125.576 26.6175 124.726 26.3474 123.564 26.0773C122.997 25.9558 122.457 25.7937 121.917 25.5912C121.377 25.3886 120.904 25.132 120.485 24.8079C120.067 24.4838 119.729 24.0787 119.486 23.606C119.243 23.1334 119.108 22.5257 119.108 21.8234C119.108 20.9862 119.283 20.2704 119.621 19.6627C119.972 19.055 120.418 18.5554 120.985 18.1772C121.552 17.7856 122.187 17.502 122.903 17.313C123.618 17.1239 124.347 17.0294 125.104 17.0294C126.184 17.0294 127.251 17.2184 128.291 17.5966C129.331 17.9747 130.141 18.5554 130.749 19.3251L128.304 21.4858L128.277 21.4723Z" fill="white"/>
<path d="M143.308 30.6013H143.214C142.836 31.2765 142.228 31.8167 141.391 32.2488C140.553 32.681 139.608 32.897 138.541 32.897C137.933 32.897 137.299 32.816 136.637 32.6675C135.975 32.5054 135.368 32.2488 134.814 31.8842C134.26 31.5196 133.801 31.0334 133.436 30.4392C133.072 29.845 132.883 29.1023 132.883 28.2245C132.883 27.0901 133.207 26.1989 133.842 25.5236C134.476 24.8484 135.3 24.3352 136.299 23.9841C137.299 23.633 138.42 23.3899 139.635 23.2819C140.864 23.1739 142.052 23.1063 143.227 23.1063V22.7282C143.227 21.7829 142.89 21.0942 142.214 20.6485C141.539 20.2029 140.729 19.9733 139.784 19.9733C138.987 19.9733 138.231 20.1354 137.488 20.473C136.759 20.8106 136.151 21.2157 135.665 21.7019L133.72 19.4061C134.571 18.6094 135.57 18.0152 136.691 17.6236C137.812 17.2319 138.946 17.0294 140.094 17.0294C141.431 17.0294 142.538 17.2184 143.403 17.5966C144.267 17.9747 144.956 18.4608 145.455 19.0685C145.955 19.6762 146.306 20.3515 146.509 21.1077C146.711 21.8639 146.806 22.6202 146.806 23.3629V32.5189H143.295V30.6013H143.308ZM143.241 25.6452H142.39C141.782 25.6452 141.147 25.6722 140.472 25.7262C139.797 25.7802 139.189 25.8883 138.622 26.0773C138.055 26.2529 137.582 26.5095 137.204 26.8336C136.826 27.1577 136.637 27.6033 136.637 28.1705C136.637 28.5216 136.718 28.8187 136.867 29.0618C137.029 29.3049 137.231 29.4939 137.474 29.6425C137.731 29.791 138.014 29.8991 138.325 29.9531C138.636 30.0206 138.946 30.0476 139.27 30.0476C140.567 30.0476 141.553 29.6965 142.214 29.0078C142.89 28.319 143.214 27.3737 143.214 26.1853V25.6587L143.241 25.6452Z" fill="white"/>
<path d="M149.048 20.4595V17.448H151.681V13.0861H155.381V17.448H159.149V20.4595H155.381V27.4548C155.381 28.13 155.503 28.6837 155.746 29.1158C155.989 29.5614 156.529 29.7775 157.367 29.7775C157.623 29.7775 157.893 29.7505 158.177 29.6965C158.474 29.6425 158.73 29.5614 158.96 29.4669L159.082 32.4109C158.744 32.5324 158.352 32.6404 157.893 32.708C157.434 32.7755 156.988 32.816 156.57 32.816C155.57 32.816 154.747 32.681 154.125 32.3974C153.504 32.1138 153.005 31.7221 152.64 31.236C152.275 30.7498 152.019 30.1826 151.884 29.5479C151.749 28.9132 151.681 28.2245 151.681 27.4953V20.473H149.048V20.4595Z" fill="white"/>
<path d="M161.877 17.4615H165.483V19.9733H165.55C165.969 19.0955 166.549 18.3798 167.306 17.8396C168.062 17.2995 168.94 17.0294 169.939 17.0294C170.088 17.0294 170.236 17.0294 170.412 17.0429C170.587 17.0564 170.722 17.0834 170.857 17.1239V20.581C170.601 20.5135 170.398 20.473 170.209 20.4595C170.034 20.4325 169.858 20.4325 169.696 20.4325C168.845 20.4325 168.143 20.5945 167.63 20.9051C167.103 21.2157 166.698 21.5939 166.401 22.0395C166.104 22.4851 165.915 22.9308 165.807 23.3899C165.699 23.8491 165.645 24.2137 165.645 24.4838V32.5459H161.877V17.4885V17.4615Z" fill="white"/>
<path d="M171.843 24.9159C171.843 23.7275 172.059 22.6472 172.491 21.6749C172.923 20.7026 173.504 19.8653 174.233 19.1766C174.962 18.4878 175.827 17.9477 176.839 17.5831C177.839 17.2049 178.906 17.0159 180.04 17.0159C181.174 17.0159 182.241 17.2049 183.24 17.5831C184.24 17.9612 185.118 18.4878 185.847 19.1766C186.576 19.8653 187.157 20.7026 187.589 21.6749C188.021 22.6472 188.237 23.7275 188.237 24.9159C188.237 26.1043 188.021 27.1982 187.589 28.184C187.157 29.1698 186.576 30.0071 185.847 30.7093C185.118 31.4115 184.253 31.9652 183.24 32.3568C182.228 32.7485 181.174 32.951 180.04 32.951C178.906 32.951 177.839 32.7485 176.839 32.3568C175.84 31.9652 174.962 31.4115 174.233 30.7093C173.504 30.0071 172.923 29.1698 172.491 28.184C172.059 27.1982 171.843 26.1178 171.843 24.9159ZM175.678 24.9159C175.678 25.4966 175.773 26.0908 175.948 26.6715C176.124 27.2522 176.394 27.7789 176.745 28.238C177.096 28.6972 177.555 29.0753 178.095 29.3724C178.635 29.6695 179.284 29.818 180.04 29.818C180.796 29.818 181.444 29.6695 181.985 29.3724C182.525 29.0753 182.984 28.6972 183.335 28.238C183.686 27.7789 183.956 27.2522 184.132 26.6715C184.307 26.0908 184.402 25.4966 184.402 24.9159C184.402 24.3352 184.307 23.7546 184.132 23.1739C183.956 22.5932 183.686 22.08 183.335 21.6209C182.984 21.1617 182.525 20.7836 181.985 20.5135C181.444 20.2434 180.796 20.0949 180.04 20.0949C179.284 20.0949 178.635 20.2299 178.095 20.5135C177.555 20.7971 177.096 21.1617 176.745 21.6209C176.394 22.08 176.124 22.5932 175.948 23.1739C175.773 23.7546 175.678 24.3352 175.678 24.9159Z" fill="white"/>
<path d="M191.856 17.4615H195.435V19.8788H195.503C195.84 19.1226 196.421 18.4608 197.245 17.8937C198.068 17.313 199.041 17.0294 200.175 17.0294C201.161 17.0294 201.998 17.2049 202.7 17.5425C203.403 17.8937 203.97 18.3393 204.429 18.9065C204.875 19.4737 205.212 20.1219 205.415 20.8511C205.617 21.5804 205.725 22.3366 205.725 23.1064V32.5189H201.958V24.1732C201.958 23.7276 201.931 23.2684 201.863 22.7958C201.796 22.3096 201.661 21.8775 201.458 21.4993C201.242 21.1077 200.958 20.7971 200.594 20.5405C200.229 20.2839 199.743 20.1624 199.135 20.1624C198.528 20.1624 198.001 20.2839 197.569 20.527C197.123 20.7701 196.772 21.0807 196.488 21.4588C196.205 21.8369 195.989 22.2691 195.84 22.7552C195.692 23.2414 195.624 23.7411 195.624 24.2407V32.5189H191.856V17.4615Z" fill="white"/>
</svg>
